<svg width="207" height="40" viewBox="0 0 207 40" fill="none" xmlns="http://www.w3.org/2000/svg">
<g clip-path="url(#clip0_1049_753)">
<g clip-path="url(#clip1_1049_753)">
<rect width="40" height="40" rx="8" fill="#E73C34"/>
<path d="M39.9959 23.9101L39.994 33.9885C39.994 35.8917 40.1795 36.9957 38.4836 38.7122C36.8197 40.3964 34.9466 40.2183 33.3014 40.2433C34.1852 40.0241 34.9069 39.3925 35.1192 38.5447C35.1255 38.5173 35.1318 38.4899 35.1381 38.4625C35.1381 38.4579 35.1412 38.4518 35.1428 38.4473C35.1538 38.4046 35.1632 38.359 35.1727 38.3133C35.1852 38.254 35.1994 38.1961 35.2104 38.1352C35.223 38.0728 35.234 38.0104 35.245 37.9465C35.256 37.8856 35.267 37.8263 35.2764 37.7654C35.2859 37.7014 35.2937 37.6375 35.3032 37.5736C35.3126 37.5112 35.3189 37.4503 35.3268 37.3864C35.3331 37.3225 35.3393 37.257 35.3441 37.1916C35.3488 37.1276 35.3566 37.0652 35.3598 36.9998C35.3645 36.9328 35.3661 36.8674 35.3692 36.7989C35.3708 36.7334 35.3739 36.6695 35.3755 36.604C35.3755 36.5371 35.3755 36.4686 35.3755 36.4001C35.3755 36.3331 35.3755 36.2677 35.3755 36.1992C35.3739 36.1307 35.3692 36.0607 35.3661 35.9922C35.3629 35.9237 35.3598 35.8552 35.3535 35.7852C35.3488 35.7152 35.3409 35.6451 35.333 35.5736C35.3268 35.5051 35.3205 35.4351 35.3126 35.3651C35.3032 35.2936 35.2922 35.222 35.2827 35.149C35.2733 35.0774 35.2623 35.0074 35.2513 34.9359C35.2387 34.8628 35.2245 34.7882 35.2104 34.7152C35.1978 34.6436 35.1837 34.5721 35.1695 34.499C35.1538 34.4245 35.1349 34.3484 35.1161 34.2738C35.0988 34.2007 35.0815 34.1277 35.0626 34.0546C35.0421 33.9785 35.0201 33.9009 34.9981 33.8248C34.9777 33.7502 34.9572 33.6771 34.9336 33.601C34.9101 33.5249 34.8818 33.4473 34.8566 33.3697C34.8299 33.2936 34.8063 33.2175 34.7795 33.1414C34.7512 33.0622 34.7198 32.9815 34.6883 32.9024C34.6585 32.8263 34.6302 32.7487 34.6003 32.6726C34.5673 32.5919 34.5311 32.5097 34.4965 32.429C34.4619 32.3499 34.4305 32.2723 34.3943 32.1946C34.3581 32.1124 34.3172 32.0318 34.2779 31.9496C34.2402 31.8704 34.2025 31.7898 34.1616 31.7091C34.1191 31.6269 34.0735 31.5432 34.0295 31.4595C33.987 31.3788 33.9462 31.2981 33.9006 31.2175C33.8549 31.1322 33.8031 31.047 33.7543 30.9633C33.7071 30.8811 33.6615 30.8004 33.6128 30.7167C33.5609 30.6315 33.5043 30.5447 33.4493 30.458C33.3974 30.3758 33.3471 30.2921 33.292 30.2099C33.2338 30.1216 33.1709 30.0318 33.1112 29.9435C33.0562 29.8598 33.0011 29.7776 32.9414 29.6939C32.8785 29.6041 32.8093 29.5128 32.7448 29.423C32.6835 29.3393 32.6237 29.2555 32.5593 29.1703C32.4901 29.079 32.4177 28.9861 32.3454 28.8948C32.2794 28.8096 32.2149 28.7259 32.1457 28.6406C32.0702 28.5463 31.9885 28.4519 31.9114 28.3575C31.8406 28.2723 31.7715 28.1886 31.6976 28.1033C31.6158 28.0059 31.5277 27.91 31.4412 27.8126C31.3673 27.7274 31.295 27.6437 31.2164 27.5584C31.1268 27.461 31.0324 27.3606 30.9396 27.2616C30.8594 27.1764 30.7824 27.0912 30.7006 27.0059C30.6047 26.907 30.5041 26.8066 30.4034 26.7061C30.3185 26.6193 30.2368 26.5341 30.1471 26.4458C30.0449 26.3438 29.9348 26.2419 29.8279 26.1399C29.7383 26.0531 29.6502 25.9679 29.5575 25.8796C29.4458 25.7746 29.3263 25.6681 29.2099 25.5615C29.1172 25.4763 29.026 25.391 28.9316 25.3058C28.8074 25.1947 28.6769 25.0836 28.5479 24.9709C28.4536 24.8888 28.3624 24.8081 28.2665 24.7244C28.1312 24.6102 27.9913 24.4945 27.8513 24.3804C27.7539 24.2982 27.6595 24.2191 27.5604 24.1369C27.3953 24.0014 27.2224 23.8659 27.0494 23.7305C26.9708 23.6681 26.8969 23.6072 26.8167 23.5448C26.5635 23.3469 26.3009 23.1475 26.0336 22.9466C25.4958 22.5433 24.6876 22.7213 24.4045 23.3043L20.6495 31.0942L18.1446 28.8415L19.0299 17.8949C19.0299 17.8949 12.7669 12.5981 14.2182 11.2633C15.6696 9.92692 22.0443 14.1126 22.0443 14.1126L33.7748 11.0289L36.6743 12.8949L28.8263 18.1232C28.5071 18.3363 28.5873 18.7899 28.9615 18.9025C33.0876 20.1323 36.6979 21.8386 39.8082 23.8233C39.8664 23.8598 39.9277 23.8888 39.9891 23.9101H39.9959Z" fill="white"/>
</g>
<path d="M66.5433 9.1615C66.5433 9.30167 66.4807 9.37184 66.3554 9.37184C66.1586 9.37184 65.9796 9.03005 65.8186 8.34648C65.4965 6.99693 65.0491 6.07674 64.4766 5.58592C63.9041 5.0951 62.9916 4.84977 61.739 4.84977C61.2559 4.84977 60.8354 4.86735 60.4775 4.90235L60.5044 20.8873C60.5223 21.3256 60.6475 21.6059 60.8801 21.7286C61.1128 21.8514 61.739 21.9566 62.7589 22.0441C62.9557 22.0617 63.0541 22.1406 63.0541 22.2808C63.0541 22.4561 62.911 22.5437 62.6247 22.5437C62.571 22.5437 62.4368 22.535 62.2221 22.5174C61.9537 22.4998 61.7301 22.4911 61.5511 22.4911L58.7867 22.4122L54.2239 22.4911C53.9735 22.4911 53.8482 22.4209 53.8482 22.2808C53.8482 22.1756 53.8839 22.1143 53.9556 22.0967C54.0272 22.0791 54.3224 22.0617 54.8413 22.0441C55.8254 22.0091 56.3532 21.7812 56.4248 21.3606C56.4605 21.1327 56.4785 19.3537 56.4785 16.0235V4.90235C56.2817 4.88477 56.049 4.87606 55.7806 4.87606C54.3493 4.87606 53.3025 5.13897 52.6404 5.66479C51.9963 6.17303 51.5757 7.08451 51.379 8.39906C51.2537 9.17021 51.0926 9.55587 50.8959 9.55587C50.7348 9.55587 50.6543 9.45071 50.6543 9.24038C50.6543 9.10021 50.69 8.6181 50.7617 7.79437C50.9047 6.07674 50.9943 4.90235 51.03 4.27136H51.4326L53.3919 4.24507C53.4456 4.24507 54.0629 4.26266 55.2438 4.29766C56.4427 4.33266 57.9635 4.35024 59.8066 4.35024C60.8265 4.35024 61.739 4.34153 62.5442 4.32395C63.3494 4.30636 64.0829 4.29766 64.745 4.29766C65.3355 4.29766 65.7829 4.28007 66.087 4.24507C66.1407 5.3843 66.2749 6.83918 66.4896 8.60939C66.5253 8.9073 66.5433 9.09134 66.5433 9.1615ZM82.028 22.3859C82.028 22.4911 81.9475 22.5437 81.7864 22.5437C81.8044 22.5437 81.6254 22.5437 81.2496 22.5437C80.8739 22.5261 80.5607 22.5174 80.3102 22.5174H79.6393C78.1005 22.5174 77.1521 22.4998 76.7943 22.4648H76.3648L75.7207 22.4911C75.488 22.5087 75.3718 22.4472 75.3718 22.307C75.3718 22.2019 75.4166 22.1493 75.506 22.1493L76.1233 22.1756C76.517 22.1932 76.7406 22.088 76.7943 21.8601C76.83 21.7199 76.848 20.8435 76.848 19.231V15.3136C76.848 13.6836 76.7674 12.7195 76.6064 12.4216C76.3737 11.9659 75.9265 11.738 75.2644 11.738C74.5666 11.738 74.0298 12.0448 73.6541 12.6582C73.4751 12.9561 73.3857 13.596 73.3857 14.5775V18.7052C73.3857 19.9847 73.3945 20.6857 73.4125 20.8085V21.1239L73.3857 21.7549C73.3677 22.0178 73.7435 22.1493 74.5129 22.1493C74.674 22.1493 74.7545 22.2019 74.7545 22.307C74.7545 22.4298 74.6382 22.4911 74.4056 22.4911C74.4056 22.4911 74.3339 22.4911 74.1908 22.4911C74.0478 22.4735 73.833 22.4648 73.5467 22.4648H72.3658L70.8628 22.4911L69.2792 22.5437H68.474C68.2056 22.5437 68.0714 22.4911 68.0714 22.3859C68.0714 22.3333 68.0894 22.2983 68.1251 22.2808C68.1609 22.2632 68.2414 22.2545 68.3667 22.2545C69.0466 22.2545 69.4492 22.2282 69.5745 22.1756C69.6998 22.123 69.7803 21.9214 69.816 21.5709C69.834 21.3606 69.8429 20.3089 69.8429 18.416V8.76714C69.8429 6.87418 69.7981 5.78754 69.7087 5.50705C69.637 5.20914 69.2613 5.0601 68.5814 5.0601C68.0626 5.0601 67.8031 5.00752 67.8031 4.90235C67.8031 4.79719 68.1072 4.72702 68.7156 4.69202C70.0933 4.60444 71.3906 4.37653 72.6073 4.00845C72.84 3.93829 73.0099 3.90329 73.1173 3.90329C73.2603 3.90329 73.332 4.39411 73.332 5.37559V5.90141C73.332 6.2519 73.332 6.71643 73.332 7.29484C73.314 7.85566 73.3051 8.24132 73.3051 8.45165V12.6319C73.824 11.9134 74.325 11.4225 74.8082 11.1596C75.3092 10.8967 75.9802 10.7653 76.8211 10.7653C78.5925 10.7653 79.7018 11.4664 80.1492 12.8685C80.3103 13.3242 80.3908 14.0604 80.3908 15.077V21.2028C80.3908 21.6585 80.4624 21.939 80.6055 22.0441C80.7665 22.1493 81.1512 22.2019 81.7596 22.2019C81.9386 22.2019 82.028 22.2632 82.028 22.3859ZM94.9145 19.2573C94.9145 19.6429 94.6819 20.1512 94.2166 20.7822C93.2147 22.1317 91.9084 22.8066 90.2981 22.8066C88.4909 22.8066 87.0059 22.2458 85.8427 21.1239C84.6797 20.0021 84.0981 18.565 84.0981 16.8122C84.0981 15.0946 84.6618 13.666 85.789 12.5268C86.9163 11.37 88.321 10.7916 90.0028 10.7916C91.148 10.7916 92.1231 11.0369 92.9283 11.5277C93.8231 12.0711 94.4045 12.851 94.6729 13.8676C94.7445 14.1831 94.7982 14.5599 94.8339 14.9981C94.4224 15.0331 92.7673 15.0594 89.8686 15.077C89.4214 15.077 88.8578 15.0946 88.1777 15.1296C88.1241 15.7606 88.0972 16.2951 88.0972 16.7333C88.0972 18.784 88.5357 20.2388 89.4124 21.0977C89.9314 21.6059 90.5665 21.8601 91.318 21.8601C91.9443 21.8601 92.5437 21.6498 93.1162 21.2291C93.7067 20.8085 94.154 20.265 94.4582 19.5991C94.6014 19.266 94.7177 19.0995 94.8071 19.0995C94.8787 19.0995 94.9145 19.1521 94.9145 19.2573ZM91.5327 14.6826C91.5506 13.3331 91.4522 12.3953 91.2374 11.8695C91.0227 11.3437 90.647 11.0808 90.1102 11.0808C89.0188 11.0808 88.3925 12.2814 88.2314 14.6826C88.6072 14.665 89.3946 14.6563 90.5933 14.6563C90.9513 14.6563 91.2643 14.665 91.5327 14.6826ZM114.663 17.2854C114.663 18.8805 114.081 20.2038 112.918 21.2554C111.773 22.2895 110.306 22.8066 108.517 22.8066C107.425 22.8066 105.922 22.4472 104.008 21.7286C103.864 21.6761 103.739 21.6498 103.632 21.6498C103.328 21.6498 103.095 21.9653 102.934 22.5962C102.88 22.789 102.809 22.8854 102.719 22.8854C102.576 22.8854 102.505 22.7627 102.505 22.5174C102.505 22.2895 102.549 21.8864 102.639 21.308C102.71 20.8347 102.746 20.2826 102.746 19.6516C102.746 19.1434 102.737 18.7402 102.719 18.4423C102.683 17.8463 102.666 17.4958 102.666 17.3906C102.666 17.1101 102.755 16.97 102.934 16.97C103.113 16.97 103.274 17.3467 103.417 18.1005C103.668 19.3974 104.231 20.4054 105.108 21.1239C106.056 21.8951 107.076 22.2808 108.168 22.2808C109.134 22.2808 109.948 21.9828 110.61 21.3869C111.272 20.7909 111.603 20.0636 111.603 19.2047C111.603 18.4685 111.389 17.8814 110.959 17.4432C110.637 17.1277 109.599 16.5054 107.846 15.5765C105.895 14.5599 104.571 13.5434 103.873 12.5268C103.229 11.5979 102.907 10.4936 102.907 9.21409C102.907 7.70679 103.453 6.46223 104.544 5.48075C105.636 4.48169 107.014 3.98216 108.678 3.98216C109.572 3.98216 110.53 4.19249 111.55 4.61315C111.889 4.75331 112.131 4.82348 112.274 4.82348C112.543 4.82348 112.721 4.59557 112.811 4.13991C112.847 3.98216 112.927 3.90329 113.053 3.90329C113.231 3.90329 113.321 4.01716 113.321 4.24507C113.321 4.33266 113.303 4.57815 113.267 4.98122C113.231 5.3843 113.214 5.71737 113.214 5.98028C113.214 6.89176 113.249 7.66291 113.321 8.2939C113.339 8.34648 113.348 8.41665 113.348 8.50423C113.348 8.66197 113.276 8.74085 113.133 8.74085C112.972 8.74085 112.811 8.46036 112.65 7.89953C112.489 7.33871 112.203 6.7866 111.791 6.2432C111.397 5.68237 110.995 5.27913 110.583 5.03381C110.047 4.71831 109.42 4.56057 108.705 4.56057C107.702 4.56057 106.906 4.79719 106.316 5.27043C105.725 5.74367 105.43 6.39223 105.43 7.21597C105.43 7.93453 105.707 8.57439 106.262 9.13522C106.817 9.67862 107.881 10.3796 109.456 11.2385C111.389 12.2901 112.668 13.1315 113.294 13.7624C114.207 14.6913 114.663 15.8657 114.663 17.2854ZM131.574 22.307C131.574 22.4298 131.243 22.4911 130.581 22.4911H130.125C129.785 22.4911 129.32 22.4824 128.729 22.4648C128.157 22.4472 127.602 22.4385 127.065 22.4385C126.403 22.4385 125.902 22.4472 125.562 22.4648C125.222 22.4824 124.981 22.4911 124.838 22.4911C124.587 22.4911 124.462 22.4298 124.462 22.307C124.462 22.1843 124.703 22.1143 125.187 22.0967C125.491 22.0791 125.643 21.9828 125.643 21.8075C125.643 21.6322 125.267 20.9486 124.516 19.7568C124.301 19.4413 123.988 18.9505 123.576 18.2845C123.29 17.7937 122.878 17.154 122.342 16.3653V20.2563C122.342 21.1852 122.368 21.7286 122.422 21.8864C122.494 22.0441 122.699 22.123 123.039 22.123C123.147 22.123 123.236 22.1143 123.308 22.0967H123.522C123.701 22.0967 123.791 22.1669 123.791 22.307C123.791 22.4472 123.692 22.5174 123.496 22.5174H123.388L122.69 22.4911H121.805L120.141 22.4648H117.537C117.448 22.4824 117.349 22.4911 117.242 22.4911C117.045 22.4911 116.947 22.4298 116.947 22.307C116.947 22.1843 117.179 22.1143 117.645 22.0967C118.235 22.0791 118.566 22.0266 118.638 21.939C118.727 21.8514 118.772 21.4131 118.772 20.6244L118.745 6.76902C118.745 6.08545 118.665 5.66479 118.504 5.50705C118.36 5.3493 117.958 5.27913 117.296 5.29672C116.956 5.29672 116.786 5.23543 116.786 5.11268C116.786 5.00752 116.822 4.94622 116.893 4.92864C116.965 4.91106 117.224 4.89364 117.671 4.87606C119.479 4.8059 120.749 4.57815 121.483 4.19249C121.733 4.05233 121.948 3.97345 122.127 3.95587C122.198 4.2012 122.243 4.67444 122.261 5.37559L122.315 8.18874C122.332 9.13521 122.342 10.4585 122.342 12.1587V15.9972C122.628 15.7693 123.093 15.3049 123.737 14.6038C124.006 14.3058 124.408 13.8589 124.945 13.2629C125.804 12.3164 126.233 11.8082 126.233 11.738C126.233 11.6504 126.18 11.5979 126.072 11.5803C125.965 11.5627 125.607 11.5453 124.999 11.5277C124.587 11.5277 124.381 11.4488 124.381 11.2911C124.381 11.1509 124.489 11.0808 124.703 11.0808L126.743 11.1333L128.837 11.0808C129.159 11.0808 129.32 11.1333 129.32 11.2385C129.32 11.3437 128.953 11.4138 128.219 11.4488C127.736 11.4664 127.343 11.6242 127.038 11.9221C126.484 12.4479 125.777 13.184 124.918 14.1305L128.005 18.7052C128.166 18.9681 128.425 19.3624 128.783 19.8883C128.837 19.9584 128.971 20.1512 129.186 20.4667L129.642 21.0977L129.857 21.4131C130.053 21.7111 130.214 21.904 130.34 21.9916C130.465 22.0617 130.698 22.0967 131.038 22.0967C131.395 22.0967 131.574 22.1669 131.574 22.307ZM143.883 11.2648C143.883 11.3875 143.847 11.4664 143.776 11.5014C143.704 11.519 143.453 11.5277 143.024 11.5277C142.541 11.5277 142.255 11.554 142.165 11.6066L142.004 11.8958L141.682 12.816C141.539 13.2366 141.217 14.0866 140.716 15.3662C140.68 15.4714 140.286 16.5493 139.535 18.6C137.764 23.4551 136.618 26.3909 136.099 27.4075C135.455 28.6695 134.632 29.3005 133.63 29.3005C133.058 29.3005 132.592 29.134 132.235 28.8009C131.895 28.4679 131.725 28.0298 131.725 27.4864C131.725 26.6275 132.208 26.1981 133.174 26.1981C133.496 26.1981 133.756 26.3033 133.952 26.5136C134.042 26.6012 134.194 26.8467 134.409 27.2498C134.534 27.4251 134.704 27.5127 134.919 27.5127C135.276 27.5127 135.616 27.2148 135.938 26.6188C136.278 26.0404 136.735 24.9362 137.307 23.3061C137.164 23.0256 136.887 22.4035 136.475 21.4394C135.938 20.1073 135.223 18.3634 134.328 16.2075C134.113 15.6817 133.63 14.5336 132.879 12.7634C132.628 12.1674 132.414 11.8169 132.235 11.7117C132.056 11.589 131.644 11.519 131 11.5014C130.785 11.5014 130.678 11.4312 130.678 11.2911C130.678 11.1509 130.785 11.0808 131 11.0808H131.483C131.751 11.0808 132.154 11.0895 132.691 11.107C133.228 11.1246 133.639 11.1333 133.925 11.1333L137.2 11.107C137.307 11.0895 137.433 11.0808 137.576 11.0808C137.772 11.0808 137.871 11.142 137.871 11.2648C137.871 11.4225 137.602 11.4927 137.066 11.4751C136.529 11.4575 136.261 11.5716 136.261 11.8169C136.261 11.9922 136.332 12.2639 136.475 12.6319C136.672 13.1228 136.779 13.412 136.797 13.4995C137.674 15.8833 138.39 17.6974 138.944 18.9418C140.609 14.7878 141.441 12.4216 141.441 11.8432C141.441 11.6504 141.235 11.554 140.823 11.554C139.964 11.554 139.535 11.4751 139.535 11.3174C139.535 11.1596 139.642 11.0808 139.857 11.0808C140.036 11.0808 140.215 11.0895 140.394 11.107C140.734 11.142 141.199 11.1596 141.789 11.1596C141.861 11.1596 142.12 11.1509 142.568 11.1333C143.033 11.0983 143.337 11.0808 143.48 11.0808H143.641C143.802 11.0808 143.883 11.142 143.883 11.2648ZM153.051 20.7822C153.051 20.9749 152.881 21.2291 152.541 21.5446C151.664 22.3683 150.456 22.7803 148.918 22.7803C147.504 22.7803 146.573 22.4385 146.126 21.7549C145.947 21.492 145.84 21.2467 145.804 21.0188C145.786 20.7909 145.777 20.2038 145.777 19.2573V17.9953C145.777 17.6622 145.777 17.3117 145.777 16.9437C145.759 16.5756 145.75 16.3916 145.75 16.3916V14.0254L145.724 12.1324C145.724 11.8169 145.679 11.6329 145.589 11.5803C145.5 11.5277 145.231 11.5014 144.784 11.5014C144.247 11.5014 143.979 11.4312 143.979 11.2911C143.979 11.1859 144.077 11.1158 144.274 11.0808C145.956 11.0282 147.405 10.1343 148.622 8.39906C148.783 8.15373 148.908 8.03099 148.998 8.03099C149.105 8.03099 149.159 8.15373 149.159 8.39906C149.141 9.90636 149.204 10.7303 149.347 10.8704C149.49 11.0106 149.928 11.0808 150.662 11.0808C151.414 11.0808 151.941 11.0458 152.246 10.9756C152.281 10.958 152.317 10.9493 152.353 10.9493C152.424 10.9493 152.46 11.0019 152.46 11.107C152.46 11.3524 152.344 11.4751 152.111 11.4751C151.378 11.4927 150.564 11.5014 149.669 11.5014C149.597 11.5014 149.472 11.4927 149.293 11.4751V12.0272C149.293 16.7246 149.356 19.4763 149.481 20.2826C149.642 21.2993 150.143 21.8075 150.984 21.8075C151.36 21.8075 151.843 21.5446 152.433 21.0188C152.72 20.7735 152.899 20.6507 152.97 20.6507C153.024 20.6507 153.051 20.6946 153.051 20.7822ZM164.147 12.7108C164.147 13.219 163.994 13.6397 163.69 13.9728C163.385 14.2883 162.993 14.446 162.51 14.446C161.543 14.446 161.06 14.0078 161.06 13.1315C161.06 12.8335 161.176 12.5355 161.409 12.2376C161.463 12.1674 161.49 12.1061 161.49 12.0535C161.49 11.8958 161.372 11.8169 161.141 11.8169C160.532 11.8169 160.067 12.2814 159.745 13.2103C159.566 13.7362 159.477 15.0244 159.477 17.0751V18.9944L159.504 21.308C159.504 21.7812 159.745 22.0354 160.228 22.0704C160.513 22.088 160.854 22.0967 161.248 22.0967C161.444 22.1143 161.543 22.1756 161.543 22.2808C161.543 22.4209 161.463 22.4911 161.302 22.4911H160.765C160.604 22.4735 159.826 22.4648 158.43 22.4648C158.5 22.4648 158.098 22.4735 157.222 22.4911L155.907 22.5174H154.887C154.708 22.535 154.501 22.5437 154.27 22.5437C154.072 22.5437 153.974 22.4824 153.974 22.3596C153.974 22.2369 154.099 22.1756 154.35 22.1756C155.083 22.158 155.521 22.088 155.665 21.9653C155.826 21.8251 155.907 21.4307 155.907 20.7822L155.88 13.6836C155.88 13.0876 155.79 12.6758 155.612 12.4479C155.451 12.22 155.075 12.0798 154.485 12.0272C154.018 11.9922 153.75 11.9659 153.679 11.9484C153.625 11.9308 153.598 11.8695 153.598 11.7643C153.598 11.6592 153.67 11.6066 153.813 11.6066C153.974 11.6066 154.126 11.6153 154.27 11.6329H154.807C156.184 11.6329 157.668 11.3524 159.262 10.7916C159.351 11.142 159.396 11.5453 159.396 12.0009V13.1052C159.735 12.2463 160.102 11.6416 160.497 11.2911C160.908 10.9406 161.436 10.7653 162.08 10.7653C162.687 10.7653 163.181 10.9493 163.556 11.3174C163.949 11.6854 164.147 12.15 164.147 12.7108ZM178.113 21.0714C178.113 21.2115 177.971 21.4044 177.684 21.6498C176.916 22.3333 175.966 22.6751 174.839 22.6751C174.106 22.6751 173.569 22.5261 173.229 22.2282C172.906 21.9303 172.692 21.3956 172.584 20.6244C171.779 22.0617 170.679 22.7803 169.283 22.7803C168.515 22.7803 167.887 22.5437 167.404 22.0704C166.94 21.5972 166.707 20.9838 166.707 20.23C166.707 18.0216 168.639 16.7158 172.504 16.3127V15.7606C172.504 14.0078 172.442 12.9298 172.316 12.5268L172.289 12.3953C172.039 11.519 171.403 11.0808 170.384 11.0808C169.793 11.0808 169.32 11.2472 168.961 11.5803C168.604 11.9134 168.424 12.2376 168.424 12.5531C168.424 12.7284 168.639 12.8335 169.068 12.8685C169.713 12.9211 170.035 13.3068 170.035 14.0254C170.035 14.411 169.9 14.7352 169.632 14.9981C169.382 15.2435 169.052 15.3662 168.639 15.3662C168.121 15.3662 167.691 15.2172 167.351 14.9193C167.029 14.6038 166.868 14.2094 166.868 13.7362C166.868 12.9824 167.253 12.2989 168.022 11.6854C168.792 11.072 169.803 10.7653 171.055 10.7653C172.917 10.7653 174.213 11.0895 174.946 11.738C175.537 12.2814 175.832 13.2279 175.832 14.5775V19.0732C175.832 19.9496 175.842 20.458 175.859 20.5981C175.949 21.3343 176.208 21.7024 176.637 21.7024C176.942 21.7024 177.318 21.492 177.764 21.0714C177.855 20.9838 177.925 20.9399 177.979 20.9399C178.07 20.9399 178.113 20.9838 178.113 21.0714ZM172.504 17.9427V16.6545C170.769 16.9875 169.9 17.9514 169.9 19.5465C169.9 20.7735 170.33 21.3869 171.189 21.3869C171.672 21.3869 172.012 21.1239 172.209 20.5981C172.407 20.0723 172.504 19.1871 172.504 17.9427ZM184.805 5.6385C184.805 6.12932 184.635 6.54998 184.295 6.90047C183.956 7.25097 183.543 7.42629 183.06 7.42629C182.56 7.42629 182.139 7.25984 181.799 6.92676C181.46 6.59369 181.289 6.17303 181.289 5.66479C181.289 5.17397 181.46 4.7709 181.799 4.4554C182.139 4.13991 182.577 3.98216 183.114 3.98216C183.597 3.98216 184 4.13991 184.322 4.4554C184.644 4.7709 184.805 5.16526 184.805 5.6385ZM186.737 22.307C186.737 22.4298 186.657 22.4911 186.496 22.4911L182.926 22.4385L180.349 22.4911C180.242 22.4911 180.108 22.4998 179.947 22.5174C179.804 22.5174 179.724 22.5174 179.705 22.5174C179.491 22.5174 179.383 22.4472 179.383 22.307C179.383 22.2019 179.589 22.1406 180 22.123C180.609 22.1054 180.967 22.0441 181.074 21.939C181.181 21.8162 181.235 21.4657 181.235 20.8873V13.3418C181.235 12.6758 181.173 12.2814 181.047 12.1587C180.94 12.0185 180.591 11.9484 180 11.9484C179.625 11.9484 179.402 11.9397 179.329 11.9221C179.276 11.9045 179.249 11.8432 179.249 11.738C179.249 11.6153 179.383 11.554 179.652 11.554C181.621 11.5364 183.302 11.2385 184.697 10.6601C184.734 10.8704 184.778 11.4488 184.832 12.3953L184.858 15.7343V20.677C184.858 21.3956 184.922 21.8162 185.046 21.939C185.191 22.0617 185.655 22.123 186.442 22.123C186.64 22.123 186.737 22.1843 186.737 22.307ZM195.73 22.2808C195.73 22.4209 195.39 22.4911 194.71 22.4911C194.549 22.4911 194.048 22.4735 193.207 22.4385C192.778 22.4209 192.357 22.4122 191.946 22.4122C191.552 22.4122 190.818 22.4298 189.745 22.4648L188.94 22.4911C188.545 22.5087 188.349 22.4472 188.349 22.307C188.349 22.1669 188.554 22.1054 188.967 22.123C189.592 22.1406 189.95 22.0791 190.04 21.939C190.147 21.7988 190.201 21.273 190.201 20.3615V6.50611C190.201 5.91012 190.137 5.55963 190.013 5.45446C189.887 5.33172 189.52 5.27043 188.913 5.27043C188.465 5.27043 188.242 5.20913 188.242 5.08639C188.242 4.94622 188.473 4.86735 188.94 4.84977C190.943 4.7796 192.58 4.48169 193.851 3.95587C193.833 4.48169 193.824 7.55775 193.824 13.184V19.7305C193.824 20.9223 193.851 21.6235 193.905 21.8338C193.975 22.0266 194.2 22.1143 194.576 22.0967L195.381 22.0704C195.613 22.0704 195.73 22.1406 195.73 22.2808ZM206.176 18.8366C206.176 20.011 205.81 20.9662 205.075 21.7024C204.342 22.4209 203.394 22.7803 202.23 22.7803C201.658 22.7803 200.979 22.6401 200.19 22.3596C199.546 22.1317 199.127 22.0178 198.929 22.0178C198.59 22.0178 198.365 22.1406 198.258 22.3859C198.151 22.6312 198.07 22.754 198.016 22.754C197.909 22.754 197.855 22.6927 197.855 22.57C197.855 22.4648 197.874 22.2983 197.909 22.0704C197.963 21.7374 197.99 21.1589 197.99 20.3352C197.99 20.3002 197.99 20.2125 197.99 20.0723C197.973 19.9321 197.963 19.7392 197.963 19.4939V19.047C197.963 18.8542 198.008 18.7577 198.097 18.7577C198.204 18.7577 198.285 18.8892 198.339 19.1521C198.5 20.081 198.956 20.861 199.707 21.492C200.459 22.1054 201.301 22.4122 202.23 22.4122C202.821 22.4122 203.295 22.2369 203.653 21.8864C204.029 21.5183 204.216 21.0451 204.216 20.4667C204.216 20.011 204.047 19.6254 203.706 19.3099C203.457 19.082 202.786 18.7928 201.693 18.4423C200.352 18.004 199.377 17.4782 198.768 16.8648C198.178 16.2338 197.882 15.4364 197.882 14.4723C197.882 13.4382 198.241 12.5618 198.956 11.8432C199.672 11.1246 200.549 10.7653 201.586 10.7653C201.98 10.7653 202.66 10.888 203.626 11.1333C203.77 11.1683 203.878 11.1859 203.948 11.1859C204.342 11.1859 204.637 10.9493 204.834 10.4761C204.871 10.3885 204.914 10.3446 204.968 10.3446C205.094 10.3446 205.156 10.4498 205.156 10.6601C205.156 10.6601 205.147 10.8266 205.129 11.1596C205.112 11.2298 205.102 11.3524 205.102 11.5277C205.102 12.2463 205.147 12.9824 205.236 13.7362V13.8676C205.236 14.0078 205.183 14.0779 205.075 14.0779C204.986 14.0779 204.914 13.9991 204.861 13.8413C204.342 12.0535 203.287 11.1596 201.693 11.1596C201.103 11.1596 200.612 11.3174 200.217 11.6329C199.842 11.9484 199.654 12.3514 199.654 12.8423C199.654 13.2979 199.815 13.6573 200.137 13.9202C200.459 14.1831 201.086 14.481 202.016 14.8141C203.644 15.3749 204.745 15.9359 205.317 16.4967C205.891 17.0575 206.176 17.8376 206.176 18.8366Z" fill="#071C2C"/>
<path d="M108.655 39.9615C108.086 39.9615 107.601 39.8616 107.198 39.6618C106.795 39.462 106.487 39.1859 106.272 38.8336C106.063 38.4761 105.958 38.0659 105.958 37.6032C105.958 37.1352 106.039 36.7014 106.2 36.3018C106.361 35.8969 106.594 35.5446 106.9 35.2449C107.206 34.9452 107.571 34.7112 107.995 34.5429C108.419 34.3694 108.892 34.2826 109.412 34.2826C109.976 34.2826 110.459 34.3825 110.862 34.5824C111.264 34.7822 111.573 35.0609 111.788 35.4184C112.002 35.7707 112.11 36.1782 112.11 36.6409C112.11 37.1089 112.026 37.5454 111.86 37.9502C111.699 38.3499 111.465 38.6995 111.159 38.9993C110.854 39.299 110.489 39.5356 110.064 39.7091C109.646 39.8774 109.176 39.9615 108.655 39.9615ZM108.744 39.0624C109.098 39.0624 109.418 39.0019 109.702 38.8809C109.987 38.7547 110.228 38.5839 110.427 38.3683C110.631 38.1474 110.786 37.895 110.894 37.6111C111.001 37.3219 111.055 37.0195 111.055 36.704C111.055 36.4043 110.988 36.1388 110.854 35.9074C110.719 35.6761 110.523 35.4973 110.266 35.3711C110.008 35.2449 109.691 35.1818 109.316 35.1818C108.967 35.1818 108.647 35.2449 108.357 35.3711C108.073 35.492 107.829 35.6629 107.625 35.8838C107.426 36.0994 107.273 36.3517 107.166 36.6409C107.064 36.9249 107.013 37.2246 107.013 37.5401C107.013 37.8398 107.077 38.1054 107.206 38.3367C107.34 38.5681 107.536 38.7469 107.794 38.8731C108.051 38.9993 108.368 39.0624 108.744 39.0624ZM116.118 35.6235C116.488 35.6235 116.802 35.6971 117.06 35.8443C117.317 35.9916 117.497 36.2098 117.599 36.499C117.707 36.7829 117.717 37.1326 117.632 37.548L117.156 39.8826H116.15L116.617 37.5717C116.687 37.2299 116.655 36.9643 116.52 36.775C116.386 36.5805 116.142 36.4832 115.788 36.4832C115.417 36.4832 115.111 36.5831 114.87 36.7829C114.628 36.9827 114.464 37.2877 114.379 37.6978L113.928 39.8826H112.921L113.775 35.6708H114.733L114.491 36.8697L114.33 36.4911C114.534 36.1914 114.789 35.9732 115.095 35.8364C115.407 35.6945 115.747 35.6235 116.118 35.6235ZM118.836 39.8826L120.028 34.0302H121.034L120.503 36.6488L120.189 37.7452L120.028 38.739L119.794 39.8826H118.836ZM121.437 39.9378C121.082 39.9378 120.776 39.8774 120.519 39.7564C120.261 39.6302 120.062 39.4462 119.923 39.2043C119.783 38.9625 119.714 38.6627 119.714 38.3052C119.714 37.9108 119.762 37.5506 119.859 37.2246C119.961 36.8933 120.108 36.6094 120.301 36.3728C120.5 36.1309 120.736 35.9469 121.01 35.8207C121.289 35.6892 121.606 35.6235 121.96 35.6235C122.314 35.6235 122.634 35.6971 122.918 35.8443C123.203 35.9863 123.428 36.1966 123.595 36.4753C123.766 36.7487 123.852 37.08 123.852 37.4691C123.852 37.8267 123.79 38.1553 123.667 38.455C123.549 38.7548 123.38 39.015 123.16 39.2359C122.94 39.4567 122.682 39.6302 122.387 39.7564C122.097 39.8774 121.78 39.9378 121.437 39.9378ZM121.356 39.0939C121.646 39.0939 121.901 39.0282 122.121 38.8967C122.341 38.76 122.516 38.5733 122.644 38.3367C122.773 38.1001 122.838 37.8267 122.838 37.5164C122.838 37.1904 122.738 36.9328 122.54 36.7435C122.341 36.5542 122.062 36.4595 121.702 36.4595C121.418 36.4595 121.163 36.5279 120.937 36.6646C120.717 36.7961 120.543 36.9801 120.414 37.2167C120.285 37.4533 120.221 37.7268 120.221 38.037C120.221 38.363 120.32 38.6207 120.519 38.81C120.717 38.9993 120.997 39.0939 121.356 39.0939ZM126.884 39.9378C126.465 39.9378 126.098 39.8616 125.781 39.7091C125.47 39.5514 125.228 39.3358 125.056 39.0624C124.885 38.7837 124.799 38.4577 124.799 38.0843C124.799 37.6111 124.909 37.1904 125.129 36.8224C125.349 36.449 125.649 36.1572 126.031 35.9469C126.417 35.7313 126.857 35.6235 127.351 35.6235C127.775 35.6235 128.143 35.6997 128.454 35.8522C128.771 35.9994 129.015 36.2124 129.187 36.4911C129.359 36.7645 129.445 37.0905 129.445 37.4691C129.445 37.9371 129.335 38.3578 129.114 38.7311C128.894 39.1044 128.591 39.3989 128.205 39.6145C127.823 39.8301 127.383 39.9378 126.884 39.9378ZM126.948 39.0939C127.238 39.0939 127.493 39.0282 127.713 38.8967C127.934 38.76 128.108 38.5733 128.237 38.3367C128.366 38.1001 128.43 37.8267 128.43 37.5164C128.43 37.1904 128.331 36.9328 128.132 36.7435C127.934 36.5542 127.654 36.4595 127.295 36.4595C127.01 36.4595 126.755 36.5279 126.53 36.6646C126.31 36.7961 126.135 36.9801 126.006 37.2167C125.878 37.4533 125.813 37.7268 125.813 38.037C125.813 38.3683 125.912 38.6286 126.111 38.8178C126.31 39.0019 126.589 39.0939 126.948 39.0939ZM132.283 39.9378C131.934 39.9378 131.615 39.8642 131.325 39.717C131.04 39.5698 130.812 39.3594 130.64 39.086C130.474 38.8073 130.391 38.4734 130.391 38.0843C130.391 37.7268 130.45 37.3981 130.568 37.0984C130.691 36.7987 130.863 36.5384 131.083 36.3176C131.303 36.0967 131.558 35.9258 131.848 35.8049C132.143 35.6839 132.466 35.6235 132.814 35.6235C133.174 35.6235 133.483 35.6866 133.74 35.8128C134.003 35.939 134.202 36.1309 134.336 36.3886C134.47 36.6409 134.532 36.9564 134.521 37.335C134.511 37.8556 134.414 38.3131 134.232 38.7074C134.049 39.0965 133.794 39.3989 133.467 39.6145C133.139 39.8301 132.745 39.9378 132.283 39.9378ZM132.541 39.0939C132.831 39.0939 133.086 39.0282 133.306 38.8967C133.526 38.76 133.7 38.5733 133.829 38.3367C133.958 38.1001 134.022 37.8267 134.022 37.5164C134.022 37.1904 133.923 36.9328 133.724 36.7435C133.526 36.5542 133.247 36.4595 132.887 36.4595C132.602 36.4595 132.347 36.5279 132.122 36.6646C131.902 36.7961 131.727 36.9801 131.599 37.2167C131.47 37.4533 131.405 37.7268 131.405 38.037C131.405 38.363 131.505 38.6207 131.703 38.81C131.902 38.9993 132.181 39.0939 132.541 39.0939ZM133.595 39.8826L133.789 38.9204L134.062 37.8004L134.199 36.6725L134.401 35.6708H135.407L134.554 39.8826H133.595ZM136.273 39.8826L137.127 35.6708H138.085L137.843 36.8697L137.755 36.5226C137.953 36.1809 138.206 35.9469 138.512 35.8207C138.818 35.6892 139.191 35.6235 139.631 35.6235L139.446 36.5621C139.403 36.5516 139.362 36.5463 139.325 36.5463C139.287 36.541 139.244 36.5384 139.196 36.5384C138.804 36.5384 138.479 36.6409 138.222 36.846C137.964 37.0458 137.792 37.3666 137.706 37.8083L137.28 39.8826H136.273ZM141.919 39.9378C141.57 39.9378 141.25 39.8642 140.961 39.717C140.671 39.5698 140.443 39.3594 140.276 39.086C140.11 38.8073 140.027 38.4734 140.027 38.0843C140.027 37.7268 140.086 37.3981 140.204 37.0984C140.327 36.7987 140.499 36.5384 140.719 36.3176C140.939 36.0967 141.194 35.9258 141.484 35.8049C141.779 35.6839 142.099 35.6235 142.442 35.6235C142.796 35.6235 143.102 35.6839 143.36 35.8049C143.618 35.9258 143.816 36.1072 143.956 36.3491C144.095 36.591 144.165 36.8907 144.165 37.2483C144.165 37.6426 144.114 38.0055 144.012 38.3367C143.91 38.6627 143.763 38.9467 143.569 39.1886C143.376 39.4252 143.14 39.6092 142.861 39.7407C142.587 39.8721 142.273 39.9378 141.919 39.9378ZM142.176 39.0939C142.461 39.0939 142.713 39.0282 142.933 38.8967C143.159 38.76 143.333 38.5733 143.457 38.3367C143.585 38.1001 143.65 37.8267 143.65 37.5164C143.65 37.1904 143.551 36.9328 143.352 36.7435C143.159 36.5542 142.88 36.4595 142.515 36.4595C142.235 36.4595 141.983 36.5279 141.758 36.6646C141.532 36.7961 141.355 36.9801 141.226 37.2167C141.103 37.4533 141.041 37.7268 141.041 38.037C141.041 38.363 141.138 38.6207 141.331 38.81C141.53 38.9993 141.811 39.0939 142.176 39.0939ZM143.223 39.8826L143.424 38.9204L143.69 37.8004L143.827 36.6725L144.366 34.0302H145.373L144.181 39.8826H143.223ZM150.01 39.8826L150.453 37.6821L150.574 38.3446L148.931 34.3615H149.97L151.282 37.548L150.67 37.5559L153.303 34.3615H154.399L151.145 38.3525L151.5 37.6821L151.049 39.8826H150.01ZM155.908 39.9378C155.489 39.9378 155.122 39.8616 154.805 39.7091C154.494 39.5514 154.253 39.3358 154.08 39.0624C153.909 38.7837 153.823 38.4577 153.823 38.0843C153.823 37.6111 153.933 37.1904 154.154 36.8224C154.373 36.449 154.674 36.1572 155.054 35.9469C155.442 35.7313 155.881 35.6235 156.375 35.6235C156.799 35.6235 157.166 35.6997 157.478 35.8522C157.795 35.9994 158.039 36.2124 158.211 36.4911C158.383 36.7645 158.468 37.0905 158.468 37.4691C158.468 37.9371 158.359 38.3578 158.139 38.7311C157.918 39.1044 157.616 39.3989 157.228 39.6145C156.848 39.8301 156.408 39.9378 155.908 39.9378ZM155.972 39.0939C156.262 39.0939 156.517 39.0282 156.737 38.8967C156.958 38.76 157.133 38.5733 157.26 38.3367C157.39 38.1001 157.455 37.8267 157.455 37.5164C157.455 37.1904 157.354 36.9328 157.156 36.7435C156.958 36.5542 156.678 36.4595 156.319 36.4595C156.034 36.4595 155.779 36.5279 155.554 36.6646C155.335 36.7961 155.16 36.9801 155.031 37.2167C154.902 37.4533 154.838 37.7268 154.838 38.037C154.838 38.3683 154.937 38.6286 155.135 38.8178C155.335 39.0019 155.613 39.0939 155.972 39.0939ZM161.219 39.9378C160.859 39.9378 160.55 39.8642 160.293 39.717C160.04 39.5645 159.86 39.3463 159.753 39.0624C159.646 38.7732 159.636 38.4209 159.721 38.0055L160.196 35.6708H161.202L160.728 37.9818C160.664 38.3236 160.696 38.5917 160.825 38.7863C160.959 38.9756 161.201 39.0702 161.55 39.0702C161.909 39.0702 162.209 38.9703 162.45 38.7705C162.697 38.5707 162.861 38.2657 162.942 37.8556L163.393 35.6708H164.391L163.537 39.8826H162.58L162.821 38.6838L162.982 39.0624C162.778 39.3621 162.521 39.5829 162.209 39.7249C161.904 39.8669 161.573 39.9378 161.219 39.9378ZM165.258 39.8826L166.112 35.6708H167.07L166.829 36.8697L166.74 36.5226C166.938 36.1809 167.191 35.9469 167.496 35.8207C167.803 35.6892 168.176 35.6235 168.615 35.6235L168.431 36.5621C168.387 36.5516 168.347 36.5463 168.31 36.5463C168.273 36.541 168.229 36.5384 168.181 36.5384C167.79 36.5384 167.464 36.6409 167.206 36.846C166.949 37.0458 166.777 37.3666 166.691 37.8083L166.265 39.8826H165.258ZM171.767 39.8826L172.894 34.3615H175.172C175.746 34.3615 176.238 34.4562 176.645 34.6455C177.054 34.8295 177.365 35.0924 177.58 35.4342C177.799 35.776 177.91 36.1782 177.91 36.6409C177.91 37.13 177.824 37.5743 177.652 37.9739C177.486 38.3735 177.247 38.7153 176.935 38.9993C176.63 39.2779 176.263 39.4962 175.833 39.6539C175.404 39.8064 174.926 39.8826 174.399 39.8826H171.767ZM172.99 39.015H174.431C174.936 39.015 175.369 38.9151 175.728 38.7153C176.093 38.5102 176.372 38.2342 176.565 37.8871C176.759 37.5401 176.855 37.1457 176.855 36.704C176.855 36.4043 176.788 36.144 176.654 35.9232C176.519 35.7024 176.318 35.5315 176.05 35.4105C175.786 35.2896 175.458 35.2291 175.06 35.2291H173.763L172.99 39.015ZM178.725 39.8826L179.577 35.6708H180.537L180.295 36.8697L180.206 36.5226C180.404 36.1809 180.658 35.9469 180.963 35.8207C181.268 35.6892 181.642 35.6235 182.082 35.6235L181.897 36.5621C181.854 36.5516 181.813 36.5463 181.777 36.5463C181.738 36.541 181.696 36.5384 181.647 36.5384C181.255 36.5384 180.931 36.6409 180.673 36.846C180.416 37.0458 180.243 37.3666 180.158 37.8083L179.732 39.8826H178.725ZM184.588 39.9378C184.159 39.9378 183.784 39.8616 183.469 39.7091C183.152 39.5514 182.905 39.3358 182.728 39.0624C182.557 38.7837 182.469 38.4577 182.469 38.0843C182.469 37.6058 182.577 37.1825 182.791 36.8145C183.006 36.4464 183.3 36.1572 183.67 35.9469C184.046 35.7313 184.472 35.6235 184.95 35.6235C185.353 35.6235 185.702 35.6971 185.997 35.8443C186.292 35.9916 186.52 36.2045 186.681 36.4832C186.848 36.7566 186.931 37.0853 186.931 37.4691C186.931 37.569 186.925 37.6716 186.915 37.7767C186.905 37.8819 186.888 37.9792 186.866 38.0686H183.219L183.332 37.4139H186.391L185.98 37.6348C186.024 37.3666 186.005 37.1431 185.925 36.9643C185.844 36.7855 185.715 36.6488 185.537 36.5542C185.361 36.4595 185.148 36.4122 184.902 36.4122C184.606 36.4122 184.348 36.4806 184.128 36.6173C183.914 36.7487 183.748 36.938 183.63 37.1852C183.511 37.4271 183.452 37.711 183.452 38.037C183.452 38.3788 183.551 38.6417 183.751 38.8257C183.954 39.0098 184.268 39.1018 184.692 39.1018C184.934 39.1018 185.165 39.065 185.385 38.9914C185.605 38.9125 185.787 38.8047 185.932 38.668L186.351 39.3542C186.126 39.5487 185.858 39.696 185.546 39.7959C185.241 39.8905 184.92 39.9378 184.588 39.9378ZM189.75 39.9378C189.401 39.9378 189.082 39.8642 188.792 39.717C188.507 39.5698 188.278 39.3594 188.107 39.086C187.941 38.8073 187.857 38.4734 187.857 38.0843C187.857 37.7268 187.916 37.3981 188.035 37.0984C188.158 36.7987 188.33 36.5384 188.55 36.3176C188.77 36.0967 189.025 35.9258 189.315 35.8049C189.61 35.6839 189.932 35.6235 190.281 35.6235C190.64 35.6235 190.949 35.6866 191.207 35.8128C191.471 35.939 191.669 36.1309 191.803 36.3886C191.937 36.6409 191.999 36.9564 191.989 37.335C191.977 37.8556 191.882 38.3131 191.699 38.7074C191.516 39.0965 191.261 39.3989 190.934 39.6145C190.607 39.8301 190.211 39.9378 189.75 39.9378ZM190.008 39.0939C190.298 39.0939 190.553 39.0282 190.773 38.8967C190.993 38.76 191.167 38.5733 191.296 38.3367C191.425 38.1001 191.489 37.8267 191.489 37.5164C191.489 37.1904 191.39 36.9328 191.19 36.7435C190.993 36.5542 190.714 36.4595 190.353 36.4595C190.07 36.4595 189.815 36.5279 189.588 36.6646C189.369 36.7961 189.194 36.9801 189.065 37.2167C188.936 37.4533 188.872 37.7268 188.872 38.037C188.872 38.363 188.971 38.6207 189.171 38.81C189.369 38.9993 189.647 39.0939 190.008 39.0939ZM191.063 39.8826L191.256 38.9204L191.529 37.8004L191.667 36.6725L191.868 35.6708H192.875L192.021 39.8826H191.063ZM199.908 35.6235C200.284 35.6235 200.598 35.6971 200.849 35.8443C201.103 35.9916 201.279 36.2098 201.381 36.499C201.483 36.7829 201.492 37.1326 201.405 37.548L200.93 39.8826H199.923L200.398 37.5717C200.469 37.2246 200.438 36.9564 200.311 36.7671C200.182 36.5778 199.949 36.4832 199.61 36.4832C199.261 36.4832 198.974 36.5831 198.747 36.7829C198.528 36.9775 198.375 37.2798 198.29 37.69L197.838 39.8826H196.832L197.307 37.5717C197.377 37.2246 197.347 36.9564 197.218 36.7671C197.09 36.5778 196.855 36.4832 196.518 36.4832C196.169 36.4832 195.882 36.5831 195.656 36.7829C195.436 36.9775 195.284 37.2825 195.198 37.6978L194.747 39.8826H193.74L194.594 35.6708H195.552L195.319 36.8302L195.149 36.4911C195.347 36.1914 195.594 35.9732 195.889 35.8364C196.191 35.6945 196.518 35.6235 196.872 35.6235C197.151 35.6235 197.399 35.6708 197.613 35.7655C197.828 35.8548 197.999 35.9942 198.128 36.1835C198.263 36.3675 198.34 36.5963 198.362 36.8697L197.879 36.7671C198.098 36.3886 198.38 36.1046 198.724 35.9153C199.073 35.7208 199.467 35.6235 199.908 35.6235ZM204.085 39.9378C203.709 39.9378 203.357 39.8932 203.03 39.8038C202.703 39.7144 202.45 39.6066 202.274 39.4804L202.691 38.7232C202.869 38.8441 203.089 38.944 203.352 39.0229C203.621 39.0965 203.899 39.1333 204.189 39.1333C204.521 39.1333 204.766 39.0886 204.922 38.9993C205.083 38.9099 205.164 38.7863 205.164 38.6286C205.164 38.5129 205.107 38.4261 204.994 38.3683C204.882 38.3104 204.736 38.2631 204.56 38.2263C204.387 38.1895 204.199 38.1501 203.996 38.108C203.797 38.0659 203.609 38.0081 203.433 37.9345C203.26 37.8609 203.119 37.7531 203.005 37.6111C202.892 37.4691 202.837 37.2798 202.837 37.0432C202.837 36.7435 202.923 36.4885 203.094 36.2781C203.267 36.0678 203.505 35.9074 203.81 35.797C204.122 35.6813 204.479 35.6235 204.882 35.6235C205.172 35.6235 205.456 35.655 205.736 35.7181C206.014 35.7812 206.246 35.8706 206.427 35.9863L206.058 36.7435C205.863 36.6225 205.655 36.5384 205.429 36.4911C205.209 36.4438 204.994 36.4201 204.785 36.4201C204.458 36.4201 204.213 36.4701 204.052 36.57C203.897 36.6646 203.818 36.7855 203.818 36.9328C203.818 37.0485 203.875 37.1378 203.988 37.2009C204.1 37.264 204.243 37.3166 204.414 37.3587C204.592 37.3955 204.78 37.4349 204.978 37.477C205.182 37.5138 205.37 37.569 205.541 37.6426C205.719 37.7163 205.863 37.824 205.977 37.966C206.09 38.1027 206.145 38.2868 206.145 38.5181C206.145 38.8231 206.058 39.0834 205.88 39.299C205.709 39.5093 205.467 39.6697 205.155 39.7801C204.843 39.8853 204.488 39.9378 204.085 39.9378Z" fill="#071C2C"/>
</g>
<defs>
<clipPath id="clip0_1049_753">
<rect width="207" height="40" fill="white"/>
</clipPath>
<clipPath id="clip1_1049_753">
<rect width="40" height="40" rx="8" fill="white"/>
</clipPath>
</defs>
</svg>
