<svg width="210" height="150" viewBox="0 0 210 150" fill="none" xmlns="http://www.w3.org/2000/svg">
<g id="Frame 1000005360">
<g id="OBJECTS">
<g id="Clip path group">
<mask id="mask0_1078_325" style="mask-type:luminance" maskUnits="userSpaceOnUse" x="0" y="0" width="210" height="150">
<g id="clippath">
<path id="Vector" d="M209.333 0.00012207H0.333008V149.758H209.333V0.00012207Z" fill="white"/>
</g>
</mask>
<g mask="url(#mask0_1078_325)">
<g id="Group">
<path id="Vector_2" d="M157.475 96.1405L158.687 95.3588C158.687 95.3588 162.037 119.847 161.368 132.091C160.699 144.336 156.678 160.183 156.678 160.183L139.925 160.902C139.925 160.902 145.955 140.736 145.286 124.169C144.618 107.603 145.286 100.4 145.286 100.4L157.478 96.1405H157.475Z" fill="white"/>
<path id="Vector_3" d="M146.625 99.6808L147.522 99.2555C147.522 99.2555 148.648 119.85 148.383 132.095C148.118 144.339 146.037 162.13 146.037 162.13L139.923 160.905C139.923 160.905 142.303 140.739 142.038 124.172C141.773 107.606 142.186 101.154 142.186 101.154L146.625 99.6808Z" fill="#E3E3E3"/>
<path id="Vector_4" d="M142.507 67.821C142.295 68.8394 142.518 70.0254 141.91 70.8371C141.729 71.0797 141.492 71.2594 141.278 71.4691C140.517 72.2089 140.074 73.3561 140.269 74.4373C140.425 75.288 140.941 76.1955 140.539 76.9473C140.367 77.2737 140.052 77.4774 139.815 77.756C139.266 78.3969 139.193 79.4093 139.528 80.203C139.862 80.9967 140.548 81.5778 141.306 81.8863C141.551 81.9881 141.816 82.063 142.072 82.0031C142.312 81.9462 142.515 81.7785 142.688 81.5928C143.421 80.811 143.758 79.6998 143.967 78.6126C144.176 77.5253 144.287 76.4051 144.677 75.3778C145.38 73.5208 146.949 72.0831 147.336 70.1213C147.592 68.8274 147.303 66.1018 145.97 65.4548C144.566 64.7689 142.794 66.4252 142.501 67.821H142.507Z" fill="#382B31"/>
<path id="Vector_5" d="M149.606 61.5673C150.671 61.3487 151.769 61.6092 152.805 61.9447C153.842 62.2802 154.87 62.6995 155.949 62.8133C156.799 62.9031 157.657 62.7983 158.51 62.7983C159.652 62.7983 160.811 62.987 161.845 63.5112C162.879 64.0383 163.779 64.9219 164.225 66.0511C164.56 66.9017 164.64 67.8781 165.131 68.6389C165.496 69.205 166.053 69.5944 166.441 70.1395C166.914 70.8044 167.104 71.691 166.95 72.5116C166.822 73.2005 166.466 73.8744 166.602 74.5603C166.755 75.3211 167.449 75.7824 167.959 76.3335C168.712 77.1452 169.13 78.3013 169.082 79.4455C169.035 80.5896 168.528 81.7038 167.711 82.4406C167.346 82.7701 166.923 83.0307 166.61 83.42C165.997 84.1838 165.942 85.277 165.655 86.2355C165.34 87.2988 164.66 88.2932 163.687 88.6826C163.083 88.9252 162.414 88.9222 161.801 89.1318C160.917 89.4343 160.198 90.1562 159.307 90.4317C158.345 90.7283 157.286 90.4557 156.442 89.8806C155.598 89.3056 154.943 88.4579 154.397 87.5564C153.811 86.5919 153.329 85.5496 153.037 84.4444C152.78 83.471 152.672 82.4586 152.412 81.4882C152.153 80.5147 151.716 79.5533 150.961 78.9513C150.205 78.3522 149.23 78.1845 148.394 77.7232C146.521 76.6929 145.582 74.1979 145.906 71.9605C146.042 71.0111 146.374 70.0886 146.379 69.1301C146.382 68.4113 146.204 67.7014 146.218 66.9856C146.262 64.9219 147.569 61.9746 149.603 61.5613L149.606 61.5673Z" fill="#382B31"/>
<path id="Vector_6" d="M159.056 81.9283C159.377 81.5778 160.648 78.7803 162.596 79.4573C164.543 80.1342 164.265 85.3547 161.684 86.424C159.104 87.4933 158.12 86.1095 158.12 86.1095L159.056 81.9253V81.9283Z" fill="#BA625A"/>
<path id="Vector_7" d="M160.414 81.5452C160.642 81.0091 160.968 80.3981 161.517 80.3412C161.916 80.2992 162.283 80.5838 162.531 80.9222C163.25 81.9046 163.197 83.3573 162.662 84.4685C162.434 84.9417 162.113 85.385 161.668 85.6216C161.225 85.8583 160.642 85.8463 160.271 85.4898C160.021 85.2472 159.898 84.8878 159.834 84.5314" stroke="#382B31" stroke-width="0.59" stroke-linecap="round" stroke-linejoin="round"/>
<path id="Vector_8" d="M162.155 80.5447C162.155 80.5447 160.63 81.7967 160.048 85.1782" stroke="#382B31" stroke-width="0.59" stroke-linecap="round" stroke-linejoin="round"/>
<path id="Vector_9" d="M141.982 80.6647C142.001 79.9848 142.04 79.3049 142.107 78.64C142.127 78.3644 142.16 78.0948 142.199 77.8133L142.494 76.0012C142.494 75.9743 142.508 75.9293 142.514 75.9024C142.539 75.7616 142.567 75.6418 142.592 75.507C142.625 75.3662 142.65 75.2315 142.698 75.0907C143.133 73.3355 143.804 71.6432 144.863 70.2775C146.41 68.2617 148.695 66.8749 151.144 66.6533C151.796 66.5964 152.46 66.6263 153.12 66.7372C153.265 66.7521 153.404 66.7881 153.555 66.821C153.627 66.836 153.694 66.848 153.772 66.8719C153.917 66.9139 154.056 66.9498 154.212 67.0007C156.313 67.6597 158.058 69.1513 159.256 71.17C160.025 72.4639 160.31 74.2401 160.48 75.7616C160.63 77.1274 160.63 78.5082 160.466 79.874C160.46 79.9369 160.446 80.0087 160.432 80.0926C160.413 80.2993 160.379 80.5089 160.34 80.6946C159.997 82.7194 159.334 84.6363 158.629 86.5322C157.991 88.2514 157.537 90.1055 157.478 91.9804C157.439 92.9419 157.512 93.9063 157.696 94.8468C157.807 95.4039 158.108 95.9011 158.264 96.4432C158.671 97.86 156.899 99.3426 155.99 100.133C154.722 101.236 153.22 102.035 151.626 102.41C150.818 102.598 149.988 102.676 149.163 102.625C147.744 102.538 146.362 102.173 146.73 100.301C146.892 99.4773 147.299 98.7375 147.407 97.8989C147.513 97.0722 147.533 96.2426 147.586 95.4069C147.605 95.0475 147.639 94.6851 147.644 94.3167C147.65 94.0561 147.742 93.3402 147.597 93.1216C147.591 93.1066 147.591 93.1006 147.591 93.0797C147.597 93.0647 147.586 93.0527 147.577 93.0437C147.572 93.0377 147.572 93.0287 147.558 93.0228C146.538 92.894 145.774 92.9658 144.908 92.2799C144.13 91.6659 143.539 90.7914 143.152 89.8479C142.564 88.4132 142.467 86.9036 142.232 85.3791C141.996 83.8276 141.934 82.2431 141.982 80.6677V80.6647Z" fill="#BA625A"/>
<g id="Vector_10" style="mix-blend-mode:multiply" opacity="0.36">
<path d="M153.477 90.7942C153.477 90.7942 150.643 95.239 147.55 95.6763C147.65 94.8257 147.695 93.987 147.597 93.1154C147.592 93.1005 147.592 93.0945 147.592 93.0825C147.592 93.0615 147.586 93.0496 147.578 93.0406C147.572 93.0256 147.564 93.0196 147.558 93.0196C147.558 93.0196 152.114 91.9953 153.477 90.7942Z" fill="#BA625A"/>
</g>
<path id="Vector_11" d="M143.729 79.6582C143.69 79.9847 143.899 80.2782 144.192 80.3201C144.487 80.3591 144.755 80.1284 144.794 79.802C144.833 79.4755 144.624 79.182 144.331 79.14C144.036 79.1011 143.768 79.3317 143.729 79.6582Z" fill="#382B31"/>
<path id="Vector_12" d="M150.3 80.0264C150.197 80.3888 150.378 80.7692 150.704 80.88C151.031 80.9908 151.376 80.7871 151.479 80.4247C151.582 80.0623 151.401 79.6819 151.075 79.5711C150.749 79.4603 150.404 79.6639 150.3 80.0264Z" fill="#382B31"/>
<path id="Vector_13" d="M145.682 77.6066C145.222 79.814 145.147 82.1143 145.459 84.3517C145.479 84.4954 145.504 84.6452 145.585 84.765C145.713 84.9507 145.947 85.0106 146.162 85.0286C146.68 85.0765 147.212 84.9777 147.686 84.744" stroke="#382B31" stroke-width="0.59" stroke-linecap="round" stroke-linejoin="round"/>
<path id="Vector_14" d="M148.419 87.7332C148.419 87.7332 147.263 88.3382 146.296 88.1345" stroke="#382B31" stroke-width="0.5" stroke-linecap="round" stroke-linejoin="round"/>
<path id="Vector_15" d="M150.272 85.4327C150.272 85.4327 147.733 87.8858 144.799 86.8315" stroke="#382B31" stroke-width="0.59" stroke-linecap="round" stroke-linejoin="round"/>
<path id="Vector_16" style="mix-blend-mode:multiply" opacity="0.38" d="M158.631 85.6026C158.915 83.1285 157.279 80.8752 154.978 80.5697C152.676 80.2641 150.579 82.0221 150.295 84.4961C150.011 86.9702 151.646 89.2235 153.948 89.529C156.25 89.8346 158.346 88.0766 158.631 85.6026Z" fill="url(#paint0_linear_1078_325)"/>
<path id="Vector_17" style="mix-blend-mode:multiply" opacity="0.38" d="M142.333 86.4183C142.458 87.269 142.623 88.2094 142.893 89.108C144.283 88.3712 145.236 86.8377 145.236 85.0615C145.236 82.917 143.849 81.1259 141.984 80.6676C141.926 82.6264 142.057 84.5883 142.333 86.4213V86.4183Z" fill="url(#paint1_linear_1078_325)"/>
<path id="Vector_18" d="M153.008 76.9384C153.17 77.0702 153.315 77.223 153.432 77.4027C153.674 77.7711 153.867 78.445 153.482 78.7895C153.067 79.1609 152.518 78.6247 152.153 78.433C151.634 78.1605 151.063 78.0077 150.486 77.9927C150.202 77.9867 149.873 77.9927 149.681 77.7681C148.982 76.9474 150.531 76.2525 151.077 76.2286C151.626 76.2046 152.172 76.3963 152.649 76.6868C152.774 76.7617 152.894 76.8456 153.008 76.9414V76.9384Z" fill="#382B31"/>
<path id="Vector_19" d="M144.846 76.2735C145.089 76.4053 145.32 76.597 145.42 76.8695C145.521 77.1421 145.448 77.4985 145.211 77.6393C145.016 77.7531 144.776 77.6992 144.556 77.6662C144.177 77.6123 143.79 77.6393 143.419 77.7441C143.302 77.7771 143.182 77.819 143.065 77.7861C142.851 77.7262 142.762 77.4476 142.77 77.211C142.823 76.0219 144.055 75.8452 144.846 76.2735Z" fill="#382B31"/>
<path id="Vector_20" d="M149.241 62.0284C147.817 62.5137 146.892 63.9723 146.198 65.398C145.774 66.2696 145.384 67.228 145.49 68.2075C145.599 69.1869 146.39 70.1394 147.302 70.0136C147.786 69.9477 148.241 69.5972 148.72 69.6871C149.21 69.7799 149.525 70.3041 149.681 70.8133C149.835 71.3224 149.893 71.8766 150.161 72.3288C150.489 72.8919 151.1 73.2124 151.713 73.3022C152.326 73.3891 152.95 73.2723 153.552 73.1195C154.324 72.9249 155.252 72.7152 155.815 73.3142C156.163 73.6856 156.244 74.2547 156.272 74.7789C156.319 75.6804 156.272 76.5999 156.486 77.4745C156.704 78.3491 157.258 79.1997 158.078 79.4094C158.601 79.5442 159.223 79.4274 159.619 79.8167C159.752 79.9485 159.844 80.1252 160 80.2271C160.332 80.4427 160.747 80.2061 161.107 80.0414C161.728 79.7538 162.433 79.6849 163.094 79.8527C163.344 79.9156 163.592 80.0114 163.852 79.9965C164.518 79.9515 164.919 79.2027 165.198 78.5498C165.393 78.0915 165.588 77.6243 165.641 77.1271C165.749 76.0428 165.164 75.0185 165.078 73.9312C165.014 73.1255 165.228 72.3258 165.34 71.5231C165.448 70.7204 165.434 69.8368 164.98 69.1899C164.258 68.1655 162.779 68.1745 161.898 67.3059C161.31 66.7219 161.079 65.8353 160.608 65.1404C159.998 64.2449 158.961 63.7087 157.93 63.7537C156.98 63.7956 156.052 64.2958 155.11 64.143C154.377 64.0262 153.755 63.529 153.078 63.2055C152.237 62.8012 151.286 62.6574 150.372 62.7982C149.52 62.93 148.667 63.3044 147.82 63.1337" fill="#382B31"/>
<path id="Vector_21" d="M158.825 83.3154C158.777 83.4352 158.722 83.564 158.616 83.6209C158.479 83.6958 158.304 83.6209 158.206 83.4951C158.109 83.3693 158.067 83.2016 158.028 83.0428C157.827 82.2012 157.624 81.3565 157.423 80.5149C157.284 79.9308 157.142 79.3288 157.2 78.7298C157.259 78.1277 157.56 77.5167 158.078 77.2831C158.621 77.0375 159.29 77.2831 159.669 77.7683C160.87 79.3138 159.413 81.8208 158.825 83.3154Z" fill="#382B31"/>
<path id="Vector_22" d="M193.449 83.2794L193.915 71.7001L197.78 71.2598L200.427 83.1536L193.449 83.2794Z" fill="#BA625A"/>
<path id="Vector_23" d="M193.914 71.6998C193.914 71.6998 190.456 69.8937 190.607 68.2524C190.757 66.611 191.744 65.5028 191.744 65.5028C191.234 63.9543 190.754 62.3938 190.3 60.8274C190.035 59.9108 189.779 58.9883 189.548 58.0598C189.308 57.1044 188.907 55.9842 189.004 54.9778C189.021 54.8161 189.082 54.6543 189.199 54.5555C189.564 54.247 190.072 54.5794 190.306 54.9029C190.699 55.442 190.96 56.1369 191.256 56.7449C191.482 57.2062 191.702 57.6705 191.925 58.1347C192.401 59.1351 192.878 60.1385 193.349 61.1389C193.508 61.4773 193.666 61.8128 193.825 62.1512L194.154 62.0314C194.154 62.0314 192.939 53.0519 194.121 52.8392C195.302 52.6296 195.578 55.7266 195.737 56.9456C195.91 58.2515 196.656 61.3964 196.656 61.3964C196.656 61.3964 197.473 61.064 197.922 61.7289C198.37 62.3938 200.516 65.6166 200.488 66.5541C200.46 67.4916 197.777 71.2625 197.777 71.2625L193.914 71.7028V71.6998Z" fill="#BA625A"/>
<path id="Vector_24" d="M197.221 61.3846C197.221 61.3846 195.025 65.3742 195.193 65.8804C195.357 66.3866 196.873 68.0519 197.545 67.9081C198.216 67.7643 199.899 65.1825 199.899 65.1825" stroke="#7F2F2B" stroke-width="0.91" stroke-miterlimit="10"/>
<path id="Vector_25" d="M196.227 67.1233L199.013 63.55" stroke="#7F2F2B" stroke-width="0.91" stroke-miterlimit="10"/>
<path id="Vector_26" d="M191.744 65.4999C191.744 65.4999 194.67 62.4988 195.386 62.6515C196.102 62.8043 196.476 63.9484 196.077 64.8829C195.679 65.8174 192.862 69.4655 192.862 69.4655L191.744 65.5029V65.4999Z" fill="#BA625A"/>
<path id="Vector_27" d="M191.744 65.5002C191.744 65.5002 194.809 62.1486 195.648 62.7925C196.484 63.4365 196.373 64.6675 196.03 65.2635C195.687 65.8596 193.282 68.3875 193.282 68.3875" stroke="#7F2F2B" stroke-width="0.91" stroke-miterlimit="10"/>
<path id="Vector_28" d="M194.775 66.8387C194.775 66.8387 195.815 66.9795 196.67 68.2944" stroke="#7F2F2B" stroke-width="0.91" stroke-miterlimit="10"/>
<path id="Vector_29" d="M193.042 62.49C193.042 62.49 194.399 61.7352 195.216 61.6813" stroke="#7F2F2B" stroke-width="0.91" stroke-miterlimit="10"/>
<path id="Vector_30" d="M158.688 95.3588C158.688 95.3588 162.038 122.01 159.357 140.017C156.676 158.024 154.667 167.387 154.667 167.387C154.667 167.387 166.73 170.987 170.08 176.749C170.08 176.749 176.11 158.742 176.11 138.576C176.11 118.41 174.101 91.7586 174.101 91.7586C174.101 91.7586 166.73 90.3179 158.688 95.3588Z" fill="#DE5A49"/>
<path id="Vector_31" d="M158.687 95.3587C158.687 95.3587 160.114 106.701 160.359 119.587L167.538 102.637L163.865 101.065L165.361 92.4115C163.302 92.9776 161.023 93.8911 158.685 95.3558L158.687 95.3587Z" fill="#64301A"/>
<path id="Vector_32" d="M173.443 113.12C173.443 113.12 174.107 112.803 175.238 112.255C175.285 112.234 175.338 112.204 175.391 112.183C180.41 109.757 193.828 103.215 200.006 99.7648C200.059 99.7289 200.112 99.6989 200.167 99.663C201.628 98.8483 202.653 98.2073 203.043 97.8539C204.412 96.593 204.164 93.2803 203.707 90.6595C203.693 90.5936 203.679 90.5367 203.673 90.4708C203.325 88.5779 202.876 87.0923 202.876 87.0923L193.379 87.7392L192.568 87.913H192.563L192.014 88.0268H192.008L174.101 91.7498L173.443 113.114V113.12Z" fill="#DE5A49"/>
<path id="Vector_33" d="M201.45 81.1828C201.45 81.1828 203.046 87.3139 203.559 90.0096C204.072 92.7082 198.485 94.2387 198.485 94.2387L191.298 91.6629L192.438 82.3449L201.45 81.1798V81.1828Z" fill="#DE5A49"/>
<path id="Vector_34" d="M192.267 84.0642C192.267 84.0642 192.275 84.0642 192.278 84.0642L201.803 82.7164C201.85 82.7104 201.881 82.6655 201.875 82.6145C201.87 82.5666 201.831 82.5307 201.781 82.5367L192.256 83.8845C192.208 83.8905 192.178 83.9354 192.183 83.9863C192.189 84.0313 192.225 84.0642 192.267 84.0642Z" fill="#F5D9D6"/>
<path id="Vector_35" d="M192.836 83.0066C192.836 83.2342 193.009 83.4199 193.22 83.4199C193.432 83.4199 193.605 83.2342 193.605 83.0066C193.605 82.779 193.432 82.5933 193.22 82.5933C193.009 82.5933 192.836 82.779 192.836 83.0066Z" fill="#F5D9D6"/>
<path id="Vector_36" d="M155.664 167.755C155.701 167.755 155.734 167.728 155.745 167.689C157.206 162.157 158.515 156.496 159.638 150.868C160.151 148.304 160.502 146.34 160.784 144.501C162.118 135.761 162.233 126.877 161.124 118.098C161.118 118.05 161.073 118.017 161.029 118.02C160.981 118.026 160.951 118.071 160.956 118.122C162.063 126.883 161.948 135.749 160.616 144.471C160.335 146.31 159.984 148.272 159.474 150.829C158.351 156.454 157.041 162.109 155.584 167.638C155.57 167.686 155.598 167.737 155.642 167.749C155.651 167.749 155.659 167.752 155.664 167.752V167.755Z" fill="#F5D9D6"/>
<g id="Vector_37" style="mix-blend-mode:multiply">
<path d="M192.571 87.9189H192.565L192.016 88.0327H192.011L191.498 88.1405C193.836 89.3715 195.781 91.4502 196.91 93.9751C196.5 91.561 195.31 89.3206 193.594 87.7332L193.382 87.7481L192.571 87.9219V87.9189Z" fill="#D9A89E"/>
</g>
<g id="Group_2" style="mix-blend-mode:multiply">
<path id="Vector_38" d="M178.216 102.637C175.7 104.581 175.394 112.183 175.394 112.183C175.775 112 176.21 111.787 176.678 111.56C177.191 107.271 178.216 102.637 178.216 102.637Z" fill="#D9A89E"/>
</g>
<g id="Vector_39" style="mix-blend-mode:multiply">
<path d="M175.505 91.4651L174.101 91.7586L173.803 101.424L175.505 91.4651Z" fill="#D9A89E"/>
</g>
<g id="Vector_40" style="mix-blend-mode:multiply">
<path d="M171.47 106.624C173.557 108.292 175.24 112.258 175.24 112.258L176.514 111.644C174.638 106.866 171.47 106.624 171.47 106.624Z" fill="#D9A89E"/>
</g>
<path id="Vector_41" d="M117.78 109.933L115.556 98.5935L111.68 98.8391L110.88 111.035L117.78 109.933Z" fill="#BA625A"/>
<path id="Vector_42" d="M110.549 98.9079C111.569 99.1625 112.622 99.2554 112.622 99.2554H115.687C115.687 99.2554 114.673 88.7094 112.694 87.733C110.713 86.7475 107.912 86.7535 107.333 87.3196C107.305 87.3466 107.274 87.3825 107.238 87.4275C106.904 87.8378 106.305 88.9131 105.881 90.183C105.873 90.186 105.87 90.192 105.873 90.201C105.678 90.785 105.516 91.411 105.443 92.037C105.432 92.1119 105.424 92.1868 105.418 92.2646C105.368 92.7978 105.377 93.3159 105.482 93.7982C105.499 93.888 105.516 93.9779 105.544 94.0647C105.563 94.1306 105.58 94.1965 105.602 94.2564C105.803 94.8405 105.967 95.2508 106.118 95.5953H106.123C106.123 95.5953 106.123 95.5983 106.129 95.6013C106.179 95.7001 106.226 95.79 106.271 95.8708C106.711 96.6885 106.993 96.6346 107.285 96.8173C107.584 97.006 108.347 97.2845 108.748 97.4313V97.4253C108.813 97.4523 108.865 97.4702 108.907 97.4882C108.971 97.5092 109.01 97.5212 109.01 97.5212C109.01 97.5212 109.526 98.6533 110.549 98.9079Z" fill="#BA625A"/>
<path id="Vector_43" d="M109.687 98.2972C109.687 98.2972 111.945 97.4017 111.334 95.6974C110.724 93.9932 110.646 91.645 110.646 91.645L107.779 89.9227L106.717 92.7052L107.009 95.943L108.885 97.2878C108.885 97.2878 109.328 98.1265 109.685 98.2972H109.687Z" fill="#AA3C37"/>
<path id="Vector_44" d="M109.313 66.051L109.422 104.126" stroke="#33292E" stroke-width="3.46" stroke-miterlimit="10" stroke-linecap="round"/>
<path id="Vector_45" d="M109.356 80.0444C109.356 80.0444 121.544 78.5409 129.748 81.4072L130.802 63.3104C130.802 63.3104 115.489 62.0315 109.319 67.3779L109.356 80.0444Z" fill="#DE5A49"/>
<path id="Vector_46" d="M124.25 63.2297L122.935 79.9697C119.686 79.6103 116.459 79.6103 113.965 79.7061L115.032 64.5535C118.045 63.6939 121.405 63.3465 124.248 63.2267L124.25 63.2297Z" fill="white"/>
<path id="Vector_47" d="M123.195 70.7474L122.267 70.6635L122.22 69.8908L120.456 70.5707L121.074 67.5905L120.013 67.9619L119.425 66.9406L118.773 67.917L117.736 67.4677L118.168 70.4868L116.451 69.6811L116.357 70.4479L115.426 70.4659L116.019 71.3584L115.671 71.8347L117.215 72.865L117.195 73.479L118.979 73.5449L118.92 75.4049C118.915 75.5517 119.021 75.6715 119.157 75.6775C119.294 75.6834 119.405 75.5696 119.411 75.4229L119.469 73.5629L121.25 73.6288L121.269 73.0148L122.875 72.0982L122.557 71.598L123.203 70.7474H123.195Z" fill="#DE5A49"/>
<g id="Vector_48" style="mix-blend-mode:multiply" opacity="0.5">
<path d="M130.8 63.3104L129.746 81.4102C121.542 78.5438 109.356 80.0474 109.356 80.0474L109.351 77.834C112.536 78.415 116.989 78.5378 121.935 76.6419C129.214 73.8534 129.077 66.65 128.548 63.1996C129.941 63.2355 130.802 63.3074 130.802 63.3074L130.8 63.3104Z" fill="#A8A8A8"/>
</g>
<path id="Vector_49" d="M107.542 96.9551C107.542 96.9551 108.626 97.7698 109.052 97.1139C109.481 96.4579 108.994 96.401 108.994 96.401C108.994 96.401 109.278 95.796 109.041 95.0712C109.041 95.0712 109.189 94.562 108.84 93.9899C108.84 93.9899 109.058 92.5343 108.389 91.5878C107.72 90.6413 106.051 90.219 106.051 90.219C106.051 90.219 106.045 94.9364 106.09 95.0502C106.132 95.167 107.28 96.8203 107.28 96.8203L107.539 96.9581L107.542 96.9551Z" fill="#BA625A"/>
<path id="Vector_50" d="M111.144 88.2574C111.144 88.2574 105.73 86.1158 105.095 87.3558C104.459 88.5958 106.719 89.8628 108.068 90.6355C109.417 91.4083 111.568 92.229 111.568 92.229L111.147 88.2574H111.144Z" fill="#BA625A"/>
<path id="Vector_51" d="M112.666 89.8387C112.516 89.4254 112.315 89.027 112.039 88.7035C111.9 88.5448 111.735 88.407 111.552 88.3321C111.37 88.2662 111.153 88.2363 110.952 88.1824C110.142 87.9787 109.342 87.7421 108.542 87.5055C107.751 87.2479 106.948 87.0143 106.14 87.0232C105.753 87.0352 105.312 87.1311 105.178 87.4845C105.095 87.6522 105.1 87.8499 105.165 88.0386C105.22 88.2273 105.329 88.407 105.454 88.5717C105.705 88.9042 106.014 89.1918 106.343 89.4493C106.675 89.7069 107.02 89.9405 107.391 90.1232C108.138 90.4976 108.91 90.8421 109.634 91.3003C109.991 91.537 110.364 91.7586 110.629 92.154C110.755 92.3606 110.791 92.6032 110.805 92.8279C110.819 93.0555 110.819 93.2802 110.821 93.5018C110.821 93.9451 110.858 94.3854 110.975 94.8107C111.095 95.233 111.29 95.6314 111.532 95.9938C111.267 95.6493 111.05 95.26 110.911 94.8346C110.771 94.4093 110.718 93.9541 110.696 93.5078C110.685 93.2831 110.682 93.0615 110.663 92.8459C110.643 92.6302 110.601 92.4175 110.493 92.2498C110.261 91.9233 109.885 91.6987 109.534 91.483C108.809 91.0637 108.049 90.7163 107.291 90.3479C106.906 90.1622 106.544 89.9226 106.198 89.662C105.856 89.3984 105.53 89.1049 105.254 88.7425C105.12 88.5598 104.995 88.3591 104.928 88.1225C104.886 88.0087 104.878 87.8769 104.869 87.7511L104.894 87.5594C104.903 87.4965 104.936 87.4396 104.958 87.3797C105.05 87.1341 105.273 86.9693 105.485 86.8915C105.7 86.8136 105.92 86.7866 106.134 86.7806C106.993 86.7836 107.815 87.0232 108.598 87.3108C109.389 87.5714 110.183 87.8289 110.983 88.0596C111.184 88.1255 111.379 88.1554 111.588 88.2423C111.788 88.3351 111.953 88.4909 112.089 88.6616C112.362 89.009 112.544 89.4224 112.666 89.8447V89.8387Z" fill="#7F2F2B"/>
<path id="Vector_52" d="M108.664 93.9152C108.681 93.9242 108.701 93.9182 108.709 93.9152C108.734 93.9122 108.751 93.8912 108.759 93.8703C108.759 93.8703 108.761 93.8663 108.765 93.8583C108.779 93.8104 108.756 93.7654 108.712 93.7505C108.701 93.7445 108.692 93.7475 108.678 93.7415C107.58 93.3671 106.343 92.9388 105.443 92.0372C105.432 92.1121 105.424 92.187 105.418 92.2649C106.346 93.1425 107.569 93.5528 108.664 93.9182V93.9152Z" fill="#7F2F2B"/>
<path id="Vector_53" d="M108.966 95.203C109.002 95.206 109.03 95.206 109.061 95.206C109.094 95.2 109.116 95.1821 109.13 95.1551C109.136 95.1431 109.141 95.1281 109.141 95.1132C109.141 95.0652 109.102 95.0203 109.058 95.0203C107.793 95.0263 106.516 94.592 105.482 93.7953C105.499 93.8851 105.516 93.975 105.544 94.0619C106.547 94.7777 107.765 95.188 108.966 95.203Z" fill="#7F2F2B"/>
<path id="Vector_54" d="M108.748 97.4253C108.809 97.4523 108.859 97.4702 108.904 97.4882C108.921 97.4672 108.937 97.4343 108.951 97.4014C108.99 97.3175 109.029 97.2186 109.052 97.1108C109.213 96.4699 109.174 95.7989 109.127 95.155C109.121 95.137 109.116 95.116 109.105 95.1101C109.096 95.0801 109.071 95.0681 109.043 95.0681C108.996 95.0741 108.96 95.119 108.962 95.161C108.962 95.1759 108.965 95.1879 108.962 95.2029C108.993 95.5953 109.015 96.0026 108.993 96.398C108.99 96.4519 108.985 96.5118 108.979 96.5687C108.96 96.7334 108.932 96.9042 108.893 97.0659C108.873 97.1528 108.826 97.3025 108.745 97.4253H108.748Z" fill="#42353B"/>
<path id="Vector_55" d="M106.271 95.871C107.11 96.3053 108.046 96.5509 108.966 96.5749C108.972 96.5779 108.98 96.5749 108.983 96.5689C109.013 96.5689 109.03 96.5479 109.038 96.527C109.044 96.515 109.05 96.5 109.05 96.485C109.052 96.4461 109.027 96.4071 108.994 96.3982C108.988 96.3952 108.977 96.3892 108.966 96.3922C107.991 96.3712 106.996 96.0927 106.126 95.6014C106.126 95.6014 106.123 95.5995 106.115 95.5955L106.268 95.871H106.271Z" fill="#7F2F2B"/>
<path id="Vector_56" d="M105.549 87.8559C105.861 87.0142 107.388 87.6792 107.572 87.778C107.756 87.8768 106.895 89.2337 106.895 89.2337C106.895 89.2337 105.201 88.7994 105.552 87.8589L105.549 87.8559Z" fill="#FCD1CA"/>
<path id="Vector_57" d="M107.667 91.7915C107.667 91.7915 108.38 91.9682 108.559 92.7709C108.737 93.5736 107.605 93.0645 107.605 93.0645L107.667 91.7915Z" fill="#FCD1CA"/>
<path id="Vector_58" d="M108.188 93.9423C108.188 93.9423 108.709 94.0261 108.807 94.4694C108.904 94.9127 108.258 94.8168 108.258 94.8168C108.258 94.8168 108.027 94.2568 108.188 93.9423Z" fill="#FCD1CA"/>
<path id="Vector_59" d="M108.193 95.329C108.193 95.329 108.759 95.3499 108.82 95.7094C108.882 96.0658 108.305 96.0688 108.177 96.0658L108.193 95.329Z" fill="#FCD1CA"/>
<path id="Vector_60" d="M108.238 97.0902C108.266 97.0902 108.609 97.168 108.782 96.9734C108.954 96.7787 108.302 96.6678 108.302 96.6678L108.241 97.0902H108.238Z" fill="#FCD1CA"/>
<path id="Vector_61" d="M146.624 99.681C146.624 99.681 137.241 102.562 133.892 104.722C133.892 104.722 138.582 125.61 135.232 137.854C131.882 150.099 121.828 170.987 121.828 170.987C121.828 170.987 126.546 166.932 133.892 165.946L139.253 165.227C139.253 165.227 146.624 147.993 146.624 128.495V99.684V99.681Z" fill="#DE5A49"/>
<path id="Vector_62" d="M142.188 108.801L139.44 113.579L146.627 123.681V99.681C146.627 99.681 142.283 101.017 138.451 102.547L142.188 108.801Z" fill="#64301A"/>
<path id="Vector_63" d="M110.932 120.416C110.932 120.416 111.167 122.528 111.677 124.954C111.791 125.517 111.925 126.098 112.072 126.667C112.086 126.724 112.1 126.781 112.12 126.841C112.878 129.728 114.023 132.415 115.611 132.062C116.665 131.831 119.203 130.974 122.171 129.923C122.224 129.902 122.285 129.881 122.338 129.857C127.633 127.976 134.24 125.478 136.297 124.699C136.336 124.684 136.369 124.669 136.403 124.663C136.422 124.648 136.442 124.642 136.464 124.634C136.773 124.52 136.94 124.454 136.94 124.454C136.94 124.454 136.887 110.784 133.978 104.904V104.898C133.95 104.841 133.925 104.776 133.892 104.719L133.811 104.77L119.63 114.465V114.471L119.596 114.492L119.267 114.716L110.93 120.413L110.932 120.416Z" fill="#DE5A49"/>
<path id="Vector_64" d="M121.146 120.662L118.41 109.751L109.854 111.221C109.854 111.221 110.54 121.519 111.566 124.708C112.591 127.895 121.146 120.662 121.146 120.662Z" fill="#DE5A49"/>
<path id="Vector_65" d="M110.01 113.578C110.01 113.578 110.021 113.578 110.03 113.578L118.755 111.464C118.799 111.452 118.827 111.404 118.819 111.356C118.808 111.308 118.766 111.278 118.718 111.287L109.993 113.402C109.949 113.414 109.921 113.462 109.929 113.51C109.938 113.551 109.974 113.578 110.01 113.578Z" fill="#F5D9D6"/>
<path id="Vector_66" d="M110.61 112.033C110.61 112.236 110.764 112.401 110.953 112.401C111.143 112.401 111.296 112.236 111.296 112.033C111.296 111.829 111.143 111.664 110.953 111.664C110.764 111.664 110.61 111.829 110.61 112.033Z" fill="#F5D9D6"/>
<path id="Vector_67" d="M138.421 165.428C138.455 165.428 138.488 165.404 138.499 165.368C141.503 156.281 143.822 146.451 145.207 136.941C145.884 132.292 146.411 127.311 145.697 122.396C145.689 122.348 145.65 122.312 145.602 122.321C145.558 122.33 145.524 122.375 145.533 122.423C146.243 127.314 145.717 132.277 145.042 136.911C143.66 146.409 141.344 156.227 138.343 165.305C138.326 165.353 138.351 165.404 138.393 165.419C138.402 165.422 138.413 165.425 138.421 165.425V165.428Z" fill="#F5D9D6"/>
<g id="Vector_68" style="mix-blend-mode:multiply" opacity="0.36">
<path d="M142.991 127.236C142.991 127.769 143.392 128.201 143.889 128.201C144.385 128.201 144.786 127.769 144.786 127.236C144.786 126.703 144.385 126.272 143.889 126.272C143.392 126.272 142.991 126.703 142.991 127.236Z" fill="#6887FF"/>
</g>
<g id="Vector_69" style="mix-blend-mode:multiply" opacity="0.36">
<path d="M142.562 134.224C142.562 134.757 142.963 135.189 143.459 135.189C143.955 135.189 144.356 134.757 144.356 134.224C144.356 133.691 143.955 133.26 143.459 133.26C142.963 133.26 142.562 133.691 142.562 134.224Z" fill="#6887FF"/>
</g>
<g id="Vector_70" style="mix-blend-mode:multiply" opacity="0.36">
<path d="M141.536 141.305C141.536 141.838 141.937 142.269 142.433 142.269C142.929 142.269 143.331 141.838 143.331 141.305C143.331 140.772 142.929 140.34 142.433 140.34C141.937 140.34 141.536 140.772 141.536 141.305Z" fill="#6887FF"/>
</g>
<g id="Vector_71" style="mix-blend-mode:multiply">
<path d="M119.647 114.459C119.017 116.771 118.223 120.668 118.819 124.061C118.819 124.061 120.123 116.861 121.506 113.186L119.647 114.456V114.459Z" fill="#D9A89E"/>
</g>
<g id="Vector_72" style="mix-blend-mode:multiply">
<path d="M136.896 122.489C136.86 121.453 136.799 120.078 136.685 118.526C136.626 118.245 136.545 117.969 136.42 117.715C136.395 118.487 136.37 119.26 136.278 120.024C136.197 120.71 136.049 121.489 135.862 122.151C135.567 120.878 134.781 119.811 134.21 118.649C134.748 120.686 135.274 122.875 135.495 125.005C135.807 124.888 136.085 124.783 136.3 124.699C136.339 124.684 136.782 124.091 136.81 123.864C136.866 123.406 136.888 122.947 136.896 122.486V122.489Z" fill="#D9A89E"/>
</g>
<g id="Vector_73" style="mix-blend-mode:multiply">
<path d="M134.686 111.799C134.497 110.454 134.304 109.11 134.115 107.765C133.973 106.77 133.836 105.761 133.914 104.767C133.906 104.752 133.9 104.737 133.892 104.725L133.811 104.776L132.699 105.536C132.903 107.75 133.58 109.909 134.686 111.805V111.799Z" fill="#D9A89E"/>
</g>
<path id="Vector_74" d="M8.9993 47.032C8.9993 47.032 6.25443 51.6475 7.59203 55.1129" stroke="#3D1D10" stroke-width="1.69" stroke-miterlimit="10" stroke-linecap="round"/>
<path id="Vector_75" d="M104.925 39.2352C104.925 39.2352 110.019 39.0375 112.114 42.0357" stroke="#3D1D10" stroke-width="1.69" stroke-miterlimit="10" stroke-linecap="round"/>
<path id="Vector_76" d="M41.8627 112.929C42.2779 114.07 43.2003 114.92 44.3205 115.151C49.4006 116.199 55.6038 114.477 57.9864 114.636C62.328 114.926 67.4471 69.6813 67.4471 69.6813C67.4471 69.6813 64.4458 65.7037 58.5576 66.74C52.6694 67.7823 51.3569 69.253 49.4815 72.0295C47.2465 75.3392 44.3122 85.0465 42.8157 90.1652C41.3193 95.29 43.6713 98.7404 40.8344 101.331C38.7054 103.275 40.7257 109.799 41.8655 112.932L41.8627 112.929Z" fill="#42353B"/>
<path id="Vector_77" d="M62.8047 88.7574L73.7869 114.213L82.6151 111.976L84.1924 105.977L84.0363 111.619C84.0363 111.619 88.0825 110.592 86.8815 105.758C85.6749 100.924 85.5327 96.1944 82.4005 89.8716C79.2683 83.5488 78.2735 85.0134 74.4975 82.5034C70.7216 79.9875 69.1416 71.7927 69.1416 71.7927L62.8075 88.7633L62.8047 88.7574Z" fill="#42353B"/>
<path id="Vector_78" d="M62.8076 88.7577L73.7899 114.214L84.0392 111.617C84.0392 111.617 88.0827 110.589 86.8816 105.755C85.675 100.921 85.5329 96.1917 82.4007 89.8689C79.5304 84.0792 77.2035 85.2174 73.9348 83.5221C71.6553 86.0261 67.7958 89.1081 62.9832 88.4282L62.8076 88.7606V88.7577Z" fill="#33292E"/>
<path id="Vector_79" d="M41.5028 111.593C42.2106 113.722 44.0136 115.202 46.1092 115.4C50.8047 115.849 55.9656 114.495 58.0918 114.633C60.6416 114.807 59.9394 107.507 63.3614 91.0669C61.6615 92.244 55.6814 96.0209 50.9106 90.7464C49.0184 88.6587 46.2959 83.4711 46.151 79.6163C45.3735 81.4584 44.1557 85.9511 42.9212 90.1623C41.4248 95.2901 43.7767 98.7375 40.9399 101.328C39.0784 103.027 40.3826 108.217 41.5028 111.59V111.593Z" fill="#33292E"/>
<g id="Vector_80" style="mix-blend-mode:multiply" opacity="0.27">
<path d="M50.54 122.516L56.8769 139.286L59.5939 139.13C59.3236 137.932 58.9446 136.764 58.5879 135.593C57.5067 132.077 56.5481 128.512 55.7177 124.915C55.478 123.894 55.2829 120.866 54.433 120.479C53.5469 120.075 51.546 121.249 50.5958 121.905L50.54 122.513V122.516Z" fill="#6887FF"/>
</g>
<g id="Vector_81" style="mix-blend-mode:multiply" opacity="0.27">
<path d="M48.3251 165.404C48.7347 164.706 49.0245 163.936 49.3561 163.194C51.0058 159.48 53.6782 156.431 55.9494 153.124C58.2205 149.817 60.1712 145.941 59.9873 141.838C59.9566 141.176 59.873 140.526 59.7476 139.885C59.703 139.634 59.6473 139.385 59.5915 139.133L56.8745 139.289C57.0194 146.112 54.5895 144.902 51.343 153.882C49.9469 157.742 49.083 160.8 48.6873 163.334V163.349C48.5173 163.951 48.3975 164.64 48.3223 165.404H48.3251Z" fill="#6887FF"/>
</g>
<path id="Vector_82" d="M50.54 122.516L56.8769 139.286C57.8578 139.529 58.822 139.726 59.7528 139.882C70.9579 141.775 78.4513 138.049 78.4513 138.049C78.4513 135.749 81.2185 126.634 80.4577 120.183C79.6523 113.36 71.9444 98.995 71.9444 98.995H67.4467C61.879 100.741 56.8769 98.5068 56.8769 98.5068H52.6858L50.5958 121.905L50.54 122.513V122.516Z" fill="#DE5A49"/>
<path id="Vector_83" d="M67.4469 98.9921C67.4469 98.9921 75.2775 110.092 72.7472 112.584C70.1193 115.175 65.5158 113.016 62.3863 109.649C59.2541 106.282 56.8799 98.5039 56.8799 98.5039C56.8799 98.5039 62.6288 103.033 65.3597 101.766C68.0906 100.499 67.4497 98.9921 67.4497 98.9921H67.4469Z" fill="white"/>
<path id="Vector_84" d="M29.9609 213.734L31.3905 223.363C31.3905 223.363 47.3079 224.325 59.6473 222.971L64.2397 230.902C64.2397 230.902 92.0813 218.101 93.1514 210.826C94.2215 203.556 83.5123 167.992 83.5123 167.992C82.0159 161.163 78.4545 138.049 78.4545 138.049L59.5971 139.13L56.8801 139.286C57.025 146.109 54.5951 144.899 51.3486 153.878C49.9525 157.739 49.0886 160.797 48.6929 163.331V163.346C48.5229 163.948 48.4031 164.637 48.3279 165.401C47.1965 176.708 55.4868 204.521 55.4868 204.521L29.9609 213.731V213.734Z" fill="#DE5A49"/>
<path id="Vector_85" d="M58.8525 112.713C58.8525 113.369 59.3458 113.899 59.9561 113.899C60.5663 113.899 61.0596 113.369 61.0596 112.713C61.0596 112.057 60.5663 111.527 59.9561 111.527C59.3458 111.527 58.8525 112.057 58.8525 112.713Z" fill="#F5D9D6"/>
<path id="Vector_86" d="M74.291 110.856C74.291 111.512 74.7843 112.042 75.3945 112.042C76.0048 112.042 76.4981 111.512 76.4981 110.856C76.4981 110.2 76.0048 109.67 75.3945 109.67C74.7843 109.67 74.291 110.2 74.291 110.856Z" fill="#F5D9D6"/>
<path id="Vector_87" d="M77.0032 114.786C77.0032 114.786 68.6153 115.951 60.3584 116.382C60.3584 116.382 62.5209 128.342 71.4577 127.231C80.3917 126.119 77.0032 114.783 77.0032 114.783V114.786Z" fill="#C1362B"/>
<path id="Vector_88" d="M52.4183 121.905C52.4183 121.905 59.7918 138.139 58.8527 142.266C57.9136 146.394 49.13 158.32 49.8824 169.624C50.632 180.928 58.4877 201.993 56.8073 205.674C55.1297 209.358 30.2002 215.339 30.2002 215.339" stroke="#F5D9D6" stroke-width="0.56" stroke-linecap="round" stroke-linejoin="round"/>
<path id="Vector_89" d="M56.8777 141.724C65.0509 143.482 78.9703 140.517 78.9703 140.517L78.4492 138.052C78.4492 138.052 65.0509 141.047 56.8777 139.292C56.8777 139.292 56.3175 139.939 56.3426 140.709C56.3677 141.475 56.8777 141.727 56.8777 141.727V141.724Z" fill="#C1362B"/>
<path id="Vector_90" d="M64.8751 142.353C65.0758 146.99 64.1924 151.791 61.7373 155.61C59.2823 159.429 55.1106 162.109 50.7969 161.912" stroke="#F5D9D6" stroke-width="0.56" stroke-linecap="round" stroke-linejoin="round"/>
<path id="Vector_91" d="M103.108 65.6555C103.108 65.6555 101.341 83.7642 96.0406 91.5696C90.7404 99.375 79.0698 114.782 79.0698 114.782L71.9443 98.9947C71.9443 98.9947 83.6706 90.0541 85.4374 86.2532C87.2041 82.4523 97.1637 62.0792 97.1637 62.0792L103.108 65.6555Z" fill="white"/>
<path id="Vector_92" d="M79.115 105.719C78.9561 108.528 78.4657 110.901 78.0421 112.509L79.0676 114.782C79.0676 114.782 85.176 106.716 90.5626 99.3003C87.4304 101.882 83.4287 104.093 80.5891 101.765C75.2359 97.3834 79.4215 100.403 79.115 105.719Z" fill="#E3E3E3"/>
<path id="Vector_93" d="M101.935 64.952L104.15 55.3465L99.9758 53.2769L97.1641 62.0797L101.935 64.952Z" fill="#FB9D89"/>
<path id="Vector_94" d="M104.151 55.3463C104.151 55.3463 106.372 53.103 105.89 49.7065C105.408 46.3099 104.151 44.1235 104.151 44.1235C104.151 44.1235 105.383 44.0636 105.731 43.0871C106.328 41.4188 106.213 38.6543 105.358 37.7348C104.502 36.8153 100.058 36.7553 98.9317 37.3304C97.8059 37.9055 97.2179 39.1155 97.165 41.1283C97.112 43.144 96.6829 44.1205 96.9504 45.5012C97.2179 46.882 99.9767 53.2707 99.9767 53.2707L104.154 55.3434L104.151 55.3463Z" fill="#FB9D89"/>
<path id="Vector_95" d="M105.463 47.5769C105.463 47.5769 104.518 44.3331 104.056 44.1205C104.056 44.1205 101.088 44.1055 100.352 43.827C99.6166 43.5484 99.6055 44.2074 99.6055 44.2074L102.607 47.0228C102.607 47.0228 103.93 48.3886 105.463 47.5769Z" fill="#ED7F6E"/>
<path id="Vector_96" d="M103.86 37.1448C104.125 37.6719 104.326 38.241 104.462 38.8281C104.604 39.4121 104.677 40.0201 104.666 40.6341C104.646 41.2511 104.54 41.8382 104.418 42.4253C104.287 43.0093 104.117 43.5904 103.86 44.1235C104.019 43.5484 104.117 42.9644 104.211 42.3803C104.292 41.7963 104.384 41.2032 104.395 40.6252C104.412 40.0441 104.354 39.457 104.256 38.876C104.159 38.2949 104.028 37.7169 103.86 37.1448Z" fill="#AD5300"/>
<path id="Vector_97" d="M102.063 36.9679C102.309 37.513 102.479 38.0971 102.587 38.6931C102.701 39.2891 102.749 39.9002 102.735 40.5112C102.715 41.1192 102.66 41.7212 102.571 42.3173C102.481 42.9133 102.353 43.5063 102.169 44.0754C102.25 43.4794 102.306 42.8833 102.359 42.2873C102.406 41.6913 102.448 41.0952 102.462 40.5022C102.479 39.9121 102.445 39.3191 102.375 38.7291C102.303 38.139 102.205 37.552 102.061 36.9679H102.063Z" fill="#AD5300"/>
<path id="Vector_98" d="M99.9336 37.1089C100.182 37.6271 100.357 38.1842 100.491 38.7502C100.627 39.3163 100.722 39.8914 100.786 40.4725C100.845 41.0535 100.878 41.6316 100.889 42.2156C100.895 42.7967 100.901 43.3868 100.784 43.9588C100.795 43.6683 100.772 43.3808 100.75 43.0932L100.68 42.2306C100.627 41.6556 100.58 41.0775 100.519 40.5084C100.46 39.9363 100.379 39.3672 100.287 38.8012C100.187 38.2351 100.084 37.669 99.9336 37.1119V37.1089Z" fill="#AD5300"/>
<path id="Vector_99" d="M105.318 42.8835C105.318 42.8835 105.125 43.5005 104.763 43.6233C104.401 43.7461 104.562 42.6858 104.582 42.6618C104.601 42.6379 105.223 42.7816 105.318 42.8835Z" fill="#FCD1CA"/>
<path id="Vector_100" d="M103.777 42.671C103.777 42.671 103.626 43.4797 103.189 43.6983C102.748 43.917 102.796 42.5542 102.818 42.5182C102.838 42.4823 103.643 42.5572 103.78 42.671H103.777Z" fill="#FCD1CA"/>
<path id="Vector_101" d="M102.105 42.5809C102.105 42.5809 101.954 43.3896 101.517 43.6082C101.077 43.8269 101.124 42.4641 101.146 42.4281C101.166 42.3922 101.971 42.4671 102.108 42.5809H102.105Z" fill="#FCD1CA"/>
<path id="Vector_102" d="M98.2459 49.1284C99.0708 51.1771 99.9765 53.2767 99.9765 53.2767L101.492 54.0285C102.259 54.304 102.955 54.6724 103.563 55.0558L104.151 55.3463C104.151 55.3463 104.979 54.5137 105.511 53.091C105.054 53.1898 104.508 53.2557 103.858 53.2737C101.676 53.3306 99.6476 51.1501 98.2432 49.1254L98.2459 49.1284Z" fill="#ED7F6E"/>
<path id="Vector_103" d="M52.6886 98.5095C52.6886 98.5095 52.7778 98.6982 52.9311 99.0396C54.3996 102.355 61.7174 120.171 50.5429 122.513C50.5429 122.513 46.4075 114.683 43.1666 110.511C39.9257 106.336 22.3613 77.5733 22.3613 77.5733L29.2165 69.1569C29.2165 69.1569 44.2088 93.1122 45.3876 94.4301L52.6914 98.5095H52.6886Z" fill="white"/>
<path id="Vector_104" d="M28.6563 69.846L19.7891 56.1521L15.7178 58.5692L23.8716 75.7195L28.6563 69.846Z" fill="#FB9D89"/>
<path id="Vector_105" d="M16.7933 60.2106C16.7933 60.2106 13.898 59.1773 13.009 55.8796C12.1173 52.5819 12.4043 50.027 12.4043 50.027C12.4043 50.027 11.2646 50.5272 10.5651 49.8024C9.36964 48.5594 8.39431 45.9985 8.81231 44.7765C9.23031 43.5545 13.2403 41.4938 14.486 41.5058C15.7316 41.5208 16.7376 42.3504 17.5764 44.1535C18.4124 45.9566 19.1843 46.6515 19.4825 48.0263C19.7806 49.4011 19.7778 56.4427 19.7778 56.4427L16.7989 60.2106H16.7933Z" fill="#FB9D89"/>
<path id="Vector_106" d="M12.5633 53.7529C12.5633 53.7529 12.1508 50.3833 12.488 49.9819C12.488 49.9819 15.1744 48.6281 15.7345 48.0411C16.2946 47.454 16.5594 48.0501 16.5594 48.0501L14.9375 51.9588C14.9375 51.9588 14.2715 53.7978 12.5605 53.7529H12.5633Z" fill="#ED7F6E"/>
<path id="Vector_107" d="M9.93576 43.5635C10.0082 44.1565 10.1141 44.7406 10.2534 45.3127C10.3928 45.8817 10.5711 46.4418 10.8136 46.963C11.0504 47.4812 11.3681 47.9784 11.6691 48.4726C11.984 48.9578 12.3016 49.446 12.6695 49.8953C12.2264 49.5269 11.8474 49.0776 11.4991 48.6073C11.1563 48.1281 10.8331 47.6459 10.5739 47.0948C10.3259 46.5437 10.1531 45.9596 10.0528 45.3666C9.94691 44.7735 9.90789 44.1685 9.94133 43.5695L9.93576 43.5635Z" fill="#AD5300"/>
<path id="Vector_108" d="M11.4962 42.5898C11.591 43.1829 11.7331 43.7639 11.8975 44.33C12.0647 44.8961 12.2653 45.4502 12.5133 45.9774C12.7586 46.5105 13.0317 47.0317 13.3047 47.5498C13.5862 48.065 13.8704 48.5802 14.177 49.0864C13.7868 48.6521 13.4413 48.1728 13.1264 47.6726C12.8115 47.1725 12.5245 46.6513 12.2709 46.1092C12.0201 45.561 11.825 44.986 11.6941 44.3929C11.5603 43.8029 11.4851 43.1979 11.4962 42.5928V42.5898Z" fill="#AD5300"/>
<path id="Vector_109" d="M13.4857 41.7572C13.5693 42.3323 13.6947 42.8924 13.8257 43.4495C13.9623 44.0066 14.1127 44.5577 14.2827 45.1028C14.4499 45.6479 14.6338 46.193 14.8094 46.7382L15.0825 47.5529C15.1745 47.8254 15.2692 48.095 15.389 48.3556C15.0574 47.8883 14.8317 47.3522 14.6116 46.822C14.3942 46.2889 14.1991 45.7498 14.0236 45.1957C13.8564 44.6415 13.7142 44.0755 13.6167 43.5004C13.5192 42.9253 13.4579 42.3413 13.4802 41.7602L13.4857 41.7572Z" fill="#AD5300"/>
<path id="Vector_110" d="M10.8584 49.4279C10.8584 49.4279 11.2736 49.9012 11.6526 49.8503C12.0316 49.7993 11.4687 48.9098 11.4408 48.8948C11.4129 48.8798 10.9058 49.2932 10.8584 49.4279Z" fill="#FCD1CA"/>
<path id="Vector_111" d="M12.1729 48.5382C12.1729 48.5382 12.6243 49.2062 13.1092 49.2062C13.5941 49.2062 13.0172 47.9901 12.9838 47.9662C12.9503 47.9422 12.2509 48.3735 12.1729 48.5382Z" fill="#FCD1CA"/>
<path id="Vector_112" d="M13.6562 47.7026C13.6562 47.7026 14.1077 48.3705 14.5926 48.3705C15.0774 48.3705 14.5006 47.1544 14.4672 47.1305C14.4337 47.1065 13.7343 47.5378 13.6562 47.7026Z" fill="#FCD1CA"/>
<path id="Vector_113" d="M19.7196 51.8988C19.7726 54.1302 19.7726 56.4425 19.7726 56.4425L18.6914 57.8083C18.1034 58.4073 17.6157 59.0543 17.2144 59.6773L16.7936 60.2074C16.7936 60.2074 15.718 59.824 14.6758 58.7757C15.13 58.6589 15.6511 58.4732 16.2447 58.1947C18.2483 57.2602 19.2348 54.3638 19.7169 51.8928L19.7196 51.8988Z" fill="#ED7F6E"/>
<path id="Vector_114" d="M30.7945 71.682L23.7832 79.9007" stroke="#42353B" stroke-width="0.56" stroke-linecap="round" stroke-linejoin="round"/>
<path id="Vector_115" d="M102.587 69.744L95.417 65.6556" stroke="#42353B" stroke-width="0.56" stroke-linecap="round" stroke-linejoin="round"/>
<path id="Vector_116" d="M40.369 106.435C41.6174 108.343 42.6039 109.795 43.1612 110.514C46.4021 114.686 50.5375 122.516 50.5375 122.516C52.5551 122.094 53.9707 121.165 54.9265 119.907C49.1693 117.873 48.3528 110.272 48.2887 106.758C48.1717 108.178 47.7982 109.96 46.6529 110.221C45.7863 110.415 43.0888 108.555 40.3662 106.435H40.369Z" fill="#E3E3E3"/>
<path id="Vector_117" d="M53.6305 82.5154C53.636 82.5753 53.6555 82.6442 53.6751 82.7251C53.7057 82.9138 53.7559 83.1174 53.806 83.2852C54.2714 85.1841 55.0461 86.9573 55.8514 88.7094C56.5815 90.2999 57.1417 92.0221 57.3367 93.8072C57.4371 94.7207 57.4371 95.6402 57.3312 96.5538C57.2615 97.0959 57.0107 97.5961 56.902 98.1232C56.6122 99.504 58.4068 100.774 59.332 101.451C60.6166 102.397 62.0992 103.032 63.6485 103.263C64.4288 103.377 65.2286 103.386 66.0088 103.263C67.3548 103.068 68.645 102.607 68.1657 100.849C67.9511 100.079 67.5109 99.4082 67.3464 98.6174C67.2071 97.9196 67.1319 97.2187 67.0371 96.5148C67.0232 96.428 67.012 96.3471 66.9981 96.2572C66.9842 96.1973 66.9786 96.1434 66.9786 96.0895C66.973 96.0745 66.973 96.0566 66.973 96.0416C66.9535 95.9547 66.9424 95.8589 66.9284 95.763C66.9089 95.6672 66.9034 95.5803 66.8894 95.4845C66.8755 95.3976 66.8699 95.3078 66.8643 95.2209C66.8588 95.179 66.8504 95.14 66.8504 95.1071C66.8058 94.8166 66.7111 94.2744 66.8253 94.0798V94.0378C66.8253 94.0378 66.8309 94.0109 66.8393 94.0049C66.8448 93.9899 66.8532 93.9839 66.8532 93.9839C67.483 93.8491 68.1546 93.8761 68.7286 93.5526C70.0551 92.8278 70.6988 91.3961 71.0248 89.8745C71.0388 89.8057 71.0555 89.7338 71.0639 89.6649C71.2338 88.8532 71.3147 88.0205 71.3732 87.2717C71.493 85.6274 71.493 83.8962 71.3342 82.174C71.3286 82.0392 71.3091 81.8954 71.2951 81.7606C71.2255 81.1167 71.1391 80.4697 71.0304 79.8407C71.0248 79.8078 71.0165 79.7718 71.0109 79.7389C70.9803 79.5143 70.9357 79.2926 70.8799 79.062L70.7991 78.7116L70.7796 78.6367L70.5288 77.5884L70.4731 77.3577C70.4731 77.3308 70.4536 77.2978 70.448 77.2709C70.4173 77.1361 70.3783 77.0193 70.3477 76.8995C70.3031 76.7647 70.2724 76.6419 70.2167 76.5071C69.6761 74.8717 68.9209 73.3143 67.8146 72.1042C66.1983 70.3041 63.9188 69.1749 61.5725 69.163C60.9483 69.163 60.3129 69.2438 59.697 69.4056C59.5577 69.4325 59.4323 69.4805 59.2874 69.5194C59.2177 69.5404 59.162 69.5613 59.0868 69.5883C58.9474 69.6422 58.822 69.6841 58.6716 69.744C56.7209 70.5407 55.1659 72.1102 54.1655 74.1319C53.5246 75.4229 53.3797 77.1421 53.3211 78.6007C53.2766 79.9186 53.3713 81.2305 53.6305 82.5154Z" fill="#FB9D89"/>
<path id="Vector_118" d="M61.0622 92.3516C61.0622 92.3516 64.0774 96.3561 67.0535 96.5148C66.8975 95.7121 66.7944 94.9184 66.825 94.0798C66.8306 94.0648 66.8306 94.0588 66.8278 94.0468C66.8278 94.0259 66.8306 94.0139 66.8362 94.0079C66.8418 93.9959 66.8473 93.9869 66.8529 93.9869C66.8529 93.9869 62.4416 93.3819 61.0566 92.3516H61.0622Z" fill="#FF7777"/>
<path id="Vector_119" d="M55.1189 84.3605C54.7873 84.052 53.38 81.4942 51.5715 82.2969C49.7629 83.1026 50.4011 88.0536 52.9341 88.8593C55.4672 89.665 56.306 88.2692 56.306 88.2692L55.1189 84.3605Z" fill="#FB9D89"/>
<path id="Vector_120" d="M54.2215 85.0343C54.0069 84.0009 52.2151 82.2667 51.4878 83.4319C50.7604 84.597 52.5328 88.2691 53.8146 87.9246C55.0965 87.5802 53.4719 86.7086 53.1542 85.9957C52.8337 85.2829 53.7533 84.9684 54.0933 85.5524C54.4333 86.1365 54.2215 85.0343 54.2215 85.0343Z" fill="#F48978"/>
<path id="Vector_121" d="M53.6719 82.7252C53.6719 82.7252 54.3268 82.1651 55.7731 81.6499C55.7787 81.6499 55.787 81.6439 55.7926 81.6439L56.3081 76.064C56.3081 76.064 56.2385 80.0535 56.283 81.4463C56.924 81.1677 57.6346 80.8113 58.4344 80.4459C58.5291 78.5469 58.6294 74.8599 58.1836 73.0209C58.3535 73.542 59.5295 77.247 59.9503 79.8229C60.3906 79.6671 60.8504 79.5264 61.3408 79.4036C62.4109 79.14 64.6012 78.7746 66.6634 78.4571C66.5436 76.8487 66.2342 73.6409 65.5738 71.9576C65.7884 72.3619 67.4743 75.5967 68.1208 78.2205C69.9767 77.9359 71.4481 77.7323 71.4481 77.7323C71.4481 77.7323 70.9771 73.3024 67.4409 69.6783C63.9046 66.0481 57.8519 68.5221 57.8519 68.5221C57.8519 68.5221 55.3356 69.0433 53.6692 72.2631C51.9944 75.4889 53.6692 82.7252 53.6692 82.7252H53.6719Z" fill="#33292E"/>
<path id="Vector_122" d="M55.4698 85.5467C55.4698 85.5977 55.4642 85.6516 55.4336 85.6935C55.35 85.8013 55.1911 85.6845 55.1131 85.5707C54.4889 84.6332 54.1155 83.519 53.4383 82.6265C53.221 82.3419 52.973 82.0753 52.8197 81.7489C52.6664 81.4194 52.6218 81.0001 52.8197 80.6976C52.9757 80.4609 53.2516 80.3441 53.5219 80.3052C54.4137 80.1734 55.1939 80.6676 55.3054 81.6111C55.4615 82.914 55.5116 84.2378 55.467 85.5497L55.4698 85.5467Z" fill="#33292E"/>
<path id="Vector_123" d="M67.9513 86.8674C67.929 86.8734 67.9011 86.8674 67.8872 86.8435C67.8677 86.8165 67.8733 86.7746 67.9011 86.7536C68.1547 86.5589 68.3721 86.3103 68.5309 86.0318C68.5755 85.9569 68.6145 85.873 68.6201 85.7892C68.6312 85.6005 68.4724 85.4537 68.3219 85.3129C68.2857 85.28 68.2523 85.247 68.2188 85.2141C67.6754 84.672 67.6531 83.7794 67.6921 83.0636C67.7339 82.3178 67.8175 81.569 67.9429 80.8321C67.9485 80.7962 67.982 80.7752 68.0154 80.7782C68.0488 80.7842 68.0711 80.8172 68.0655 80.8501C67.9401 81.5809 67.8565 82.3267 67.8147 83.0665C67.7729 83.7974 67.8008 84.615 68.3052 85.1212C68.3359 85.1542 68.3721 85.1841 68.4055 85.2171C68.5727 85.3728 68.7594 85.5465 68.7455 85.7951C68.7371 85.906 68.687 86.0078 68.6396 86.0947C68.4724 86.3882 68.2439 86.6518 67.9764 86.8554C67.968 86.8614 67.9624 86.8644 67.9541 86.8674H67.9513Z" fill="#42353B"/>
<path id="Vector_124" d="M69.8851 81.2398C69.9547 81.5662 69.7736 81.8867 69.4782 81.9586C69.1856 82.0305 68.8902 81.8268 68.8206 81.5004C68.7509 81.1739 68.932 80.8534 69.2274 80.7815C69.52 80.7096 69.8154 80.9133 69.8851 81.2398Z" fill="#42353B"/>
<path id="Vector_125" d="M63.8747 82.24C64.0113 82.5904 63.8664 82.9918 63.5515 83.1355C63.2366 83.2823 62.8715 83.1146 62.735 82.7671C62.5984 82.4167 62.7434 82.0153 63.0583 81.8716C63.3731 81.7248 63.7382 81.8926 63.8747 82.24Z" fill="#42353B"/>
<path id="Vector_126" d="M66.2901 89.2215C66.2901 89.2215 67.4466 89.5091 68.277 89.1107C68.277 89.1107 68.1544 89.7217 67.1735 89.7367C66.1926 89.7517 66.2929 89.2185 66.2929 89.2185L66.2901 89.2215Z" fill="#F48978"/>
<path id="Vector_127" d="M64.9775 87.7749C64.9775 87.7749 66.9366 89.1706 69.5114 87.8348" stroke="#42353B" stroke-width="1.09" stroke-linecap="round" stroke-linejoin="round"/>
<path id="Vector_128" d="M64.0476 85.7235C64.2343 87.2809 63.2088 88.7036 61.7597 88.9043C60.3106 89.105 58.987 88.0028 58.8003 86.4453C58.6136 84.8878 59.6391 83.4651 61.0881 83.2644C62.5372 83.0638 63.8609 84.166 64.0476 85.7235Z" fill="#F48978"/>
<path id="Vector_129" d="M69.7653 84.8429C69.8211 85.2203 69.9465 85.5677 70.1248 85.8672C70.4007 86.3285 70.802 86.6909 71.2701 86.8975C71.3649 86.3734 71.4039 85.8373 71.429 85.352C71.4791 84.2917 71.4485 83.1805 71.3203 82.0753C71.3147 82.0304 71.3091 81.9885 71.3008 81.9465C70.2474 82.4018 69.587 83.5879 69.7681 84.8429H69.7653Z" fill="#F48978"/>
<path id="Vector_130" d="M64.4965 79.6462C64.1342 79.3857 63.7357 79.2659 63.3177 79.2209C62.9025 79.173 62.4762 79.2269 62.0665 79.3527C61.6541 79.4965 61.3002 79.6852 60.9602 79.9667C60.6314 80.2543 60.3137 80.5777 60.1995 81.1348C60.1744 81.2517 60.244 81.3655 60.3527 81.3924C60.4057 81.4044 60.4586 81.3924 60.5032 81.3655L60.6007 81.2996C60.8376 81.1408 61.1553 80.9641 61.4535 80.8293C61.7544 80.6976 62.0888 80.5478 62.3898 80.446C63.0028 80.2243 63.6661 80.1105 64.4017 79.9907H64.424C64.5188 79.9727 64.5857 79.8769 64.5717 79.7721C64.5634 79.7181 64.5355 79.6732 64.4965 79.6433V79.6462Z" fill="#42353B"/>
<path id="Vector_131" d="M68.1184 79.128C68.1685 79.1549 68.2187 79.1549 68.2688 79.143L68.3747 79.101C68.645 79.0052 68.9906 78.9183 69.3055 78.8644C69.6315 78.8105 69.9854 78.7506 70.3003 78.7296C70.4647 78.7147 70.6264 78.7087 70.7963 78.7087L70.7768 78.6338L70.526 77.5855C70.4257 77.5795 70.331 77.5705 70.2307 77.5795C69.7959 77.6214 69.4142 77.7083 69.024 77.897C68.6395 78.0917 68.2633 78.3223 68.0292 78.8434C67.979 78.9453 68.0153 79.0741 68.1184 79.128Z" fill="#42353B"/>
<path id="Vector_132" d="M53.0649 78.8794C53.5693 79.4964 54.0793 79.9127 54.4053 79.6851C55.2831 79.071 54.9933 75.7853 55.4838 74.5903C55.9798 73.3982 56.356 74.4076 56.7823 75.2103C57.2115 76.016 56.5288 70.9661 58.2342 71.6999C59.9424 72.4338 60.4106 76.3814 60.9261 76.609C61.4361 76.8396 65.2817 77.7562 64.5739 74.5903C63.866 71.4244 64.5126 70.0945 65.4935 70.4629C66.4772 70.8283 67.812 72.1013 69.1691 74.1799C69.7041 75.0006 70.2085 74.9796 70.6237 74.6532C70.0413 73.1616 69.0632 71.3345 67.4469 69.6782C63.9106 66.0481 57.858 68.5251 57.858 68.5251C57.858 68.5251 55.3416 69.0462 53.6724 72.263C52.8141 73.9224 52.8364 76.633 53.0649 78.8794Z" fill="#42353B"/>
<path id="Vector_133" d="M15.3926 43.7339C15.3926 43.7339 51.2598 53.8366 99.4301 39.4658" stroke="#3D1D10" stroke-width="1.69" stroke-miterlimit="10" stroke-linecap="round"/>
<path id="Vector_134" d="M75.2558 62.4957L68.2334 57.4758L62.3508 63.9693L60.623 46.5165L73.5281 45.0428L75.2558 62.4957Z" fill="#DE5A49"/>
<path id="Vector_135" d="M64.5762 46.0645L66.0782 59.8542L68.2323 57.476L70.7041 59.2432L69.3247 45.5223L64.5762 46.0645Z" fill="#F2F2F2"/>
<path id="Vector_136" d="M69.4088 51.4406L68.949 51.4615L68.8794 51.0871L68.0573 51.5394L68.1827 50.0418L67.6867 50.2964L67.3383 49.8381L67.0792 50.3593L66.5469 50.2125L66.9371 51.6562L66.0509 51.3806V51.761L65.5967 51.8329L65.9394 52.2283L65.7973 52.4829L66.6138 52.8812L66.6417 53.1837L67.5167 53.0939L67.5975 54.0074C67.6031 54.0793 67.6616 54.1302 67.7285 54.1242C67.7954 54.1182 67.8427 54.0553 67.8372 53.9835L67.7563 53.0699L68.6314 52.9801L68.6035 52.6776L69.3336 52.1205L69.1469 51.8988L69.4116 51.4406H69.4088Z" fill="#DE5A49"/>
<g id="Vector_137" style="mix-blend-mode:multiply">
<path d="M75.2553 62.4929L68.2329 57.476L62.3502 63.9665L61.6396 56.7841C69.2556 57.7965 72.6442 52.0697 73.9149 48.9188L75.2581 62.4929H75.2553Z" fill="#D9A89E"/>
</g>
<g id="Vector_138" style="mix-blend-mode:soft-light">
<path d="M68.0492 47.4959C68.2944 48.1638 64.2927 48.6011 64.1534 47.9392C64.0113 47.2773 67.7203 46.6034 68.0492 47.4959Z" fill="white"/>
</g>
<g id="Vector_139" style="mix-blend-mode:soft-light">
<path d="M63.6648 47.9154C63.8989 48.2718 61.8312 48.7271 61.3185 48.1789C60.8057 47.6308 63.3304 47.4062 63.6648 47.9154Z" fill="white"/>
</g>
<path id="Vector_140" d="M95.4532 58.2937L87.9905 54.0735L82.7572 61.1811L79.377 44.0098L92.073 41.1224L95.4532 58.2937Z" fill="#DE5A49"/>
<path id="Vector_141" d="M83.2666 43.1262L86.0728 56.6763L87.99 54.0735L90.6178 55.5591L87.9371 42.0629L83.2666 43.1262Z" fill="#F2F2F2"/>
<path id="Vector_142" d="M88.5846 47.9425L88.1303 48.0143L88.0272 47.6489L87.2525 48.1911L87.233 46.6875L86.7621 46.996L86.3719 46.5767L86.1629 47.1248L85.6195 47.0379L86.1462 48.4337L85.2378 48.2569L85.274 48.6373L84.8281 48.7601L85.2071 49.1166L85.0901 49.3861L85.94 49.6916L85.9957 49.9882L86.8568 49.8025L87.0268 50.701C87.0407 50.7699 87.1048 50.8178 87.1689 50.8028C87.233 50.7879 87.2776 50.719 87.2637 50.6501L87.0937 49.7515L87.9548 49.5658L87.899 49.2693L88.5706 48.6343L88.3644 48.4337L88.5846 47.9484V47.9425Z" fill="#DE5A49"/>
<g id="Vector_143" style="mix-blend-mode:multiply">
<path d="M95.4527 58.2936L87.99 54.0764L82.7566 61.1809L81.3633 54.1153C89.035 54.283 91.8607 48.2118 92.8221 44.9381L95.4499 58.2936H95.4527Z" fill="#D9A89E"/>
</g>
<g id="Vector_144" style="mix-blend-mode:soft-light">
<path d="M86.8564 44.1683C87.1657 44.8033 83.2253 45.6808 83.0219 45.0399C82.8185 44.3989 86.4439 43.3177 86.8564 44.1683Z" fill="white"/>
</g>
<g id="Vector_145" style="mix-blend-mode:soft-light">
<path d="M82.5361 45.067C82.8036 45.3965 80.7889 46.0764 80.226 45.5882C79.6631 45.1 82.1543 44.5968 82.5361 45.067Z" fill="white"/>
</g>
<path id="Vector_146" d="M53.9785 64.2452L47.4577 58.4974L41.001 64.326L40.9062 46.7744L53.8838 46.6935L53.9785 64.2452Z" fill="#DE5A49"/>
<path id="Vector_147" d="M44.8838 46.7502L45.0928 60.6328L47.4587 58.4972L49.7549 60.5219L49.6574 46.7202L44.8838 46.7502Z" fill="#F2F2F2"/>
<path id="Vector_148" d="M49.1889 52.6209L48.7291 52.5939L48.6957 52.2135L47.8346 52.5759L48.0994 51.0993L47.581 51.3L47.2773 50.8058L46.9708 51.297L46.4552 51.0933L46.7088 52.5729L45.8505 52.2015L45.8143 52.5819L45.3545 52.6059L45.6582 53.0372L45.4938 53.2768L46.2685 53.759V54.0615L47.1463 54.0645V54.9811C47.1435 55.0529 47.1965 55.1098 47.2634 55.1128C47.3302 55.1128 47.3832 55.0559 47.386 54.984V54.0675L48.2666 54.0705V53.768L49.0468 53.2918L48.8824 53.0522L49.1889 52.6239V52.6209Z" fill="#DE5A49"/>
<g id="Vector_149" style="mix-blend-mode:multiply">
<path d="M53.9794 64.2452L47.4586 58.4974L41.0019 64.323L40.9629 57.0987C48.4479 58.9258 52.3492 53.5914 53.907 50.5902L53.9794 64.2422V64.2452Z" fill="#D9A89E"/>
</g>
<g id="Vector_150" style="mix-blend-mode:soft-light">
<path d="M48.2054 48.5474C48.3893 49.2363 44.3654 49.2453 44.2873 48.5684C44.2093 47.8945 47.9602 47.6219 48.2054 48.5474Z" fill="white"/>
</g>
<g id="Vector_151" style="mix-blend-mode:soft-light">
<path d="M43.8056 48.4936C44.0062 48.874 41.9051 49.1046 41.4453 48.5055C40.9855 47.9065 43.5186 47.9514 43.8056 48.4936Z" fill="white"/>
</g>
<path id="Vector_152" d="M32.6752 63.7121L26.8399 57.1736L19.7812 62.1336L21.6344 44.6927L34.5255 46.2742L32.6752 63.7121Z" fill="#DE5A49"/>
<path id="Vector_153" d="M25.5831 45.1779L24.2539 58.9886L26.8399 57.1735L28.8937 59.4738L30.3261 45.7589L25.5831 45.1779Z" fill="#F2F2F2"/>
<path id="Vector_154" d="M29.2081 51.5575L28.7567 51.4706L28.765 51.0902L27.8705 51.3418L28.2969 49.9071L27.759 50.0389L27.511 49.5088L27.1515 49.9581L26.6611 49.6885L26.7503 51.1891L25.9393 50.7128L25.8613 51.0842L25.4043 51.0483L25.6579 51.5156L25.4684 51.7312L26.1846 52.3093L26.1511 52.6118L27.0233 52.7286L26.9175 53.6391C26.9091 53.711 26.9565 53.7739 27.0233 53.7829C27.0902 53.7919 27.1488 53.741 27.1571 53.6691L27.263 52.7585L28.1352 52.8754L28.1687 52.5728L28.9935 52.1984L28.857 51.9379L29.2081 51.5515V51.5575Z" fill="#DE5A49"/>
<g id="Vector_155" style="mix-blend-mode:multiply">
<path d="M32.675 63.712L26.8369 57.1706L19.7783 62.1306L20.5391 54.9541C27.7677 57.7247 32.2347 52.9264 34.1129 50.1499L32.6722 63.712H32.675Z" fill="#D9A89E"/>
</g>
<g id="Vector_156" style="mix-blend-mode:soft-light">
<path d="M28.682 47.3883C28.7879 48.0951 24.7919 47.5889 24.7891 46.909C24.7863 46.2291 28.5427 46.4418 28.682 47.3883Z" fill="white"/>
</g>
<g id="Vector_157" style="mix-blend-mode:soft-light">
<path d="M24.3202 46.7713C24.4763 47.1727 22.3668 47.1337 21.9766 46.4808C21.5865 45.8279 24.0973 46.1963 24.3202 46.7713Z" fill="white"/>
</g>
<path id="Vector_158" d="M97.6045 45.0729C97.6045 45.0729 98.4488 36.8722 99.4911 37.8216C100.536 38.7711 100.937 43.0871 100.656 45.0729C100.656 45.0729 103.066 45.8487 103.668 47.5769" fill="#FB9D89"/>
<path id="Vector_159" d="M97.6044 45.0728C97.7019 43.7908 97.8412 42.5119 98.0419 41.2419C98.1422 40.607 98.2536 39.972 98.4041 39.343C98.4822 39.0285 98.5685 38.717 98.6828 38.4115C98.7413 38.2587 98.8026 38.106 98.889 37.9592C98.9308 37.8843 98.9837 37.8125 99.0478 37.7436C99.1119 37.6777 99.2095 37.6088 99.3349 37.6118C99.4575 37.6148 99.5578 37.6957 99.608 37.7556L99.7779 37.9472C99.8643 38.088 99.9647 38.2258 100.026 38.3786C100.098 38.5283 100.163 38.6781 100.213 38.8338C100.271 38.9866 100.319 39.1423 100.36 39.2981C100.536 39.9241 100.639 40.565 100.72 41.209C100.868 42.4939 100.932 43.7938 100.751 45.0877L100.684 44.9769C101.001 45.0937 101.302 45.2345 101.598 45.3962C101.89 45.558 102.18 45.7347 102.445 45.9473C102.71 46.16 102.96 46.3966 103.175 46.6662C103.387 46.9387 103.557 47.2472 103.668 47.5767C103.534 47.2532 103.345 46.9657 103.128 46.7111C102.905 46.4595 102.648 46.2439 102.378 46.0492C101.835 45.6718 101.241 45.3723 100.628 45.1686L100.553 45.1446L100.564 45.0578C100.639 44.4288 100.633 43.7878 100.62 43.1528C100.6 42.5149 100.55 41.8769 100.466 41.2479C100.383 40.6159 100.268 39.99 100.101 39.3849C100.059 39.2322 100.018 39.0824 99.9647 38.9386C99.9173 38.7889 99.8588 38.6481 99.7947 38.5103C99.7389 38.3666 99.6498 38.2498 99.5773 38.118C99.4881 38.0221 99.3822 37.8664 99.3265 37.8814C99.2708 37.8694 99.1649 37.9772 99.0952 38.1C99.02 38.2228 98.9587 38.3666 98.9029 38.5073C98.7915 38.7979 98.7051 39.1004 98.6243 39.4089C98.4626 40.0229 98.3317 40.6489 98.2118 41.2749C97.9805 42.5328 97.7827 43.7998 97.6016 45.0728H97.6044Z" fill="#AD5300"/>
<path id="Vector_160" d="M99.4046 38.7591C98.9002 38.7112 98.5156 40.7539 98.5156 40.7539C98.5156 40.7539 99.6832 40.5173 100.029 40.8258C100.029 40.8258 100.101 38.825 99.4074 38.7591H99.4046Z" fill="#FCD1CA"/>
<path id="Vector_161" d="M18.7141 47.9304C18.7141 47.9304 14.7403 40.8708 14.1634 42.2036C13.5866 43.5365 14.913 47.6339 15.9441 49.3082C15.9441 49.3082 14.0631 51.1023 14.1913 52.9413" fill="#FB9D89"/>
<path id="Vector_162" d="M18.7136 47.9305C18.0532 46.8582 17.376 45.798 16.6738 44.7616C16.3199 44.2435 15.9548 43.7373 15.5703 43.2521C15.378 43.0095 15.1801 42.7728 14.9655 42.5602C14.8597 42.4553 14.7482 42.3535 14.6312 42.2756C14.5197 42.1948 14.3804 42.1468 14.3358 42.1828C14.28 42.1948 14.2438 42.3805 14.202 42.5093C14.1853 42.659 14.1518 42.8058 14.1574 42.9615C14.1518 43.1173 14.1546 43.27 14.1686 43.4288C14.1769 43.5845 14.1964 43.7403 14.2187 43.896C14.3051 44.522 14.4444 45.142 14.6172 45.75C14.79 46.361 14.9906 46.9631 15.2219 47.5501C15.4588 48.1342 15.704 48.7182 16.0189 49.2544L16.0607 49.3293L16.0022 49.3862C15.5257 49.8474 15.1049 50.3895 14.7593 50.9736C14.5921 51.2701 14.4444 51.5816 14.3386 51.9111C14.241 52.2436 14.1825 52.588 14.1881 52.9414C14.1602 52.591 14.1936 52.2346 14.28 51.8901C14.3692 51.5487 14.5057 51.2222 14.6618 50.9077C14.8179 50.5932 15.0101 50.3027 15.2136 50.0241C15.4198 49.7456 15.6371 49.479 15.8796 49.2304L15.8629 49.3622C15.1941 48.269 14.7426 47.0589 14.3748 45.8279C14.1964 45.2079 14.0404 44.5819 13.954 43.932C13.9317 43.7702 13.9122 43.6085 13.9066 43.4438C13.8927 43.279 13.8899 43.1143 13.8983 42.9466C13.8927 42.7818 13.9317 42.6111 13.954 42.4434L14.032 42.1918C14.0543 42.1139 14.1128 41.9971 14.2243 41.9372C14.3358 41.8773 14.4528 41.8953 14.5364 41.9252C14.6228 41.9552 14.698 42.0001 14.7649 42.048C14.9015 42.1439 15.0185 42.2517 15.13 42.3655C15.3529 42.5931 15.5535 42.8387 15.7458 43.0873C16.1276 43.5875 16.4759 44.1147 16.8159 44.6448C17.4958 45.7081 18.1201 46.8043 18.7108 47.9245L18.7136 47.9305Z" fill="#AD5300"/>
<path id="Vector_163" d="M14.6086 43.0151C15.0489 42.7426 16.197 44.4229 16.197 44.4229C16.197 44.4229 15.0461 44.7344 14.8538 45.1717C14.8538 45.1717 14.0067 43.3895 14.6086 43.0151Z" fill="#FCD1CA"/>
</g>
</g>
</g>
</g>
</g>
<defs>
<linearGradient id="paint0_linear_1078_325" x1="160.326" y1="92.0148" x2="149.795" y2="81.1862" gradientUnits="userSpaceOnUse">
<stop stop-color="#D16969" stop-opacity="0"/>
<stop offset="1" stop-color="#BA625A" stop-opacity="0.5"/>
</linearGradient>
<linearGradient id="paint1_linear_1078_325" x1="145.236" y1="84.8848" x2="141.97" y2="84.8848" gradientUnits="userSpaceOnUse">
<stop stop-color="#D16969" stop-opacity="0"/>
<stop offset="1" stop-color="#BA625A" stop-opacity="0.5"/>
</linearGradient>
</defs>
</svg>
