<svg width="32" height="32" viewBox="0 0 32 32" fill="none" xmlns="http://www.w3.org/2000/svg">
<g id="Group">
<g id="Group_2">
<path id="Vector" d="M30.7765 6.41536L24.2972 4.54205V29.4852C24.2972 29.6135 24.2972 29.7418 24.2715 29.8445C25.0685 29.9214 25.8142 29.4339 26.0456 28.6384L31.9336 8.49395C32.1907 7.62145 31.6765 6.67197 30.7765 6.41536Z" fill="#071C2C"/>
<path id="Vector_2" d="M9.48764 7.31354C8.79342 7.62148 8.17634 8.05773 7.66211 8.59662H8.92198C9.07625 8.13471 9.28195 7.69846 9.48764 7.31354Z" fill="#071C2C"/>
<path id="Vector_3" d="M8.61285 9.72589H6.83875C6.47878 10.3674 6.22167 11.1116 6.14453 11.8815H8.35574C8.38145 11.1116 8.48429 10.3931 8.61285 9.72589Z" fill="#071C2C"/>
<path id="Vector_4" d="M15.7874 8.59662C15.2732 8.05773 14.6561 7.62148 13.9619 7.31354C14.1933 7.6728 14.3733 8.10905 14.5276 8.59662H15.7874Z" fill="#071C2C"/>
<path id="Vector_5" d="M7.66211 16.2951C8.17634 16.834 8.79342 17.2702 9.48764 17.5782C9.25623 17.2189 9.07625 16.7827 8.92198 16.2951H7.66211Z" fill="#071C2C"/>
<path id="Vector_6" d="M13.9621 11.8815C13.9364 11.086 13.8336 10.3674 13.6793 9.72589H9.79682C9.64255 10.3674 9.5397 11.086 9.48828 11.8815H13.9621Z" fill="#071C2C"/>
<path id="Vector_7" d="M11.725 6.85181C11.1593 6.85181 10.568 7.51901 10.1309 8.5968H13.2934C12.882 7.51901 12.2906 6.85181 11.725 6.85181Z" fill="#071C2C"/>
<path id="Vector_8" d="M8.35574 13.0107H6.14453C6.22167 13.7805 6.45307 14.5247 6.83875 15.1663H8.61285C8.48429 14.4991 8.38145 13.7805 8.35574 13.0107Z" fill="#071C2C"/>
<path id="Vector_9" d="M15.0931 11.8815H17.3043C17.2271 11.1116 16.9957 10.3674 16.61 9.72589H14.8359C14.9645 10.3931 15.0673 11.1116 15.0931 11.8815Z" fill="#071C2C"/>
<path id="Vector_10" d="M11.725 18.0401C12.2906 18.0401 12.882 17.3729 13.3191 16.2951H10.1309C10.568 17.3729 11.1593 18.0401 11.725 18.0401Z" fill="#071C2C"/>
<path id="Vector_11" d="M14.8359 15.1663H16.61C16.97 14.5247 17.2271 13.7805 17.3043 13.0107H15.0931C15.0673 13.7805 14.9645 14.4991 14.8359 15.1663Z" fill="#071C2C"/>
<path id="Vector_12" d="M5.8872 22.8645H4.91016V24.7121H5.8872C6.65855 24.7121 7.04423 24.4042 7.04423 23.7883C7.01852 23.1724 6.63284 22.8645 5.8872 22.8645Z" fill="#071C2C"/>
<path id="Vector_13" d="M8.99902 24.866H10.336L9.64182 23.429L8.99902 24.866Z" fill="#071C2C"/>
<path id="Vector_14" d="M20.9293 0H2.51975C1.13131 0 0 1.12911 0 2.51484V29.4853C0 30.871 1.13131 32.0001 2.51975 32.0001H20.955C22.3435 32.0001 23.4748 30.871 23.4748 29.4853V2.54051C23.4748 1.12911 22.3435 0 20.9293 0ZM11.7245 5.72255C15.427 5.72255 18.4353 8.72497 18.4353 12.4202C18.4353 16.1155 15.427 19.1436 11.7245 19.1436C8.02205 19.1436 5.01378 16.1412 5.01378 12.4459C5.01378 8.75063 8.02205 5.72255 11.7245 5.72255ZM4.91093 25.5847V26.6368C4.91093 26.8678 4.73095 27.0474 4.49955 27.0474H4.44812C4.21672 27.0474 4.03674 26.8678 4.03674 26.6368V22.4026C4.03674 22.1717 4.21672 21.9921 4.44812 21.9921H5.88798C7.14785 21.9921 7.9192 22.6849 7.9192 23.7884C7.9192 24.9175 7.14785 25.6103 5.88798 25.6103L4.91093 25.5847ZM12.0074 26.8678C11.9302 26.9961 11.8017 27.0731 11.6474 27.0731H11.6217C11.4674 27.0731 11.3131 26.9704 11.236 26.8164L10.7475 25.7387H8.61342L8.12489 26.8164C8.04776 26.9704 7.89349 27.0731 7.73922 27.0731H7.6878C7.53352 27.0731 7.40497 26.9961 7.32783 26.8678C7.2507 26.7395 7.2507 26.5855 7.30212 26.4572L9.25621 22.223C9.33334 22.069 9.48761 21.9664 9.64188 21.9664H9.69331H9.74473C9.899 21.9664 10.0533 22.069 10.1304 22.223L12.1102 26.4572C12.1102 26.6111 12.0845 26.7651 12.0074 26.8678ZM13.8843 27.0731C13.2672 27.0731 12.5987 26.8164 12.1616 26.3802C12.0845 26.3032 12.0331 26.2006 12.0331 26.0723C12.0331 25.9696 12.0845 25.8413 12.1616 25.7643L12.1873 25.7387C12.3416 25.5847 12.6244 25.5847 12.7787 25.7387C13.0358 25.9953 13.4729 26.1749 13.8843 26.1749C14.3214 26.1749 14.8614 26.0209 14.8614 25.636C14.8614 25.2511 14.63 25.1228 13.8586 24.8918C13.1901 24.6865 12.2645 24.4042 12.2645 23.3265C12.2645 22.5309 12.9844 21.9921 14.0386 21.9921C14.5014 21.9921 14.9899 22.1204 15.3499 22.3513C15.4527 22.4026 15.5041 22.5053 15.5299 22.6079C15.5556 22.7106 15.5299 22.8389 15.4784 22.9159V22.9415C15.3499 23.1468 15.0928 23.1981 14.9128 23.0698C14.7071 22.9415 14.3471 22.8645 14.0386 22.8645C13.6272 22.8645 13.1644 22.9929 13.1644 23.3265C13.1644 23.6857 13.3958 23.814 14.1414 24.045C14.8356 24.2503 15.7613 24.5326 15.7613 25.636C15.7356 26.5085 14.9899 27.0731 13.8843 27.0731ZM17.5611 27.0731C16.944 27.0731 16.2755 26.8164 15.8384 26.3802C15.7613 26.3032 15.7098 26.2006 15.7098 26.0723C15.7098 25.9696 15.7613 25.8413 15.8384 25.7643L15.8641 25.7387C16.0184 25.5847 16.3012 25.5847 16.4555 25.7387C16.7126 25.9953 17.1497 26.1749 17.5611 26.1749C17.9982 26.1749 18.5381 26.0209 18.5381 25.636C18.5381 25.2511 18.3067 25.1228 17.5354 24.8918C16.8669 24.6865 15.9412 24.4042 15.9412 23.3265C15.9412 22.5309 16.6612 21.9921 17.7154 21.9921C18.1782 21.9921 18.6667 22.1204 19.0266 22.3513C19.1295 22.4026 19.1809 22.5053 19.2066 22.6079C19.2323 22.7106 19.2066 22.8389 19.1552 22.9415H19.1295C19.0009 23.1468 18.7438 23.1981 18.5638 23.0698C18.3581 22.9415 17.9982 22.8645 17.7154 22.8645C17.304 22.8645 16.8412 22.9929 16.8412 23.3265C16.8412 23.6857 17.0726 23.814 17.8182 24.045C18.5124 24.2503 19.438 24.5326 19.438 25.636C19.4123 26.5085 18.6667 27.0731 17.5611 27.0731Z" fill="#071C2C"/>
<path id="Vector_15" d="M9.48828 13.0107C9.51399 13.8062 9.61684 14.5247 9.79682 15.1663H13.6793C13.8336 14.5247 13.9364 13.8062 13.9878 13.0107H9.48828Z" fill="#071C2C"/>
<path id="Vector_16" d="M13.9619 17.5782C14.6561 17.2702 15.2732 16.834 15.7874 16.2951H14.5276C14.3733 16.757 14.1676 17.1933 13.9619 17.5782Z" fill="#071C2C"/>
</g>
</g>
</svg>
