<svg width="211" height="135" viewBox="0 0 211 135" fill="none" xmlns="http://www.w3.org/2000/svg">
<g id="Group 1000004685">
<path id="Vector" d="M105.5 134.4C163.766 134.4 211 132.967 211 131.2C211 129.433 163.766 128 105.5 128C47.234 128 0 129.433 0 131.2C0 132.967 47.234 134.4 105.5 134.4Z" fill="#D3E7E0"/>
<path id="Vector_2" d="M10.8294 130.133C10.8294 130.133 5.35483 124.718 7.4972 123.094C9.63957 121.47 11.9381 127.958 11.9381 127.958C11.9381 127.958 11.8975 122.86 13.9993 122.671C16.2509 122.47 13.9993 130.112 13.9993 130.112L10.8263 130.133H10.8294Z" fill="#D3E7E0"/>
<path id="Vector_3" d="M207.171 130.133C207.171 130.133 212.645 125.492 210.503 124.1C208.36 122.708 206.062 128.269 206.062 128.269C206.062 128.269 206.103 123.899 204.001 123.737C201.749 123.565 204.001 130.115 204.001 130.115L207.174 130.133H207.171Z" fill="#D3E7E0"/>
<path id="Vector_4" d="M97.3701 125.863C97.2178 125.863 97.0945 125.705 97.0945 125.51V119.903C97.0945 119.809 97.1234 119.722 97.1759 119.654L99.4488 116.74V113.674L97.0814 110.638C97.0289 110.571 97 110.484 97 110.389V103.82C97 103.625 97.1234 103.467 97.2756 103.467C97.4278 103.467 97.5512 103.625 97.5512 103.82V110.245L99.9186 113.28C99.9711 113.348 100 113.435 100 113.529V116.888C100 116.982 99.9711 117.07 99.9186 117.137L97.6457 120.051V125.513C97.6457 125.709 97.5223 125.867 97.3701 125.867V125.863Z" fill="#E59C25"/>
<path id="Vector_5" d="M103.338 126.933C103.151 126.933 103 126.772 103 126.573V120.094C103 119.998 103.035 119.909 103.1 119.84L104.325 118.533V114.494C104.325 114.295 104.476 114.133 104.662 114.133C104.849 114.133 105 114.295 105 114.494V118.68C105 118.776 104.965 118.866 104.9 118.934L103.675 120.242V126.573C103.675 126.772 103.524 126.933 103.338 126.933Z" fill="#E59C25"/>
<path id="Vector_6" d="M110.635 126.933C110.433 126.933 110.27 126.766 110.27 126.56V111.319L107.108 108.089C107.038 108.018 107 107.926 107 107.826V102.773C107 102.567 107.163 102.4 107.365 102.4C107.567 102.4 107.73 102.567 107.73 102.773V107.674L110.892 110.904C110.962 110.975 111 111.067 111 111.167V126.56C111 126.766 110.837 126.933 110.635 126.933Z" fill="#E59C25"/>
<path id="Vector_7" d="M116.665 126.93C116.48 126.93 116.33 126.767 116.33 126.567V122.424L114.099 120.007C114.035 119.938 114 119.848 114 119.751V112.821C114 112.724 114.035 112.634 114.099 112.565L116.209 110.279V105.963C116.209 105.763 116.359 105.6 116.544 105.6C116.729 105.6 116.879 105.763 116.879 105.963V110.431C116.879 110.528 116.844 110.618 116.78 110.687L114.67 112.973V119.602L116.901 122.019C116.965 122.089 117 122.178 117 122.275V126.57C117 126.771 116.85 126.933 116.665 126.933V126.93Z" fill="#E59C25"/>
<path id="Vector_8" d="M122.229 128C122.103 128 122 127.833 122 127.627V125.501C122 125.402 122.024 125.309 122.068 125.238L123.542 122.835V119.124L122.148 116.852C122.105 116.781 122.081 116.689 122.081 116.589V110.24C122.081 110.034 122.183 109.867 122.31 109.867C122.436 109.867 122.539 110.034 122.539 110.24V116.436L123.932 118.708C123.976 118.779 124 118.871 124 118.971V122.991C124 123.091 123.976 123.183 123.932 123.254L122.458 125.658V127.627C122.458 127.833 122.356 128 122.229 128Z" fill="#E59C25"/>
<path id="Vector_9" d="M129.526 125.867C129.265 125.867 129.053 125.707 129.053 125.509V116.621L127.14 115.177C127.05 115.109 127 115.02 127 114.925V113.181C127 113.086 127.05 112.998 127.14 112.929L128.8 111.676V107.024C128.8 106.827 129.012 106.667 129.274 106.667C129.535 106.667 129.747 106.827 129.747 107.024V111.823C129.747 111.918 129.698 112.007 129.608 112.075L127.947 113.328V114.775L129.86 116.219C129.95 116.287 130 116.376 130 116.471V125.509C130 125.707 129.788 125.867 129.526 125.867Z" fill="#E59C25"/>
<path id="Vector_10" d="M99 102.934C99 103.816 98.103 104.533 97 104.533C95.897 104.533 95 103.816 95 102.934C95 102.051 95.897 101.333 97 101.333C98.103 101.333 99 102.051 99 102.934Z" fill="#1C2F35"/>
<path id="Vector_11" d="M106 113.6C106 114.483 105.327 115.2 104.5 115.2C103.673 115.2 103 114.483 103 113.6C103 112.718 103.673 112 104.5 112C105.327 112 106 112.718 106 113.6Z" fill="#1C2F35"/>
<path id="Vector_12" d="M109 102.933C109 103.816 108.327 104.533 107.5 104.533C106.673 104.533 106 103.816 106 102.933C106 102.051 106.673 101.333 107.5 101.333C108.327 101.333 109 102.051 109 102.933Z" fill="#1C2F35"/>
<path id="Vector_13" d="M118 106.133C118 107.016 117.327 107.733 116.5 107.733C115.673 107.733 115 107.016 115 106.133C115 105.251 115.673 104.533 116.5 104.533C117.327 104.533 118 105.251 118 106.133Z" fill="#1C2F35"/>
<path id="Vector_14" d="M123 109.333C123 110.216 122.327 110.933 121.5 110.933C120.673 110.933 120 110.216 120 109.333C120 108.451 120.673 107.733 121.5 107.733C122.327 107.733 123 108.451 123 109.333Z" fill="#1C2F35"/>
<path id="Vector_15" d="M130 106.133C130 107.016 129.327 107.733 128.5 107.733C127.673 107.733 127 107.016 127 106.133C127 105.251 127.673 104.533 128.5 104.533C129.327 104.533 130 105.251 130 106.133Z" fill="#1C2F35"/>
<path id="Vector_16" d="M136.131 127.997H90.8691C89.2849 127.997 88 126.632 88 124.949V72.1871C88 57.2377 99.2813 44.887 113.35 44.8006C127.478 44.7142 139 56.899 139 71.8899V124.952C139 126.635 137.715 128 136.131 128V127.997ZM92.0272 125.325H134.97C135.806 125.325 136.485 124.607 136.485 123.715V72.156C136.485 58.6822 126.317 47.5479 113.633 47.4684C100.898 47.3924 90.5113 58.3746 90.5113 71.8864V123.715C90.5113 124.603 91.1879 125.325 92.0272 125.325Z" fill="#1C2F35"/>
<path id="Vector_17" d="M144 131.2H82.0008C81.9585 128.857 83.6369 126.933 85.7251 126.933H140.269C142.296 126.933 143.951 128.755 143.993 131.029V131.2H144Z" fill="#1C2F35"/>
<path id="Vector_18" d="M125.05 74.7173C123.984 76.6989 122.944 78.6979 121.947 80.7214C121.075 82.4866 120.235 84.2659 119.434 86.0695L117.878 89.5687L116.041 89.5756L107.238 89.6001L106.16 87.2033C105.672 86.1184 105.172 85.0369 104.662 83.9658C103.173 80.8365 101.591 77.7595 99.9536 74.7173C98.7169 72.4183 98.0097 69.7494 98 66.9027C97.9807 58.331 104.332 51.3536 112.234 51.2001C112.289 51.2001 112.343 51.2001 112.398 51.2001C112.537 51.2001 112.679 51.2001 112.818 51.2001C120.639 51.385 126.981 58.317 127 66.8224C127.006 69.7006 126.296 72.3973 125.046 74.7208L125.05 74.7173Z" fill="#E59C25"/>
<path id="Vector_19" d="M125.076 74.7173C124.027 76.6989 123.003 78.6979 122.021 80.7214C121.162 82.4866 120.335 84.2659 119.547 86.0695L118.014 89.5687L116.205 89.5756L107.537 89.6001L106.475 87.2033C105.995 86.1184 105.502 85.0369 105 83.9658C113.839 85.0962 121.165 76.6291 122.227 66.8852C123.343 56.6424 115.417 52.1909 112.459 51.2001C112.513 51.2001 112.568 51.2001 112.622 51.2001C112.758 51.2001 112.898 51.2001 113.035 51.2001C120.736 51.385 126.981 58.317 127 66.8224C127.006 69.7006 126.307 72.3973 125.076 74.7208V74.7173Z" fill="#A8681B"/>
<path id="Vector_20" d="M109.762 89.6002C109.641 89.6002 109.542 89.5231 109.525 89.4215L107.001 69.5552C106.989 69.4466 107.08 69.3485 107.213 69.3345C107.346 69.3239 107.458 69.401 107.475 69.5131L109.999 89.3794C110.011 89.488 109.92 89.5861 109.787 89.6002C109.779 89.6002 109.77 89.6002 109.762 89.6002Z" fill="#1C2F35"/>
<path id="Vector_21" d="M117.999 69.5523L117.907 70.6422L117.807 71.8126L116.315 89.4214C116.306 89.5231 116.237 89.6002 116.157 89.6002C116.151 89.6002 116.146 89.6002 116.14 89.6002C116.054 89.5896 115.99 89.488 116.001 89.3794L117.388 73.0075L117.497 71.739L117.685 69.5103C117.694 69.4017 117.774 69.3211 117.86 69.3351C117.946 69.3456 118.01 69.4472 117.999 69.5558V69.5523Z" fill="#1C2F35"/>
<path id="Vector_22" d="M117.997 70.4416L117.883 71.9794L117.69 73.0707C117.649 73.2963 117.545 73.4712 117.405 73.5495C117.349 73.5817 117.285 73.6001 117.219 73.6001C116.994 73.6001 116.801 73.3837 116.748 73.066L116.393 71.0586C116.371 70.9296 116.292 70.9204 116.27 70.9204C116.248 70.9204 116.169 70.9296 116.147 71.0586L115.793 73.066C115.739 73.3837 115.546 73.6001 115.321 73.6001C115.097 73.6001 114.904 73.3837 114.847 73.066L114.493 71.0586C114.471 70.9296 114.395 70.9204 114.369 70.9204C114.344 70.9204 114.268 70.9296 114.246 71.0586L113.892 73.066C113.835 73.3837 113.645 73.6001 113.417 73.6001C113.19 73.6001 113 73.3837 112.943 73.066L112.589 71.0586C112.567 70.9296 112.488 70.9204 112.466 70.9204C112.44 70.9204 112.364 70.9296 112.342 71.0586L111.988 73.066C111.931 73.3837 111.741 73.6001 111.517 73.6001C111.292 73.6001 111.102 73.3837 111.046 73.066L110.691 71.0586C110.669 70.9296 110.59 70.9204 110.568 70.9204C110.543 70.9204 110.467 70.9296 110.445 71.0586L110.09 73.066C110.037 73.3837 109.844 73.6001 109.619 73.6001C109.505 73.6001 109.401 73.5449 109.319 73.4528C109.237 73.3607 109.173 73.2272 109.145 73.066L108.791 71.0632C108.769 70.9342 108.689 70.925 108.667 70.925C108.645 70.925 108.566 70.9342 108.544 71.0632L108.19 73.0707C108.171 73.1719 108.139 73.264 108.095 73.3469L108 72.0393L108.193 70.9342C108.25 70.6166 108.44 70.4001 108.667 70.4001C108.781 70.4001 108.886 70.4554 108.968 70.5475C109.05 70.6396 109.113 70.7731 109.142 70.9342L109.496 72.9417C109.518 73.0707 109.597 73.0799 109.619 73.0799C109.641 73.0799 109.72 73.0707 109.743 72.9417L110.097 70.9342C110.154 70.6166 110.343 70.4001 110.571 70.4001C110.685 70.4001 110.789 70.4554 110.872 70.5475C110.954 70.6396 111.017 70.7731 111.042 70.9342L111.397 72.9417C111.419 73.0707 111.498 73.0799 111.52 73.0799C111.542 73.0799 111.621 73.0707 111.643 72.9417L111.997 70.9342C112.054 70.6166 112.244 70.4001 112.472 70.4001C112.7 70.4001 112.886 70.6166 112.943 70.9342L113.297 72.9417C113.319 73.0707 113.398 73.0799 113.421 73.0799C113.443 73.0799 113.522 73.0707 113.544 72.9417L113.898 70.9342C113.952 70.6166 114.145 70.4001 114.369 70.4001C114.483 70.4001 114.588 70.4554 114.67 70.5475C114.752 70.6396 114.815 70.7731 114.844 70.9342L115.198 72.9417C115.22 73.0707 115.299 73.0799 115.321 73.0799C115.343 73.0799 115.423 73.0707 115.445 72.9417L115.799 70.9342C115.856 70.6166 116.046 70.4001 116.273 70.4001C116.501 70.4001 116.691 70.6166 116.748 70.9342L117.102 72.9417C117.124 73.0707 117.203 73.0799 117.225 73.0799C117.25 73.0799 117.326 73.0707 117.349 72.9417L117.535 71.8873L117.703 70.9296C117.744 70.6948 117.858 70.5199 118 70.4416H117.997Z" fill="#1C2F35"/>
<path id="Vector_23" d="M110 97.0668C110 97.0668 110 97.1006 110 97.1175C110 98.8591 111.121 100.267 112.5 100.267C113.879 100.267 115 98.8549 115 97.1175C115 97.1006 115 97.0837 115 97.0668H110Z" fill="#44584F"/>
<path id="Vector_24" d="M119.024 89.6001H106.976C106.437 89.6001 106 90.0302 106 90.5607V91.8395C106 92.37 106.437 92.8001 106.976 92.8001H119.024C119.563 92.8001 120 92.37 120 91.8395V90.5607C120 90.0302 119.563 89.6001 119.024 89.6001Z" fill="#1C2F35"/>
<path id="Vector_25" d="M119.024 92.8002H106.976C106.437 92.8002 106 93.3736 106 94.081V95.786C106 96.4934 106.437 97.0668 106.976 97.0668H119.024C119.563 97.0668 120 96.4934 120 95.786V94.081C120 93.3736 119.563 92.8002 119.024 92.8002Z" fill="#1C2F35"/>
<path id="Vector_26" d="M116.261 94.9335H109.739C109.331 94.9335 109 95.3635 109 95.8939V97.173C109 97.7035 109.331 98.1335 109.739 98.1335H116.261C116.669 98.1335 117 97.7035 117 97.173V95.8939C117 95.3635 116.669 94.9335 116.261 94.9335Z" fill="#1C2F35"/>
<path id="Vector_27" d="M109.123 96.8441C111.709 96.9496 114.295 96.9613 116.877 97.0668C117.041 97.0668 117.041 96.2346 116.877 96.2228C114.291 96.1173 111.705 96.1056 109.123 96.0001C108.959 96.0001 108.959 96.8324 109.123 96.8441Z" fill="#44584F"/>
<path id="Vector_28" d="M23.1227 1.15103C23.216 1.16185 27.0383 0.700362 27.9541 4.0425C28.8699 7.38465 28.3481 11.1486 30 13.7408C30 13.7408 21.0975 17.4327 16 15.3777C16 15.3777 17.1888 11.246 16.553 7.76681C15.7512 3.39355 18.198 0.530913 23.1227 1.15103Z" fill="#1C2F35"/>
<path id="Vector_29" d="M25 12.8001C25 11.6226 25.6721 10.6667 26.5 10.6667C27.3279 10.6667 28 11.6226 28 12.8001C28 13.9775 27.3279 14.9334 26.5 14.9334C25.6721 14.9334 25 13.9775 25 12.8001ZM25.1589 12.8001C25.1589 13.8515 25.7607 14.7075 26.5 14.7075C27.2393 14.7075 27.8411 13.8515 27.8411 12.8001C27.8411 11.7486 27.2393 10.8927 26.5 10.8927C25.7607 10.8927 25.1589 11.7486 25.1589 12.8001Z" fill="white"/>
<path id="Vector_30" d="M33.1281 23.4668C33.1281 23.4668 37.9197 29.2452 38.6166 29.9679C38.7833 30.1403 45.9024 24.5078 45.9024 24.5078L47.9365 24.8028C48.7801 25.3399 41.0008 35.5142 37.853 35.1927C33.6449 34.765 29 27.5876 29 27.5876L33.1281 23.4668Z" fill="#A33D31"/>
<path id="Vector_31" d="M38.7859 29.8946C38.0305 30.4555 37.4361 31.118 37.0115 31.8612C36.9489 31.9699 37.159 32.061 37.226 31.9488C37.6417 31.2197 38.2227 30.5711 38.9646 30.0208C39.0764 29.9366 38.8976 29.8104 38.7859 29.8946Z" fill="#632216"/>
<path id="Vector_32" d="M30.9387 23.4705C30.9387 23.4705 32.7708 25.3971 32.9453 27.1042C33.1197 28.8113 32.9383 30.3027 31.4936 32.0953C30.0489 33.888 30 34.1335 30 34.1335V28.6774L30.9387 23.4668V23.4705Z" fill="#E59C25"/>
<path id="Vector_33" d="M41 117.333L40.9366 127.944L38.028 128L36 117.333H41Z" fill="#A33D31"/>
<path id="Vector_34" d="M37.6559 130.05C37.7732 130.287 37.9191 130.523 38.1157 130.75C38.8292 131.585 42.4346 130.989 44.0074 131.038C45.5802 131.086 46.6456 131.436 47.8347 130.928C49.0238 130.419 49.1856 129.768 48.8399 129.004C48.7543 128.816 48.526 128.69 48.2184 128.606C47.2639 128.34 45.5294 128.451 44.8001 128.266C43.833 128.023 41.442 125.4 41.442 125.4C41.442 125.4 40.8332 124.438 40.6778 124.95C40.5478 125.381 40.2181 125.821 39.9707 126.103C39.717 126.398 39.3016 126.511 38.9528 126.346C38.8133 126.281 38.6865 126.174 38.5977 126.003C38.2996 125.41 37.973 125.345 37.5988 125.355C37.2247 125.365 36.8315 125.708 37.0756 126.109C37.3198 126.511 37.5703 126.854 37.6337 127.295C37.694 127.735 37.6559 130.053 37.6559 130.053" fill="#E59C25"/>
<path id="Vector_35" d="M48.842 128.478C48.7592 128.253 48.5382 128.101 48.2405 128C48.2958 128.058 48.3572 128.14 48.4155 128.241C48.397 128.257 48.3817 128.276 48.3694 128.311C48.2774 128.56 48.4124 128.762 48.4277 128.843C48.4738 129.123 48.3602 129.379 48.3602 129.379C48.0687 129.764 47.4795 130.21 46.7123 130.284C45.7764 130.374 44.4753 129.853 43.8554 129.515C43.2386 129.177 42.318 129.775 41.4618 130.028C40.6087 130.28 39.5408 128.707 38.835 128.812C38.3379 128.89 38.1108 129.422 38.0218 129.733C37.9297 130.012 38.1476 130.44 38.3348 130.712C39.0222 131.71 42.6463 130.859 44.1684 130.917C45.6905 130.976 46.7215 131.395 47.8723 130.785C49.0231 130.176 49.1796 129.395 48.8451 128.478H48.842Z" fill="white"/>
<path id="Vector_36" d="M36.1908 117.815C36.1908 117.815 35.8637 118.732 36.0661 119.771C36.3291 121.118 37.007 121.6 37.007 121.6L41.2667 121.292C41.2667 121.292 42.6933 119.751 41.5669 117.333L36.1875 117.812L36.1908 117.815Z" fill="#211880"/>
<path id="Vector_37" d="M22.9346 117.333L23 126.776L20.1499 126.933L18 117.828L22.9346 117.333Z" fill="#A33D31"/>
<path id="Vector_38" d="M17.0639 131.2H23.94C23.94 131.2 24.1384 130.806 23.8135 129.718C23.7485 129.498 23.6698 129.223 23.5911 128.927C23.2764 127.751 22.9069 126.22 22.9069 126.22C22.9069 126.22 22.2056 124.651 20.502 124.812C18.942 124.962 19.5304 126.458 19.5304 126.458C19.5304 126.458 19.4141 127.375 18.5247 128.187C17.8712 128.78 17.2213 129.216 17.0468 130.074C16.9818 130.384 16.9818 130.75 17.0639 131.2Z" fill="#E59C25"/>
<path id="Vector_39" d="M17.0639 131.2H23.94C23.94 131.2 24.1384 130.832 23.8135 129.816C23.7485 129.611 23.6698 129.354 23.5911 129.077C23.3619 129.042 23.0472 129.077 22.8864 129.478C22.6127 130.155 22.0517 130.243 21.5659 130.22C21.0801 130.197 20.2659 129.361 18.9591 129.455C17.8336 129.536 17.8439 130.344 17.0468 130.145C16.9818 130.435 16.9818 130.777 17.0639 131.197V131.2Z" fill="white"/>
<path id="Vector_40" d="M18.159 118.759C18.159 118.759 17.8864 119.446 18.055 120.225C18.2743 121.236 18.8392 121.6 18.8392 121.6L22.3889 121.369C22.3889 121.369 23.5778 120.213 22.639 118.4L18.1562 118.759H18.159Z" fill="#211880"/>
<path id="Vector_41" d="M29 36.0829L28.9466 36.3964L28.7631 37.4735L28.4095 39.5357C21.6443 42.1977 16 38.6904 16 38.6904C16.1368 38.3836 16.2168 37.9439 16.2602 37.4769C16.3269 36.8055 16.3202 36.0795 16.3069 35.633C16.3002 35.3671 16.2869 35.2001 16.2869 35.2001L29 36.0863V36.0829Z" fill="#A33D31"/>
<path id="Vector_42" d="M29 35.9379L28.812 36.9741C25.3389 37.4758 20.9942 37.4299 16 36.9741C16.0684 36.3281 16.0615 35.6297 16.0479 35.2001L29 35.9379Z" fill="#632216"/>
<path id="Vector_43" d="M15.5354 40.5369C15.5354 40.5369 12.1744 44.1984 12.0167 49.8012C11.7999 57.4109 13.7612 86.4403 14.0996 91.9878C14.4249 97.3385 15.358 109.853 15.7883 115.591C15.9132 117.242 17.2668 118.485 18.8405 118.396L23.2561 118.143C24.8528 118.054 26.0782 116.62 25.9961 114.941C25.3949 102.485 23.1608 55.7736 23.2955 51.9186C23.4499 47.4696 23.1411 42.0464 23.1411 42.0464L15.5386 40.5334L15.5354 40.5369Z" fill="#4347C7"/>
<path id="Vector_44" d="M17.0769 81.5426C18.6477 82.3981 20.4118 82.3181 21.9414 81.3446C22.0745 81.2603 21.9573 80.999 21.8243 81.0833C20.3484 82.0189 18.6477 82.0736 17.1371 81.2477C17.0009 81.1718 16.9407 81.4668 17.0769 81.5426Z" fill="#211880"/>
<path id="Vector_45" d="M35.6179 60.2052C34.5601 55.9686 34.4237 53.8677 33.5986 50.7423C32.9001 50.4472 31.3332 46.1411 30.6745 45.7592C29.7464 45.2209 28.8449 44.6375 27.9167 44.1027C27.2215 43.6999 26.5295 43.2867 25.8575 42.8422C24.4936 41.9428 23.0731 40.8871 22.1417 39.4668C21.4265 40.5989 20.9807 42.6303 21.0006 45.9883L33.409 116.538C33.5953 117.607 34.4835 118.385 35.5215 118.396C37.3611 118.416 40.222 118.378 42.2014 118.017C43.359 117.805 44.1441 116.673 43.9778 115.461C42.7503 106.512 37.2713 66.8378 35.6146 60.2052H35.6179Z" fill="#4347C7"/>
<path id="Vector_46" d="M34.0708 80.7347C35.3628 81.3152 36.788 81.1263 37.9525 80.2331C38.063 80.1473 37.961 79.9343 37.8477 80.0201C36.7257 80.879 35.3685 81.0542 34.1246 80.4942C34 80.4392 33.9461 80.6797 34.0708 80.7347Z" fill="#211880"/>
<path id="Vector_47" d="M23.8745 54.9721L23.6445 55.0187L34.708 117.176L34.9379 117.13L23.8745 54.9721Z" fill="#211880"/>
<path id="Vector_48" d="M14 43.2954C14 43.2954 15.2762 41.2044 16.0868 38.4001C16.0868 38.4001 20.9369 40.7486 28.8317 39.4091C28.8317 39.4091 31.6084 44.1304 34 51.2001C34 51.2001 15.7518 46.6946 14 43.2954Z" fill="#4347C7"/>
<path id="Vector_49" d="M27 41.7177C27.2509 45.5923 29.8183 48.7858 32.8729 50.1245C33.0013 50.1819 33.0538 49.9458 32.9283 49.8885C29.9671 48.5902 27.4551 45.4743 27.213 41.7177C27.2042 41.5626 26.9912 41.5592 27.0029 41.7177H27Z" fill="#211880"/>
<path id="Vector_50" d="M18.7751 41.7241C18.7282 43.6486 18.013 45.5204 16.7669 46.8468C15.5207 48.1732 13.8185 48.8663 12.1101 48.81C11.9633 48.8065 11.9633 49.0598 12.1101 49.0633C13.8778 49.1231 15.6362 48.3984 16.9261 47.0262C18.216 45.6576 18.9531 43.712 19 41.7241C19.0031 41.5588 18.7782 41.5588 18.7751 41.7241Z" fill="#211880"/>
<path id="Vector_51" d="M22.0005 47.0577C22.2325 50.1772 22.5354 53.2897 22.7675 56.4093C22.7804 56.5731 23.0124 56.5766 22.9995 56.4093C22.7675 53.2897 22.4646 50.1772 22.2325 47.0577C22.2196 46.8939 21.9876 46.8903 22.0005 47.0577Z" fill="#211880"/>
<path id="Vector_52" d="M23.5599 47.0948C23.6671 47.9845 23.743 48.8777 23.7822 49.7781C23.7979 50.1711 23.8215 50.5713 23.811 50.9643C23.7979 51.4145 23.6122 52.2578 23.144 51.9469C23.0341 51.8755 22.94 52.097 23.0472 52.1684C23.6724 52.5865 23.9941 51.5789 23.9993 50.8929C24.0098 49.603 23.8947 48.2953 23.7404 47.0269C23.7195 46.8625 23.539 46.934 23.5573 47.0948H23.5599Z" fill="#211880"/>
<path id="Vector_53" d="M16.033 40.6587C16.7195 41.1097 17.8668 41.1747 18.7729 41.2824C19.9326 41.4205 21.1015 41.5282 22.2766 41.5749C24.5279 41.6643 26.8473 41.5302 28.9408 40.9431C29.0738 40.9066 28.9594 40.7786 28.8264 40.8172C26.8163 41.3799 24.5805 41.5119 22.4189 41.4347C21.284 41.3941 20.1583 41.2966 19.042 41.1666C18.1328 41.061 16.8804 41.0081 16.1907 40.5551C16.0887 40.4881 15.931 40.5917 16.033 40.6587Z" fill="#211880"/>
<path id="Vector_54" d="M31 23.4093C31 23.7713 30.9968 24.1368 30.9873 24.5024C30.9237 27.42 30.6119 30.2873 30.3224 31.9683C30.122 33.1404 29.8516 34.8142 29.6734 35.9181C29.5652 36.5991 29.4889 37.0615 29.4889 37.0615C27.8092 37.7281 21.542 36.9934 15.9462 36.721C15.9462 36.721 15.7903 33.2551 15.2272 30.2909C15.0363 29.2873 14.7977 28.3411 14.5051 27.6064C13.8561 25.9827 13.0862 23.8573 13.0067 22.1333C12.9749 21.4379 13.0544 20.8035 13.2993 20.2982C13.5348 19.8143 13.9197 19.4451 14.5051 19.2408C16.6524 18.4917 19.0797 17.334 19.9991 16.8824C20.2409 16.7641 20.3777 16.696 20.3777 16.696C20.3777 16.696 23.5272 16.1297 26.0277 16.0186C27.2524 15.9649 28.3214 16.0186 28.789 16.3089C29.6957 16.8681 30.3478 18.2767 30.6978 20.0795C30.895 21.0939 30.9968 22.2336 30.9968 23.4128L31 23.4093Z" fill="#E59C25"/>
<path id="Vector_55" d="M27.8138 21.4415C27.7271 22.1237 27.1163 22.4318 26.7726 22.6078C26.1218 22.9434 25.4342 23.0809 24.7534 23.1304C23.1848 23.2405 21.4861 22.8774 20.1411 21.469C20.0376 21.359 19.9408 21.6341 20.0443 21.7386C21.4994 23.2625 23.3717 23.6146 25.0604 23.4165C25.758 23.334 26.4789 23.1635 27.133 22.7344C27.4667 22.5143 27.914 22.1732 27.9974 21.5296C28.0241 21.3315 27.8372 21.249 27.8138 21.447V21.4415Z" fill="#A8681B"/>
<path id="Vector_56" d="M28.7831 17.0668L35 24.2506C35 24.2506 34.4011 26.676 31.5836 27.7334L27 18.5009L28.7865 17.0668H28.7831Z" fill="#E59C25"/>
<path id="Vector_57" d="M33.836 23.5409C33.5222 24.8317 32.9469 25.7729 32.0404 26.4685C31.9474 26.5392 32.0317 26.7215 32.1247 26.6508C33.066 25.9291 33.6733 24.9359 33.9958 23.5967C34.0278 23.4665 33.868 23.4107 33.836 23.5409Z" fill="#A8681B"/>
<path id="Vector_58" d="M20 17.4829C20 17.4829 21.7649 20.825 24.3384 21.2958C26.9118 21.7665 25.7283 17.6696 25.7283 17.6696C25.7283 17.6696 20.75 16.4479 20.0034 17.4829H20Z" fill="#A33D31"/>
<path id="Vector_59" d="M16.0039 26.8208C16.5873 29.516 16.8482 32.2904 16.7893 35.0786C16.7865 35.2406 16.9885 35.2406 16.9913 35.0786C17.053 32.2697 16.7865 29.4712 16.2002 26.7554C16.1666 26.6003 15.9702 26.6658 16.0039 26.8208Z" fill="#A8681B"/>
<path id="Vector_60" d="M31.8334 24.7892C31.7935 24.7259 31.7568 24.6592 31.7169 24.5959C31.7002 24.5692 31.6769 24.5493 31.6469 24.5393C31.6469 24.5393 31.6469 24.5393 31.6436 24.5393C31.5337 24.5059 31.4371 24.6226 31.4971 24.7226C32.1398 25.8223 32.7826 26.9255 32.756 28.2285C32.726 29.7149 31.9134 30.8014 31.0108 31.9012C30.6545 32.3344 30.3214 32.7543 30.1582 33.3009C29.9851 33.8775 29.9851 34.4873 30.015 35.0839C30.0217 35.2372 30.2648 35.2405 30.2548 35.0839C30.2248 34.4473 30.2215 33.7908 30.4513 33.1843C30.6978 32.5344 31.234 32.0211 31.6603 31.4879C32.4263 30.5281 32.9758 29.4816 32.9991 28.2285C33.0257 26.9588 32.4662 25.8523 31.8334 24.7892Z" fill="#A8681B"/>
<path id="Vector_61" d="M20 17.0138C20 17.0138 22.6335 19.4045 25 17.199L24.6761 15.6073L24.3221 13.8728L24.0762 12.6579L20.5609 10.6667L20 17.0138Z" fill="#A33D31"/>
<path id="Vector_62" d="M25.1553 16.0674C25.7436 17.398 26.2202 18.7999 26.5672 20.2583C26.8115 21.2957 27.3365 23.0021 26.6878 23.9718C26.0151 24.9791 24.8687 24.4341 24.1325 23.8666C23.2606 23.1975 22.5366 22.2729 21.9242 21.2581C21.176 20.0177 20.5907 18.6421 20.0145 17.2702C19.9451 17.1085 20.1442 16.962 20.2136 17.1273C21.2876 19.6907 22.5004 22.5811 24.6756 23.9229C25.3393 24.3326 26.3952 24.5018 26.6878 23.3855C26.8839 22.6337 26.6426 21.7279 26.4917 20.995C26.1448 19.3261 25.6259 17.725 24.9592 16.214C24.8868 16.0524 25.0859 15.9095 25.1583 16.0712L25.1553 16.0674Z" fill="white"/>
<path id="Vector_63" d="M21 12.8002C22.805 16.052 24.472 17.1574 25 17.0611L24.3719 14.1123L21 12.8002Z" fill="#1C2F35"/>
<path id="Vector_64" d="M18.7779 9.5816C19.2578 10.8478 19.6483 11.2396 20.6809 12.4113C21.601 13.4572 23.0506 13.8804 23.7688 13.8664C26.3801 13.8104 27.4789 12.5757 26.807 8.89604C26.39 6.61198 26.8699 5.26183 26.2311 4.42935C26.1914 4.39087 26.1484 4.3559 26.1087 4.32092C25.1158 3.47795 23.8416 3.10019 22.574 3.22261C16.2758 3.82423 18.0895 7.76275 18.7812 9.5816H18.7779Z" fill="#A33D31"/>
<path id="Vector_65" d="M25.9977 11.0671C25.9229 11.6374 25.4371 11.7684 25.0696 11.7261C24.6399 11.6712 24.2786 11.3713 24.0233 10.9024C23.9299 10.7334 24.1416 10.5687 24.235 10.7376C24.4032 11.046 24.6337 11.2614 24.9108 11.3544C25.1693 11.4431 25.6987 11.4727 25.7641 10.9784C25.7921 10.7714 26.0257 10.8601 25.9977 11.0671Z" fill="#1C2F35"/>
<path id="Vector_66" d="M18.7607 9.54491C18.7607 9.54491 20.121 9.80118 20.7577 9.20899C21.3943 8.6168 20.7639 7.52592 21.3633 7.5467C23.4596 7.6125 21.2639 5.56234 22.1241 5.65585C22.9813 5.74935 23.6211 5.72165 24.4192 5.57966C24.4192 5.57966 24.1304 5.67316 24.1242 5.09482C24.1242 5.09482 26.0683 5.69048 27 5.47577C27 5.47577 26.5528 4.11477 24.6335 3.44985C22.7142 2.78494 19.2048 3.5295 18.3073 4.71735C17.4098 5.90519 18.7638 9.54837 18.7638 9.54837L18.7607 9.54491Z" fill="#1C2F35"/>
<path id="Vector_67" d="M19.5417 5.83042C21.0705 4.86576 21.4984 2.43558 20.3386 0.903267C19.8146 0.213169 19.0114 -0.243185 17.7772 0.138966C14.7506 1.07765 16.0158 7.04737 18.4036 6.34243C18.8439 6.21257 19.2223 6.03448 19.5417 5.83042Z" fill="#1C2F35"/>
<path id="Vector_68" d="M25.9233 12.4634C25.639 12.8585 25.3201 12.9792 25.0512 12.4195C24.9167 12.1342 25.0742 11.5417 25.2125 11.827C25.4046 12.222 25.6274 12.0465 25.8234 11.7721C25.977 11.5636 26.0769 12.255 25.9233 12.4634Z" fill="#632216"/>
<path id="Vector_69" d="M26.0012 9.19346C26.0219 9.48268 26.2997 9.65519 26.6188 9.58416C26.7695 9.54864 26.9025 9.46745 27 9.3609C26.9793 9.11735 26.9527 8.86873 26.9232 8.61503C26.9232 8.60488 26.9232 8.59473 26.9202 8.58459C26.8138 8.53385 26.6809 8.51862 26.542 8.54907C26.2229 8.6201 25.9805 8.90932 26.0012 9.19346Z" fill="#632216"/>
<path id="Vector_70" d="M23.8221 6.91773C23.6288 6.84893 23.3847 6.94308 23.3316 7.26899C23.2808 7.57317 22.9546 7.50799 23.0053 7.20019C23.0996 6.62441 23.4814 6.29126 23.868 6.43249C24.071 6.50491 24.0275 6.99378 23.8221 6.92136V6.91773Z" fill="#1C2F35"/>
<path id="Vector_71" d="M26.5061 7.39676C26.2251 7.16964 25.8645 6.83094 25.4383 6.97439C25.0543 7.09791 24.8108 6.59983 25.1901 6.47232C25.8692 6.24918 26.4171 6.57991 26.8948 6.96642C27.1898 7.2055 26.8011 7.63584 26.5061 7.39676Z" fill="#1C2F35"/>
<path id="Vector_72" d="M25.5402 9.541C25.4284 9.56908 25.2934 9.59154 25.1391 9.59996C25.0696 9.60277 25.0079 9.56627 25.0002 9.51293C24.9963 9.46239 25.0503 9.41747 25.1198 9.41185C25.3667 9.39781 25.5441 9.34166 25.6521 9.29674C25.2509 9.04966 25.0619 8.67625 25.0542 8.6594C25.0311 8.61167 25.0658 8.55832 25.1313 8.53867C25.1931 8.52182 25.2741 8.54709 25.2972 8.59482C25.2972 8.59763 25.5132 9.01597 25.9414 9.21812C25.9723 9.23216 25.9954 9.25743 25.9993 9.2855C26.0031 9.31358 25.9916 9.34166 25.9646 9.36131C25.9568 9.36693 25.818 9.468 25.548 9.53819L25.5402 9.541Z" fill="#1C2F35"/>
<path id="Vector_73" d="M21.9701 10.4845C22.0695 9.88417 21.9153 9.26702 21.5933 8.8052C21.1754 8.20485 20.4217 7.29382 19.812 7.49533C18.9144 7.79341 18.9076 8.80521 19.1028 9.8044C19.2981 10.8036 19.9764 12.0505 21.0966 11.6601C21.655 11.4669 21.8913 10.9757 21.9735 10.4887L21.9701 10.4845Z" fill="#A33D31"/>
<path id="Vector_74" d="M19.5886 10.6711C19.6415 10.7455 19.7352 10.8243 19.8004 10.8856C18.9287 11.0125 18.2077 11.822 18.2077 12.7891C18.2077 13.8481 19.0102 14.7102 19.9959 14.7102C20.9817 14.7102 21.7841 13.8481 21.7841 12.7891C21.7841 11.8439 21.1405 11.0562 20.3014 10.8987C20.224 10.8287 20.2077 10.7499 20.2363 10.6667C21.1935 10.8243 22 11.7126 22 12.7848C22 13.9707 21.1039 14.9334 20 14.9334C18.8961 14.9334 18 13.9707 18 12.7848C18 11.752 18.6925 10.8724 19.5967 10.6667L19.5886 10.6711Z" fill="white"/>
<path id="Vector_75" d="M20.7044 10.5456C20.7191 10.1533 20.6996 9.74127 20.4701 9.38421C20.265 9.06247 19.7425 8.61909 19.2248 8.8035C19.0539 8.86628 18.9026 8.65833 19.0784 8.59947C19.5715 8.42291 20.094 8.62301 20.4359 8.93299C20.934 9.37637 21.017 9.98062 20.9974 10.5535C20.9926 10.7065 20.6947 10.7026 20.6996 10.5535L20.7044 10.5456Z" fill="#1C2F35"/>
<path id="Vector_76" d="M12.0031 27.9835C12.0031 27.9835 12.7358 29.87 15.8881 29.8668C19.044 29.8668 19.9983 29.294 19.9983 29.294C19.9983 29.294 20.1698 26.0841 17.1033 25.6764C14.0368 25.2687 11.9067 26.5598 12.0031 27.9868V27.9835Z" fill="#1C2F35"/>
<path id="Vector_77" d="M13 27.4143C13 27.4143 15.4592 40.8505 19.1995 40.5277C25.2995 40.0032 29 31.3046 29 31.3046L27.2278 29.953C27.2278 29.953 21.5493 34.8352 21.0747 34.6233C20.5337 34.3846 19.1 28.0028 19.1 28.0028C16.7901 26.4897 15.0975 26.2173 13 27.4143Z" fill="#A33D31"/>
<path id="Vector_78" d="M25.3261 30.9818C24.5526 31.9583 25.2906 33.0879 26.1317 33.7293C26.5217 34.0261 27.0406 34.2654 27.5304 34.0516C27.9204 33.8825 28.0976 33.4676 27.9461 33.0751C27.8785 32.8996 27.5884 32.9762 27.6561 33.1549C27.785 33.4868 27.5079 33.758 27.2049 33.825C26.9954 33.8697 26.7698 33.7772 26.5894 33.6814C26.3219 33.5378 26.0737 33.3145 25.8643 33.0975C25.3809 32.5901 25.0457 31.8178 25.5388 31.1956C25.658 31.0456 25.4453 30.835 25.3261 30.985V30.9818Z" fill="white"/>
<path id="Vector_79" d="M23.8953 37.354C23.2951 38.0452 22.6699 38.6986 22.026 39.3144C21.9635 39.373 22.026 39.5113 22.0854 39.4526C22.7387 38.8285 23.3702 38.1666 23.9798 37.4671C24.0391 37.4001 23.9547 37.287 23.8953 37.354Z" fill="#632216"/>
<path id="Vector_80" d="M27 29.6238C27 29.6238 27.9279 25.8371 28.217 25.4914C28.5095 25.1457 32.2007 24.6956 32.5672 24.5521C32.9336 24.4118 32.8159 25.1033 32.1537 25.2794C31.4914 25.4555 30.308 25.9154 30.308 25.9154C30.308 25.9154 31.4342 25.6969 31.6864 25.9219C31.9385 26.147 33.1353 27.8365 32.9874 28.7334C32.8428 29.6303 31.7704 29.7999 31.4678 29.9173C31.1653 30.0347 31.3737 29.0987 31.3737 29.0987C31.3737 29.0987 31.0476 29.3009 30.5131 29.4281C29.9954 29.552 29.4676 30.674 28.9465 30.9088C28.4254 31.1437 27.0034 29.6205 27.0034 29.6205L27 29.6238Z" fill="#A33D31"/>
<path id="Vector_81" d="M30.1465 26.6485C30.6756 26.1773 31.2672 25.6791 31.8587 26.0897C31.9726 26.1705 32.0608 25.8608 31.9469 25.7801C31.2819 25.3223 30.6499 25.8205 30.0473 26.3523C29.9371 26.4465 30.04 26.7427 30.1465 26.6485Z" fill="#632216"/>
<path id="Vector_82" d="M31.076 27.699C31.3317 27.0101 31.6444 26.8885 31.9257 27.3829C31.9847 27.4883 32.0319 27.1155 31.9729 27.0101C31.6582 26.459 31.31 26.5724 31.0229 27.3424C30.9678 27.4883 31.0229 27.8449 31.076 27.699Z" fill="#632216"/>
<path id="Vector_83" d="M31.186 28.7833C31.6442 28.5522 31.9348 28.2189 31.9989 27.8361C32.0186 27.7272 31.7673 27.6909 31.7526 27.7965C31.6984 28.1331 31.4569 28.4334 31.0529 28.6381C30.9248 28.7041 31.0529 28.8493 31.186 28.7833Z" fill="#632216"/>
<path id="Vector_84" d="M20.7926 34.1556C20.0386 34.7153 19.439 35.3778 19.0114 36.1252C18.9496 36.235 19.1569 36.3271 19.2186 36.2173C19.6418 35.484 20.2282 34.8358 20.9645 34.2902C21.0748 34.2087 20.9028 34.0777 20.7926 34.1591V34.1556Z" fill="#632216"/>
<path id="Vector_85" d="M12.5788 21.9924C12.5788 21.9924 11.6694 25.3883 12.1304 28.4782C12.5279 26.0998 19.6407 27.4884 19.2432 29.8668L20 24.7834C20 24.7834 15.6026 19.5246 12.5788 21.9924Z" fill="#E59C25"/>
<path id="Vector_86" d="M12.1128 26.414C14.7186 25.2577 17.7041 25.7498 19.8393 27.708C19.9302 27.7906 20.06 27.6529 19.9691 27.5703C17.7852 25.5674 14.7316 25.0409 12.0609 26.2247C11.9538 26.2729 11.9993 26.4622 12.1096 26.414H12.1128Z" fill="#A8681B"/>
<path id="Vector_87" d="M16.097 19.2008C18.0557 19.4518 19.6398 21.1114 19.9981 23.3254C20.0211 23.4678 19.8305 23.5277 19.8075 23.3853C19.4657 21.2762 17.9703 19.6691 16.0937 19.4256C15.9688 19.4106 15.9688 19.1858 16.0937 19.2008H16.097Z" fill="#A8681B"/>
<path id="Vector_88" d="M36.7429 29.8668H45.0058C45.525 29.8668 46.0474 29.4686 46.1739 28.9751L48.9726 17.9584C49.099 17.465 48.7762 17.0668 48.2571 17.0668H39.9942C39.475 17.0668 38.9492 17.465 38.8261 17.9584L36.0274 28.9751C35.901 29.4686 36.2238 29.8668 36.7429 29.8668Z" fill="#44584F"/>
<path id="Vector_89" d="M37.7429 29.8668H46.0058C46.525 29.8668 47.0474 29.4686 47.1739 28.9751L49.9726 17.9584C50.099 17.465 49.7762 17.0668 49.2571 17.0668H40.9942C40.475 17.0668 39.9526 17.465 39.8261 17.9584L37.0274 28.9751C36.901 29.4686 37.2238 29.8668 37.7429 29.8668Z" fill="#1C2F35"/>
<path id="Vector_90" d="M44.9574 23.4668C44.7623 24.0541 43.9526 24.5335 43.1471 24.5335C42.3415 24.5335 41.8474 24.0573 42.0426 23.4668C42.2377 22.8795 43.0474 22.4001 43.8529 22.4001C44.6585 22.4001 45.1526 22.8763 44.9574 23.4668Z" fill="#44584F"/>
<path id="Vector_91" d="M47.4516 24.583C47.4516 24.583 45.3741 24.3829 45.037 24.9103C44.7 25.4376 46.7746 26.0085 46.7746 26.0085C46.7746 26.0085 45.5455 25.9322 45.2259 26.2886C44.9092 26.645 46.4259 27.2741 46.4259 27.2741C46.4259 27.2741 45.6036 27.2632 45.5629 27.8269C45.5223 28.3906 45.8332 28.6015 46.2864 28.7506C46.7397 28.8997 47.1959 28.6851 47.3789 28.4669C47.562 28.2451 47.4196 27.6669 47.4196 27.6669C47.4196 27.6669 48.2099 27.2014 48.2448 26.8304C48.2797 26.4595 48.0705 26.2013 48.0705 26.2013C48.0705 26.2013 48.4424 26.1358 48.5818 25.6922C48.7213 25.2485 48.5528 24.9721 48.5528 24.9721C48.5528 24.9721 48.8811 24.1466 48.9886 23.6629C49.0961 23.1792 48.4162 22.7755 48.0036 22.4592C47.591 22.1428 46.824 23.1938 46.1353 23.3647C46.1353 23.3647 45.7809 23.6229 46.1499 23.9611C46.5189 24.2993 47.3295 23.8265 47.5039 23.852C47.6782 23.8738 47.4545 24.5902 47.4545 24.5902L47.4516 24.583Z" fill="#A33D31"/>
<path id="Vector_92" d="M42.9146 9.6001L50.0854 9.6001C50.5905 9.6001 51 9.1423 51 8.57758V2.08928C51 1.52456 50.5905 1.06676 50.0854 1.06676L42.9146 1.06676C42.4095 1.06676 42 1.52456 42 2.08928V8.57758C42 9.1423 42.4095 9.6001 42.9146 9.6001Z" fill="#4347C7"/>
<path id="Vector_93" d="M46 8.53345L44.1675 12.7402C44.1193 12.848 44 12.8013 44 12.6719V8.53345H45.9975H46Z" fill="#4347C7"/>
<path id="Vector_94" d="M44.7927 7.46279C44.7701 7.46279 44.7513 7.46279 44.7287 7.45095C44.6647 7.43121 44.6157 7.37594 44.5969 7.31277L44.0094 5.39806C43.9755 5.28357 44.0358 5.16119 44.145 5.12566C44.2542 5.09012 44.371 5.15329 44.4049 5.26778L44.9057 6.8943L49.6695 3.24252C49.7637 3.17146 49.8917 3.1912 49.9595 3.2899C50.0273 3.38859 50.0085 3.52282 49.9143 3.59388L44.9208 7.42331C44.8831 7.45095 44.8417 7.46674 44.7965 7.46674L44.7927 7.46279Z" fill="#FFFFF2"/>
<path id="Vector_95" d="M185.514 55.4702C185.514 55.4702 185.436 59.3443 188.618 61.8915C191.801 64.4387 196.007 65.2568 196.823 69.6603C197.575 73.7131 196.007 77.4566 190.589 77.8553C185.712 78.2129 184.231 70.0522 179.279 73.7544C174.328 77.4566 172.073 75.8513 172.001 72.7747C171.933 69.6981 174.71 67.3022 174.85 63.3593C174.989 59.4165 173.641 55.7418 173.641 55.7418L185.517 55.4668L185.514 55.4702Z" fill="#1C2F35"/>
<path id="Vector_96" d="M162.23 131.2H190.632C197.678 131.2 203.666 125.692 204.667 118.265C206.027 108.164 203.192 95.1097 196.657 89.2051C191.715 84.7381 184.331 83.3776 177.799 83.2093C159.329 82.736 145.008 100.471 148.537 119.787C148.669 120.513 148.89 121.249 149.173 121.986C151.339 127.596 156.534 131.2 162.23 131.2Z" fill="#4347C7"/>
<path id="Vector_97" d="M197.059 90.7343C199.441 95.5485 200.744 100.851 200.966 106.213C201.188 111.602 200.331 117.046 198.418 122.093C197.35 124.908 195.95 127.596 194.241 130.076C194.151 130.211 193.929 130.083 194.023 129.948C197.049 125.553 199.083 120.52 200.064 115.277C201.045 110.029 200.98 104.578 199.829 99.3618C199.181 96.4213 198.182 93.5605 196.844 90.8589C196.771 90.7135 196.99 90.5853 197.063 90.7308L197.059 90.7343Z" fill="#211880"/>
<path id="Vector_98" d="M188.675 88.5334C188.675 88.5334 197.491 91.0474 195.78 101.659C194.759 107.989 185.198 106.464 176.619 106.593C168.225 106.714 162.796 100.603 165.869 97.3149C168.941 94.0301 188.675 88.5334 188.675 88.5334Z" fill="#211880"/>
<path id="Vector_99" d="M178.231 63.845C178.231 63.845 175.218 66.1171 172.99 67.207C170.819 68.2696 173.045 71.1805 172.466 72.1406C171.887 73.1007 170.556 75.2429 170.832 76.9102C171.106 78.5775 173.357 80.0569 173.077 80.9794C172.797 81.9019 170.884 89.6815 170.112 92.1415C169.382 94.4682 172.305 96.8667 176.408 96.8906C180.508 96.9145 181.138 97.4748 185.586 96.4635C189.734 95.5205 191.737 93.86 190.753 91.957C189.772 90.0539 188.107 87.4026 187.409 83.7469C186.711 80.0911 188.57 77.5594 190.126 71.775C192.091 64.4737 188.737 63.5751 183.82 63.0011C180.724 62.639 178.231 63.8485 178.231 63.8485V63.845Z" fill="#4347C7"/>
<path id="Vector_100" d="M172.201 67.2001C172.201 67.2001 169.274 72.2348 169.013 74.4322C168.751 76.6297 172.569 76.8001 172.569 76.8001C172.569 76.8001 173.751 69.4845 172.201 67.2001Z" fill="#4347C7"/>
<path id="Vector_101" d="M172.066 88.8566C176.361 92.2461 181.596 94.0131 186.854 93.8573C187.049 93.8497 187.049 93.5153 186.854 93.5191C181.644 93.6749 176.477 91.9231 172.219 88.564C172.059 88.4386 171.91 88.7312 172.066 88.8566Z" fill="#CFCBB3"/>
<path id="Vector_102" d="M174.013 70.8002C174.857 72.8747 177.344 72.5486 178.864 72.4622C181.264 72.3247 183.64 71.7314 185.913 70.7373C186.083 70.6626 185.978 70.3365 185.811 70.4112C183.782 71.2992 181.672 71.861 179.531 72.0614C178.533 72.1557 177.507 72.2107 176.509 72.0968C175.663 72.0025 174.696 71.7117 174.273 70.6705C174.192 70.4701 173.933 70.5998 174.016 70.8002H174.013Z" fill="#211880"/>
<path id="Vector_103" d="M174.151 80.4319C177.396 80.1085 180.666 80.3241 183.845 81.0627C184.02 81.1039 184.064 80.8218 183.889 80.7806C180.688 80.0356 177.39 79.8232 174.12 80.1466C173.939 80.1656 173.973 80.4477 174.151 80.4287V80.4319Z" fill="#211880"/>
<path id="Vector_104" d="M188.784 70.5191C188.725 72.246 187.577 73.7745 186.841 75.262C186.081 76.7939 185.43 78.4044 185.144 80.1108C184.865 81.776 184.986 83.4447 185.552 85.0348C186.121 86.6317 187.012 88.0781 187.83 89.5417C188.291 90.3623 188.827 91.142 189.224 92.0002C189.635 92.8791 189.78 93.7852 189.678 94.7598C189.658 94.9547 189.951 95.006 189.971 94.8076C190.122 93.3202 189.672 92.096 188.935 90.8445C188.054 89.3433 187.137 87.8422 186.384 86.2624C185.575 84.5663 185.141 82.7848 185.335 80.887C185.519 79.0712 186.163 77.3513 186.943 75.7304C187.722 74.1096 189.007 72.4477 189.07 70.5739C189.077 70.379 188.784 70.3277 188.777 70.526L188.784 70.5191Z" fill="#211880"/>
<path id="Vector_105" d="M186 62.971C185.735 63.7676 185.192 64.4673 184.516 65.0297C183.522 65.8513 182.237 66.5292 180.995 66.9571C179.908 67.3289 178.583 67.3508 177.762 66.4729C177.219 65.895 177.04 65.164 177 64.4174C177.096 64.358 177.186 64.3018 177.272 64.2487C177.288 64.9859 177.434 65.7169 177.964 66.2886C178.805 67.1946 180.167 67.0071 181.22 66.5885C182.972 65.8856 185.112 64.7391 185.725 62.9335C185.818 62.946 185.907 62.9585 185.997 62.9741L186 62.971Z" fill="#211880"/>
<path id="Vector_106" d="M145.19 118.4L143 124.024C143 124.024 144.238 126.011 146.318 125.858L150 118.973L145.186 118.404L145.19 118.4Z" fill="#D5794A"/>
<path id="Vector_107" d="M134 125.691L145.388 130.133C145.475 129.967 145.548 129.79 145.621 129.61C145.651 129.53 145.678 129.45 145.708 129.37C146.343 127.815 147.584 124.53 146.683 124.733C145.501 125.704 143.871 124.467 143.871 124.467C143.871 124.467 143.316 122.522 142.364 122.675C141.413 122.829 141.962 124.036 140.667 124.423C139.676 124.717 138.851 124.003 137.64 123.779C137.27 123.709 136.865 123.689 136.405 123.756C135.337 123.909 134.719 124.473 134.376 124.953C134.093 125.354 134 125.697 134 125.697V125.691Z" fill="#1C2F35"/>
<path id="Vector_108" d="M146.881 127.181C145.45 127.259 144.13 127.927 143.206 129.025C143.102 129.149 142.93 128.97 143.031 128.849C143.996 127.703 145.388 127.015 146.881 126.934C147.04 126.924 147.04 127.175 146.881 127.181Z" fill="white"/>
<path id="Vector_109" d="M140.163 123.741C140.184 123.745 140.205 123.745 140.225 123.741C140.536 123.952 140.797 124.24 140.983 124.602C141.07 124.768 140.797 124.886 140.71 124.72C140.553 124.411 140.329 124.163 140.06 123.981C139.94 123.899 140.014 123.705 140.159 123.737C140.159 123.737 140.159 123.737 140.163 123.737V123.741Z" fill="white"/>
<path id="Vector_110" d="M139.163 123.741C139.184 123.745 139.205 123.745 139.225 123.741C139.536 123.952 139.797 124.24 139.983 124.602C140.07 124.768 139.797 124.886 139.71 124.72C139.553 124.411 139.329 124.163 139.06 123.981C138.94 123.899 139.014 123.705 139.159 123.737C139.159 123.737 139.159 123.737 139.163 123.737V123.741Z" fill="white"/>
<path id="Vector_111" d="M134 125.562L145.666 130.134C145.755 129.962 145.83 129.78 145.905 129.595L146 129.351L134.385 124.8C134.095 125.212 134 125.566 134 125.566V125.562Z" fill="white"/>
<path id="Vector_112" d="M180.029 89.1312C180.029 89.1312 164.236 81.7863 158.208 85.1473C153.691 87.6664 142 120.619 142 120.619L148.671 123.734C151.853 116.162 159.845 107.819 161.097 99.2388C161.206 98.5011 170.44 104.016 178.639 104.103C199.607 102.631 182.707 94.6286 180.029 89.1312Z" fill="#6AB886"/>
<path id="Vector_113" d="M159.739 100.356C158.98 102.719 157.676 104.943 156.443 107.098C154.782 110.001 153 112.838 151.17 115.646C150.14 117.227 149.09 118.795 148.022 120.349C147.929 120.485 148.156 120.611 148.248 120.475C150.185 117.654 152.063 114.794 153.872 111.894C155.534 109.225 157.161 106.524 158.568 103.72C159.107 102.649 159.626 101.559 159.993 100.422C160.045 100.266 159.791 100.2 159.743 100.356H159.739Z" fill="#467B5B"/>
<path id="Vector_114" d="M164 119.378L164.88 125.247C164.88 125.247 167.192 126.57 169 125.35L168.648 117.333L164 119.378Z" fill="#D5794A"/>
<path id="Vector_115" d="M157.005 131.2H169.972C169.992 130.998 169.999 130.792 169.999 130.583C169.999 130.491 169.992 130.4 169.992 130.306C170.025 128.5 169.992 124.716 169.179 125.273C168.382 126.708 166.295 126.107 166.295 126.107C166.295 126.107 164.997 124.376 164.117 124.899C163.238 125.422 164.244 126.421 163.112 127.315C162.242 127.997 161.154 127.606 159.872 127.855C159.481 127.93 159.073 128.068 158.644 128.314C157.649 128.888 157.251 129.695 157.095 130.309C156.968 130.822 157.005 131.2 157.005 131.2Z" fill="#1C2F35"/>
<path id="Vector_116" d="M169.94 127.135C168.662 127.701 167.68 128.754 167.225 130.057C167.177 130.192 166.959 130.133 167.007 129.998C167.477 128.643 168.494 127.534 169.826 126.944C169.958 126.886 170.075 127.079 169.94 127.138V127.135Z" fill="white"/>
<path id="Vector_117" d="M163.093 126.96C163.112 126.96 163.127 126.944 163.14 126.933C163.437 127.049 163.715 127.29 163.962 127.663C164.077 127.836 163.905 128.119 163.793 127.946C163.584 127.631 163.343 127.421 163.087 127.322C162.971 127.275 162.971 126.991 163.087 126.96C163.087 126.96 163.087 126.96 163.09 126.96H163.093Z" fill="white"/>
<path id="Vector_118" d="M162.093 126.96C162.112 126.96 162.127 126.944 162.14 126.933C162.437 127.049 162.715 127.29 162.962 127.663C163.077 127.836 162.905 128.119 162.793 127.946C162.584 127.631 162.343 127.421 162.087 127.322C161.971 127.275 161.971 126.991 162.087 126.96C162.087 126.96 162.087 126.96 162.09 126.96H162.093Z" fill="white"/>
<path id="Vector_119" d="M161.093 126.96C161.112 126.96 161.127 126.944 161.14 126.933C161.437 127.049 161.715 127.29 161.962 127.663C162.077 127.836 161.905 128.119 161.793 127.946C161.584 127.631 161.343 127.421 161.087 127.316C160.971 127.269 160.971 126.986 161.087 126.954C161.087 126.954 161.087 126.954 161.09 126.954L161.093 126.96Z" fill="white"/>
<path id="Vector_120" d="M157.008 131.2H169.973C169.993 130.959 170 130.713 170 130.463V130.133H157.094C156.968 130.745 157.005 131.196 157.005 131.196L157.008 131.2Z" fill="white"/>
<path id="Vector_121" d="M191.576 93.0315C191.576 93.0315 178.995 87.685 165.71 85.4315C152.424 83.178 162.969 120.533 162.969 120.533L170.23 119.464C170.23 119.464 169.281 100.576 169.683 99.7294C169.999 99.0606 173.768 106.347 184.319 106.65C198.168 107.033 193.737 96.8384 191.576 93.0315Z" fill="#6AB886"/>
<path id="Vector_122" d="M170.289 102.101C170.235 101.179 170.249 100.257 170.333 99.3385L170.093 99.4098C171.154 100.973 172.378 102.3 173.814 103.44C173.949 103.548 174.078 103.301 173.943 103.192C172.543 102.083 171.347 100.789 170.316 99.2673C170.238 99.1511 170.09 99.1923 170.076 99.3385C169.992 100.261 169.978 101.179 170.032 102.101C170.042 102.285 170.299 102.285 170.289 102.101Z" fill="#467B5B"/>
<path id="Vector_123" d="M175 87.2704C175 87.2059 174.958 87.1516 174.897 87.1415C172.095 86.5919 170.906 86.3238 169.713 86.0592C168.539 85.7946 167.366 85.4621 166.164 85.3638C165.019 85.2688 163.839 85.3841 162.788 85.8998C161.876 86.3476 161.141 87.1041 160.577 87.9726C159.622 89.4484 159.129 91.1277 159.036 92.8918C158.939 94.7408 159.055 96.6067 159.194 98.4488C159.306 99.9687 159.49 101.489 159.716 103.344C159.722 103.409 159.771 103.463 159.832 103.466C159.909 103.473 159.974 103.402 159.964 103.324C159.661 100.009 159.239 97.0613 159.252 94.0758C159.252 93.2854 159.277 92.4881 159.39 91.7078C159.51 90.8902 159.784 90.1031 160.116 89.3568C160.573 88.3255 161.199 87.3416 162.072 86.6495C163.004 85.91 164.155 85.608 165.306 85.5877C166.686 85.5639 168.017 85.9405 169.355 86.239C170.658 86.5308 171.96 86.8192 174.845 87.3959C174.923 87.4129 174.994 87.3484 174.994 87.267L175 87.2704Z" fill="#467B5B"/>
<path id="Vector_124" d="M168.216 117.206C167.827 113.54 167.534 109.861 167.316 106.177C167.209 104.37 167.121 102.56 167.053 100.749C167.011 99.604 166.735 97.7107 168.034 97.1899C169.399 96.645 170.484 98.0349 171.371 98.8833C172.492 99.9558 173.799 100.79 175.179 101.432C178.006 102.742 181.184 103.329 184.248 103.515C186.094 103.629 188.03 103.498 189.707 102.598C191.136 101.828 192.339 100.549 192.767 98.8798C192.806 98.7246 193.037 98.7901 192.995 98.9453C192.264 101.784 189.593 103.336 187.007 103.694C185.366 103.922 183.696 103.767 182.061 103.546C180.625 103.353 179.192 103.08 177.795 102.673C176.414 102.27 175.063 101.732 173.805 101.008C173.158 100.635 172.538 100.211 171.956 99.7351C171.381 99.2661 170.881 98.7246 170.345 98.2108C169.763 97.659 168.96 97.121 168.148 97.421C167.31 97.7279 167.232 98.7763 167.248 99.5764C167.281 101.356 167.385 103.139 167.479 104.915C167.703 109.022 168.018 113.126 168.454 117.213C168.47 117.375 168.233 117.372 168.216 117.213V117.206Z" fill="#467B5B"/>
<path id="Vector_125" d="M185.23 90.7371C185.964 92.4651 186.968 94.0459 188.215 95.4026C188.838 96.0827 189.52 96.7151 190.254 97.2592C190.967 97.7886 192.244 98.3217 192.767 97.2188C192.84 97.0644 193.058 97.2004 192.985 97.3548C192.629 98.1048 191.763 98.2776 191.06 98.0239C190.143 97.693 189.319 96.8805 188.62 96.1967C187.093 94.7004 185.867 92.8805 185.012 90.8731C184.946 90.715 185.165 90.579 185.23 90.7371Z" fill="#467B5B"/>
<path id="Vector_126" d="M143.215 118.417C145.39 119.509 147.63 120.494 149.923 121.376C150.076 121.436 149.98 121.649 149.827 121.59C147.513 120.701 145.255 119.703 143.058 118.602C142.913 118.53 143.069 118.344 143.211 118.417H143.215Z" fill="#467B5B"/>
<path id="Vector_127" d="M163.109 117.045C165.37 116.784 167.63 116.528 169.891 116.267C170.036 116.252 170.036 116.54 169.891 116.556C167.63 116.816 165.37 117.072 163.109 117.333C162.964 117.349 162.964 117.061 163.109 117.045Z" fill="#467B5B"/>
<path id="Vector_128" d="M185.614 71.5115C185.614 71.5115 185.659 80.967 185.061 82.3553C184.463 83.7471 173.459 84.283 173.459 84.283L173 86.1173C173 86.1173 184.476 90.6059 188.804 87.3473C191.874 85.0347 192 70.4001 192 70.4001L185.611 71.5079L185.614 71.5115Z" fill="#D5794A"/>
<path id="Vector_129" d="M185.096 82.4577C185.688 82.6156 186.254 82.8545 186.795 83.1819C186.951 83.2743 187.086 82.9893 186.932 82.8968C186.369 82.5578 185.781 82.3036 185.168 82.138C184.999 82.0918 184.927 82.4115 185.096 82.4577Z" fill="#9B4731"/>
<path id="Vector_130" d="M186.215 83.1813C186.749 82.8512 187.286 82.6374 187.866 82.5351C188.043 82.5026 188.046 82.1028 187.866 82.1353C187.237 82.2469 186.654 82.4747 186.074 82.8373C185.907 82.9396 186.051 83.2836 186.218 83.1813H186.215Z" fill="#9B4731"/>
<path id="Vector_131" d="M191.01 66.049C192.196 68.018 193.286 71.2407 192.932 74.6668L184.701 74.4174C184.701 74.4174 183.741 70.7517 184.068 67.5979C184.274 65.5994 185.313 64.651 186.475 64.2342C188.349 63.5614 190.009 64.3917 191.007 66.049H191.01Z" fill="#4347C7"/>
<path id="Vector_132" d="M185.997 58.414C185.61 57.2358 185.357 56.0006 185.258 54.7334C185.185 53.8044 185.038 52.7686 184.775 51.658C184.513 50.5474 184.03 49.6646 183.455 48.967C181.568 46.6817 178.473 46.3008 176.104 47.9347C174.936 48.7391 173.45 49.4083 173.024 52.256C172.756 54.0607 174.777 58.0652 175.905 61.8668L186 58.4105L185.997 58.414Z" fill="#1C2F35"/>
<path id="Vector_133" d="M178.73 48.1013C178.73 48.1013 176.819 45.2681 179.181 44.1123C181.543 42.9529 182.368 44.8241 182.368 44.8241C182.368 44.8241 184.193 44.4294 184.854 46.276C185.515 48.1189 183.749 48.8801 183.171 49.0492C182.59 49.2184 178.73 48.1048 178.73 48.1048V48.1013Z" fill="#1C2F35"/>
<path id="Vector_134" d="M179.185 47.5658C180.435 47.2933 181.704 47.8007 182.675 48.9988C182.864 49.229 183.123 48.8202 182.934 48.5853C181.893 47.3027 180.521 46.7155 179.175 47.0068C178.935 47.0584 178.944 47.6222 179.188 47.5658H179.185Z" fill="#1C2F35"/>
<path id="Vector_135" d="M184 62.8653C184 62.8653 180.024 68.3965 179 65.0673L179.053 63.1638L179.108 61.0883L179.149 59.6344L182.441 56.5334L184 62.8653Z" fill="#D5794A"/>
<path id="Vector_136" d="M182 58.6667C180.87 62.4783 179.506 63.993 179 64.0001L179.09 60.7894L182 58.6667Z" fill="#1C2F35"/>
<path id="Vector_137" d="M182.936 55.5068C182.854 56.9455 182.596 57.4752 181.951 59.013C181.376 60.3834 180.096 61.3197 179.388 61.5589C176.828 62.4235 175.375 61.5726 174.9 57.6495C174.604 55.2129 173.72 54.0305 174.088 52.9711C174.117 52.9199 174.145 52.8686 174.176 52.8208C174.884 51.6281 176.013 50.7977 177.284 50.473C183.609 48.8532 183.052 53.4427 182.936 55.5068Z" fill="#D5794A"/>
<path id="Vector_138" d="M176 58.2167C176 58.2167 176.671 58.0036 177.991 57.6001C177.991 57.6001 178.145 59.5768 177.163 59.7264C176.331 59.8534 176 58.2167 176 58.2167Z" fill="white"/>
<path id="Vector_139" d="M174.026 55.4668C174.026 55.4668 172.732 53.6331 173.05 52.0335C173.365 50.4339 175.096 49.0684 175.096 49.0684C175.096 49.0684 175.966 48.9478 176 50.8098C176 50.8098 173.636 52.4697 174.029 55.4668H174.026Z" fill="#1C2F35"/>
<path id="Vector_140" d="M175 51.3001C175 51.3001 175.252 53.0712 177.124 53.1838C177.124 53.1838 176.055 52.2005 176.264 51.2935C176.264 51.2935 177.717 53.9452 180.369 53.2136C180.369 53.2136 180.874 55.3654 181.761 55.4614C182.649 55.5574 184.095 54.3557 183.995 52.6541C183.896 50.9525 181.758 48.7212 178.47 49.1118C175.181 49.5025 175.004 51.2968 175.004 51.2968L175 51.3001Z" fill="#1C2F35"/>
<path id="Vector_141" d="M179.997 55.8126C180.026 56.087 179.826 56.398 179.551 56.4987C179.276 56.6039 179.031 56.4621 179.003 56.1876C178.974 55.9132 179.174 55.6022 179.449 55.5016C179.724 55.3964 179.969 55.5382 179.997 55.8126Z" fill="#9B4731"/>
<path id="Vector_142" d="M175.997 56.8743C176.03 57.153 175.797 57.459 175.476 57.5641C175.324 57.6144 175.183 57.6098 175.069 57.5641C175.044 57.3311 175.022 57.0844 175.003 56.8332C175.003 56.824 175.003 56.8103 175 56.8012C175.091 56.6961 175.216 56.6139 175.357 56.5682C175.678 56.4631 175.964 56.6048 175.997 56.8789V56.8743Z" fill="#9B4731"/>
<path id="Vector_143" d="M181.147 56.8577C180.968 56.3515 180.956 55.7336 181.092 55.1902C181.266 54.4867 181.615 53.3812 182.072 53.3366C182.745 53.2733 182.938 54.1927 182.993 55.1716C183.046 56.1542 182.812 57.5389 181.969 57.5984C181.549 57.6282 181.294 57.2709 181.147 56.8577Z" fill="#D5794A"/>
<path id="Vector_144" d="M182.58 56.7491C182.309 56.9136 182.155 57.2711 182.218 57.6598C182.302 58.1677 182.72 58.5422 183.152 58.4968C183.584 58.4514 183.869 58.0003 183.786 57.4924C183.733 57.1633 183.538 56.8909 183.291 56.7519C183.315 56.7179 183.343 56.681 183.364 56.6441C183.371 56.6328 183.378 56.6214 183.385 56.6101C183.688 56.7746 183.925 57.0895 183.984 57.4726C184.082 58.0712 183.719 58.6046 183.176 58.6614C182.633 58.721 182.114 58.2812 182.016 57.6825C181.929 57.1548 182.204 56.6781 182.64 56.5334C182.64 56.5334 182.734 56.6186 182.577 56.7491H182.58Z" fill="white"/>
<path id="Vector_145" d="M182.383 56.3955C182.267 56.0694 182.166 55.724 182.22 55.3724C182.267 55.059 182.489 54.5698 182.878 54.6082C183.01 54.621 183.051 54.4164 182.919 54.4036C182.546 54.3652 182.257 54.653 182.113 54.9855C181.906 55.4683 182.016 55.9926 182.185 56.4658C182.229 56.5937 182.424 56.5234 182.38 56.3955H182.383Z" fill="#1C2F35"/>
<path id="Vector_146" d="M175.819 54.8573C175.585 54.7157 175.329 54.9069 175.261 55.3034C175.217 55.5583 174.961 55.4981 175.005 55.2397C175.118 54.5812 175.521 54.2342 175.923 54.4785C176.079 54.5741 175.974 54.9529 175.819 54.8573Z" fill="#1C2F35"/>
<path id="Vector_147" d="M177.053 56.4234C176.835 55.5737 177.307 54.6891 178.103 54.4568C178.9 54.2245 179.729 54.7273 179.947 55.5769C180.165 56.4297 179.693 57.3112 178.897 57.5435C178.1 57.7757 177.271 57.273 177.053 56.4234ZM177.217 56.3756C177.411 57.1298 178.145 57.5753 178.852 57.3684C179.559 57.1616 179.977 56.3788 179.783 55.6247C179.589 54.8705 178.855 54.425 178.148 54.6319C177.441 54.8387 177.023 55.6215 177.217 56.3756Z" fill="white"/>
<path id="Vector_148" d="M173.071 57.49C172.781 56.6372 173.409 55.7558 174.471 55.5235C175.533 55.2912 176.639 55.794 176.929 56.6436C177.219 57.4964 176.591 58.3778 175.529 58.6101C174.467 58.8424 173.361 58.3396 173.071 57.49ZM173.29 57.4423C173.548 58.1964 174.527 58.6419 175.469 58.4351C176.412 58.2283 176.969 57.4455 176.71 56.6913C176.452 55.9372 175.473 55.4917 174.531 55.6985C173.588 55.9053 173.031 56.6881 173.29 57.4423Z" fill="white"/>
<path id="Vector_149" d="M176.917 57.6001C176.917 57.6001 176.883 57.6001 176.866 57.5957L176.063 57.2647C176.03 57.2513 176.004 57.2155 176 57.1797C176 57.1395 176.013 57.1037 176.042 57.0813L176.617 56.6654L176.65 55.5697C176.65 55.5115 176.697 55.4668 176.752 55.4668C176.807 55.4668 176.849 55.516 176.849 55.5741L176.811 56.7191C176.811 56.7504 176.794 56.7817 176.769 56.804L176.308 57.1395L176.938 57.3989C176.988 57.4212 177.014 57.4794 176.993 57.533C176.98 57.5688 176.95 57.5912 176.917 57.6001Z" fill="#1C2F35"/>
<path id="Vector_150" d="M180.951 54.5617C180.583 54.6254 180.27 54.9474 180.106 55.4229C180.075 55.5165 179.973 55.4453 180.007 55.3517C180.189 54.8238 180.536 54.4719 180.943 54.4007C181.014 54.3895 181.021 54.5467 180.951 54.5617Z" fill="white"/>
<path id="Vector_151" d="M174.922 56.6566C174.101 56.7283 173.433 57.0715 173.209 57.5549C173.174 57.6325 172.965 57.6027 173.005 57.5221C173.249 56.9998 173.971 56.6148 174.868 56.5343C175.002 56.5223 175.057 56.6447 174.922 56.6566Z" fill="white"/>
<path id="Vector_152" d="M181 88.5335L158.519 87.1278L158 84.2668L180.481 85.6688L181 88.5335Z" fill="white"/>
<path id="Vector_153" d="M172.638 86.4001L159.923 85.663C159.475 85.638 159.104 85.2499 159.014 84.7192L157.02 72.9139C156.892 72.1483 157.395 71.4325 158.041 71.4681L170.916 72.2124C171.499 72.2444 171.985 72.7537 172.104 73.4445L173.973 84.5127C174.143 85.5134 173.483 86.4464 172.638 86.3966V86.4001Z" fill="white"/>
<path id="Vector_154" d="M171.638 86.4001L158.923 85.663C158.475 85.638 158.104 85.2499 158.014 84.7193L156.02 72.9139C155.892 72.1483 156.395 71.4325 157.041 71.4681L169.916 72.2124C170.499 72.2444 170.985 72.7537 171.104 73.4445L172.973 84.5127C173.143 85.5134 172.483 86.4464 171.638 86.3966V86.4001Z" fill="white"/>
<path id="Vector_155" d="M156.114 71.7605C160.372 72.0078 164.631 72.255 168.886 72.5331C169.038 72.5447 169.038 72.2473 168.886 72.2396C164.631 71.9614 160.372 71.7142 156.114 71.4669C155.962 71.4592 155.962 71.7528 156.114 71.7605Z" fill="#1C2F35"/>
<path id="Vector_156" d="M156.002 72.696C156.531 77.2498 157.166 81.7796 157.814 86.306C157.836 86.4702 158.023 86.4018 157.998 86.2375C157.35 81.7112 156.715 77.1814 156.186 72.6276C156.165 72.4634 155.981 72.5318 156.002 72.696Z" fill="#1C2F35"/>
<path id="Vector_157" d="M165.989 79.5392C166.087 80.4206 165.503 81.1047 164.68 81.0652C163.858 81.0257 163.112 80.2759 163.011 79.3945C162.913 78.5131 163.497 77.829 164.32 77.8684C165.142 77.9079 165.888 78.6578 165.989 79.5392Z" fill="#1C2F35"/>
<path id="Vector_158" d="M171.204 73.6865C171.803 77.517 172.402 81.344 172.998 85.1745C173.022 85.3299 172.822 85.4024 172.796 85.247C172.197 81.4165 171.598 77.5895 171.002 73.7591C170.978 73.6036 171.178 73.5311 171.204 73.6865Z" fill="#1C2F35"/>
<path id="Vector_159" d="M178.381 63.6888C177.807 64.784 177.397 65.9773 177.18 67.2277C177.037 68.0538 176.716 69.5067 177.566 70.1461C178.431 70.7982 179.359 70.0543 179.939 69.4909C180.762 68.69 181.452 67.7531 182.062 66.7655C182.781 65.5975 183.388 64.3504 183.988 63.1095C184.051 62.9798 183.848 62.8595 183.783 62.9893C182.65 65.3253 181.485 67.7499 179.585 69.4972C179.109 69.934 178.286 70.5101 177.626 69.9087C177.093 69.4244 177.242 68.5065 177.313 67.905C177.489 66.449 177.926 65.0689 178.586 63.8091C178.654 63.6793 178.449 63.5622 178.381 63.6888Z" fill="white"/>
<path id="Vector_160" d="M79.1161 34.2411C79.1161 34.2411 77.8421 50.7111 83.7355 53.6359C90.676 57.0799 92.4492 47.9559 92.9063 44.6748C93.1851 42.6797 92.9841 41.1053 90.2967 41.0985C87.6126 41.0883 87.7585 43.9589 87.7585 43.9589C87.7585 43.9589 86.9383 28.3846 81.9947 24.5334L79.1161 34.2445V34.2411Z" fill="#1C2F35"/>
<path id="Vector_161" d="M85.2452 54.3194C85.5074 53.4429 86.2583 52.7355 87.1937 52.557C88.0741 52.388 89.1067 52.6729 89.822 53.1768C89.9515 53.2676 90.0745 53.061 89.945 52.9702C89.1552 52.413 87.9868 52.1125 87.0222 52.3473C86.0447 52.5852 85.2808 53.3271 85.0057 54.2537C84.9604 54.4008 85.1999 54.4634 85.242 54.3163L85.2452 54.3194Z" fill="#44584F"/>
<path id="Vector_162" d="M87.757 43.7701C85.8067 45.5157 84.5014 47.6699 84.0023 49.985C83.9716 50.1335 84.2519 50.1985 84.2826 50.0469C84.7702 47.772 86.0448 45.6519 87.9605 43.9373C88.0872 43.8259 87.8798 43.6587 87.7532 43.7701H87.757Z" fill="#44584F"/>
<path id="Vector_163" d="M86.8 44.8038C85.6087 45.0273 84.6069 45.7171 84.0218 46.7087C83.9207 46.8773 84.1986 47.0301 84.2996 46.8577C84.8468 45.9288 85.7687 45.2977 86.8842 45.09C87.0862 45.0508 87.002 44.7647 86.8 44.8038Z" fill="#44584F"/>
<path id="Vector_164" d="M62 117.333L59.9392 126.933L56 126.503L56.6816 117.337L62 117.333Z" fill="#D5794A"/>
<path id="Vector_165" d="M52.1664 131.2H61C61 131.2 60.7028 126.613 60.2929 125.519C59.883 124.425 59.3569 126.609 59.3569 126.609C59.3569 126.609 58.5303 124.905 57.0956 124.806C56.5354 124.769 55.9752 124.892 55.7292 125.457C55.6233 125.232 55.4696 125.014 55.292 125.076C54.9572 125.195 54.8308 127.373 54.8308 127.424C54.4517 127.819 53.929 128.273 53.4849 128.334C52.4533 128.48 51.6403 129.581 52.163 131.197L52.1664 131.2Z" fill="#1C2F35"/>
<path id="Vector_166" d="M57.9805 126.718C57.4972 125.81 56.6883 125.593 56.0369 126.24C55.9503 126.327 56.0317 126.54 56.121 126.453C56.7146 125.861 57.4263 126.066 57.8649 126.892C57.9306 127.014 58.0461 126.84 57.9805 126.718Z" fill="white"/>
<path id="Vector_167" d="M57.9754 127.817C57.2758 126.922 56.0659 126.626 55.0583 127.309C54.9175 127.405 55.0583 127.621 55.1991 127.525C56.0791 126.93 57.1219 127.153 57.7378 127.945C57.839 128.077 58.0766 127.949 57.9754 127.817Z" fill="white"/>
<path id="Vector_168" d="M60.7854 126.969C59.8848 127.84 59.9344 128.966 60.0873 130.035C60.1079 130.165 60.364 130.168 60.3434 130.035C60.2029 129.036 60.1162 127.937 60.9672 127.116C61.0746 127.012 60.8928 126.865 60.7854 126.969Z" fill="white"/>
<path id="Vector_169" d="M74.9967 58.813C74.9967 58.813 70.4467 83.8303 68.8255 88.1949C68.2212 89.8182 63.9189 121.6 63.9189 121.6L54 121.523C54 121.523 56.4269 91.849 56.3344 87.3555C56.2024 81.0297 58.5335 58.6598 58.7943 58.6667L75 58.813H74.9967Z" fill="#6AB886"/>
<path id="Vector_170" d="M70.5522 72.5369C69.9076 75.0402 67.0614 86.0945 66.288 89.1392C65.4568 92.4113 62.614 114.917 62 120.533H62.4342C63.0618 114.83 65.8945 92.4389 66.7052 89.2495C67.4923 86.1566 70.4165 74.8953 71 72.63L70.5556 72.5334L70.5522 72.5369Z" fill="#467B5B"/>
<path id="Vector_171" d="M64.4722 60.9829C63.5872 64.0301 61.2202 66.5893 58.1789 67.7461C57.8629 67.8655 57.9998 68.3706 58.3229 68.2477C61.5398 67.0227 64.0473 64.3577 64.9884 61.1228C65.0832 60.7986 64.567 60.6621 64.4722 60.9829Z" fill="#467B5B"/>
<path id="Vector_172" d="M56.1289 87.8141C57.8649 88.5118 59.8788 88.7182 61.8139 88.362C62.1398 88.3005 62.0025 87.9394 61.6732 88.0008C59.8754 88.3325 58.009 88.1408 56.3931 87.4922C56.098 87.3743 55.8339 87.6986 56.1289 87.8165V87.8141Z" fill="#467B5B"/>
<path id="Vector_173" d="M53.3127 120.533L64 120.593L63.5975 123.733L53 123.621L53.3127 120.533Z" fill="#467B5B"/>
<path id="Vector_174" d="M75 116.267L75.543 126.584L79.4775 126.934L81 116.788L75 116.267Z" fill="#D5794A"/>
<path id="Vector_175" d="M79.0034 125.623C79.0034 125.623 79.5542 124.836 80.2557 125.105C80.9572 125.375 81.871 126.694 81.871 126.694C81.871 126.694 85.6678 128.098 86.6924 128.172C87.717 128.247 88.6154 128.91 89 131.2H76.5696C76.5696 131.2 76.0804 126.031 76.0035 125.144C75.9266 124.258 77.145 125.364 77.145 125.364L79.0034 125.623Z" fill="#1C2F35"/>
<path id="Vector_176" d="M76.0328 127.128C76.6941 127.702 77.0779 128.85 76.7462 129.974C76.7115 130.094 76.8264 130.201 76.8633 130.081C77.2254 128.853 76.8329 127.585 76.1022 126.948C76.0263 126.881 75.9569 127.061 76.0328 127.128Z" fill="white"/>
<path id="Vector_177" d="M81.1749 127.946C81.5887 127.158 82.2844 126.93 82.8685 127.526C82.9624 127.622 83.0534 127.406 82.9624 127.31C82.2902 126.625 81.4831 126.922 81.0164 127.818C80.9489 127.95 81.1074 128.074 81.1749 127.946Z" fill="white"/>
<path id="Vector_178" d="M82.2623 127.946C82.8831 127.158 83.9266 126.93 84.8027 127.526C84.9436 127.622 85.0801 127.406 84.9436 127.31C83.9354 126.625 82.7246 126.922 82.0246 127.818C81.9233 127.95 82.1611 128.074 82.2623 127.946Z" fill="white"/>
<path id="Vector_179" d="M82.5738 55.4703C84.1352 66.9447 85.4493 77.8536 86 87.0276L83.2904 121.6L73.6158 121.364L74.3886 87.3364L71 59.1621L82.5801 55.4668L82.5738 55.4703Z" fill="#6AB886"/>
<path id="Vector_180" d="M79.0149 59.02C79.872 61.765 80.9286 64.864 83.5909 66.1066C83.9022 66.2534 84.1751 65.7564 83.8602 65.6095C81.3239 64.4234 80.3443 61.4789 79.5292 58.8656C79.4207 58.5155 78.9065 58.6661 79.0149 59.02Z" fill="#467B5B"/>
<path id="Vector_181" d="M82.1667 88.2641C82.9554 88.4831 83.7774 88.6033 84.5873 88.4902C85.0544 88.4266 85.5701 88.3065 85.928 87.9215C86.1464 87.6848 85.8188 87.3068 85.6004 87.54C85.294 87.8685 84.7693 87.9391 84.375 87.9745C83.6712 88.038 82.9736 87.9321 82.2881 87.7413C81.9999 87.6601 81.8755 88.1793 82.1637 88.2606L82.1667 88.2641Z" fill="#467B5B"/>
<path id="Vector_182" d="M74.873 120.533H75.3444L77 86.7167C77 86.6992 77 86.6852 77 86.6678L72.4675 62.0518C72.4453 61.9295 72.3228 61.8492 72.1966 61.8701C72.0666 61.8911 71.9813 62.0064 72.0035 62.1251L76.5323 86.7202L74.8767 120.533H74.873Z" fill="#467B5B"/>
<path id="Vector_183" d="M72.0899 68.263C71.6635 68.263 71.1265 68.1286 70.6351 67.6024C69.6913 66.5984 69.0697 60.668 69.0014 59.9962C68.9883 59.8656 69.0697 59.7499 69.1836 59.735C69.2975 59.72 69.3984 59.8133 69.4114 59.944C69.5904 61.7242 70.212 66.5089 70.915 67.259C71.7188 68.1137 72.6757 67.6883 72.7147 67.6696C72.8189 67.6211 72.9393 67.6808 72.9848 67.8002C73.0271 67.9196 72.9783 68.0577 72.8709 68.11C72.8449 68.1212 72.526 68.2667 72.0866 68.2667L72.0899 68.263Z" fill="#467B5B"/>
<path id="Vector_184" d="M73.2164 119.467H84L83.5328 122.667H73L73.2164 119.467Z" fill="#467B5B"/>
<path id="Vector_185" d="M63.0305 21.6581C63.0305 21.6581 59.7444 16.9674 64.9083 14.432C70.069 11.8966 76.9457 18.5321 76.9996 21.6581C77.0631 25.3475 69.2475 28.2801 63.0305 21.6581Z" fill="#1C2F35"/>
<path id="Vector_186" d="M82 24.5182C81.9646 24.7483 81.8745 25.3464 81.7554 26.2171C81.7426 26.302 81.7329 26.3869 81.7201 26.4754C81.5238 27.8982 81.2567 29.951 80.9832 32.2763C80.7322 34.414 80.4812 36.7782 80.2817 39.0964V39.1035C80.2688 39.2415 80.2592 39.3795 80.2463 39.5211C80.2109 39.9423 80.1787 40.3634 80.1465 40.7775C80.1401 40.866 80.1337 40.951 80.1272 41.0359C80.0403 42.2003 79.9728 43.3329 79.931 44.3946C79.931 44.4654 79.9245 44.5362 79.9213 44.607C79.7797 48.3444 79.9631 51.1723 80.7933 51.42L77.1604 51.8872L76.9545 51.912L68.2117 53.0339L67.9961 53.0623L57.5671 54.4001C57.5671 54.4001 57.2325 51.6501 57.078 47.4773C57.0266 46.051 56.9944 44.4548 57.0008 42.7489C57.0008 42.6639 57.0008 42.579 57.0008 42.4941C57.0008 42.2923 57.0008 42.087 57.0073 41.8818C57.0233 40.7421 57.0555 39.5565 57.1167 38.3425C57.1199 38.2682 57.1231 38.1939 57.1295 38.116C57.1746 37.2524 57.2325 36.3747 57.3033 35.4864C57.5639 32.2869 58.0144 28.9741 58.7545 25.7924C58.8961 25.1801 59.2629 24.5572 59.7746 23.9519C59.8196 23.8989 59.8647 23.8458 59.9097 23.7927C60.4696 23.1627 61.1775 22.5469 61.9498 21.9664C62.0045 21.924 62.0624 21.8815 62.1171 21.8426C63.0053 21.1878 63.9674 20.5861 64.8716 20.0623C66.8924 18.8944 68.6268 18.1334 68.6268 18.1334C68.6268 18.1334 71.5518 19.0536 74.6666 20.2534C75.5322 20.5861 76.4139 20.94 77.2505 21.301C77.3181 21.3294 77.3857 21.3612 77.4532 21.3895C80.0243 22.5115 82.1223 23.6971 81.9903 24.5218L82 24.5182Z" fill="#1C2F35"/>
<path id="Vector_187" d="M66.0313 22.5675C67.4056 23.7441 68.8753 24.9374 70.6039 25.402C72.0891 25.7998 73.7314 25.6326 74.967 24.5897C75.0625 24.5095 74.93 24.3691 74.8345 24.446C73.605 25.4822 71.9258 25.5959 70.4683 25.1513C68.8476 24.6599 67.4641 23.5368 66.1638 22.4237C66.0714 22.3435 65.9389 22.4872 66.0313 22.5675Z" fill="#44584F"/>
<path id="Vector_188" d="M59.6768 62.0684C57.3388 60.5413 56.8988 53.4126 57.0176 46.8785C57.0529 44.9221 57.1396 43.0185 57.2392 41.3366C57.4512 37.7757 57.7274 35.2001 57.7274 35.2001L80.1736 38.5463V38.5533C80.1736 38.585 80.1704 38.7222 80.1736 38.9509C80.1768 40.8369 80.3791 48.9545 83.4398 54.3696C88.0261 62.4836 63.0426 64.2641 59.68 62.0684H59.6768Z" fill="#1C2F35"/>
<path id="Vector_189" d="M79.6671 28.4466C76.7593 31.1344 76.5465 35.2134 78.6144 38.3518C78.6443 38.4008 78.6779 38.4466 78.7115 38.4955C79.1146 39.0834 79.5924 39.6223 80.1337 40.0991C80.1971 40.1546 80.2606 40.2101 80.324 40.2656C80.3278 40.3505 80.3315 40.442 80.339 40.5334C80.2606 40.4714 80.1859 40.406 80.1113 40.3407C79.4282 39.7366 78.8384 39.0573 78.3644 38.3225C77.2221 36.5589 76.7369 34.4819 77.14 32.4179C77.6215 29.9554 79.5066 27.8033 82 26.6667C81.9851 26.7451 81.9739 26.8235 81.9589 26.9052C81.1116 27.3069 80.3352 27.8294 79.6708 28.4466H79.6671Z" fill="#44584F"/>
<path id="Vector_190" d="M68.0535 52.5227C67.6092 53.5087 67.0348 54.4315 66.3969 55.2561C64.3881 57.8492 61.6207 59.9089 58.6153 60.8001C58.5836 60.737 58.555 60.6738 58.5233 60.6071C58.6693 60.565 58.8121 60.5194 58.9549 60.4738C62.0523 59.4352 64.9434 57.1474 66.8666 54.2701C67.2284 53.7262 67.5616 53.1508 67.8441 52.5473C68.2884 51.5999 68.6153 50.5858 68.7517 49.5296C68.9643 47.8875 68.6787 46.2348 67.9107 44.8102C66.4477 42.0838 63.5693 40.4522 60.7131 40.7996C59.4817 40.9504 58.3043 41.4241 57.2571 42.1399C57.1714 42.1961 57.0857 42.2593 57 42.3224C57 42.2382 57 42.154 57 42.0698C57.0889 42.0066 57.1777 41.9435 57.2698 41.8838C58.6407 40.975 60.2212 40.4697 61.8397 40.5399C64.6737 40.6662 67.3839 42.7259 68.4915 45.6137C69.3801 47.9296 69.0215 50.3682 68.0535 52.5157V52.5227Z" fill="#44584F"/>
<path id="Vector_191" d="M83.9966 57.3716C83.9831 57.449 83.9628 57.5264 83.9425 57.6001C83.1811 57.5337 82.4265 57.3568 81.7058 57.0768C79.3743 56.1665 77.4253 54.088 76.5286 51.5709C76.2612 50.8265 76.0887 50.0452 76.0244 49.2418C75.889 47.5577 76.3052 45.6966 77.5775 44.6131C78.1697 44.1082 78.9108 43.7876 79.6586 43.7397C79.8853 43.725 80.112 43.736 80.3353 43.7729C80.3421 43.8503 80.3523 43.924 80.3624 44.0014C80.1289 43.9535 79.8887 43.9424 79.6518 43.9571C78.6908 44.0235 77.7366 44.5726 77.1343 45.3944C76.1259 46.7727 76.0379 48.7148 76.4034 50.3695C76.4913 50.7676 76.6064 51.1582 76.7451 51.5378C77.1715 52.706 77.8212 53.7747 78.6333 54.6666C80.0816 56.2623 82.0069 57.1873 84 57.3642L83.9966 57.3716Z" fill="#44584F"/>
<path id="Vector_192" d="M80 60.676C79.9417 60.6999 79.8835 60.7237 79.8219 60.7476C79.5306 60.2804 79.1971 59.8371 78.8248 59.4348C76.7238 57.1466 73.2955 56.0588 70.3916 57.1262C68.8636 57.6888 67.7661 58.913 67.3744 60.5771C67.1899 61.3546 67.1608 62.1423 67.2255 62.9266C67.1608 62.9266 67.096 62.93 67.0313 62.9334C66.9471 61.8866 67.0216 60.8363 67.3938 59.8303C68.6111 56.543 72.4959 56.0077 75.3447 56.9488C77.2839 57.5899 78.9155 58.9369 80 60.6794V60.676Z" fill="#44584F"/>
<path id="Vector_193" d="M77.5143 27.2668C76.903 29.1532 75.6477 30.8895 73.7746 31.614C71.7042 32.4187 69.3283 31.8978 67.5242 30.6791C65.7036 29.4504 64.3727 27.5906 63.3901 25.634C62.8018 24.4621 62.3352 23.23 62 21.9646C62.0559 21.9245 62.115 21.8844 62.1709 21.8477C62.5652 23.3535 63.1436 24.806 63.8929 26.1682C64.9149 28.0213 66.282 29.7543 68.119 30.8194C69.9888 31.9012 72.4272 32.2084 74.3628 31.1165C76.0946 30.1416 77.1364 28.2551 77.557 26.3385C77.9185 24.6925 77.8396 23.003 77.6227 21.3335C77.6917 21.3602 77.7607 21.3903 77.8298 21.417C78.0729 23.3803 78.1255 25.3736 77.511 27.2668H77.5143Z" fill="#44584F"/>
<path id="Vector_194" d="M73.0018 23.6261C73.7865 28.3964 74.4579 33.2136 74.6531 38.0308C74.6999 39.1773 74.7195 40.3305 74.6141 41.4769C74.5984 41.6412 74.8951 41.6412 74.9107 41.4769C75.1176 39.2309 74.9264 36.948 74.7273 34.7087C74.4969 32.1073 74.1729 29.5093 73.8021 26.918C73.642 25.7984 73.4703 24.6787 73.2868 23.5591C73.2595 23.3981 72.9745 23.4652 73.0018 23.6261Z" fill="white"/>
<path id="Vector_195" d="M78.3379 9.61093C78.3379 9.61093 79.566 10.8432 78.677 11.6703C77.7879 12.4974 77.5563 12.3387 77.2669 13.2368C76.9774 14.1349 76.444 13.8801 76.138 13.6378C75.832 13.3955 75.832 9.3227 78.3379 9.61511V9.61093Z" fill="#4347C7"/>
<path id="Vector_196" d="M78.6283 6.58114C77.443 6.27242 78.8419 4.51129 77.3935 3.84824C76.0504 3.2308 75.8059 4.59198 74.7042 4.37096C73.6024 4.14995 73.3734 2.88699 71.9808 3.27289C70.6686 3.63775 71.0709 5.22697 69.8423 5.83038C68.6137 6.43379 68.9541 8.70711 69.4554 9.49997C69.508 9.58066 69.9846 9.8122 69.997 9.87184C70.5479 10.3735 70.6624 10.7068 71.2937 11.0576C72.0705 11.4891 72.9185 11.6295 73.7665 11.6996C75.0446 11.8014 76.3444 11.6821 77.5606 11.2225C77.573 10.2893 78.4396 11.0541 79.4639 9.82272C80.5626 8.50364 79.8167 6.89337 78.6283 6.58114Z" fill="#4347C7"/>
<path id="Vector_197" d="M68.0032 19.3389C68.0032 19.3389 70.0691 23.7236 73.7226 21.9978L73.8533 19.2863L73.9394 17.4973L74 16.2451L70.0595 13.8668C69.594 16.0592 68.8895 17.8516 68 19.3389H68.0032Z" fill="#D5794A"/>
<path id="Vector_198" d="M70.0037 16.0001C71.2949 19.3431 73.1367 20.3099 73.8623 20.2653L74 17.6474L70 16.0001H70.0037Z" fill="#1C2F35"/>
<path id="Vector_199" d="M69.1328 12.4614C69.0836 12.6469 69.0485 12.8188 69.0274 12.984C68.9782 13.3684 68.9957 13.7191 69.0766 14.0967C69.1821 14.5923 69.393 15.1318 69.6918 15.85C70.1629 16.9761 71.2703 17.6437 72.4375 17.9505C75.5418 18.7597 76.3926 16.8041 76.9972 13.6719C77.3734 11.7264 78.2277 10.816 77.9429 9.94952C77.9183 9.90569 77.8937 9.86523 77.8691 9.82477C77.275 8.8335 76.2871 8.11533 75.141 7.79502C74.9195 7.73433 74.7086 7.68038 74.5012 7.63655C74.4555 7.62644 74.4062 7.61632 74.3605 7.60621C74.343 7.60284 74.3219 7.59946 74.3043 7.59609C74.2516 7.58598 74.1988 7.57586 74.1496 7.56912C74.1145 7.56238 74.0758 7.55563 74.0406 7.55226C73.9562 7.53877 73.8754 7.52866 73.7945 7.51517C71.2211 7.19824 70.1946 8.48959 69.7059 9.89895C69.3719 10.8565 69.2875 11.868 69.1328 12.4648V12.4614Z" fill="#D5794A"/>
<path id="Vector_200" d="M75.5616 12.9274C75.5866 13.591 75.6901 14.1956 75.8116 14.8347C75.8437 14.7806 75.8723 14.7216 75.9044 14.6675C75.6259 14.6774 75.383 14.5545 75.1188 14.4463C75.001 14.3972 74.9474 14.6528 75.0688 14.7019C75.3545 14.815 75.6044 14.9428 75.9044 14.933C75.9687 14.933 76.0115 14.8494 75.9972 14.7658C75.8794 14.1514 75.7794 13.5664 75.7544 12.9274C75.7473 12.7602 75.5544 12.7553 75.5616 12.9274Z" fill="#1C2F35"/>
<path id="Vector_201" d="M73.0041 13.1039C72.9689 13.37 73.1626 13.6849 73.4354 13.8152C73.7083 13.9401 73.9607 13.8315 73.9959 13.5654C74.0311 13.2994 73.8374 12.9845 73.5646 12.8542C73.2917 12.7239 73.0393 12.8379 73.0041 13.1039Z" fill="#9B4731"/>
<path id="Vector_202" d="M76.9266 14.8784C76.8118 14.9491 76.6458 14.9545 76.4735 14.8784C76.1768 14.7534 75.9662 14.4328 76.0045 14.1665C76.0428 13.9002 76.3172 13.7915 76.6139 13.922C76.7767 13.9926 76.9139 14.1176 77 14.2643L76.9266 14.8784Z" fill="#9B4731"/>
<path id="Vector_203" d="M76.609 12.6551C76.5259 12.4274 76.408 12.2993 76.2124 12.3028C75.9364 12.3028 75.9257 11.737 76.2017 11.7334C76.542 11.7334 76.8287 11.954 76.976 12.3633C77.0966 12.6907 76.7295 12.9861 76.609 12.6551Z" fill="#1C2F35"/>
<path id="Vector_204" d="M70 14.4325C69.5697 14.3355 69.252 14.1319 69.0266 13.8668C68.9788 14.2353 68.9959 14.5715 69.0744 14.9335C69.4125 14.8656 69.7268 14.7072 70 14.4325Z" fill="#1C2F35"/>
<path id="Vector_205" d="M70.6863 10.1733C71.8096 10.8283 71.4102 12.9918 72.1169 12.7864C72.8237 12.5811 72.5198 8.80294 74.0871 9.30929C75.6543 9.81564 75.3811 10.0777 76.0948 10.3184C77.3103 10.7327 77.4639 10.0918 78 10.0741C77.9761 10.0281 77.9522 9.9856 77.9283 9.94311C77.3513 8.90209 76.3918 8.14788 75.2787 7.81149C75.0636 7.74776 74.8587 7.6911 74.6573 7.64507C74.6129 7.63445 74.5651 7.62383 74.5207 7.6132C74.5036 7.60966 74.4831 7.60612 74.4661 7.60258C74.4148 7.59196 74.3636 7.58134 74.3158 7.57425C74.2817 7.56717 74.2441 7.56009 74.21 7.55655C74.128 7.54238 74.0495 7.52822 73.971 7.5176C71.4716 7.18476 70.4746 8.54092 70 10.021C70.2083 9.98914 70.437 10.0316 70.6829 10.1768L70.6863 10.1733Z" fill="#4347C7"/>
<path id="Vector_206" d="M71.8035 13.3289C71.1483 13.5689 71.5155 11.041 70.4772 10.2755C70.2493 10.1059 70.0341 10.0563 69.8442 10.0935C69.5435 11.2685 69.4675 12.5097 69.3282 13.242C69.2871 13.4613 69.2554 13.6682 69.2364 13.8668C69.1003 12.2077 68.9642 10.2549 69.0085 9.46461C69.018 9.30326 69.0338 9.15845 69.0623 9.02192C69.0972 8.99295 69.1288 8.96399 69.1636 8.93917C69.3124 8.82332 69.4707 8.73644 69.6353 8.67438C69.8948 8.57508 70.1702 8.52957 70.4519 8.53371C71.3635 8.53371 72.329 8.98882 73 9.38187C72.2561 10.1431 72.348 13.1303 71.8098 13.3248L71.8035 13.3289Z" fill="#4347C7"/>
<path id="Vector_207" d="M75 15.3795C75 15.3795 74.3387 15.2274 73.0357 14.9335C73.0357 14.9335 72.7607 15.8377 73.7363 15.9857C74.5646 16.1114 75 15.3775 75 15.3775V15.3795Z" fill="white"/>
<path id="Vector_208" d="M71.7332 13.1891C72.0296 12.6998 72.0719 12.0827 71.8955 11.5333C71.6627 10.8183 71.1899 9.68935 70.502 9.61033C69.4895 9.49367 69.1543 10.3931 69.0273 11.3639C68.9003 12.3348 69.1896 13.7347 70.4561 13.8589C71.0912 13.9229 71.4898 13.5879 71.7297 13.1853L71.7332 13.1891Z" fill="#D5794A"/>
<path id="Vector_209" d="M70.5868 12.664C70.715 12.3425 70.8271 12.0021 70.7822 11.6522C70.7438 11.3401 70.5227 10.8452 70.1222 10.8735C69.9876 10.883 69.9492 10.6781 70.0837 10.6687C70.4714 10.6403 70.7598 10.9334 70.8976 11.2676C71.0995 11.753 70.9713 12.27 70.7854 12.7365C70.7342 12.8595 70.5387 12.787 70.5868 12.664Z" fill="#1C2F35"/>
<path id="Vector_210" d="M81.6017 29.9542C81.3263 32.5942 81.0611 35.2207 81.0152 37.891C80.9591 41.2448 81.0407 44.6021 81.5558 47.8953C81.8439 49.7372 82.2621 51.5354 82.823 53.2662C82.8715 53.4177 83.0398 53.2864 82.9913 53.1382C81.9816 50.0234 81.4614 46.6763 81.2779 43.3056C81.1223 40.4603 81.1427 37.5543 81.3416 34.7156C81.4512 33.1464 81.6246 31.5874 81.7878 30.0283C81.8057 29.8667 81.617 29.7959 81.6017 29.9609V29.9542Z" fill="#44584F"/>
<path id="Vector_211" d="M58.8249 24.5334C58.8249 24.5334 47.6426 37.5974 50.4531 44.8755C53.2636 52.1537 65.9756 59.3295 70.8102 55.4382C75.6448 51.5469 71.2382 45.5776 69.3502 44.9496C67.4621 44.3217 62.2891 43.7113 61.7018 41.584C61.1145 39.4566 66.3738 33.5579 66.3738 33.5579C66.3738 33.5579 60.8191 30.4427 58.8216 24.5334H58.8249Z" fill="#1C2F35"/>
<path id="Vector_212" d="M57.0637 52.5215C59.6151 54.1725 62.3411 55.9409 65.3161 56.4106C67.5797 56.7664 70.2864 56.4106 71.9646 54.539C72.0746 54.4144 71.9032 54.2223 71.79 54.3468C70.0923 56.2362 67.2887 56.5315 65.0219 56.0868C62.1988 55.5281 59.6248 53.8665 57.1834 52.2866C57.0475 52.1977 56.9214 52.4325 57.0605 52.5215H57.0637Z" fill="#44584F"/>
<path id="Vector_213" d="M63.7742 35.2658C62.7052 37.2395 61.7835 39.3045 61.009 41.4398C60.9514 41.6013 61.1882 41.668 61.2426 41.51C62.0075 39.3958 62.9229 37.3554 63.9822 35.3992C64.0622 35.2517 63.851 35.1147 63.771 35.2658H63.7742Z" fill="#44584F"/>
<path id="Vector_214" d="M58.1247 40.8333C60.5261 40.6174 62.4323 42.5753 64.5522 43.4686C66.6348 44.3471 68.9684 44.2131 70.7729 45.8322C70.9018 45.9476 71.0849 45.7466 70.9561 45.6312C70.1149 44.8756 69.1482 44.4215 68.1001 44.1349C66.9876 43.8297 65.8445 43.6845 64.7625 43.2527C62.551 42.3631 60.6143 40.3271 58.1247 40.5504C57.9584 40.5653 57.9584 40.8482 58.1247 40.8333Z" fill="#44584F"/>
<path id="Vector_215" d="M59.0649 24.756C61.4148 25.9691 62.8612 28.361 62.7306 30.8185C62.7237 30.9717 62.9848 30.9717 62.9917 30.8185C63.1257 28.2828 61.6244 25.8034 59.1955 24.5496C59.0478 24.4746 58.9172 24.6809 59.0649 24.756Z" fill="#44584F"/>
<path id="Vector_216" d="M59.0799 39.819C59.7213 40.257 60.2664 40.8282 60.7194 41.5279C60.8397 41.7135 61.0882 41.5041 60.968 41.3185C60.4869 40.5711 59.8977 39.9618 59.2082 39.4906C59.0358 39.3763 58.9115 39.7048 59.0799 39.819Z" fill="#44584F"/>
<path id="Vector_217" d="M51.0361 39.6721C52.827 41.3477 53.329 44.3729 52.1995 46.7585C52.1342 46.8928 52.3119 47.0079 52.3747 46.8736C53.546 44.3985 53.0309 41.2326 51.1721 39.493C51.0701 39.4003 50.9341 39.5761 51.0361 39.6721Z" fill="#44584F"/>
<path id="Vector_218" d="M78.6815 49.4194C74.0684 47.3598 71.8049 41.4577 73.6342 36.2637C75.4635 31.0697 80.7055 28.5213 85.3185 30.5809C89.9316 32.6405 92.1951 38.5426 90.3658 43.7366C88.5365 48.9306 83.2945 51.4791 78.6815 49.4194ZM83.4605 35.8539C81.4301 34.9481 79.122 36.0696 78.3175 38.3557C77.513 40.6418 78.5091 43.2406 80.5395 44.1464C82.5699 45.0522 84.878 43.9307 85.6825 41.6446C86.487 39.3585 85.4909 36.7598 83.4605 35.8539Z" fill="#C01C27"/>
<path id="Vector_219" d="M88.9261 29.0864L87.4268 32.0001L83 30.2025L83.8622 27.0287C83.9266 26.7917 84.1067 26.6238 84.2354 26.6765L88.8907 28.5662C89.0193 28.6189 89.0387 28.8658 88.9261 29.0831V29.0864Z" fill="#C01C27"/>
<path id="Vector_220" d="M80.0504 27.0077L81 30.1008L76.6547 32.0001L75.0816 29.182C74.9633 28.9717 74.9761 28.729 75.104 28.674L79.6731 26.6777C79.801 26.6227 79.9832 26.7812 80.0536 27.011L80.0504 27.0077Z" fill="#C01C27"/>
<path id="Vector_221" d="M72.2684 33.1456L75 34.7448L73.3148 39.4668L70.3394 38.5471C70.1171 38.4785 69.9597 38.2863 70.0091 38.149L71.7808 33.1834C71.8302 33.0461 72.0616 33.0255 72.2653 33.1456H72.2684Z" fill="#C01C27"/>
<path id="Vector_222" d="M93.6635 41.4531L90.6863 40.5334L89 45.2554L91.7333 46.8546C91.9371 46.9747 92.1687 46.9541 92.2181 46.8168L93.9909 41.8512C94.0403 41.7139 93.8828 41.5218 93.6604 41.4531H93.6635Z" fill="#C01C27"/>
<path id="Vector_223" d="M91.6404 32.0892L89 33.7666L90.7795 38.4001L93.6775 37.3875C93.8927 37.3125 94.0413 37.1182 93.9897 36.9818L92.1193 32.1096C92.0678 31.9733 91.8374 31.963 91.6434 32.0858L91.6404 32.0892Z" fill="#C01C27"/>
<path id="Vector_224" d="M80.1378 52.9745L81 49.7988L76.5731 48.0001L75.0739 50.9156C74.9613 51.133 74.9806 51.3801 75.1093 51.4328L79.7646 53.3237C79.8933 53.3764 80.0735 53.2084 80.1378 52.9713V52.9745Z" fill="#C01C27"/>
<path id="Vector_225" d="M72.3596 47.911L75 46.2336L73.2206 41.6001L70.3225 42.6127C70.1073 42.6877 69.9587 42.8821 70.0103 43.0184L71.8807 47.8906C71.9322 48.027 72.1626 48.0372 72.3566 47.9144L72.3596 47.911Z" fill="#C01C27"/>
<path id="Vector_226" d="M83.9496 52.9925L83 49.8994L87.3453 48.0001L88.9184 50.8182C89.0367 51.0285 89.0239 51.2712 88.896 51.3262L84.3269 53.3225C84.199 53.3775 84.0168 53.219 83.9464 52.9892L83.9496 52.9925Z" fill="#C01C27"/>
<path id="Vector_227" d="M69.2199 50.5622C68.8722 49.7674 68.9475 48.8713 69.3704 48.1092C69.7897 47.357 70.424 46.3398 70.8648 46.209C71.5744 45.9997 76.2762 44.5475 77.0718 44.8386C77.8674 45.1297 74.3123 46.7061 74.3123 46.7061C74.3123 46.7061 78.0072 46.0062 78 46.6178C77.9928 47.2327 74.2478 48.3316 74.2478 48.3316C74.2478 48.3316 76.8425 48.1419 77.2797 48.4297C77.9964 48.904 74.0077 49.7969 74.0077 49.7969C74.0077 49.7969 76.2547 50.4085 76.3049 50.8336C76.3551 51.2588 74.1869 52.59 73.9217 52.1942C73.6135 51.7363 74.4628 51.4518 74.4844 51.3242C74.5094 51.1901 72.7462 51.6873 71.9327 51.8116C70.3093 52.0601 69.5603 51.3406 69.2163 50.5556L69.2199 50.5622Z" fill="#D5794A"/>
<path id="Vector_228" d="M92.0379 46.8837C92.0379 46.8837 92.7542 47.186 92.9602 46.2998C93.1662 45.4137 92.5178 43.4633 92.2649 42.8049C92.0121 42.1465 91.9068 44.0141 92.0987 44.7718C92.2907 45.5338 92.19 46.0141 92.19 46.0141L92.0379 46.8796V46.8837Z" fill="#D5794A"/>
<path id="Vector_229" d="M93 43.68C93 43.68 93.7575 43.9492 93.9607 43.2794C94.164 42.6096 93.5243 41.1355 93.2748 40.6379C93.0254 40.1402 92.9215 41.5518 93.1109 42.1245C93.3002 42.7004 93.1755 42.9946 93.1755 42.9946L93 43.68Z" fill="#D5794A"/>
<path id="Vector_230" d="M94 42.6133C94 42.6133 94.757 42.8825 94.9606 42.2131C95.1642 41.5436 94.5247 40.0701 94.2767 39.5707C94.0261 39.0748 93.9243 40.4845 94.1122 41.0583C94.3002 41.6322 94.1775 41.9261 94.1775 41.9261L94.0026 42.6098L94 42.6133Z" fill="#D5794A"/>
<path id="Vector_231" d="M92 44.7467C92 44.7467 93.515 45.0158 93.9215 44.346C94.3279 43.6763 93.0485 42.2022 92.5497 41.7045C92.0508 41.2069 91.843 42.6184 92.2217 43.1912C92.6005 43.767 92.351 44.0612 92.351 44.0612L92 44.7467Z" fill="#D5794A"/>
<path id="Vector_232" d="M154.814 68.2667C154.86 68.2667 154.91 68.2457 154.945 68.2001C155.018 68.1123 155.018 67.9685 154.945 67.8807L147.321 58.7325C147.248 58.6448 147.128 58.6448 147.055 58.7325C146.982 58.8203 146.982 58.9641 147.055 59.0519L154.679 68.2001C154.717 68.2457 154.764 68.2667 154.811 68.2667H154.814Z" fill="#293C53"/>
<path id="Vector_233" d="M152 64.0001C152 64.5908 151.777 65.0668 151.5 65.0668C151.223 65.0668 151 64.5908 151 64.0001C151 63.4094 151.223 62.9335 151.5 62.9335C151.777 62.9335 152 63.4094 152 64.0001Z" fill="#C01C27"/>
<path id="Vector_234" d="M146 61.8668C148.761 61.8668 151 59.7178 151 57.0668C151 54.4159 148.761 52.2668 146 52.2668C143.239 52.2668 141 54.4159 141 57.0668C141 59.7178 143.239 61.8668 146 61.8668Z" fill="#E59C25"/>
<path id="Vector_235" d="M144.558 60.7399C144.952 60.9231 145.463 60.6853 146.004 60.0735C146.508 59.5006 146.991 58.6588 147.367 57.704C147.743 56.7453 147.964 55.7827 147.997 54.9916C148.029 54.142 147.832 53.5769 147.438 53.3938C147.045 53.2106 146.533 53.4483 145.993 54.0602C145.488 54.6331 145.005 55.4748 144.633 56.4296C144.257 57.3883 144.036 58.3509 144.003 59.1421C143.971 59.9916 144.168 60.5567 144.562 60.7399H144.558ZM147.31 53.7172C147.814 53.9511 147.843 55.5918 147.07 57.5637C146.297 59.5357 145.195 60.6503 144.687 60.4164C144.182 60.1826 144.154 58.5419 144.927 56.5699C145.699 54.598 146.802 53.4834 147.31 53.7172Z" fill="white"/>
<path id="Vector_236" d="M146.851 59.5744C147.265 59.7849 147.595 59.7881 147.802 59.5744C148.043 59.3218 148.065 58.8166 147.863 58.1559C147.675 57.5374 147.313 56.8379 146.843 56.187C146.373 55.5328 145.85 55.0017 145.372 54.6908C144.856 54.354 144.44 54.3087 144.198 54.5613C143.957 54.8139 143.935 55.3191 144.137 55.9797C144.325 56.5983 144.687 57.2978 145.157 57.9487C145.627 58.6029 146.15 59.134 146.628 59.4449C146.703 59.4934 146.779 59.5388 146.851 59.5744ZM145.047 54.8236C145.114 54.8592 145.181 54.8981 145.254 54.9434C145.707 55.2381 146.207 55.7465 146.658 56.3748C147.627 57.722 147.955 59.0239 147.64 59.3509C147.482 59.5161 147.154 59.4546 146.741 59.1858C146.287 58.8911 145.788 58.3826 145.337 57.7544C144.886 57.1261 144.539 56.459 144.36 55.8761C144.198 55.345 144.193 54.9434 144.352 54.7782C144.48 54.6422 144.727 54.6584 145.044 54.8203L145.047 54.8236Z" fill="white"/>
<path id="Vector_237" d="M143.719 58.2419C143.798 58.2839 143.883 58.326 143.971 58.3642C144.537 58.6011 145.282 58.7043 146.062 58.6546C146.841 58.6049 147.574 58.4024 148.12 58.0929C148.706 57.7604 149.017 57.3247 148.999 56.87C148.982 56.4152 148.639 56.0255 148.029 55.7694C147.463 55.5325 146.718 55.4293 145.938 55.479C145.159 55.5287 144.426 55.7312 143.88 56.0407C143.294 56.3732 142.983 56.8089 143.001 57.2636C143.015 57.6496 143.268 57.9897 143.719 58.2419ZM148.187 56.2127C148.53 56.4038 148.73 56.6445 148.738 56.8891C148.762 57.4776 147.662 58.2037 146.05 58.3107C145.299 58.3604 144.59 58.261 144.053 58.0355C143.564 57.8292 143.279 57.5426 143.268 57.2483C143.256 56.9502 143.52 56.6292 143.989 56.3617C144.505 56.0675 145.205 55.8802 145.956 55.8306C146.707 55.7809 147.416 55.8802 147.953 56.1057C148.038 56.1401 148.117 56.1783 148.187 56.2203V56.2127Z" fill="white"/>
<path id="Vector_238" d="M145.081 56.8584C144.863 57.1283 145.099 57.4409 145.609 57.5569C146.115 57.6729 146.701 57.5474 146.919 57.2751C147.137 57.0052 146.901 56.6927 146.391 56.5767C145.88 56.4606 145.299 56.5861 145.081 56.8584Z" fill="white"/>
<path id="Vector_239" d="M147.041 54.7257C146.931 54.996 147.052 55.3106 147.305 55.4236C147.559 55.5406 147.854 55.4115 147.959 55.1412C148.069 54.871 147.948 54.5563 147.695 54.4434C147.441 54.3264 147.146 54.4555 147.041 54.7257Z" fill="white"/>
<path id="Vector_240" d="M148.041 57.9257C147.931 58.196 148.052 58.5106 148.305 58.6235C148.559 58.7405 148.854 58.6114 148.959 58.3412C149.069 58.0709 148.948 57.7563 148.695 57.6433C148.441 57.5264 148.146 57.6554 148.041 57.9257Z" fill="white"/>
<path id="Vector_241" d="M162 59.7334C162 60.3241 162.446 60.8001 163 60.8001C163.554 60.8001 164 60.3241 164 59.7334C164 59.1427 163.554 58.6667 163 58.6667C162.446 58.6667 162 59.1427 162 59.7334Z" fill="#E59C25"/>
<path id="Vector_242" d="M165.886 55.3665C168.014 53.5542 168.362 50.2445 166.663 47.9743C164.964 45.704 161.861 45.3327 159.733 47.1451C157.604 48.9574 157.256 52.2671 158.955 54.5374C160.654 56.8076 163.757 57.1789 165.886 55.3665Z" fill="#4347C7"/>
<path id="Vector_243" d="M163 48.0001C161.346 48.0001 160 49.4359 160 51.2001C160 52.9644 161.346 54.4001 163 54.4001C164.654 54.4001 166 52.9644 166 51.2001C166 49.4359 164.654 48.0001 163 48.0001ZM163.121 52.3849V51.2629H164.477C164.471 51.6578 164.415 52.038 164.318 52.3849H163.121ZM163.972 53.6619C164.194 53.363 164.367 53.0197 164.495 52.6433H165.408C165.021 53.3777 164.374 53.8908 163.612 54.0753C163.74 53.9535 163.862 53.8133 163.972 53.6656V53.6619ZM164.235 52.6433C164.121 52.957 163.972 53.2449 163.789 53.4959C163.502 53.8871 163.215 54.0864 163.121 54.1455V52.6433H164.235ZM163.121 49.6278V48.2622C163.156 48.2622 163.194 48.2659 163.228 48.2696C163.377 48.4061 163.848 48.8712 164.17 49.6278H163.121ZM164.433 49.6278C164.325 49.351 164.19 49.0889 164.028 48.8416C163.91 48.6645 163.782 48.4947 163.647 48.3434C164.339 48.5205 164.945 48.9856 165.329 49.6278H164.433ZM163.121 51.0082V49.8862H164.266C164.391 50.2479 164.46 50.6243 164.474 51.0082H163.118H163.121ZM164.716 51.0082C164.702 50.628 164.637 50.2516 164.522 49.8862H165.467C165.633 50.2368 165.73 50.6133 165.754 51.0082H164.72H164.716ZM165.758 51.2666C165.751 51.6578 165.671 52.0343 165.526 52.3886H164.567C164.661 52.038 164.709 51.6615 164.716 51.2666H165.758ZM161.457 52.3886H160.471C160.325 52.0343 160.246 51.6578 160.239 51.2666H161.308C161.315 51.6615 161.367 52.038 161.457 52.3886ZM161.855 49.6315C161.948 49.41 162.059 49.196 162.19 48.9967C162.443 48.6091 162.695 48.3618 162.799 48.2696C162.824 48.2696 162.851 48.2696 162.875 48.2659V49.6315H161.855ZM162.875 49.8899V51.0119H161.547C161.561 50.6317 161.63 50.2516 161.754 49.8899H162.872H162.875ZM160.668 49.6315C161.059 48.9745 161.678 48.5095 162.384 48.336C162.246 48.491 162.114 48.6608 161.997 48.8453C161.837 49.0926 161.699 49.3547 161.592 49.6315H160.668ZM162.875 51.2666V52.3886H161.706C161.609 52.0416 161.554 51.6652 161.547 51.2666H162.875ZM160.242 51.0082C160.266 50.617 160.363 50.2368 160.529 49.8862H161.502C161.388 50.2516 161.322 50.628 161.308 51.0082H160.242ZM161.533 52.6433C161.657 53.0234 161.834 53.3667 162.055 53.6619C162.17 53.817 162.294 53.9572 162.426 54.0827C161.657 53.9092 160.979 53.3777 160.592 52.6433H161.533ZM162.875 52.6433V54.127C162.692 54.0052 162.121 53.566 161.789 52.6433H162.875Z" fill="white"/>
</g>
</svg>
