<svg width="69" height="81" viewBox="0 0 69 81" fill="none" xmlns="http://www.w3.org/2000/svg">
<path d="M46.9969 74.4308C51.9453 74.4308 55.9567 70.4194 55.9567 65.471C55.9567 60.5227 51.9453 56.5112 46.9969 56.5112C42.0485 56.5112 38.0371 60.5227 38.0371 65.471C38.0371 70.4194 42.0485 74.4308 46.9969 74.4308Z" fill="#ECEFF1"/>
<path d="M5.57724 48.0396C3.86492 51.1705 2.99881 54.8291 3.27756 58.7067C3.9595 68.1942 11.645 75.8648 21.1324 76.5318C32.4218 77.3232 41.8296 68.3982 41.8296 57.2781C41.8296 56.7007 41.8047 56.1233 41.7549 55.5559C41.5857 53.6444 43.064 51.9869 44.9804 51.9919C57.9921 51.9919 68.5348 41.4293 68.4999 28.4077C68.4651 15.8341 58.3256 5.37104 45.7619 4.96785C38.0316 4.71896 31.1077 8.19836 26.6477 13.7485C23.8204 17.2677 19.3753 19.0248 14.9004 18.4225C14.0443 18.308 13.1632 18.2781 12.2622 18.3428C6.10984 18.7809 1.0824 23.7237 0.54979 29.8711C0.196376 33.9229 1.74941 37.6213 4.41246 40.1699C6.55784 42.2257 7.00085 45.4313 5.57724 48.0396Z" fill="#ECEFF1"/>
<path d="M19.4101 67.3228C19.4101 67.3228 13.1084 54.7293 19.4101 46.2573H44.3084V57.7906L33.8952 68.2039L19.4151 67.3228H19.4101Z" fill="#E3614A"/>
<path d="M27.6436 13.2909L12.4998 44.1623C11.8678 45.4507 12.3999 47.0074 13.6882 47.6394L35.309 58.2454C36.5973 58.8774 38.1541 58.3453 38.7861 57.0569L53.9299 26.1855C54.5619 24.8972 54.0298 23.3404 52.7414 22.7084L31.1207 12.1025C29.8323 11.4705 28.2756 12.0026 27.6436 13.2909Z" fill="#2A2B4A"/>
<path d="M36.3446 0C36.3446 0.81136 35.6875 1.46841 34.8762 1.46841C34.0648 1.46841 33.4077 0.81136 33.4077 0H30.4709C30.4709 0.81136 29.8139 1.46841 29.0025 1.46841C28.1911 1.46841 27.5341 0.81136 27.5341 0H24.5973C24.5973 0.81136 23.9402 1.46841 23.1289 1.46841C22.3175 1.46841 21.6605 0.81136 21.6605 0H18.7236V55.8395H21.6605C21.6605 55.0281 22.3175 54.371 23.1289 54.371C23.9402 54.371 24.5973 55.0281 24.5973 55.8395H27.5341C27.5341 55.0281 28.1911 54.371 29.0025 54.371C29.8139 54.371 30.4709 55.0281 30.4709 55.8395H33.4077C33.4077 55.0281 34.0648 54.371 34.8762 54.371C35.6875 54.371 36.3446 55.0281 36.3446 55.8395H39.2814V0H36.3446Z" fill="#F9D87B"/>
<path d="M18.7334 8.46704H39.2762" stroke="#2A2B4A" stroke-width="1.55" stroke-miterlimit="10"/>
<path d="M23.248 12.1655V37.467" stroke="#2A2B4A" stroke-width="1.55" stroke-miterlimit="10" stroke-linecap="round"/>
<path d="M26.1445 12.1655V28.7461" stroke="#2A2B4A" stroke-width="1.55" stroke-miterlimit="10" stroke-linecap="round"/>
<path d="M34.8359 12.1655V28.7461" stroke="#2A2B4A" stroke-width="1.55" stroke-miterlimit="10" stroke-linecap="round"/>
<path d="M30.208 12.2931L15.0643 43.1645C14.4323 44.4529 14.9643 46.0096 16.2527 46.6416L37.8734 57.2476C39.1618 57.8796 40.7185 57.3475 41.3505 56.0591L56.4943 25.1877C57.1263 23.8994 56.5942 22.3426 55.3059 21.7106L33.6852 11.1047C32.3968 10.4727 30.84 11.0048 30.208 12.2931Z" fill="#87B8C4"/>
<path d="M44.9994 33.3375C46.9011 29.4385 45.282 24.7361 41.3829 22.8344C37.4839 20.9327 32.7815 22.5519 30.8798 26.4509C28.9781 30.35 30.5973 35.0524 34.4963 36.954C38.3954 38.8557 43.0978 37.2366 44.9994 33.3375Z" stroke="#2A2B4A" stroke-width="1.55" stroke-miterlimit="10" stroke-linecap="round"/>
<path d="M41.0729 31.4789C39.1217 35.3515 36.14 37.7905 34.4128 36.9194C32.6855 36.0483 32.8697 32.2056 34.821 28.328C36.7722 24.4554 39.7538 22.0163 41.4811 22.8874C43.2083 23.7585 43.0242 27.6013 41.0729 31.4789Z" stroke="#2A2B4A" stroke-width="1.55" stroke-miterlimit="10" stroke-linecap="round"/>
<path d="M32.5957 24.4155L45.5476 30.9412" stroke="#2A2B4A" stroke-width="1.55" stroke-miterlimit="10" stroke-linecap="round"/>
<path d="M30.3516 28.8706L43.3034 35.3963" stroke="#2A2B4A" stroke-width="1.55" stroke-miterlimit="10" stroke-linecap="round"/>
<path d="M40.267 35.2468C38.7737 33.7535 36.2252 34.3907 35.6079 36.4116L35.5134 36.7302C34.6622 39.5226 35.4188 42.559 37.4845 44.6198L43.4278 50.5631C34.5278 53.9429 28.2012 62.5493 28.2012 72.6341V74.431H30.2968C37.2257 74.431 43.5473 70.4837 46.5887 64.2616L51.6858 53.8434C53.0945 50.9613 52.5171 47.5018 50.2522 45.232L40.267 35.2468Z" fill="#E3614A"/>
<path d="M40.3262 67.3228V79.2841C36.9912 80.1651 33.4869 80.638 29.8731 80.638C26.2593 80.638 22.7551 80.1701 19.415 79.2841V67.3228H40.3262Z" fill="#E3614A"/>
<path d="M36.4086 54.7446C32.4862 58.1245 29.6838 62.7686 28.6484 68.045" stroke="#2A2B4A" stroke-width="1.55" stroke-miterlimit="10" stroke-linecap="round"/>
<path d="M19.8948 42.7053L21.1792 40.0951L22.0611 40.529C22.2659 40.6298 22.4151 40.7491 22.5087 40.887C22.6036 41.0245 22.6518 41.1711 22.6532 41.327C22.6546 41.4828 22.6175 41.6376 22.5418 41.7914C22.4661 41.9452 22.3659 42.0695 22.2412 42.1643C22.1173 42.2595 21.9719 42.3126 21.8051 42.3234C21.6387 42.3333 21.454 42.2883 21.2509 42.1884L20.6188 41.8773L20.7568 41.597L21.3787 41.903C21.5189 41.972 21.6434 42.0032 21.7522 41.9965C21.861 41.9899 21.9548 41.9548 22.0336 41.8912C22.1137 41.8272 22.1794 41.7429 22.2308 41.6384C22.2822 41.5339 22.3087 41.4308 22.3102 41.3291C22.3125 41.2279 22.2822 41.1328 22.2194 41.0439C22.157 40.954 22.0549 40.8742 21.913 40.8044L21.3573 40.531L20.2109 42.8608L19.8948 42.7053ZM22.0137 43.7479L21.6823 43.5848L23.9251 41.4462L24.2514 41.6068L23.9254 44.6886L23.5941 44.5255L23.8952 41.9445L23.8749 41.9344L22.0137 43.7479ZM22.6377 42.7885L23.9734 43.4457L23.8354 43.7261L22.4998 43.0689L22.6377 42.7885ZM26.7227 43.6334C26.771 43.4967 26.7583 43.3659 26.6847 43.241C26.611 43.1161 26.4952 43.0148 26.3372 42.9371C26.2216 42.8802 26.1113 42.8491 26.0062 42.8439C25.902 42.839 25.8096 42.8574 25.729 42.899C25.6492 42.941 25.5888 43.0037 25.5478 43.0869C25.5136 43.1566 25.5007 43.2247 25.5091 43.2911C25.5189 43.3571 25.5419 43.4196 25.5783 43.4787C25.6151 43.5369 25.6571 43.5908 25.7045 43.6405C25.7522 43.6893 25.7972 43.732 25.8393 43.7686L26.0693 43.9704C26.1285 44.0217 26.192 44.0836 26.2598 44.156C26.3284 44.2288 26.3876 44.3112 26.4373 44.4032C26.4883 44.4948 26.5182 44.595 26.5269 44.7038C26.5357 44.8126 26.5099 44.9281 26.4497 45.0505C26.3803 45.1915 26.2806 45.3008 26.1507 45.3783C26.0216 45.4562 25.87 45.494 25.6959 45.4917C25.5227 45.4898 25.3358 45.4396 25.1353 45.3409C24.9484 45.2489 24.8014 45.1391 24.6943 45.0115C24.588 44.8843 24.5223 44.7475 24.4972 44.6011C24.473 44.4551 24.4909 44.3083 24.551 44.1605L24.8773 44.3211C24.8373 44.4238 24.8303 44.5217 24.8563 44.6147C24.8835 44.7073 24.934 44.7912 25.0078 44.8665C25.0828 44.9415 25.1721 45.0044 25.2758 45.0554C25.3964 45.1148 25.5144 45.1486 25.6296 45.1567C25.7453 45.164 25.8485 45.1462 25.9393 45.1033C26.0305 45.0595 26.0995 44.99 26.1463 44.8949C26.189 44.8082 26.1995 44.7258 26.1778 44.6476C26.1561 44.5693 26.1141 44.4938 26.0518 44.4209C25.9896 44.3481 25.9188 44.2763 25.8396 44.2057L25.5635 43.9559C25.3885 43.7969 25.2682 43.6338 25.2028 43.4665C25.1373 43.2992 25.1479 43.1276 25.2344 42.9517C25.3064 42.8056 25.4086 42.6975 25.5411 42.6277C25.6749 42.5574 25.8238 42.5251 25.9877 42.5308C26.1529 42.5361 26.3188 42.5797 26.4853 42.6617C26.6536 42.7445 26.7883 42.8482 26.8894 42.9729C26.991 43.0968 27.0545 43.2294 27.08 43.3706C27.1063 43.5124 27.0892 43.6501 27.0286 43.7839L26.7227 43.6334ZM29.0115 44.7596C29.0597 44.6229 29.047 44.4921 28.9734 44.3672C28.8997 44.2423 28.7839 44.141 28.6259 44.0632C28.5103 44.0064 28.4 43.9753 28.2949 43.9701C28.1907 43.9652 28.0983 43.9836 28.0177 44.0252C27.9379 44.0672 27.8775 44.1298 27.8366 44.2131C27.8023 44.2828 27.7894 44.3508 27.7978 44.4173C27.8076 44.4833 27.8306 44.5458 27.867 44.6049C27.9038 44.6631 27.9459 44.717 27.9932 44.7667C28.0409 44.8155 28.0859 44.8582 28.128 44.8948L28.358 45.0966C28.4172 45.1479 28.4807 45.2097 28.5485 45.2822C28.6172 45.355 28.6763 45.4374 28.726 45.5294C28.777 45.621 28.8069 45.7212 28.8156 45.83C28.8244 45.9387 28.7986 46.0543 28.7384 46.1767C28.669 46.3177 28.5694 46.427 28.4394 46.5045C28.3103 46.5824 28.1587 46.6202 27.9846 46.6179C27.8114 46.616 27.6245 46.5658 27.424 46.4671C27.2371 46.3751 27.0901 46.2653 26.983 46.1377C26.8767 46.0104 26.811 45.8736 26.786 45.7273C26.7617 45.5813 26.7796 45.4345 26.8397 45.2867L27.166 45.4472C27.126 45.55 27.119 45.6479 27.145 45.7409C27.1722 45.8334 27.2227 45.9174 27.2965 45.9927C27.3715 46.0676 27.4608 46.1306 27.5645 46.1816C27.6852 46.241 27.8031 46.2747 27.9184 46.2829C28.034 46.2902 28.1372 46.2724 28.228 46.2295C28.3192 46.1857 28.3882 46.1162 28.4351 46.0211C28.4777 45.9344 28.4882 45.8519 28.4665 45.7737C28.4448 45.6955 28.4029 45.62 28.3406 45.5471C28.2783 45.4742 28.2075 45.4025 28.1283 45.3318L27.8523 45.082C27.6772 44.9231 27.5569 44.7599 27.4915 44.5926C27.426 44.4254 27.4366 44.2538 27.5231 44.0779C27.5951 43.9317 27.6973 43.8237 27.8298 43.7539C27.9636 43.6835 28.1125 43.6513 28.2764 43.657C28.4416 43.6623 28.6075 43.7059 28.774 43.7879C28.9423 43.8706 29.077 43.9744 29.1781 44.0991C29.2797 44.223 29.3432 44.3555 29.3687 44.4968C29.395 44.6385 29.3779 44.7763 29.3173 44.9101L29.0115 44.7596ZM28.9094 47.141L30.1938 44.5308L31.0758 44.9648C31.2805 45.0655 31.4297 45.1849 31.5234 45.3228C31.6183 45.4602 31.6664 45.6069 31.6678 45.7627C31.6693 45.9186 31.6321 46.0734 31.5564 46.2272C31.4808 46.381 31.3806 46.5053 31.2558 46.6001C31.1319 46.6953 30.9866 46.7483 30.8198 46.7591C30.6534 46.7691 30.4687 46.7241 30.2656 46.6242L29.6334 46.3131L29.7714 46.0327L30.3934 46.3388C30.5336 46.4077 30.6581 46.4389 30.7669 46.4323C30.8757 46.4257 30.9694 46.3906 31.0482 46.327C31.1283 46.2629 31.194 46.1786 31.2455 46.0741C31.2969 45.9696 31.3233 45.8665 31.3248 45.7649C31.3271 45.6637 31.2969 45.5686 31.2341 45.4796C31.1716 45.3898 31.0695 45.31 30.9276 45.2402L30.3719 44.9667L29.2255 47.2965L28.9094 47.141ZM34.0322 48.0406C33.8967 48.3159 33.7299 48.5294 33.5319 48.681C33.3338 48.8326 33.1213 48.9201 32.8945 48.9436C32.6676 48.967 32.4429 48.924 32.2203 48.8145C31.9976 48.7049 31.8264 48.5531 31.7066 48.3591C31.5868 48.165 31.5265 47.9433 31.5258 47.6939C31.525 47.4444 31.5924 47.182 31.7278 46.9067C31.8633 46.6315 32.0301 46.418 32.2282 46.2664C32.4262 46.1148 32.6387 46.0273 32.8656 46.0038C33.0924 45.9803 33.3171 46.0234 33.5398 46.1329C33.7624 46.2424 33.9336 46.3942 34.0534 46.5883C34.1732 46.7823 34.2335 47.0041 34.2343 47.2535C34.235 47.503 34.1676 47.7653 34.0322 48.0406ZM33.7263 47.8901C33.8375 47.6641 33.8936 47.4547 33.8944 47.262C33.8962 47.0697 33.8526 46.9021 33.7636 46.7591C33.6754 46.6165 33.5523 46.5063 33.3943 46.4286C33.2362 46.3508 33.0734 46.3203 32.9058 46.337C32.739 46.3542 32.5796 46.4219 32.4275 46.5402C32.2762 46.6589 32.1449 46.8312 32.0337 47.0573C31.9225 47.2833 31.866 47.4924 31.8643 47.6847C31.8634 47.8774 31.907 48.0451 31.9952 48.1876C32.0842 48.3306 32.2077 48.441 32.3658 48.5188C32.5238 48.5965 32.6862 48.6269 32.8529 48.6097C33.0205 48.593 33.18 48.5252 33.3313 48.4065C33.4834 48.2883 33.6151 48.1161 33.7263 47.8901ZM33.9215 49.6072L35.2058 46.997L36.0878 47.431C36.2917 47.5314 36.442 47.6486 36.5385 47.7826C36.6355 47.9158 36.6858 48.0582 36.6893 48.2098C36.6928 48.3614 36.6567 48.5141 36.581 48.6679C36.5053 48.8217 36.4068 48.9426 36.2854 49.0306C36.164 49.1186 36.0216 49.1646 35.8581 49.1686C35.6951 49.1718 35.5125 49.1236 35.3102 49.0241L34.5965 48.6729L34.737 48.3874L35.4405 48.7336C35.5799 48.8022 35.702 48.837 35.8071 48.838C35.913 48.8394 36.0034 48.8122 36.0785 48.7562C36.1548 48.6998 36.2186 48.6194 36.27 48.5149C36.3215 48.4104 36.3469 48.3094 36.3462 48.212C36.3456 48.1146 36.3129 48.0235 36.2479 47.9388C36.1834 47.8533 36.0807 47.7758 35.9396 47.7064L35.3839 47.433L34.2375 49.7628L33.9215 49.6072ZM35.7271 49.0392L35.7924 50.5279L35.4254 50.3473L35.3702 48.8636L35.7271 49.0392ZM37.2208 48.3368L37.3588 48.0564L39.3165 49.0197L39.1785 49.3001L38.3577 48.8962L37.2113 51.226L36.8952 51.0705L38.0416 48.7407L37.2208 48.3368Z" fill="white"/>
<path d="M42.8496 50.7574C44.0592 50.3442 45.3036 50.0356 46.5679 49.8315" stroke="#2A2B4A" stroke-width="1.55" stroke-miterlimit="10" stroke-linecap="round"/>
<path d="M57.912 32.5688C57.912 32.9321 57.6183 33.2308 57.2499 33.2308C56.8816 33.2308 56.5879 32.9371 56.5879 32.5688C56.5879 32.2004 56.8816 31.9067 57.2499 31.9067C57.6183 31.9067 57.912 32.2004 57.912 32.5688Z" fill="#2A2B4A"/>
<path d="M60.8042 29.02C60.8042 29.8214 60.1571 30.4685 59.3557 30.4685C58.5543 30.4685 57.9072 29.8214 57.9072 29.02C57.9072 28.2186 58.5543 27.5715 59.3557 27.5715C60.1571 27.5715 60.8042 28.2186 60.8042 29.02Z" stroke="#2A2B4A" stroke-width="1.03" stroke-miterlimit="10" stroke-linecap="round"/>
<path d="M61.8496 33.5596V34.5003" stroke="#2A2B4A" stroke-width="1.03" stroke-miterlimit="10" stroke-linecap="round"/>
<path d="M61.8496 35.7495V36.6953" stroke="#2A2B4A" stroke-width="1.03" stroke-miterlimit="10" stroke-linecap="round"/>
<path d="M63.4223 35.1274H62.4766" stroke="#2A2B4A" stroke-width="1.03" stroke-miterlimit="10" stroke-linecap="round"/>
<path d="M61.227 35.1274H60.2812" stroke="#2A2B4A" stroke-width="1.03" stroke-miterlimit="10" stroke-linecap="round"/>
<path d="M9.45004 38.8605C9.45004 39.2239 9.15636 39.5225 8.78801 39.5225C8.41967 39.5225 8.12598 39.2289 8.12598 38.8605C8.12598 38.4922 8.41967 38.1985 8.78801 38.1985C9.15636 38.1985 9.45004 38.4922 9.45004 38.8605Z" fill="#2A2B4A"/>
<path d="M12.3423 35.3167C12.3423 36.1181 11.6952 36.7652 10.8938 36.7652C10.0924 36.7652 9.44531 36.1181 9.44531 35.3167C9.44531 34.5153 10.0924 33.8682 10.8938 33.8682C11.6952 33.8682 12.3423 34.5153 12.3423 35.3167Z" stroke="#2A2B4A" stroke-width="1.03" stroke-miterlimit="10" stroke-linecap="round"/>
<path d="M11.6348 49.8364V50.7772" stroke="#2A2B4A" stroke-width="1.03" stroke-miterlimit="10" stroke-linecap="round"/>
<path d="M11.6348 52.0269V52.9726" stroke="#2A2B4A" stroke-width="1.03" stroke-miterlimit="10" stroke-linecap="round"/>
<path d="M13.2036 51.4043H12.2578" stroke="#2A2B4A" stroke-width="1.03" stroke-miterlimit="10" stroke-linecap="round"/>
<path d="M11.0073 51.4043H10.0615" stroke="#2A2B4A" stroke-width="1.03" stroke-miterlimit="10" stroke-linecap="round"/>
<path d="M6.10449 9.36816L7.01043 10.2741" stroke="#2A2B4A" stroke-width="1.03" stroke-miterlimit="10" stroke-linecap="round"/>
<path d="M8.02637 11.2893L12.9194 16.1774" stroke="#2A2B4A" stroke-width="1.03" stroke-miterlimit="10" stroke-linecap="round"/>
<path d="M13.4219 16.6851L14.3328 17.591" stroke="#2A2B4A" stroke-width="1.03" stroke-miterlimit="10" stroke-linecap="round"/>
<path d="M54.6719 57.9351L55.5778 58.841" stroke="#2A2B4A" stroke-width="1.03" stroke-miterlimit="10" stroke-linecap="round"/>
<path d="M56.5928 59.8516L61.4808 64.7446" stroke="#2A2B4A" stroke-width="1.03" stroke-miterlimit="10" stroke-linecap="round"/>
<path d="M61.9893 65.2522L62.8952 66.1581" stroke="#2A2B4A" stroke-width="1.03" stroke-miterlimit="10" stroke-linecap="round"/>
<path d="M62.8952 9.36816L61.9893 10.2741" stroke="#2A2B4A" stroke-width="1.03" stroke-miterlimit="10" stroke-linecap="round"/>
<path d="M60.979 11.2893L56.0859 16.1774" stroke="#2A2B4A" stroke-width="1.03" stroke-miterlimit="10" stroke-linecap="round"/>
<path d="M55.5778 16.6851L54.6719 17.591" stroke="#2A2B4A" stroke-width="1.03" stroke-miterlimit="10" stroke-linecap="round"/>
<path d="M14.3328 57.9351L13.4219 58.841" stroke="#2A2B4A" stroke-width="1.03" stroke-miterlimit="10" stroke-linecap="round"/>
<path d="M12.4116 59.8516L7.51855 64.7446" stroke="#2A2B4A" stroke-width="1.03" stroke-miterlimit="10" stroke-linecap="round"/>
<path d="M7.01043 65.252L6.10449 66.1579" stroke="#2A2B4A" stroke-width="1.03" stroke-miterlimit="10" stroke-linecap="round"/>
</svg>
