<svg width="80" height="66" viewBox="0 0 80 66" fill="none" xmlns="http://www.w3.org/2000/svg">
<g id="counseld_Prancheta 1 c&#195;&#179;pia 1" clip-path="url(#clip0_1245_1131)">
<path id="Vector" d="M43.9267 23.3534C43.1518 21.5195 41.0397 20.6606 39.207 21.4367C38.6605 21.6691 38.2002 22.0193 37.8452 22.447L36.5537 22.2499L37.239 23.4924C36.9262 24.3267 36.9192 25.2788 37.2935 26.1659C38.0684 27.9998 40.1805 28.8587 42.0132 28.0825C43.8441 27.3063 44.7016 25.1908 43.9267 23.3551V23.3534Z" fill="#9595E7"/>
<path id="Vector_2" d="M42.3485 26.1677H38.9238C38.8746 26.1677 38.8359 26.129 38.8359 26.0797C38.8359 26.0304 38.8746 25.9917 38.9238 25.9917H42.3485C42.3977 25.9917 42.4363 26.0304 42.4363 26.0797C42.4363 26.129 42.3977 26.1677 42.3485 26.1677Z" fill="white"/>
<path id="Vector_3" d="M42.3485 25.0149H38.9238C38.8746 25.0149 38.8359 24.9761 38.8359 24.9269C38.8359 24.8776 38.8746 24.8389 38.9238 24.8389H42.3485C42.3977 24.8389 42.4363 24.8776 42.4363 24.9269C42.4363 24.9761 42.3977 25.0149 42.3485 25.0149Z" fill="white"/>
<path id="Vector_4" d="M42.3485 23.7654H38.9238C38.8746 23.7654 38.8359 23.7266 38.8359 23.6774C38.8359 23.6281 38.8746 23.5894 38.9238 23.5894H42.3485C42.3977 23.5894 42.4363 23.6281 42.4363 23.6774C42.4363 23.7266 42.3977 23.7654 42.3485 23.7654Z" fill="white"/>
<path id="Vector_5" d="M38.6589 14.3879C39.3723 17.871 42.7706 20.1132 46.248 19.3986C47.2864 19.1857 48.2125 18.7316 48.9838 18.1103L51.175 18.9111L50.4106 16.4964C51.2506 15.1447 51.595 13.4815 51.2506 11.7989C50.5372 8.31591 47.1388 6.07367 43.6615 6.78823C40.1841 7.50279 37.9455 10.9066 38.6589 14.3897V14.3879Z" fill="#766CCC"/>
<path id="Vector_6" d="M44.7142 16.7729H44.4928C43.9762 16.7729 43.5563 16.3329 43.5563 15.7908C43.5563 15.2487 43.9762 14.8087 44.4928 14.8087H44.7142C45.2308 14.8087 45.6508 15.2487 45.6508 15.7908C45.6508 16.3329 45.2308 16.7729 44.7142 16.7729ZM44.4928 14.983C44.0729 14.983 43.732 15.3455 43.732 15.7891C43.732 16.2326 44.0729 16.5951 44.4928 16.5951H44.7142C45.1342 16.5951 45.4751 16.2326 45.4751 15.7891C45.4751 15.3455 45.1342 14.983 44.7142 14.983H44.4928ZM44.8531 14.3846C44.8531 14.3846 44.8443 14.3846 44.839 14.3846C44.6334 14.3846 44.4735 14.3547 44.3347 14.2931C43.9921 14.1417 43.9183 13.8337 43.8778 13.5574L43.725 12.5401C43.7215 12.5137 43.7285 12.4873 43.7461 12.4679L43.8304 12.3729C43.8462 12.3553 43.8655 12.3447 43.8884 12.343C44.4805 12.2955 44.8987 12.2022 45.1324 12.0649C45.3538 11.9364 45.4575 11.7815 45.4575 11.5774C45.4575 11.4225 45.403 11.3063 45.2888 11.2219C44.9181 10.9438 44.5157 11.0916 44.0905 11.2465C43.7847 11.3591 43.4702 11.4735 43.1574 11.4278C42.9114 11.3926 42.6883 11.2553 42.5424 11.0529C42.3966 10.8505 42.3386 10.5953 42.3825 10.3507C42.4387 10.0391 42.6601 9.74874 42.9922 9.55338C43.6494 9.16618 44.4647 9.10986 44.8935 9.10986C45.2853 9.10986 45.6508 9.16266 45.9811 9.2665C46.3132 9.3721 46.6032 9.52346 46.8404 9.71882C47.0794 9.91418 47.2691 10.1588 47.4044 10.4439C47.5415 10.7308 47.6065 11.0529 47.6065 11.4295C47.6065 11.771 47.5503 12.0702 47.4413 12.3219C47.3324 12.5735 47.1795 12.7918 46.9897 12.9713C46.8017 13.1491 46.5751 13.2987 46.3203 13.4131C46.1235 13.5028 45.8634 13.5591 45.6121 13.6137C45.5594 13.6243 45.5085 13.6366 45.4593 13.6471C45.4593 13.6735 45.4628 13.707 45.4645 13.7369C45.4681 13.8003 45.4716 13.8601 45.4698 13.8724C45.4628 14.0203 45.4347 14.1839 45.2695 14.2843C45.1307 14.367 44.9655 14.3793 44.8495 14.3793L44.8531 14.3846ZM43.906 12.5524L44.0518 13.5292C44.0975 13.8319 44.1695 14.0255 44.4067 14.1311C44.5227 14.1822 44.6615 14.2068 44.8408 14.2086C44.9919 14.2051 45.1026 14.1875 45.1816 14.1382C45.2607 14.0907 45.2906 14.0203 45.2976 13.8707C45.2976 13.8583 45.2959 13.8073 45.2923 13.751C45.28 13.5363 45.28 13.5134 45.3538 13.4958C45.4241 13.4782 45.4997 13.4623 45.5788 13.4447C45.8212 13.3919 46.0708 13.3374 46.2517 13.2547C46.489 13.1473 46.6981 13.0083 46.8738 12.8446C47.046 12.6809 47.1848 12.482 47.2849 12.2532C47.3851 12.0244 47.4343 11.7463 47.4343 11.4313C47.4343 11.0828 47.3728 10.7854 47.248 10.5214C47.1233 10.2591 46.9493 10.0356 46.7297 9.85786C46.51 9.67658 46.2412 9.53578 45.9302 9.43722C45.6157 9.33866 45.2677 9.28762 44.8952 9.28762C44.4858 9.28762 43.7056 9.34218 43.0836 9.70826C42.7972 9.87722 42.6039 10.1236 42.5582 10.3841C42.5231 10.5795 42.5705 10.7924 42.6865 10.9526C42.8025 11.1145 42.9887 11.2271 43.1838 11.2553C43.4526 11.294 43.7338 11.1919 44.0307 11.0828C44.4805 10.9174 44.9479 10.7467 45.3943 11.0828C45.5524 11.2025 45.6332 11.3697 45.6332 11.5791C45.6332 11.8431 45.4944 12.0579 45.2221 12.218C44.9673 12.3676 44.5473 12.4644 43.9376 12.5172L43.9042 12.5542L43.906 12.5524Z" fill="white"/>
<path id="Vector_7" d="M14.4591 25.6768L17.1879 25.4075L26.1546 28.7744L30.1697 27.6075C30.7056 27.7817 31.1836 27.9524 31.6141 28.1196C31.6211 28.0756 34.2796 29.0384 34.429 29.1017C36.4286 29.9694 38.3316 31.1398 39.8814 32.6868C41.7528 34.5542 42.981 36.9513 43.2481 39.5966C43.4308 41.3936 43.1233 43.2292 43.09 45.0368C43.0513 47.0713 43.0372 49.1076 43.0495 51.1422C43.0706 55.2131 43.1901 59.2822 43.4062 63.3478C43.4203 63.6206 43.4326 63.9057 43.3114 64.1503C42.9142 64.9476 39.1592 65.1324 38.3685 65.1623C36.5797 65.2275 9.56367 65.1588 9.02774 65.1623L8.31962 44.1656C8.31962 44.1656 1.35606 39.7603 1.36133 39.6124C1.3666 39.4681 1.37363 39.3238 1.38066 39.1812C1.7848 32.0796 7.39184 26.3737 14.4608 25.6768H14.4591Z" fill="#5353B8"/>
<path id="Vector_8" d="M30.4392 31.3525H21.0508V65.1885H30.4392V31.3525Z" fill="#F4F2ED"/>
<path id="Vector_9" d="M34.8349 44.9944C34.7857 44.9944 34.7471 44.9557 34.7471 44.9064V39.2445C34.7471 39.1952 34.7857 39.1565 34.8349 39.1565C34.8841 39.1565 34.9228 39.1952 34.9228 39.2445V44.9064C34.9228 44.9557 34.8841 44.9944 34.8349 44.9944Z" fill="#29297F"/>
<path id="Vector_10" d="M34.9719 8.46912C34.3833 6.58768 32.4592 6.8288 31.4664 7.09456C31.1009 7.19312 30.8602 7.29344 30.8602 7.29344C30.0625 7.1984 27.9416 5.80976 26.8943 5.09344C26.8592 5.0688 26.8258 5.04592 26.7924 5.0248C26.4832 4.8136 26.2899 4.67456 26.2899 4.67456L26.0035 10.0443C26.0035 10.0443 25.2145 12.3464 24.7032 12.0525C24.3623 11.8554 23.974 11.7339 23.5558 11.7146L21.4191 11.616L20.2857 11.5632C20.059 11.5526 19.8394 11.5738 19.6285 11.6213C19.2402 11.7075 18.8818 11.8818 18.5795 12.1246C18.0243 12.5682 17.6535 13.2387 17.6201 14.0008L17.6113 14.205C17.5411 15.7379 18.7359 17.0491 20.2646 17.1195L20.7601 17.1424L17.9505 25.7242C17.2072 28.3202 19.3298 30.5307 21.9638 31.2875L22.0727 31.3192C24.7049 32.076 27.4689 30.5712 28.2122 27.977L29.219 24.4605C32.3485 24.1947 34.8261 21.5037 34.8647 18.1914L34.9719 9.13616C34.9719 9.11152 34.9719 8.49552 34.9719 8.47088V8.46912Z" fill="#D96448"/>
<path id="Vector_11" d="M29.1632 24.5607C29.1632 24.5607 23.8162 23.4801 23.4033 21.3733C23.4033 21.3733 22.1486 25.0869 28.144 28.1863L29.1632 24.5589V24.5607Z" fill="#BB432A"/>
<path id="Vector_12" d="M19.9541 19.6046L22.1488 17.1406H20.7606L19.9541 19.6046Z" fill="#0B1126"/>
<path id="Vector_13" d="M37.5814 4.01629C37.5727 3.71357 37.5305 3.40733 37.4497 3.11341C37.3214 2.64525 37.0982 2.21053 36.7556 1.87085C35.7347 0.860605 33.7403 0.834206 32.5718 1.59805C32.18 1.85325 31.9393 2.24925 31.623 2.58189C31.6739 2.55021 31.6511 2.24045 31.6476 2.18237C31.6405 2.05213 31.6177 1.92365 31.579 1.79869C31.5035 1.56285 31.3699 1.35517 31.1925 1.18445C30.8287 0.839486 30.3262 0.665245 29.836 0.614205C28.5691 0.482205 27.4761 1.11053 26.6309 2.00461C26.5712 2.06797 26.5079 2.15597 26.5431 2.23517C26.3726 1.85677 25.7207 1.78461 25.3623 1.77405C24.8562 1.75821 24.3502 1.89725 23.9021 2.12605C23.2572 2.45517 22.6563 2.96733 22.1783 3.50941C21.7197 4.03037 21.3314 4.63405 21.0889 5.28701C21.0801 5.30989 21.0731 5.33453 21.0661 5.35917C20.1664 5.70941 19.3335 6.66685 18.8275 7.67357C18.5217 8.28253 18.3688 9.04109 18.5569 9.73277C18.7308 10.3752 19.1508 11.0792 19.6322 11.6195C19.8431 11.572 20.0645 11.5508 20.2894 11.5614L21.4228 11.6142L22.8408 11.6793C22.9761 12.3728 23.2309 13.0363 23.5893 13.6382L23.4804 16.2905C23.4698 16.5228 23.3837 16.7464 23.2344 16.9241C21.3454 20.3772 23.4927 24.6576 27.3865 25.1996L27.7678 25.2524C27.8644 25.2929 27.9646 25.3193 28.0683 25.3299L30.7444 25.6062C33.0287 25.842 35.0178 24.0504 35.023 21.75L34.8807 17.0755L34.6646 17.4662C34.5205 17.7232 34.162 17.7531 33.9793 17.5225C33.6806 17.1459 33.2413 16.9048 32.7634 16.8555L30.0644 16.5739C29.5214 16.5176 28.975 16.6056 28.4777 16.8308L28.1438 17.042C27.1247 17.688 25.8016 16.9364 25.8262 15.7308C25.8385 15.1043 25.9281 13.2756 25.979 11.8324C26.413 10.0619 26.7522 7.84253 26.4253 5.68125C27.8398 6.80765 29.3914 7.6894 31.015 8.28781C31.9779 8.64332 32.9812 8.90028 33.9863 8.81581C34.9914 8.72956 36.0035 8.26845 36.6748 7.37085C37.3706 6.44157 37.6148 5.16381 37.5814 4.01805V4.01629Z" fill="#0B1126"/>
<path id="Vector_14" d="M19.8347 13.4148L20.701 14.5535L19.7627 15.0639" fill="#D96448"/>
<path id="Vector_15" d="M19.7625 15.2398C19.6992 15.2398 19.6395 15.2064 19.6078 15.1483C19.5622 15.062 19.5938 14.9564 19.6781 14.9089L20.4355 14.4971L19.6939 13.522C19.6342 13.4446 19.65 13.3337 19.7273 13.2756C19.8046 13.2176 19.9153 13.2316 19.9733 13.3091L20.8396 14.4478C20.8712 14.4883 20.8818 14.5411 20.8712 14.5921C20.8607 14.6432 20.8291 14.6854 20.7834 14.71L19.8451 15.2204C19.8187 15.2345 19.7906 15.2416 19.7607 15.2416L19.7625 15.2398Z" fill="#BB432A"/>
<path id="Vector_16" d="M27.7664 11.0123C27.9843 11.0651 28.2443 10.9929 28.4974 10.9384C28.7521 10.8785 29.0087 10.824 29.2336 10.7835C29.4585 10.743 29.7203 10.7078 29.9786 10.6779C30.2369 10.6427 30.5058 10.6216 30.6903 10.4984C30.8695 10.3822 30.9064 10.1341 30.627 9.8859C30.3617 9.64302 29.7467 9.4371 28.9999 9.56558C28.2549 9.69934 27.7558 10.1024 27.5977 10.4192C27.429 10.7465 27.5555 10.9665 27.7664 11.0141V11.0123Z" fill="#0B1126"/>
<path id="Vector_17" d="M33.3185 10.5161C33.496 10.4844 33.6893 10.5654 33.8825 10.6323C34.0741 10.7027 34.2691 10.7696 34.4413 10.8188C34.6135 10.8699 34.8138 10.9192 35.0124 10.9632C35.2092 11.0124 35.4183 11.0494 35.5483 11.1708C35.6748 11.2852 35.6766 11.507 35.4288 11.7076C35.1951 11.9048 34.6891 12.0438 34.1198 11.8801C33.5522 11.7112 33.206 11.3222 33.1199 11.03C33.0251 10.7291 33.1481 10.5443 33.3185 10.5161Z" fill="#0B1126"/>
<path id="Vector_18" d="M31.7601 19.0871C31.7601 19.0871 31.7531 19.0871 31.7478 19.0871L30.1576 18.9815C29.5654 18.9428 29.0805 18.4306 29.0014 17.7636C28.9891 17.6668 29.0594 17.5788 29.156 17.5682C29.2527 17.5577 29.3405 17.6263 29.3511 17.7231C29.4108 18.2212 29.7605 18.6031 30.1822 18.6312L31.7724 18.7369C31.8691 18.7439 31.9429 18.8266 31.9358 18.9234C31.9288 19.0167 31.8532 19.0871 31.7601 19.0871Z" fill="#BB432A"/>
<path id="Vector_19" d="M30.9409 13.3936C30.89 12.8181 30.6229 11.9539 29.4913 11.7251C29.305 11.6882 29.1311 11.6811 28.9659 11.6952C28.2016 11.7603 27.6586 12.3183 27.3283 12.8023C27.084 13.1595 27.272 13.6594 27.692 13.7615C27.8238 13.7931 27.9556 13.8213 28.0873 13.8442C28.0452 13.7227 28.0241 13.5943 28.0294 13.4605C28.0575 12.8463 28.6268 12.3728 29.3015 12.4027C29.9763 12.4344 30.5017 12.9571 30.4735 13.5714C30.4665 13.7157 30.4296 13.8512 30.3699 13.9762C30.4437 13.9727 30.5122 13.9674 30.5737 13.9639C30.7881 13.948 30.9568 13.7667 30.9497 13.5503C30.9497 13.501 30.9445 13.4482 30.9392 13.3919L30.9409 13.3936Z" fill="white"/>
<path id="Vector_20" d="M29.3032 12.4044C28.6285 12.3745 28.0592 12.8462 28.0311 13.4622C28.0258 13.5959 28.0469 13.7244 28.0891 13.8459C28.9799 14.0095 29.8357 14.006 30.3716 13.9779C30.4313 13.8547 30.47 13.7174 30.4753 13.5731C30.5034 12.9588 29.978 12.4343 29.3032 12.4044Z" fill="#0B1126"/>
<path id="Vector_21" d="M35.5805 13.8071C35.5401 13.3478 35.3257 12.6596 34.426 12.4766C34.2784 12.4467 34.1396 12.4414 34.0078 12.4537C33.3981 12.5065 32.9658 12.95 32.704 13.3355C32.509 13.6206 32.6583 14.0183 32.994 14.0993C33.1029 14.1257 33.2136 14.1486 33.3225 14.1679C33.2874 14.0694 33.2698 13.9655 33.2751 13.8564C33.2979 13.3671 33.7513 12.9905 34.289 13.0134C34.8267 13.038 35.2449 13.4551 35.222 13.9444C35.2167 14.0606 35.1869 14.1697 35.1377 14.27C35.1921 14.2665 35.2449 14.263 35.2905 14.2612C35.461 14.2489 35.5945 14.1046 35.591 13.9321C35.591 13.8934 35.5875 13.8511 35.584 13.8054L35.5805 13.8071Z" fill="white"/>
<path id="Vector_22" d="M34.2873 13.0153C33.7496 12.9907 33.2962 13.3673 33.2734 13.8583C33.2681 13.9675 33.2857 14.0731 33.3208 14.1699C34.0307 14.2983 34.7107 14.2948 35.136 14.2719C35.1852 14.1716 35.215 14.0625 35.2203 13.9463C35.2431 13.4571 34.8249 13.0399 34.2873 13.0153Z" fill="#0B1126"/>
<path id="Vector_23" d="M32.3932 10.854L33.0627 14.9126C33.0767 15.0023 33.0574 15.0921 33.0064 15.166C32.8202 15.4353 32.2579 15.9897 30.9541 15.5778" fill="#D96448"/>
<path id="Vector_24" d="M31.8148 15.9017C31.5547 15.9017 31.2525 15.8577 30.9011 15.7468C30.8079 15.7169 30.757 15.6183 30.7869 15.5268C30.8167 15.4335 30.9151 15.3825 31.0065 15.4124C32.2031 15.7908 32.7039 15.298 32.862 15.0692C32.8866 15.034 32.8972 14.9882 32.8902 14.9442L32.2207 10.8857C32.2049 10.7906 32.2699 10.6991 32.3648 10.6833C32.4597 10.6674 32.551 10.7326 32.5668 10.8276L33.2363 14.8862C33.2592 15.0217 33.2275 15.1572 33.1502 15.2698C32.9973 15.4898 32.6037 15.9034 31.8148 15.9034V15.9017Z" fill="#BB432A"/>
<path id="Vector_25" d="M29.332 26.4756C29.137 26.2609 28.8066 26.2451 28.5905 26.4387L25.8247 28.9167L18.9754 23.4449C18.682 23.2108 18.2602 23.2249 17.9844 23.4801L15.0904 26.1483C14.8215 26.3947 14.8057 26.8135 15.0552 27.0811L21.4618 33.9539C21.6568 34.1633 21.9942 34.1475 22.1681 33.9187L25.8388 29.1227L29.6729 33.4487C29.8398 33.6371 30.1508 33.5526 30.1983 33.3044L31.1313 28.4451L29.3338 26.4756H29.332Z" fill="white"/>
<path id="Vector_26" d="M29.1365 32.845L27.0964 36.0042C26.8258 36.4231 26.2372 36.4864 25.884 36.1327L22.8213 33.0597L25.8365 29.1208L29.1365 32.845Z" fill="#0B1126"/>
<path id="Vector_27" d="M22.1289 43.3964L25.8154 41.7174C26.9909 41.1823 28.2736 41.0222 29.5177 41.2545L33.5468 42.0095C34.1249 42.1186 34.9719 42.2929 35.3971 42.7329L41.266 45.9906C41.6121 46.1666 41.7246 46.6049 41.5067 46.9252C41.5014 46.9322 41.4961 46.9393 41.4926 46.9463C41.1166 47.499 40.3839 47.6767 39.797 47.3582L36.8011 45.7284L36.924 45.8481C37.2597 46.1737 37.3932 46.6858 37.2649 47.1646L37.0365 48.0129L37.0769 48.3842C37.1314 48.8929 36.9135 49.3945 36.5181 49.6726L32.6858 52.3654C32.4521 52.5308 32.1429 52.4428 32.0146 52.1753C31.7001 51.5153 31.8828 50.6934 32.4433 50.2569L33.6593 49.3065L30.1538 50.3466C29.5774 50.5174 28.9747 50.5367 28.3931 50.3994L26.5182 49.9612L23.4503 52.2721L22.1307 43.3982L22.1289 43.3964Z" fill="#D96448"/>
<path id="Vector_28" d="M36.7297 45.878C36.7122 45.878 36.6928 45.8727 36.6788 45.8604L34.6686 44.3979C34.63 44.3697 34.6212 44.3151 34.6493 44.2746C34.6774 44.2342 34.7336 44.2271 34.7723 44.2553L36.7825 45.7179C36.8211 45.746 36.8299 45.8006 36.8018 45.841C36.7842 45.8639 36.7579 45.878 36.7315 45.878H36.7297Z" fill="#BB432A"/>
<path id="Vector_29" d="M36.9526 48.0497C36.9368 48.0497 36.9209 48.0444 36.9051 48.0356L34.3538 46.4164C34.3133 46.39 34.301 46.3355 34.3274 46.295C34.3538 46.2545 34.4082 46.2422 34.4486 46.2686L37 47.8878C37.0404 47.9142 37.0527 47.9687 37.0264 48.0092C37.0106 48.0356 36.9807 48.0497 36.9526 48.0497Z" fill="#BB432A"/>
<path id="Vector_30" d="M33.6563 49.3927C33.6282 49.3927 33.6018 49.3804 33.5842 49.3557C33.5561 49.3152 33.5667 49.2607 33.6053 49.2325L34.3433 48.7168C34.382 48.6887 34.4382 48.6992 34.4663 48.738C34.4944 48.7784 34.4839 48.833 34.4452 48.8612L33.7072 49.3768C33.6914 49.3874 33.6739 49.3927 33.6563 49.3927Z" fill="#BB432A"/>
<path id="Vector_31" d="M2.03132 37.2996L12.5215 38.1462L12.5513 42.0745L24.6299 40.2758C24.9533 40.2282 25.2537 40.4553 25.3293 40.8038L27.7102 51.8337C27.8262 52.3705 27.4976 52.9055 27.0003 52.9883C24.7108 53.3702 20.2213 54.1833 15.5473 54.9366C13.2999 55.2991 11.0103 55.6476 8.90351 55.9292C7.66473 56.0946 6.46987 55.9222 5.38923 55.4822C2.42317 54.2748 0.316353 51.0505 0.493825 47.2788C0.550053 46.0662 0.616825 44.9715 0.694139 44.1619C0.910267 41.8721 1.397 39.5876 1.61313 37.2979" fill="#5353B8"/>
<path id="Vector_32" d="M12.333 42.0958H12.3295C12.2803 42.094 12.2434 42.0535 12.2452 42.0043L12.5404 34.4961C12.5421 34.4468 12.5773 34.4116 12.6318 34.4116C12.681 34.4134 12.7179 34.4539 12.7161 34.5031L12.4209 42.0113C12.4191 42.0588 12.3805 42.0958 12.333 42.0958Z" fill="#29297F"/>
<path id="Vector_33" d="M9.90446 42.7116C9.86229 42.7116 9.82539 42.6817 9.81836 42.6377C9.81133 42.5902 9.84296 42.5444 9.8904 42.5356L21.036 40.6823C21.0852 40.6735 21.1291 40.707 21.1379 40.7545C21.1449 40.802 21.1133 40.8478 21.0658 40.8566L9.92027 42.7098C9.92027 42.7098 9.90973 42.7098 9.90622 42.7098L9.90446 42.7116Z" fill="#29297F"/>
<path id="Vector_34" d="M7.58496 56.1581C6.63259 56.1581 5.68725 55.8923 4.85787 55.3872C4.8157 55.3626 4.8034 55.308 4.828 55.2658C4.8526 55.2235 4.90708 55.2112 4.94925 55.2358C5.95785 55.8518 7.14743 56.1 8.29836 55.9293L21.0359 53.9299C21.0833 53.9229 21.129 53.9546 21.136 54.0038C21.1431 54.0514 21.1114 54.0971 21.0622 54.1042L8.32296 56.1035C8.07696 56.1387 7.8292 56.1581 7.58145 56.1581H7.58496Z" fill="#29297F"/>
<path id="Vector_35" d="M74.7133 34.5328C74.9628 34.3727 75.0946 34.0911 75.193 33.82C75.2404 33.6898 75.2826 33.556 75.3195 33.4223C76.4001 31.9122 76.5389 29.7791 75.6551 28.144C75.1438 27.1972 74.3021 26.4474 73.3286 26.0004C73.2039 25.9423 73.0774 25.8912 72.9491 25.8437C72.5625 25.7029 72.1601 25.6061 71.7507 25.5639C71.4678 25.534 71.2007 25.541 70.9512 25.49C70.8019 25.3826 70.6648 25.2629 70.5453 25.1221C69.7441 24.1735 70.092 22.7831 70.1675 21.5546C70.2238 20.6447 70.0814 19.7383 69.7792 18.8847C70.9337 18.4271 71.7525 17.3007 71.7525 15.9807C71.7525 14.2559 70.3556 12.8567 68.6336 12.8567C67.4844 12.8567 66.4828 13.4815 65.9416 14.4072C65.7255 14.2682 65.5041 14.1415 65.2739 14.0253C61.5962 12.1685 55.9874 13.2052 53.733 16.8677C52.9546 18.1332 52.8193 19.682 52.7666 21.1692C52.7472 21.7236 52.7297 22.3008 52.4749 22.7936C52.0584 23.5997 51.3187 24.1101 51.0112 24.9919C50.6843 25.9317 50.7318 26.9912 51.1166 27.9064C51.3187 28.3887 51.6367 28.7583 51.9372 29.1772C52.0883 29.3884 52.4186 29.8248 52.3308 30.1364C52.3027 30.1839 52.2763 30.2332 52.2482 30.2807C52.2482 30.2807 52.2482 30.2824 52.2464 30.2842C51.6367 31.3736 51.3521 32.6021 51.5014 33.8658C51.7474 35.9444 53.1039 37.6621 55.0227 38.6583C57.3703 39.878 59.6721 41.1751 61.6999 42.7485C63.3955 44.065 65.8028 44.7057 68.3348 44.2815C71.9879 43.669 74.7783 40.8917 74.9312 37.7484C74.9558 37.2468 74.9189 36.7328 74.7994 36.2436C74.6957 35.8124 74.4392 35.4023 74.4708 34.9447C74.4778 34.8303 74.5059 34.7229 74.5411 34.6173C74.6008 34.5944 74.6588 34.568 74.7133 34.5328Z" fill="#0B1126"/>
<path id="Vector_36" d="M45.0568 50.1478C44.5561 37.5215 56.1058 36.0308 56.1058 36.0308V36.0836L59.2827 36.0942L63.5086 38.0742L67.5957 35.4482L71.2927 36.2332C71.2927 36.2332 79.5742 38.2308 79.2807 48.4599C79.2754 48.6641 79.1243 48.8366 78.9223 48.87L75.5011 52.3073L74.2377 61.7673C74.8158 62.9359 75.7981 65.1993 75.7981 65.1993H45.5401L45.0568 50.146V50.1478Z" fill="#FFD563"/>
<path id="Vector_37" d="M67.5974 35.4482L67.2178 65.2028H55.9053L55.582 36.1258" fill="#F4F2ED"/>
<path id="Vector_38" d="M61.4414 41.2755H61.5468C64.0947 41.2122 66.5318 39.7584 66.4791 37.3067L66.4018 36.0255C66.3719 35.5168 66.0082 35.0874 65.5109 34.9747L61.589 34.0859L57.3736 35.5168C56.9642 35.6559 56.6936 36.0431 56.7024 36.476L56.7129 36.9283C56.7656 39.3783 58.8935 41.3354 61.4414 41.2755Z" fill="#FFD563"/>
<path id="Vector_39" d="M61.3613 48.8753C61.3121 48.8753 61.2734 48.8366 61.2734 48.7873V41.6346C61.2734 41.5854 61.3121 41.5466 61.3613 41.5466C61.4105 41.5466 61.4492 41.5854 61.4492 41.6346V48.7873C61.4492 48.8366 61.4105 48.8753 61.3613 48.8753Z" fill="#FFD563"/>
<path id="Vector_40" d="M59.4826 42.775C59.1892 42.775 58.9502 42.5392 58.9502 42.247C58.9502 41.9548 59.1892 41.719 59.4826 41.719C59.7761 41.719 60.015 41.9548 60.015 42.247C60.015 42.5392 59.7761 42.775 59.4826 42.775ZM59.4826 41.895C59.2858 41.895 59.1259 42.0534 59.1259 42.247C59.1259 42.4406 59.2858 42.599 59.4826 42.599C59.6794 42.599 59.8393 42.4406 59.8393 42.247C59.8393 42.0534 59.6794 41.895 59.4826 41.895Z" fill="#FFD563"/>
<path id="Vector_41" d="M59.4299 45.5858C59.1364 45.5858 58.8975 45.3499 58.8975 45.0578C58.8975 44.7656 59.1364 44.5298 59.4299 44.5298C59.7233 44.5298 59.9623 44.7656 59.9623 45.0578C59.9623 45.3499 59.7233 45.5858 59.4299 45.5858ZM59.4299 44.7058C59.2331 44.7058 59.0732 44.8642 59.0732 45.0578C59.0732 45.2514 59.2331 45.4098 59.4299 45.4098C59.6267 45.4098 59.7866 45.2514 59.7866 45.0578C59.7866 44.8642 59.6267 44.7058 59.4299 44.7058Z" fill="#FFD563"/>
<path id="Vector_42" d="M61.2942 51.7722L58.2474 50.16C57.2774 49.6461 56.195 49.4454 55.1267 49.581L51.6669 50.0174C51.1696 50.0808 50.4421 50.1864 50.0591 50.5384L44.9106 53.0094C44.6084 53.1414 44.4907 53.5093 44.6594 53.7909C44.6629 53.7979 44.6664 53.8032 44.6699 53.8102C44.9616 54.2978 45.5748 54.4878 46.0897 54.245L48.7166 53.0112L48.6059 53.1062C48.3037 53.365 48.1666 53.7944 48.251 54.2062L48.4021 54.9384L48.3494 55.2517C48.2773 55.6811 48.4372 56.1176 48.7588 56.3746L51.8777 58.8544C52.0692 59.0058 52.3346 58.9477 52.4576 58.7277C52.758 58.1838 52.6438 57.4763 52.1905 57.0768L51.2047 56.2074L54.1286 57.2669C54.6101 57.4411 55.1214 57.4869 55.6204 57.4006L57.2352 57.1226L59.7234 59.2398L61.2925 51.7722H61.2942Z" fill="#FF9278"/>
<path id="Vector_43" d="M48.7733 53.1555C48.7452 53.1555 48.7153 53.1414 48.6995 53.115C48.6731 53.0745 48.6854 53.0199 48.7258 52.9935L50.5076 51.8531C50.548 51.8267 50.6025 51.839 50.6288 51.8795C50.6552 51.9199 50.6429 51.9745 50.6025 52.0009L48.8207 53.1414C48.8067 53.1502 48.7891 53.1555 48.7733 53.1555Z" fill="#FF6A48"/>
<path id="Vector_44" d="M48.4758 54.9878C48.4442 54.9878 48.4143 54.972 48.3985 54.942C48.3757 54.8998 48.3897 54.8452 48.4337 54.8223L50.6828 53.5763C50.725 53.5534 50.7794 53.5675 50.8023 53.6115C50.8251 53.6555 50.8111 53.7083 50.7671 53.7312L48.518 54.9772C48.5039 54.9843 48.4899 54.9878 48.4758 54.9878Z" fill="#FF6A48"/>
<path id="Vector_45" d="M51.2062 56.2953C51.1869 56.2953 51.1676 56.2883 51.1518 56.276L50.5508 55.8008C50.5122 55.7709 50.5069 55.7145 50.5368 55.6776C50.5666 55.6389 50.6229 55.6336 50.6598 55.6635L51.2607 56.1387C51.2994 56.1686 51.3046 56.2249 51.2748 56.2619C51.2572 56.283 51.2308 56.2953 51.2062 56.2953Z" fill="#FF6A48"/>
<path id="Vector_46" d="M78.6686 47.6132L69.7177 47.8015L69.4946 51.1349L59.3277 48.9965C59.0554 48.9402 58.7883 49.118 58.7075 49.4101L56.1297 58.6572C56.005 59.1077 56.2562 59.5776 56.6744 59.6727C58.5985 60.1127 62.3711 61.0296 66.3018 61.9079C68.1925 62.3303 70.1183 62.7421 71.8948 63.0871C72.9386 63.2913 73.9612 63.205 74.9013 62.8847C77.4808 62.0082 79.433 59.377 79.4716 56.1668C79.4839 55.1337 79.4839 54.2008 79.4593 53.5092C79.3908 51.5538 79.3539 49.4629 79.2854 47.5076" fill="#FFD563"/>
<path id="Vector_47" d="M69.6828 51.1772C69.6336 51.1772 69.595 51.1367 69.5967 51.0874L69.725 44.6951C69.725 44.6459 69.7637 44.6124 69.8146 44.6089C69.8638 44.6089 69.9025 44.6494 69.9007 44.6986L69.7725 51.091C69.7725 51.1385 69.732 51.1772 69.6846 51.1772H69.6828Z" fill="#D3A739"/>
<path id="Vector_48" d="M71.7142 51.825C71.7142 51.825 71.7019 51.8251 71.6949 51.8233L66.1529 50.5596C66.1054 50.549 66.0756 50.5015 66.0861 50.454C66.0966 50.4065 66.1423 50.3766 66.1915 50.3871L71.7336 51.6508C71.781 51.6614 71.8109 51.7089 71.8003 51.7564C71.7915 51.7969 71.7546 51.825 71.7142 51.825Z" fill="#D3A739"/>
<path id="Vector_49" d="M73.2605 63.367C72.9636 63.367 72.6648 63.3371 72.3732 63.2755L66.6501 62.0822C66.6027 62.0717 66.5728 62.0259 66.5816 61.9784C66.5922 61.9309 66.6378 61.8992 66.6853 61.9097L72.4083 63.103C73.3747 63.3054 74.3939 63.1558 75.2795 62.6841C75.3216 62.6613 75.3743 62.6771 75.3989 62.7211C75.4218 62.7633 75.406 62.8179 75.3621 62.8408C74.7102 63.1893 73.9862 63.367 73.2605 63.367Z" fill="#D3A739"/>
<path id="Vector_50" d="M66.3233 23.6598L64.3588 23.8252C63.5453 23.7038 62.7282 22.5651 62.2503 21.0233C61.4332 20.835 60.6723 20.4143 60.0661 19.7983C58.8642 20.9793 57.325 21.9596 55.7945 21.451C54.9792 21.1799 54.3695 20.8209 53.9144 20.446C53.9056 20.439 53.8986 20.4302 53.8898 20.4231C53.8898 20.4319 53.888 20.439 53.888 20.4478L53.331 28.2622C53.1359 31.0095 54.9177 33.4348 57.4287 34.0315L57.4708 36.0238C57.5183 38.2396 59.3334 40.0102 61.5052 39.9591H61.5948C63.7667 39.9063 65.8401 38.5934 65.7927 36.3758L65.3446 28.6107L66.2934 28.6159C67.5937 28.623 68.6621 27.5265 68.6691 26.1783V26.122C68.6761 24.7739 67.6201 23.6668 66.3198 23.6598H66.3233Z" fill="#FF9278"/>
<path id="Vector_51" d="M66.5745 26.9807C66.5428 26.9807 66.5095 26.9719 66.4813 26.9543L65.6959 26.4562C65.6537 26.4298 65.6239 26.3858 65.6168 26.3348C65.608 26.2855 65.6221 26.2345 65.6537 26.1957L66.4515 25.2189C66.513 25.1433 66.6237 25.1327 66.6992 25.1943C66.7748 25.2559 66.7853 25.3668 66.7238 25.4425L66.0526 26.2644L66.6711 26.6551C66.7537 26.7079 66.7783 26.8153 66.7256 26.898C66.6922 26.9508 66.636 26.9807 66.5762 26.9807H66.5745Z" fill="#FF6A48"/>
<path id="Vector_52" d="M66.7082 29.758C66.4868 29.758 66.2724 29.6806 66.0967 29.5345C65.8894 29.362 65.7628 29.1156 65.7382 28.8411C65.6908 28.2884 66.0861 27.7974 66.6203 27.7464C66.8751 27.7217 67.1229 27.8009 67.3214 27.9664C67.5288 28.1388 67.6553 28.3852 67.6799 28.658C67.7291 29.2107 67.332 29.7017 66.7978 29.7528C66.7679 29.7563 66.738 29.7563 66.7082 29.7563V29.758ZM66.7117 27.9188C66.6871 27.9188 66.6625 27.9188 66.6379 27.9224C66.1986 27.9646 65.8735 28.3694 65.9139 28.827C65.9333 29.054 66.0387 29.2564 66.2091 29.399C66.3708 29.5345 66.5746 29.5979 66.782 29.5785C67.2213 29.5363 67.5463 29.1315 67.5059 28.6739C67.4866 28.4468 67.3812 28.2444 67.2107 28.1019C67.0684 27.9822 66.8927 27.9188 66.7117 27.9188Z" fill="white"/>
<path id="Vector_53" d="M56.7769 25.3509C56.5432 24.9409 56.1443 24.4569 55.5329 24.3548C55.4011 24.3319 55.2605 24.3266 55.1076 24.3442C55.0953 24.3442 55.0848 24.3477 55.0725 24.3495C55.329 24.5202 55.4907 24.7983 55.4801 25.1081C55.4626 25.6044 55.0075 25.9898 54.4628 25.9705C54.2115 25.9617 53.9848 25.8666 53.8161 25.7188C53.7986 25.8913 53.9216 26.0444 54.092 26.0725C54.5453 26.1429 55.4784 26.245 56.4202 26.0972C56.7646 26.0426 56.9474 25.6537 56.7752 25.3509H56.7769Z" fill="white"/>
<path id="Vector_54" d="M55.4814 25.1099C55.4919 24.8001 55.3303 24.522 55.0737 24.3513C54.1794 24.4745 53.9123 25.138 53.835 25.5921C53.8279 25.6361 53.8209 25.6784 53.8174 25.7188C53.8174 25.7188 53.8174 25.7206 53.8174 25.7224C53.9861 25.8702 54.2127 25.9652 54.464 25.974C55.0087 25.9934 55.4638 25.6062 55.4814 25.1116V25.1099Z" fill="#0B1126"/>
<path id="Vector_55" d="M56.7256 31.2524C56.7449 31.2595 56.7677 31.2595 56.7888 31.2507C56.8099 31.2419 57.3248 31.0395 57.6779 31.4689C57.7113 31.5111 57.7728 31.5147 57.8115 31.4795C57.8519 31.4443 57.8572 31.3809 57.822 31.3404C57.3792 30.8019 56.7238 31.0641 56.7168 31.0659C56.6676 31.0852 56.6447 31.1433 56.6641 31.1943C56.6746 31.2225 56.6975 31.2436 56.7238 31.2524H56.7256Z" fill="#FF6A48"/>
<path id="Vector_56" d="M61.8421 22.9962C61.6716 23.0419 61.4678 22.9891 61.2675 22.9487C61.0672 22.9047 60.8651 22.8642 60.6876 22.836C60.5102 22.8079 60.3046 22.7832 60.1007 22.7639C59.8987 22.7392 59.6878 22.7287 59.5402 22.6319C59.3979 22.5403 59.3645 22.3397 59.5789 22.1338C59.7827 21.9314 60.2624 21.7519 60.8493 21.8434C61.4362 21.9367 61.835 22.2552 61.9633 22.5104C62.1021 22.7727 62.0055 22.9539 61.8421 22.9962Z" fill="#0B1126"/>
<path id="Vector_57" d="M54.0737 22.7604C54.2407 22.8202 54.448 22.7815 54.6501 22.7586C54.8539 22.7305 55.0577 22.7058 55.237 22.6917C55.4162 22.6777 55.6218 22.6689 55.8274 22.6653C56.0312 22.6565 56.242 22.6618 56.3967 22.5756C56.546 22.4964 56.5935 22.2975 56.3949 22.0757C56.2069 21.8593 55.7413 21.6428 55.1491 21.6885C54.5569 21.7378 54.137 22.0229 53.9894 22.2676C53.833 22.5193 53.9138 22.7058 54.0755 22.7621L54.0737 22.7604Z" fill="#0B1126"/>
<path id="Vector_58" d="M59.9851 28.2444C59.82 28.1142 59.5898 28.1265 59.4281 28.2603C59.1329 28.5049 58.4968 28.9291 57.6253 28.959C57.4109 28.966 57.2844 29.216 57.3617 29.4219C57.5339 29.8777 58.0259 30.594 59.1804 30.1294C60.5878 29.5627 60.4139 28.5841 59.9851 28.2427V28.2444Z" fill="white"/>
<path id="Vector_59" d="M57.8869 27.4543C57.481 27.4736 57.1559 27.5546 56.7887 27.2959C56.4461 27.0565 56.1737 26.5708 56.2949 26.1378C56.3477 25.946 56.5111 25.8069 56.7008 25.7735L57.0874 25.7066L57.2789 23.885" fill="#FF9278"/>
<path id="Vector_60" d="M57.4056 27.6584C57.1719 27.6584 56.9399 27.618 56.6869 27.442C56.2968 27.1692 55.977 26.6183 56.1229 26.092C56.1932 25.8386 56.4075 25.6468 56.6676 25.601L56.9224 25.557L57.0998 23.8674C57.1104 23.7706 57.1947 23.7002 57.2931 23.7108C57.3898 23.7213 57.4601 23.8076 57.4495 23.9044L57.258 25.726C57.2492 25.8052 57.1912 25.8685 57.1121 25.8808L56.7256 25.9477C56.5991 25.9688 56.4936 26.0621 56.4602 26.1853C56.3636 26.5356 56.6008 26.9527 56.8855 27.1533C57.1438 27.3328 57.3687 27.317 57.6797 27.2924C57.743 27.2871 57.808 27.2818 57.8747 27.28C57.9767 27.273 58.054 27.3504 58.0592 27.4472C58.0645 27.544 57.989 27.6268 57.8923 27.632C57.8273 27.6356 57.7658 27.6391 57.7061 27.6444C57.6041 27.6514 57.5022 27.6602 57.4021 27.6602L57.4056 27.6584Z" fill="#FF6A48"/>
<path id="Vector_61" d="M62.0972 25.2524C61.8108 24.7508 61.3241 24.1612 60.5773 24.0345C60.4156 24.0081 60.2452 23.9993 60.0589 24.0222C59.9974 24.0292 59.9394 24.0398 59.8832 24.0503C60.3612 24.2105 60.6968 24.6347 60.6792 25.1222C60.6581 25.7276 60.1011 26.1993 59.4369 26.1764C59.038 26.1623 58.6936 25.974 58.4828 25.6942C58.4828 25.6942 58.4828 25.6977 58.4828 25.6995C58.4599 25.9107 58.6093 26.1025 58.8201 26.1342C59.3754 26.2204 60.514 26.3454 61.6667 26.1641C62.0884 26.0972 62.3116 25.622 62.1007 25.2507L62.0972 25.2524Z" fill="white"/>
<path id="Vector_62" d="M59.4365 26.1783C60.1025 26.2012 60.6578 25.7295 60.6789 25.1241C60.6964 24.6366 60.3608 24.2124 59.8829 24.0522C58.8954 24.2476 58.5931 25.0167 58.5035 25.5465C58.4947 25.5993 58.4877 25.6486 58.4824 25.6961C58.6915 25.9742 59.0377 26.1642 59.4365 26.1783Z" fill="#0B1126"/>
<path id="Vector_63" d="M57.4354 34.0366C57.4354 34.0366 62.0742 34.151 62.8122 32.4227C62.8122 32.4227 63.0793 35.0275 57.5215 36.52L57.4336 34.0348L57.4354 34.0366Z" fill="#FF6A48"/>
<path id="Vector_64" d="M59.1905 64.6678C59.1905 64.1468 58.7688 63.7226 58.2469 63.7226H43.949L36.9152 46.2846C36.6604 45.651 36.0454 45.2356 35.3636 45.2356H12.0622C11.2978 45.2356 10.7689 46.003 11.043 46.7193L18.184 65.4017L44.1634 65.2873C44.1634 65.2873 44.1757 65.2855 44.181 65.2855H59.187V64.6678H59.1905Z" fill="#0B1126"/>
<path id="Vector_65" d="M47.2392 64.3457H45.5629C45.5503 64.3457 45.54 64.3559 45.54 64.3686V64.754C45.54 64.7667 45.5503 64.7769 45.5629 64.7769H47.2392C47.2518 64.7769 47.262 64.7667 47.262 64.754V64.3686C47.262 64.3559 47.2518 64.3457 47.2392 64.3457Z" fill="white"/>
<path id="Vector_66" d="M50.2079 64.3457H48.5316C48.519 64.3457 48.5088 64.3559 48.5088 64.3686V64.754C48.5088 64.7667 48.519 64.7769 48.5316 64.7769H50.2079C50.2206 64.7769 50.2308 64.7667 50.2308 64.754V64.3686C50.2308 64.3559 50.2206 64.3457 50.2079 64.3457Z" fill="white"/>
<path id="Vector_67" d="M26.7246 56.9359C25.9708 57.6909 24.5633 57.5079 23.5811 56.5258C22.6006 55.5437 22.4161 54.134 23.1699 53.3772C23.9237 52.6204 25.3312 52.8052 26.3135 53.7872C27.2939 54.7693 27.4784 56.1791 26.7229 56.9359H26.7246Z" fill="white"/>
<path id="Vector_68" d="M25.526 57.4869C24.853 57.4869 24.1098 57.1771 23.5194 56.5858C23.0309 56.0965 22.7181 55.4893 22.639 54.8751C22.5582 54.252 22.7251 53.6976 23.11 53.3122C23.4948 52.9267 24.0483 52.7595 24.6703 52.8405C25.2835 52.9197 25.8898 53.2347 26.3782 53.7223C27.3921 54.7378 27.5766 56.2056 26.7877 56.9941C26.4591 57.3232 26.011 57.4834 25.5278 57.4834L25.526 57.4869ZM24.3716 52.9989C23.9341 52.9989 23.5299 53.1415 23.2347 53.4389C22.516 54.1587 22.7005 55.5157 23.6459 56.4626C24.5912 57.4095 25.946 57.5943 26.6647 56.8744C27.3833 56.1546 27.1988 54.7976 26.2535 53.8507C25.6965 53.2928 24.9989 53.0007 24.3716 53.0007V52.9989Z" fill="#121936"/>
<path id="Vector_69" d="M25.7649 58.1452C24.9004 58.1452 23.9428 57.7457 23.1837 56.9836C21.8816 55.6794 21.6392 53.798 22.646 52.7913C23.6511 51.7846 25.5295 52.0257 26.8315 53.3298C28.1336 54.634 28.376 56.5154 27.3692 57.5222C26.951 57.941 26.3817 58.1434 25.7649 58.1434V58.1452ZM24.2485 52.2562C23.6546 52.2562 23.1081 52.4516 22.7057 52.8529C21.734 53.8262 21.9765 55.6513 23.2434 56.922C24.5121 58.1927 26.3342 58.4338 27.3059 57.4606C28.2776 56.4873 28.0352 54.6622 26.7683 53.3914C26.025 52.647 25.0902 52.2545 24.2485 52.2545V52.2562Z" fill="white"/>
</g>
<defs>
<clipPath id="clip0_1245_1131">
<rect width="80" height="66" fill="white"/>
</clipPath>
</defs>
</svg>
