<svg width="160" height="160" viewBox="0 0 160 160" fill="none" xmlns="http://www.w3.org/2000/svg">
<g id="Illustration" clip-path="url(#clip0_1078_210)">
<g id="Background_Simple">
<path id="Vector" d="M144.541 88.4864C143.155 100.23 137.792 113.885 127.085 120.157C110.905 129.635 112.259 144.214 80.6782 150.554C75.7534 151.542 71.0814 151.958 66.675 151.875C64.307 151.83 62.0126 151.642 59.8014 151.315C39.7278 148.384 26.2206 134.432 21.267 117.59C14.7454 95.44 27.7662 80.9408 36.3998 72.2016C45.0302 63.4656 51.3534 36.24 82.3518 29.7664C87.0782 28.7808 91.9102 28.2784 96.7422 28.4C107.773 28.672 119.801 32.2912 128.125 39.8496C128.749 40.416 129.357 41.008 129.949 41.6128C141.517 53.488 146.435 72.4768 144.544 88.4864H144.541Z" fill="#08BD80"/>
<path id="Vector_2" opacity="0.7" d="M144.541 88.4864C143.155 100.23 137.792 113.885 127.085 120.157C110.905 129.635 112.259 144.214 80.6782 150.554C75.7534 151.542 71.0814 151.958 66.675 151.875C64.307 151.83 62.0126 151.642 59.8014 151.315C39.7278 148.384 26.2206 134.432 21.267 117.59C14.7454 95.44 27.7662 80.9408 36.3998 72.2016C45.0302 63.4656 51.3534 36.24 82.3518 29.7664C87.0782 28.7808 91.9102 28.2784 96.7422 28.4C107.773 28.672 119.801 32.2912 128.125 39.8496C128.749 40.416 129.357 41.008 129.949 41.6128C141.517 53.488 146.435 72.4768 144.544 88.4864H144.541Z" fill="white"/>
</g>
<g id="Plants">
<g id="Group" opacity="0.15">
<path id="Vector_3" d="M103.069 31.3504C101.552 32.4032 97.475 33.1104 97.4718 33.1136C97.4302 33.12 97.8206 30.2848 97.8654 30.1088C98.387 28.0704 100.598 24.4384 102.953 24.2944C104.649 24.192 105.894 25.664 105.827 27.2928C105.76 28.9568 104.361 30.4576 103.072 31.3536L103.069 31.3504Z" fill="black"/>
<path id="Vector_4" d="M91.827 82.6591C91.827 82.7551 91.8334 82.8447 91.8334 82.9408L90.435 83.8463C90.435 83.4623 90.4318 83.0751 90.4318 82.6751C90.4318 81.5423 90.451 80.3296 90.4862 79.0847C90.195 79.0303 88.5374 78.7136 87.0302 78.2208C86.099 79.7375 83.363 81.8336 83.0078 82.1024C83.619 83.0368 84.227 83.9392 84.8094 84.7808C85.2094 85.3632 85.5998 85.9167 85.9806 86.448L84.4446 86.752C84.1854 86.3648 83.9198 85.9744 83.651 85.5648C83.0238 84.6208 82.3742 83.5967 81.715 82.5407C81.299 82.7168 77.8814 84.1407 76.147 84.0959C74.5758 84.0511 72.5854 83.5616 71.619 82.2048C70.6718 80.88 70.9086 78.9664 72.3838 78.1248C74.4318 76.9567 78.2686 78.7871 79.8206 80.2079C79.9134 80.2911 80.8062 81.312 81.3566 81.9648C81.091 81.5328 80.8254 81.1135 80.5566 80.6656C80.019 79.7823 79.507 78.8832 78.9534 77.9168C78.7038 77.44 78.4478 76.96 78.1918 76.4768C77.9294 76 77.7086 75.4656 77.4654 74.9568C76.9214 73.7632 76.4254 72.528 75.955 71.2735C75.1806 71.7439 72.3998 73.3695 70.8318 73.5648C69.2702 73.7599 67.2318 73.5743 66.0702 72.3839C64.9342 71.216 64.8766 69.2895 66.2078 68.2335C68.0542 66.7679 72.1246 67.9967 73.875 69.1647C73.9838 69.2383 75.1454 70.2175 75.7758 70.7679C75.5006 70.0095 75.219 69.2575 74.963 68.4831C74.227 66.2463 73.5518 63.9584 72.867 61.68C72.659 60.9823 72.4414 60.2879 72.227 59.5935C71.9518 59.7631 68.691 61.7696 66.9342 61.9872C65.3758 62.1824 63.331 61.9967 62.1726 60.8064C61.0366 59.6384 60.979 57.712 62.3102 56.6559C64.1566 55.1903 68.227 56.4192 69.9774 57.5872C70.1086 57.6768 71.779 59.088 72.1886 59.4655C71.715 57.936 71.2286 56.416 70.691 54.9375C69.9486 52.896 69.107 50.9344 68.1534 49.0912C68.0254 49.1712 64.6302 51.2767 62.8318 51.504C61.2702 51.6992 59.2286 51.5135 58.0702 50.3232C56.9342 49.1551 56.8766 47.2287 58.2078 46.1727C60.0542 44.7071 64.1246 45.9359 65.875 47.104C66.0126 47.1968 67.8078 48.7168 68.115 49.0144C68.0574 48.9056 68.0094 48.784 67.9518 48.6783C66.9086 46.7263 65.651 44.9664 64.3934 43.376C63.6638 42.4512 62.915 41.6064 62.1694 40.8032C61.5774 41.2608 58.8478 43.3216 57.2542 43.7024C55.7246 44.0672 53.6766 44.1088 52.3902 43.0496C51.1326 42.0128 50.8638 40.1055 52.0702 38.9087C53.7438 37.2479 57.9262 38.0224 59.795 38.9919C59.8974 39.0431 60.8702 39.6959 61.5742 40.1791C61.2318 39.8207 60.8862 39.4464 60.5502 39.1104C59.2958 37.8432 58.067 36.7616 56.9726 35.8112C56.3454 35.2768 55.7694 34.8032 55.2222 34.3679C54.4062 34.5152 51.1166 35.0591 49.5518 34.6687C48.0254 34.2879 46.1886 33.3791 45.5358 31.8495C44.8958 30.3487 45.5358 28.5343 47.1614 28.0287C49.411 27.3279 52.7678 29.9391 53.9774 31.6607C54.083 31.8111 55.4526 34.3231 55.411 34.3327C55.411 34.3327 55.3726 34.3391 55.363 34.3423C55.8974 34.7519 56.4606 35.1936 57.0718 35.6928C58.1886 36.6208 59.443 37.6799 60.7294 38.9215C62.019 40.16 63.3854 41.5455 64.6942 43.1327C66.0062 44.7231 67.3054 46.4608 68.4126 48.4256C68.4254 48.448 68.435 48.4736 68.4478 48.496C68.3006 47.8208 67.9582 45.92 67.9486 45.7696C67.811 43.6704 68.7774 39.5296 70.9694 38.6591C72.547 38.0352 74.1886 39.0432 74.6334 40.6112C75.0878 42.2112 74.2302 44.0735 73.2798 45.3279C72.211 46.7423 68.8318 48.576 68.5598 48.72C69.5966 50.6016 70.5086 52.6143 71.3214 54.7039C71.7854 55.8976 72.2174 57.1135 72.6334 58.3391C72.5278 57.7503 72.435 57.2255 72.4318 57.1487C72.2942 55.0463 73.2606 50.9087 75.4526 50.0383C77.0302 49.4111 78.6718 50.4224 79.1166 51.9904C79.571 53.5904 78.7134 55.4528 77.763 56.7072C76.7998 57.9808 73.9518 59.5999 73.1902 60.0191C73.3438 60.4895 73.5038 60.9599 73.6574 61.4335C74.3934 63.6992 75.1166 65.9647 75.8942 68.1631C76.1662 68.9375 76.467 69.6927 76.7614 70.4479C76.6654 69.9263 76.5918 69.4847 76.5886 69.4175C76.451 67.3151 77.4174 63.1776 79.6094 62.3072C81.1902 61.68 82.8286 62.6912 83.2734 64.2591C83.7278 65.8591 82.867 67.7215 81.9198 68.976C81.0014 70.192 78.3838 71.7088 77.4846 72.2112C77.811 72.976 78.1342 73.7408 78.4862 74.4672C78.7358 74.9568 78.9438 75.4464 79.2222 75.9264C79.4878 76.4064 79.7502 76.88 80.0126 77.3503C80.5502 78.2368 81.0942 79.1552 81.6414 80.0064C82.0158 80.6016 82.3838 81.1616 82.7518 81.728C82.4702 80.9599 81.9518 79.4432 81.923 79.312C81.6222 77.9456 81.667 75.6191 82.3294 73.8591C82.2846 73.6576 82.2558 73.4527 82.2494 73.2479C82.1918 71.6191 83.443 70.1535 85.139 70.2656C87.491 70.4192 89.683 74.0639 90.195 76.1056C90.2238 76.2271 90.4062 77.568 90.5086 78.4192C90.5246 77.9104 90.5342 77.4175 90.5598 76.8927C90.5982 75.8591 90.6686 74.8256 90.739 73.7151C90.7934 73.1808 90.8446 72.6399 90.899 72.096C90.9406 71.5552 91.0558 70.9855 91.1294 70.4256C91.3342 69.1296 91.603 67.8271 91.9038 66.5183C90.9982 66.4831 87.7822 66.3039 86.3678 65.6031C84.9598 64.9055 83.3566 63.6255 83.0462 61.9903C82.7422 60.3904 83.7566 58.7519 85.4494 58.6047C87.7982 58.3999 90.515 61.6703 91.331 63.6127C91.3822 63.7343 91.811 65.1904 92.0318 65.9967C92.2174 65.2128 92.3998 64.4288 92.6174 63.6416C93.2382 61.3696 93.9358 59.0879 94.6206 56.8095C94.8318 56.1119 95.0334 55.4144 95.2382 54.7168C94.915 54.7072 91.0878 54.5792 89.5038 53.7952C88.0958 53.0976 86.4926 51.8176 86.1822 50.1824C85.8782 48.5824 86.8926 46.944 88.5854 46.7968C90.9342 46.592 93.651 49.8624 94.467 51.8016C94.5278 51.9488 95.1422 54.048 95.2734 54.5887C95.7214 53.0527 96.1566 51.5168 96.5214 49.984C97.0302 47.872 97.411 45.7727 97.6286 43.7087C97.4782 43.7055 93.4846 43.5903 91.859 42.7839C90.451 42.0863 88.8478 40.8064 88.5374 39.1712C88.2334 37.5712 89.2478 35.9328 90.9406 35.7856C93.2894 35.5808 96.0062 38.8512 96.8222 40.7936C96.8862 40.9472 97.5454 43.2064 97.635 43.6224C97.6478 43.5008 97.6734 43.3728 97.6862 43.2512C97.891 41.0464 97.8142 38.8832 97.6414 36.8639C97.5454 35.6895 97.3854 34.5728 97.2062 33.4911C96.4606 33.5455 93.0462 33.7599 91.507 33.1967C90.0286 32.6591 88.2974 31.5616 87.811 29.9711C87.3342 28.4127 88.163 26.6751 89.827 26.3423C92.1406 25.8815 95.1998 28.8319 96.2238 30.6719C96.2782 30.7711 96.7326 31.8527 97.0526 32.6432C96.963 32.1567 96.883 31.6511 96.7902 31.1839C96.4414 29.4367 96.0158 27.8559 95.6286 26.4607C95.4014 25.6671 95.1806 24.9567 94.9662 24.2943C94.2078 23.9647 91.1582 22.6047 90.0702 21.4175C89.0078 20.2591 87.9774 18.4863 88.275 16.8511C88.5694 15.2479 90.1054 14.0863 91.7374 14.5599C94.003 15.2159 95.3566 19.2479 95.4206 21.3503C95.4238 21.5327 95.1806 24.3839 95.1422 24.3679C95.1422 24.3679 95.1038 24.3519 95.0974 24.3487C95.315 24.9823 95.5422 25.6671 95.7758 26.4159C96.195 27.8047 96.659 29.3791 97.0462 31.1295C97.4366 32.8735 97.8142 34.7839 98.0286 36.8287C98.2462 38.8767 98.371 41.0464 98.211 43.296C98.211 43.3216 98.2046 43.3471 98.2014 43.3727C98.4542 42.7295 99.2158 40.9536 99.2894 40.8223C100.333 38.9951 103.424 36.0736 105.731 36.5599C107.392 36.9088 108.205 38.656 107.712 40.2112C107.206 41.7984 105.465 42.8767 103.981 43.3983C102.307 43.9903 98.4766 43.6512 98.1726 43.6256C97.9998 45.7664 97.651 47.9487 97.1742 50.1376C96.9022 51.3887 96.5918 52.6432 96.2622 53.8944C96.4958 53.344 96.7102 52.8544 96.7486 52.7904C97.7918 50.9632 100.883 48.0415 103.19 48.528C104.854 48.8768 105.664 50.624 105.171 52.176C104.669 53.7632 102.925 54.8415 101.44 55.3632C99.9358 55.8943 96.6654 55.6735 95.7982 55.6031C95.667 56.0831 95.5422 56.5631 95.4078 57.0399C94.771 59.3376 94.1246 61.6255 93.5614 63.8879C93.363 64.6847 93.1966 65.4784 93.0238 66.272C93.2318 65.7856 93.4142 65.3759 93.4462 65.3152C94.4894 63.4879 97.5806 60.5663 99.8878 61.0527C101.549 61.4015 102.361 63.1488 101.869 64.7008C101.363 66.288 99.6222 67.3663 98.1374 67.8879C96.7006 68.3935 93.6798 68.2176 92.6526 68.1408C92.5022 68.9568 92.3518 69.776 92.243 70.576C92.1822 71.1231 92.083 71.6447 92.0542 72.1983C92.0126 72.7455 91.971 73.2864 91.9294 73.8208C91.8878 74.8544 91.8366 75.9231 91.8206 76.9343C91.8046 77.6384 91.8014 78.3072 91.7982 78.9824C91.987 78.1856 92.3902 76.6335 92.4382 76.5088C93.1934 74.5439 95.8046 71.1903 98.1598 71.3183C99.8558 71.4111 100.921 73.0176 100.669 74.6272C100.409 76.272 98.851 77.6032 97.4654 78.3424C95.939 79.1584 92.2526 79.4144 91.7918 79.4431C91.7886 80.56 91.795 81.6479 91.8174 82.672L91.827 82.6591Z" fill="black"/>
<path id="Vector_5" d="M62.1826 40.3391C62.1506 40.3679 60.9122 37.7855 60.8514 37.6159C60.1634 35.6255 60.0034 31.3791 61.8882 29.9615C63.245 28.9407 65.0946 29.4815 65.9362 30.8767C66.797 32.3007 66.461 34.3231 65.8786 35.7823C65.1938 37.4975 62.1826 40.3359 62.1826 40.3391Z" fill="black"/>
</g>
<g id="Group_2" opacity="0.15">
<path id="Vector_6" d="M40.9376 90.6463C40.6752 91.5615 39.2832 93.1775 39.28 93.1775C39.264 93.1935 38.4928 91.9359 38.4544 91.8495C37.9968 90.8639 37.6896 88.6943 38.5824 87.8687C39.2256 87.2735 40.2016 87.4527 40.7072 88.1247C41.2224 88.8095 41.1584 89.8655 40.9344 90.6463H40.9376Z" fill="black"/>
<path id="Vector_7" d="M53.2259 114.787C53.2579 114.826 53.2899 114.861 53.3219 114.896L53.0595 115.715C52.9347 115.565 52.8067 115.408 52.6755 115.248C52.3043 114.797 51.9171 114.304 51.5235 113.798C51.3891 113.872 50.6243 114.288 49.8627 114.582C49.9875 115.491 49.5811 117.222 49.5267 117.446C50.0771 117.619 50.6115 117.779 51.1203 117.926C51.4691 118.026 51.8083 118.122 52.1315 118.208L51.6195 118.832C51.3891 118.765 51.1555 118.694 50.9155 118.618C50.3555 118.445 49.7635 118.25 49.1555 118.045C49.0467 118.253 48.1507 119.936 47.4435 120.483C46.8035 120.979 45.8467 121.434 45.0179 121.21C44.2083 120.989 43.6771 120.15 43.9907 119.331C44.4259 118.195 46.5539 117.67 47.6387 117.731C47.7027 117.734 48.3907 117.85 48.8259 117.93C48.5795 117.843 48.3363 117.763 48.0835 117.674C47.5811 117.498 47.0819 117.306 46.5475 117.101C46.2915 116.992 46.0355 116.883 45.7731 116.774C45.5139 116.672 45.2515 116.528 44.9859 116.406C44.3779 116.109 43.7763 115.776 43.1811 115.43C43.0243 115.872 42.4483 117.427 41.8883 118.019C41.3283 118.608 40.4547 119.2 39.6035 119.104C38.7683 119.011 38.1155 118.259 38.3011 117.405C38.5603 116.218 40.5827 115.376 41.6643 115.27C41.7315 115.264 42.5155 115.274 42.9443 115.29C42.5859 115.078 42.2275 114.867 41.8723 114.643C40.8483 113.99 39.8307 113.299 38.8131 112.614C38.5027 112.403 38.1891 112.198 37.8755 111.99C37.8211 112.147 37.1747 114.013 36.5475 114.675C35.9907 115.264 35.1139 115.856 34.2627 115.76C33.4275 115.667 32.7747 114.915 32.9603 114.061C33.2163 112.874 35.2419 112.032 36.3235 111.926C36.4035 111.92 37.5331 111.936 37.8179 111.955C37.1299 111.501 36.4387 111.053 35.7411 110.64C34.7779 110.067 33.8019 109.562 32.8195 109.139C32.7939 109.213 32.1283 111.162 31.4851 111.84C30.9251 112.429 30.0515 113.021 29.2003 112.925C28.3651 112.832 27.7123 112.08 27.8979 111.226C28.1539 110.038 30.1795 109.197 31.2611 109.091C31.3443 109.082 32.5603 109.101 32.7779 109.12C32.7203 109.094 32.6627 109.062 32.6019 109.04C31.5459 108.602 30.4707 108.31 29.4499 108.09C28.8579 107.958 28.2819 107.866 27.7219 107.789C27.6355 108.166 27.2195 109.878 26.7075 110.554C26.2179 111.2 25.4115 111.885 24.5539 111.885C23.7123 111.885 22.9827 111.21 23.0723 110.339C23.1971 109.13 25.1171 108.07 26.1795 107.846C26.2371 107.834 26.8387 107.776 27.2771 107.738C27.0243 107.706 26.7619 107.67 26.5187 107.645C25.6035 107.549 24.7619 107.52 24.0131 107.498C23.5875 107.488 23.2035 107.491 22.8451 107.494C22.5667 107.818 21.4339 109.114 20.6819 109.469C19.9491 109.814 18.9187 110.054 18.1571 109.658C17.4115 109.267 17.0755 108.333 17.5555 107.603C18.2243 106.589 20.4163 106.534 21.4627 106.822C21.5523 106.848 22.9219 107.402 22.9091 107.421C22.9091 107.421 22.8963 107.437 22.8931 107.44C23.2387 107.427 23.6099 107.421 24.0163 107.421C24.7651 107.424 25.6099 107.437 26.5315 107.514C27.4499 107.587 28.4483 107.693 29.4883 107.898C30.5315 108.102 31.6163 108.371 32.7011 108.794C32.7139 108.797 32.7267 108.806 32.7363 108.81C32.4579 108.589 31.6995 107.942 31.6451 107.885C30.9027 107.091 29.9363 105.126 30.5251 104.061C30.9507 103.296 31.9363 103.162 32.6243 103.642C33.3283 104.131 33.5939 105.155 33.6259 105.965C33.6611 106.88 32.9123 108.714 32.8515 108.861C33.8787 109.27 34.9027 109.776 35.9075 110.346C36.4835 110.669 37.0531 111.014 37.6195 111.366C37.3859 111.168 37.1747 110.986 37.1491 110.96C36.4067 110.166 35.4403 108.202 36.0291 107.136C36.4547 106.371 37.4403 106.237 38.1283 106.717C38.8323 107.206 39.0979 108.23 39.1299 109.04C39.1619 109.862 38.5539 111.44 38.3875 111.856C38.6019 111.994 38.8195 112.128 39.0371 112.266C40.0707 112.928 41.1011 113.597 42.1283 114.221C42.4899 114.442 42.8547 114.643 43.2195 114.848C43.0115 114.672 42.8387 114.518 42.8131 114.493C42.0707 113.699 41.1043 111.731 41.6931 110.669C42.1187 109.904 43.1043 109.77 43.7923 110.25C44.4963 110.739 44.7619 111.763 44.7939 112.573C44.8259 113.357 44.2787 114.819 44.0835 115.312C44.4643 115.51 44.8419 115.709 45.2195 115.885C45.4787 115.997 45.7219 116.125 45.9907 116.224C46.2531 116.33 46.5123 116.432 46.7715 116.534C47.2739 116.714 47.7923 116.899 48.2883 117.062C48.6307 117.178 48.9635 117.28 49.2931 117.386C48.9283 117.171 48.2275 116.736 48.1731 116.694C47.6067 116.25 46.8643 115.306 46.5539 114.387C46.4707 114.323 46.3907 114.25 46.3203 114.17C45.7635 113.539 45.7859 112.544 46.4995 112.035C47.4883 111.328 49.5523 112.064 50.4259 112.71C50.4771 112.749 50.9891 113.226 51.3059 113.53C51.1459 113.322 50.9891 113.12 50.8291 112.906C50.5059 112.48 50.1987 112.045 49.8627 111.581C49.7091 111.35 49.5555 111.117 49.3987 110.883C49.2387 110.653 49.0979 110.39 48.9443 110.141C48.6019 109.558 48.2819 108.95 47.9779 108.33C47.6035 108.611 46.2627 109.59 45.4691 109.776C44.6787 109.958 43.6227 109.971 42.9635 109.421C42.3203 108.88 42.1891 107.898 42.8163 107.286C43.6867 106.438 45.8403 106.854 46.8003 107.36C46.8611 107.392 47.5075 107.834 47.8595 108.083C47.6771 107.709 47.4947 107.338 47.3219 106.954C46.8259 105.843 46.3587 104.707 45.8883 103.574C45.7443 103.229 45.5971 102.883 45.4499 102.538C45.3187 102.64 43.7507 103.84 42.8611 104.045C42.0707 104.227 41.0147 104.24 40.3555 103.69C39.7123 103.152 39.5811 102.166 40.2083 101.555C41.0787 100.707 43.2323 101.123 44.1923 101.629C44.2659 101.667 45.1971 102.304 45.4243 102.477C45.1011 101.718 44.7715 100.963 44.4163 100.234C43.9299 99.2256 43.3955 98.2624 42.8067 97.3696C42.7459 97.4176 41.1139 98.6752 40.2051 98.8864C39.4147 99.0688 38.3587 99.0816 37.6995 98.5312C37.0563 97.9936 36.9251 97.008 37.5523 96.3968C38.4227 95.5488 40.5763 95.9648 41.5363 96.4704C41.6131 96.5088 42.6147 97.1968 42.7843 97.3312C42.7491 97.2768 42.7203 97.2192 42.6851 97.168C42.0451 96.2208 41.3091 95.3856 40.5795 94.6336C40.1571 94.1984 39.7283 93.8048 39.3027 93.4304C39.0243 93.696 37.7315 94.896 36.9315 95.1776C36.1667 95.4464 35.1171 95.5744 34.4035 95.0976C33.7027 94.6336 33.4659 93.6672 34.0227 92.992C34.7939 92.0512 36.9795 92.2304 37.9907 92.6272C38.0451 92.6496 38.5795 92.9312 38.9667 93.1424C38.7715 92.976 38.5731 92.8032 38.3843 92.6464C37.6739 92.064 36.9891 91.5712 36.3747 91.1424C36.0259 90.9024 35.7027 90.688 35.4019 90.496C34.9923 90.6144 33.3315 91.0656 32.5091 90.9504C31.7059 90.8352 30.7171 90.4672 30.3011 89.7152C29.8947 88.9792 30.1283 88.0128 30.9347 87.6704C32.0515 87.1936 33.9107 88.3552 34.6243 89.1744C34.6851 89.2448 35.5203 90.464 35.5011 90.4704C35.5011 90.4704 35.4819 90.4768 35.4755 90.4768C35.7699 90.6592 36.0835 90.8576 36.4227 91.0784C37.0435 91.4944 37.7443 91.9712 38.4707 92.544C39.1971 93.1136 39.9715 93.7504 40.7267 94.496C41.4819 95.2416 42.2403 96.064 42.9123 97.0144C42.9187 97.024 42.9251 97.0368 42.9347 97.0496C42.8259 96.7104 42.5475 95.7536 42.5347 95.6768C42.3523 94.608 42.6307 92.432 43.7091 91.872C44.4867 91.4688 45.3827 91.9008 45.6931 92.6816C46.0099 93.4784 45.6675 94.48 45.2483 95.1712C44.7747 95.952 43.1363 97.072 43.0051 97.1584C43.6355 98.0672 44.2115 99.0528 44.7363 100.083C45.0371 100.672 45.3219 101.274 45.6003 101.878C45.5139 101.584 45.4403 101.318 45.4339 101.28C45.2515 100.208 45.5299 98.0352 46.6083 97.4752C47.3859 97.072 48.2787 97.504 48.5891 98.2848C48.9059 99.0816 48.5635 100.083 48.1443 100.774C47.7187 101.478 46.3395 102.458 45.9715 102.714C46.0771 102.947 46.1827 103.181 46.2851 103.414C46.7811 104.538 47.2707 105.661 47.7859 106.749C47.9683 107.133 48.1603 107.504 48.3523 107.875C48.2755 107.613 48.2147 107.389 48.2083 107.357C48.0259 106.288 48.3043 104.112 49.3827 103.552C50.1603 103.149 51.0531 103.581 51.3635 104.362C51.6803 105.158 51.3379 106.16 50.9187 106.851C50.5123 107.523 49.2483 108.438 48.8131 108.746C49.0211 109.12 49.2291 109.498 49.4467 109.85C49.6003 110.086 49.7315 110.33 49.9011 110.56C50.0643 110.794 50.2243 111.021 50.3811 111.248C50.7011 111.674 51.0307 112.118 51.3571 112.525C51.5811 112.81 51.7987 113.078 52.0163 113.35C51.8307 112.97 51.4851 112.221 51.4627 112.154C51.1203 111.123 51.0659 108.931 52.0483 108.214C52.7555 107.696 53.7059 107.987 54.1315 108.714C54.5667 109.453 54.3779 110.493 54.0675 111.242C53.7251 112.067 52.3395 113.373 52.1635 113.536C52.5283 113.984 52.8835 114.413 53.2291 114.816L53.2259 114.787Z" fill="black"/>
<path id="Vector_8" d="M27.568 107.597C27.568 107.619 26.2272 106.995 26.1472 106.944C25.2224 106.374 23.7696 104.733 24.0576 103.552C24.2656 102.701 25.1808 102.314 25.9712 102.592C26.7808 102.88 27.3056 103.795 27.552 104.57C27.84 105.478 27.568 107.594 27.568 107.597Z" fill="black"/>
</g>
<g id="Group_3" opacity="0.15">
<path id="Vector_9" d="M119.012 90.6463C119.274 91.5615 120.666 93.1775 120.669 93.1775C120.685 93.1935 121.456 91.9359 121.495 91.8495C121.952 90.8639 122.26 88.6943 121.367 87.8687C120.724 87.2735 119.748 87.4527 119.242 88.1247C118.727 88.8095 118.791 89.8655 119.015 90.6463H119.012Z" fill="black"/>
<path id="Vector_10" d="M106.723 114.787C106.691 114.826 106.659 114.861 106.627 114.896L106.89 115.715C107.015 115.565 107.143 115.408 107.274 115.248C107.645 114.797 108.032 114.304 108.426 113.798C108.56 113.872 109.325 114.288 110.087 114.582C109.962 115.491 110.368 117.222 110.423 117.446C109.872 117.619 109.338 117.779 108.829 117.926C108.48 118.026 108.141 118.122 107.818 118.208L108.33 118.832C108.56 118.765 108.794 118.694 109.034 118.618C109.594 118.445 110.186 118.25 110.794 118.045C110.903 118.253 111.799 119.936 112.506 120.483C113.146 120.979 114.103 121.434 114.931 121.21C115.741 120.989 116.272 120.15 115.959 119.331C115.523 118.195 113.395 117.67 112.311 117.731C112.247 117.734 111.555 117.85 111.123 117.93C111.37 117.843 111.613 117.763 111.866 117.674C112.368 117.498 112.867 117.306 113.402 117.101C113.658 116.992 113.914 116.883 114.176 116.774C114.435 116.672 114.698 116.528 114.963 116.406C115.571 116.109 116.173 115.776 116.768 115.43C116.925 115.872 117.501 117.427 118.061 118.019C118.621 118.608 119.495 119.2 120.346 119.104C121.181 119.011 121.834 118.259 121.648 117.405C121.389 116.218 119.367 115.376 118.285 115.27C118.218 115.264 117.434 115.274 117.005 115.29C117.363 115.078 117.722 114.867 118.077 114.643C119.101 113.99 120.119 113.299 121.136 112.614C121.447 112.403 121.76 112.198 122.074 111.99C122.128 112.147 122.775 114.013 123.402 114.675C123.959 115.264 124.835 115.856 125.687 115.76C126.522 115.667 127.175 114.915 126.989 114.061C126.733 112.874 124.707 112.032 123.626 111.926C123.546 111.92 122.416 111.936 122.131 111.955C122.819 111.501 123.511 111.053 124.208 110.64C125.171 110.067 126.147 109.562 127.13 109.139C127.155 109.213 127.821 111.162 128.464 111.84C129.024 112.429 129.898 113.021 130.749 112.925C131.584 112.832 132.237 112.08 132.051 111.226C131.795 110.038 129.77 109.197 128.688 109.091C128.605 109.082 127.389 109.101 127.171 109.12C127.229 109.094 127.287 109.062 127.347 109.04C128.403 108.602 129.479 108.31 130.499 108.09C131.091 107.958 131.667 107.866 132.227 107.789C132.314 108.166 132.73 109.878 133.242 110.554C133.731 111.2 134.538 111.885 135.395 111.885C136.237 111.885 136.967 111.21 136.877 110.339C136.752 109.13 134.832 108.07 133.77 107.846C133.712 107.834 133.111 107.776 132.672 107.738C132.925 107.706 133.187 107.67 133.431 107.645C134.346 107.549 135.187 107.52 135.936 107.498C136.362 107.488 136.746 107.491 137.104 107.494C137.383 107.818 138.515 109.114 139.267 109.469C140 109.814 141.031 110.054 141.792 109.658C142.538 109.267 142.874 108.333 142.394 107.603C141.725 106.589 139.533 106.534 138.487 106.822C138.397 106.848 137.027 107.402 137.04 107.421C137.04 107.421 137.053 107.437 137.056 107.44C136.711 107.427 136.339 107.421 135.933 107.421C135.184 107.424 134.339 107.437 133.418 107.514C132.499 107.587 131.501 107.693 130.461 107.898C129.418 108.102 128.333 108.371 127.248 108.794C127.235 108.797 127.223 108.806 127.213 108.81C127.491 108.589 128.25 107.942 128.304 107.885C129.047 107.091 130.013 105.126 129.424 104.061C128.999 103.296 128.013 103.162 127.325 103.642C126.621 104.131 126.355 105.155 126.323 105.965C126.288 106.88 127.037 108.714 127.098 108.861C126.071 109.27 125.047 109.776 124.042 110.346C123.466 110.669 122.896 111.014 122.33 111.366C122.563 111.168 122.775 110.986 122.8 110.96C123.543 110.166 124.509 108.202 123.92 107.136C123.495 106.371 122.509 106.237 121.821 106.717C121.117 107.206 120.851 108.23 120.819 109.04C120.787 109.862 121.395 111.44 121.562 111.856C121.347 111.994 121.13 112.128 120.912 112.266C119.879 112.928 118.848 113.597 117.821 114.221C117.459 114.442 117.095 114.643 116.73 114.848C116.938 114.672 117.111 114.518 117.136 114.493C117.879 113.699 118.845 111.731 118.256 110.669C117.831 109.904 116.845 109.77 116.157 110.25C115.453 110.739 115.187 111.763 115.155 112.573C115.123 113.357 115.671 114.819 115.866 115.312C115.485 115.51 115.107 115.709 114.73 115.885C114.471 115.997 114.227 116.125 113.959 116.224C113.696 116.33 113.437 116.432 113.178 116.534C112.675 116.714 112.157 116.899 111.661 117.062C111.319 117.178 110.986 117.28 110.656 117.386C111.021 117.171 111.722 116.736 111.776 116.694C112.343 116.25 113.085 115.306 113.395 114.387C113.479 114.323 113.559 114.25 113.629 114.17C114.186 113.539 114.163 112.544 113.45 112.035C112.461 111.328 110.397 112.064 109.523 112.71C109.472 112.749 108.96 113.226 108.643 113.53C108.803 113.322 108.96 113.12 109.12 112.906C109.443 112.48 109.751 112.045 110.087 111.581C110.24 111.35 110.394 111.117 110.551 110.883C110.711 110.653 110.851 110.39 111.005 110.141C111.347 109.558 111.667 108.95 111.971 108.33C112.346 108.611 113.687 109.59 114.48 109.776C115.271 109.958 116.327 109.971 116.986 109.421C117.629 108.88 117.76 107.898 117.133 107.286C116.263 106.438 114.109 106.854 113.149 107.36C113.088 107.392 112.442 107.834 112.09 108.083C112.272 107.709 112.455 107.338 112.627 106.954C113.123 105.843 113.591 104.707 114.061 103.574C114.205 103.229 114.352 102.883 114.499 102.538C114.631 102.64 116.199 103.84 117.088 104.045C117.879 104.227 118.935 104.24 119.594 103.69C120.237 103.152 120.368 102.166 119.741 101.555C118.871 100.707 116.717 101.123 115.757 101.629C115.683 101.667 114.752 102.304 114.525 102.477C114.848 101.718 115.178 100.963 115.533 100.234C116.019 99.2256 116.554 98.2624 117.143 97.3696C117.203 97.4176 118.835 98.6752 119.744 98.8864C120.535 99.0688 121.591 99.0816 122.25 98.5312C122.893 97.9936 123.024 97.008 122.397 96.3968C121.527 95.5488 119.373 95.9648 118.413 96.4704C118.336 96.5088 117.335 97.1968 117.165 97.3312C117.2 97.2768 117.229 97.2192 117.264 97.168C117.904 96.2208 118.64 95.3856 119.37 94.6336C119.792 94.1984 120.221 93.8048 120.647 93.4304C120.925 93.696 122.218 94.896 123.018 95.1776C123.783 95.4464 124.832 95.5744 125.546 95.0976C126.247 94.6336 126.483 93.6672 125.927 92.992C125.155 92.0512 122.97 92.2304 121.959 92.6272C121.904 92.6496 121.37 92.9312 120.983 93.1424C121.178 92.976 121.376 92.8032 121.565 92.6464C122.275 92.064 122.96 91.5712 123.575 91.1424C123.923 90.9024 124.247 90.688 124.547 90.496C124.957 90.6144 126.618 91.0656 127.44 90.9504C128.243 90.8352 129.232 90.4672 129.648 89.7152C130.055 88.9792 129.821 88.0128 129.015 87.6704C127.898 87.1936 126.039 88.3552 125.325 89.1744C125.264 89.2448 124.429 90.464 124.448 90.4704C124.448 90.4704 124.467 90.4768 124.474 90.4768C124.179 90.6592 123.866 90.8576 123.527 91.0784C122.906 91.4944 122.205 91.9712 121.479 92.544C120.752 93.1136 119.978 93.7504 119.223 94.496C118.467 95.2416 117.709 96.064 117.037 97.0144C117.031 97.024 117.024 97.0368 117.015 97.0496C117.123 96.7104 117.402 95.7536 117.415 95.6768C117.597 94.608 117.319 92.432 116.24 91.872C115.463 91.4688 114.57 91.9008 114.256 92.6816C113.939 93.4784 114.282 94.48 114.701 95.1712C115.175 95.952 116.813 97.072 116.944 97.1584C116.314 98.0672 115.738 99.0528 115.213 100.083C114.912 100.672 114.627 101.274 114.349 101.878C114.435 101.584 114.509 101.318 114.515 101.28C114.698 100.208 114.419 98.0352 113.341 97.4752C112.563 97.072 111.671 97.504 111.36 98.2848C111.043 99.0816 111.386 100.083 111.805 100.774C112.231 101.478 113.61 102.458 113.978 102.714C113.872 102.947 113.767 103.181 113.664 103.414C113.168 104.538 112.679 105.661 112.163 106.749C111.981 107.133 111.789 107.504 111.597 107.875C111.674 107.613 111.735 107.389 111.741 107.357C111.923 106.288 111.645 104.112 110.567 103.552C109.789 103.149 108.896 103.581 108.586 104.362C108.269 105.158 108.611 106.16 109.031 106.851C109.437 107.523 110.701 108.438 111.136 108.746C110.928 109.12 110.72 109.498 110.503 109.85C110.349 110.086 110.218 110.33 110.048 110.56C109.885 110.794 109.725 111.021 109.568 111.248C109.248 111.674 108.919 112.118 108.592 112.525C108.368 112.81 108.151 113.078 107.933 113.35C108.119 112.97 108.464 112.221 108.487 112.154C108.829 111.123 108.883 108.931 107.901 108.214C107.194 107.696 106.243 107.987 105.818 108.714C105.383 109.453 105.571 110.493 105.882 111.242C106.224 112.067 107.61 113.373 107.786 113.536C107.421 113.984 107.066 114.413 106.72 114.816L106.723 114.787Z" fill="black"/>
<path id="Vector_11" d="M132.381 107.597C132.381 107.619 133.722 106.995 133.802 106.944C134.727 106.374 136.179 104.733 135.891 103.552C135.683 102.701 134.768 102.314 133.978 102.592C133.168 102.88 132.643 103.795 132.397 104.57C132.109 105.478 132.381 107.594 132.381 107.597Z" fill="black"/>
</g>
</g>
<g id="Money">
<path id="Vector_12" d="M104.736 96.3265L83.5361 87.4401L101.421 44.4705L122.621 53.3569L104.736 96.3265Z" fill="#D1D1D1" stroke="#173449" stroke-linecap="round" stroke-linejoin="round"/>
<path id="Vector_13" d="M118.365 57.7441C116.954 57.1521 116.288 55.5265 116.88 54.1153C116.925 54.0065 116.98 53.9073 117.034 53.8081L104.861 48.7073C104.829 48.8161 104.794 48.9249 104.749 49.0337C104.157 50.4449 102.532 51.1105 101.12 50.5185C101.066 50.4961 101.018 50.4705 100.967 50.4449L87.4756 82.9377C87.53 82.9569 87.5844 82.9729 87.6356 82.9953C89.0468 83.5873 89.7124 85.2129 89.1204 86.6241C89.0756 86.7329 89.0212 86.8321 88.9668 86.9313L101.14 92.0321C101.172 91.9233 101.207 91.8145 101.252 91.7057C101.844 90.2945 103.469 89.6289 104.88 90.2209C104.989 90.2657 105.088 90.3201 105.188 90.3745L118.692 57.8561C118.583 57.8241 118.474 57.7889 118.365 57.7441ZM101.13 74.6209C98.8132 73.6513 97.7252 70.9857 98.6948 68.6721C99.6644 66.3553 102.33 65.2673 104.644 66.2369C106.96 67.2065 108.048 69.8721 107.079 72.1857C106.109 74.5025 103.444 75.5905 101.13 74.6209Z" fill="white" stroke="#173449" stroke-linecap="round" stroke-linejoin="round"/>
<path id="Vector_14" d="M104.458 96.4353L84.3428 85.3089L106.775 44.5249L126.89 55.6545L104.458 96.4353Z" fill="#D1D1D1" stroke="#173449" stroke-linecap="round" stroke-linejoin="round"/>
<path id="Vector_15" d="M122.182 59.552C120.841 58.8096 120.358 57.1232 121.097 55.7824C121.155 55.68 121.216 55.584 121.283 55.4944L109.734 49.104C109.693 49.2096 109.645 49.3152 109.59 49.4144C108.848 50.7552 107.161 51.2416 105.821 50.4992C105.769 50.4704 105.721 50.4384 105.673 50.4096L88.7422 81.2512C88.7934 81.2768 88.8446 81.2992 88.8958 81.328C90.2366 82.0704 90.723 83.7568 89.9806 85.0976C89.923 85.2 89.8622 85.296 89.795 85.3856L101.344 91.776C101.385 91.6704 101.433 91.5648 101.491 91.4656C102.233 90.1248 103.92 89.6416 105.261 90.3808C105.363 90.4384 105.459 90.4992 105.549 90.5664L122.493 59.6992C122.387 59.6576 122.281 59.6096 122.182 59.5552V59.552ZM103.219 74.464C101.021 73.248 100.227 70.4832 101.443 68.2848C102.659 66.0864 105.424 65.2928 107.622 66.5088C109.821 67.7248 110.614 70.4896 109.398 72.688C108.182 74.8864 105.417 75.68 103.219 74.464Z" fill="white" stroke="#173449" stroke-linecap="round" stroke-linejoin="round"/>
<path id="Vector_16" d="M104.087 96.5313L85.7061 82.7265L113.565 45.4401L131.946 59.2449L104.087 96.5313Z" fill="#D1D1D1" stroke="#173449" stroke-linecap="round" stroke-linejoin="round"/>
<path id="Vector_17" d="M126.746 62.4544C125.52 61.536 125.274 59.7952 126.195 58.5728C126.266 58.48 126.342 58.3936 126.419 58.3136L115.866 50.3872C115.808 50.4864 115.747 50.5824 115.677 50.6752C114.758 51.9008 113.018 52.1472 111.792 51.2256C111.747 51.1904 111.702 51.152 111.661 51.1168L90.624 79.3184C90.672 79.3504 90.72 79.3792 90.7648 79.4144C91.9904 80.3328 92.2368 82.0736 91.3152 83.296C91.2448 83.3888 91.168 83.4752 91.0912 83.5552L101.645 91.4816C101.702 91.3824 101.763 91.2864 101.834 91.1936C102.752 89.968 104.493 89.7216 105.715 90.6432C105.808 90.7136 105.894 90.7904 105.974 90.8672L127.027 62.6432C126.928 62.5856 126.832 62.5248 126.739 62.4544H126.746ZM105.901 74.5984C103.894 73.0912 103.488 70.24 104.995 68.2336C106.502 66.2272 109.354 65.8208 111.36 67.328C113.366 68.8352 113.773 71.6864 112.266 73.6928C110.758 75.6992 107.907 76.1056 105.901 74.5984Z" fill="white" stroke="#173449" stroke-linecap="round" stroke-linejoin="round"/>
<path id="Vector_18" d="M103.719 96.5728L87.3477 80.432L119.943 47.2064L136.314 63.3472L103.719 96.5728Z" fill="#D1D1D1" stroke="#173449" stroke-linecap="round" stroke-linejoin="round"/>
<path id="Vector_19" d="M130.73 65.8336C129.638 64.7584 129.626 63.0016 130.701 61.9104C130.784 61.8272 130.87 61.7536 130.957 61.6832L121.558 52.416C121.488 52.5056 121.414 52.5952 121.334 52.6752C120.259 53.7664 118.502 53.7792 117.411 52.704C117.37 52.6624 117.334 52.6208 117.296 52.576L92.6783 77.712C92.7199 77.7504 92.7647 77.7856 92.8063 77.8272C93.8975 78.9024 93.9103 80.6592 92.8351 81.7504C92.7519 81.8336 92.6655 81.9072 92.5791 81.9776L101.978 91.2448C102.048 91.1552 102.122 91.0656 102.202 90.9856C103.277 89.8944 105.034 89.8816 106.125 90.9568C106.208 91.04 106.282 91.1264 106.352 91.2128L130.989 66.0576C130.899 65.9872 130.81 65.9136 130.73 65.8336ZM108.451 75.0848C106.662 73.3216 106.643 70.4448 108.406 68.656C110.17 66.8672 113.046 66.848 114.835 68.6112C116.624 70.3744 116.643 73.2512 114.88 75.04C113.117 76.8288 110.24 76.848 108.451 75.0848Z" fill="white" stroke="#173449" stroke-linecap="round" stroke-linejoin="round"/>
</g>
<g id="Passport">
<path id="Vector_20" d="M82.9028 92.9728L53.4756 111.68L22.1572 62.2336L51.5844 43.5264C52.6564 42.8448 54.0772 43.1616 54.7588 44.2336L83.6068 89.7984C84.2884 90.8704 83.9716 92.2912 82.8996 92.9728H82.9028Z" fill="#A8A8A8" stroke="#173449" stroke-linecap="round" stroke-linejoin="round"/>
<path id="Vector_21" d="M82.0737 93.0048L52.6465 111.712L21.3281 62.2656L50.7553 43.5584C51.8273 42.8768 53.2481 43.1936 53.9297 44.2656L82.7777 89.8304C83.4593 90.9024 83.1425 92.3232 82.0705 93.0048H82.0737Z" fill="white" stroke="#173449" stroke-linecap="round" stroke-linejoin="round"/>
<path id="Vector_22" d="M81.1138 93.6576L51.6866 112.365L20.3682 62.9184L49.7954 44.2113C50.8674 43.5297 52.2882 43.8465 52.9698 44.9185L81.8178 90.4832C82.4994 91.5553 82.1826 92.976 81.1106 93.6576H81.1138Z" fill="#A8A8A8" stroke="#173449" stroke-linecap="round" stroke-linejoin="round"/>
<path id="Vector_23" d="M36.0993 69.0657L33.8369 65.5073L34.7201 64.9473C34.9345 64.8129 35.1297 64.7425 35.3057 64.7393C35.4817 64.7361 35.6449 64.7905 35.7985 64.8993C35.9489 65.0081 36.0929 65.1681 36.2241 65.3761C36.3425 65.5649 36.4129 65.7473 36.4353 65.9265C36.4577 66.1057 36.4257 66.2753 36.3457 66.4321C36.2657 66.5889 36.1281 66.7297 35.9329 66.8513L35.5425 67.1009L36.5953 68.7585L36.0993 69.0753V69.0657ZM35.3153 66.7393L35.5425 66.5953C35.6865 66.5025 35.7889 66.4161 35.8497 66.3329C35.9105 66.2497 35.9329 66.1537 35.9169 66.0513C35.9009 65.9489 35.8465 65.8241 35.7537 65.6769C35.6449 65.5073 35.5489 65.3857 35.4689 65.3089C35.3857 65.2353 35.2929 65.2033 35.1937 65.2193C35.0913 65.2353 34.9569 65.2961 34.7905 65.4017L34.5569 65.5489L35.3121 66.7393H35.3153Z" fill="white"/>
<path id="Vector_24" d="M37.85 67.952L36.3428 63.9136L36.8228 63.6096L39.8436 66.6848L39.3732 66.9824L38.6404 66.1888L37.914 66.6496L38.314 67.6544L37.8468 67.9488L37.85 67.952ZM37.7572 66.2528L38.3492 65.8752L37.0308 64.4608L37.7572 66.2528Z" fill="white"/>
<path id="Vector_25" d="M41.0689 65.9616C40.8641 66.0928 40.6657 66.1568 40.4737 66.1536C40.2817 66.1536 40.1025 66.096 39.9329 65.9872C39.7633 65.8752 39.6097 65.7216 39.4657 65.5264L39.8305 65.1296C39.9201 65.2512 40.0161 65.36 40.1217 65.456C40.2273 65.552 40.3393 65.616 40.4577 65.648C40.5761 65.6768 40.6977 65.6544 40.8225 65.5744C40.9505 65.4912 41.0273 65.3952 41.0465 65.28C41.0657 65.1648 41.0337 65.0432 40.9473 64.9088C40.8449 64.7488 40.7265 64.64 40.5889 64.5888C40.4545 64.5376 40.2977 64.496 40.1249 64.4672L39.1937 64.32C39.0113 64.2912 38.8545 64.2336 38.7201 64.1504C38.5889 64.064 38.4641 63.9328 38.3521 63.7536C38.1857 63.4944 38.1313 63.2448 38.1921 63.0048C38.2497 62.7648 38.4065 62.5664 38.6657 62.4C38.8065 62.3104 38.9409 62.2496 39.0721 62.2176C39.2033 62.1856 39.3281 62.1856 39.4465 62.2176C39.5681 62.2496 39.6833 62.3072 39.8017 62.3968C39.9169 62.4864 40.0321 62.6016 40.1441 62.7488L39.7953 63.1296C39.7121 63.0176 39.6257 62.9216 39.5361 62.8416C39.4465 62.7616 39.3505 62.7104 39.2481 62.6912C39.1457 62.672 39.0305 62.704 38.9089 62.7808C38.7873 62.8576 38.7105 62.9536 38.6849 63.0624C38.6593 63.1712 38.6849 63.2928 38.7681 63.4208C38.8385 63.5296 38.9121 63.6064 38.9921 63.6544C39.0721 63.7024 39.1777 63.7344 39.3057 63.7568L40.2433 63.9008C40.4513 63.9328 40.6593 63.9968 40.8673 64.0928C41.0721 64.1888 41.2481 64.3488 41.3889 64.5728C41.5009 64.7488 41.5617 64.9248 41.5681 65.0976C41.5745 65.2704 41.5361 65.4336 41.4529 65.5808C41.3697 65.728 41.2417 65.856 41.0753 65.9616H41.0689Z" fill="white"/>
<path id="Vector_26" d="M43.146 64.6401C42.9412 64.7713 42.7428 64.8353 42.5508 64.8321C42.3588 64.8321 42.1796 64.7745 42.01 64.6657C41.8404 64.5569 41.6868 64.4001 41.5428 64.2049L41.9076 63.8081C41.9972 63.9297 42.0932 64.0385 42.1988 64.1345C42.3044 64.2337 42.4164 64.2945 42.5348 64.3265C42.6532 64.3553 42.7748 64.3329 42.8996 64.2529C43.0276 64.1697 43.1044 64.0737 43.1236 63.9585C43.1428 63.8433 43.1108 63.7217 43.0244 63.5873C42.922 63.4273 42.8036 63.3185 42.666 63.2673C42.5316 63.2161 42.3748 63.1745 42.202 63.1457L41.2708 62.9985C41.0884 62.9697 40.9316 62.9121 40.7972 62.8289C40.666 62.7425 40.5412 62.6113 40.4292 62.4321C40.2628 62.1729 40.2084 61.9233 40.2692 61.6833C40.3268 61.4433 40.4868 61.2449 40.7428 61.0785C40.8836 60.9889 41.018 60.9281 41.1492 60.8961C41.2804 60.8641 41.4052 60.8641 41.5236 60.8961C41.6452 60.9281 41.7604 60.9857 41.8788 61.0753C41.994 61.1649 42.1092 61.2801 42.2212 61.4273L41.8724 61.8081C41.7892 61.6961 41.7028 61.6001 41.6132 61.5201C41.5236 61.4401 41.4276 61.3889 41.3252 61.3697C41.2196 61.3505 41.1076 61.3825 40.986 61.4593C40.8644 61.5361 40.7876 61.6321 40.762 61.7409C40.7364 61.8497 40.762 61.9713 40.8452 62.0993C40.9156 62.2081 40.9892 62.2849 41.0692 62.3329C41.1492 62.3809 41.2548 62.4129 41.3828 62.4353L42.3204 62.5793C42.5284 62.6113 42.7364 62.6753 42.9444 62.7713C43.1492 62.8673 43.3252 63.0273 43.466 63.2513C43.578 63.4273 43.6388 63.6033 43.6452 63.7761C43.6516 63.9489 43.6132 64.1121 43.53 64.2593C43.4468 64.4065 43.3188 64.5345 43.1524 64.6401H43.146Z" fill="white"/>
<path id="Vector_27" d="M44.3581 63.8144L42.0957 60.2561L42.9789 59.6961C43.1933 59.5617 43.3885 59.4912 43.5645 59.488C43.7405 59.4848 43.9037 59.5392 44.0573 59.648C44.2077 59.7568 44.3517 59.9169 44.4829 60.1249C44.6013 60.3137 44.6717 60.4961 44.6941 60.6753C44.7165 60.8545 44.6845 61.0241 44.6045 61.1809C44.5245 61.3377 44.3869 61.4785 44.1917 61.6001L43.8013 61.8496L44.8541 63.5073L44.3581 63.824V63.8144ZM43.5741 61.488L43.8013 61.344C43.9453 61.2544 44.0477 61.1649 44.1085 61.0817C44.1693 60.9985 44.1917 60.9025 44.1757 60.8001C44.1597 60.6977 44.1053 60.5729 44.0125 60.4257C43.9037 60.2561 43.8077 60.1344 43.7277 60.0576C43.6445 59.984 43.5517 59.952 43.4525 59.968C43.3501 59.984 43.2157 60.0449 43.0493 60.1505L42.8157 60.2976L43.5709 61.488H43.5741Z" fill="white"/>
<path id="Vector_28" d="M47.4017 61.9361C47.1617 62.0897 46.9409 62.1633 46.7361 62.1601C46.5345 62.1601 46.3457 62.0897 46.1729 61.9553C46.0001 61.8209 45.8401 61.6353 45.6897 61.4017L44.8321 60.0545C44.6817 59.8209 44.5857 59.6001 44.5441 59.3889C44.4993 59.1809 44.5217 58.9857 44.6049 58.8065C44.6913 58.6273 44.8545 58.4609 45.0945 58.3073C45.3345 58.1537 45.5553 58.0801 45.7537 58.0801C45.9521 58.0801 46.1345 58.1473 46.3041 58.2721C46.4737 58.4001 46.6305 58.5793 46.7809 58.8129L47.6417 60.1665C47.7889 60.3969 47.8849 60.6209 47.9329 60.8321C47.9809 61.0465 47.9617 61.2449 47.8817 61.4273C47.8017 61.6129 47.6417 61.7793 47.4017 61.9329V61.9361ZM47.1521 61.5457C47.2833 61.4625 47.3665 61.3729 47.3985 61.2737C47.4305 61.1777 47.4273 61.0721 47.3889 60.9601C47.3505 60.8481 47.2897 60.7233 47.2033 60.5921L46.2113 59.0337C46.1281 58.9025 46.0449 58.7969 45.9585 58.7169C45.8753 58.6369 45.7825 58.5921 45.6833 58.5825C45.5841 58.5729 45.4689 58.6113 45.3345 58.6945C45.2001 58.7777 45.1201 58.8673 45.0817 58.9633C45.0433 59.0593 45.0465 59.1617 45.0817 59.2705C45.1201 59.3793 45.1777 59.5009 45.2641 59.6321L46.2561 61.1905C46.3393 61.3217 46.4257 61.4305 46.5121 61.5137C46.5985 61.5969 46.6913 61.6449 46.7969 61.6545C46.8993 61.6641 47.0177 61.6289 47.1489 61.5457H47.1521Z" fill="white"/>
<path id="Vector_29" d="M48.8356 60.9696L46.5732 57.4112L47.29 56.9568C47.5268 56.8064 47.7444 56.7136 47.9396 56.6784C48.1348 56.6432 48.314 56.672 48.4772 56.7616C48.6404 56.8544 48.794 57.0112 48.938 57.2384C49.0244 57.376 49.0916 57.5104 49.1332 57.6416C49.1748 57.7728 49.1876 57.8976 49.1748 58.016C49.1588 58.1344 49.1108 58.2464 49.0276 58.3456L50.666 59.808L50.186 60.112L48.6596 58.7392L48.2724 58.9856L49.3348 60.656L48.8388 60.9728L48.8356 60.9696ZM48.0452 58.6304L48.234 58.5088C48.3748 58.4192 48.4772 58.3296 48.5444 58.2368C48.6116 58.1472 48.6372 58.0448 48.6244 57.9328C48.6116 57.8208 48.5572 57.6896 48.4612 57.5392C48.33 57.3312 48.1956 57.2064 48.0612 57.1616C47.9268 57.1168 47.7476 57.168 47.5204 57.312L47.2996 57.4528L48.0484 58.6304H48.0452Z" fill="white"/>
<path id="Vector_30" d="M51.5076 59.2704L49.4788 56.08L48.8772 56.464L48.6436 56.096L50.3268 55.0272L50.5604 55.3952L49.9748 55.7664L52.0036 58.9568L51.5076 59.2736V59.2704Z" fill="white"/>
<path id="Vector_31" d="M64.264 81.4112C65.6631 75.4132 61.9349 69.4166 55.9368 68.0175C49.9388 66.6184 43.9422 70.3466 42.5431 76.3446C41.144 82.3427 44.8722 88.3393 50.8702 89.7384C56.8683 91.1375 62.8649 87.4093 64.264 81.4112Z" stroke="white" stroke-miterlimit="10"/>
<path id="Vector_32" d="M59.3818 88.292C61.6102 86.8757 60.7383 81.5137 57.4345 76.3157C54.1306 71.1178 49.6459 68.0521 47.4176 69.4685C45.1892 70.8848 46.0611 76.2468 49.3649 81.4447C52.6688 86.6427 57.1535 89.7083 59.3818 88.292Z" stroke="white" stroke-miterlimit="10"/>
<path id="Vector_33" d="M43.4307 74.0257L53.3027 67.7505" stroke="white" stroke-miterlimit="10"/>
<path id="Vector_34" d="M42.3203 80.3872L59.5331 69.4432" stroke="white" stroke-miterlimit="10"/>
<path id="Vector_35" d="M47.3252 88.2656L64.5412 77.3217" stroke="white" stroke-miterlimit="10"/>
<path id="Vector_36" d="M43.9678 84.8705L62.8958 72.8417" stroke="white" stroke-miterlimit="10"/>
<path id="Vector_37" d="M53.6484 90.0993L63.5204 83.8241" stroke="white" stroke-miterlimit="10"/>
</g>
<g id="Earth_Globe">
<path id="Vector_38" d="M105.373 140.229C119.33 126.272 119.33 103.645 105.373 89.6882C91.417 75.7318 68.7892 75.7318 54.8328 89.6882C40.8764 103.645 40.8764 126.272 54.8328 140.229C68.7892 154.185 91.417 154.185 105.373 140.229Z" fill="#08BD80" stroke="#173449" stroke-linecap="round" stroke-linejoin="round"/>
<path id="Vector_39" d="M72.9248 148.022C74.8256 148.435 76.7712 148.688 78.7488 148.765" stroke="#173449" stroke-linecap="round" stroke-linejoin="round"/>
<path id="Vector_40" d="M68.5439 146.752C69.5135 147.104 70.4991 147.414 71.5007 147.68" stroke="#173449" stroke-linecap="round" stroke-linejoin="round"/>
<path id="Vector_41" d="M47.5619 105.702C46.0675 110.938 45.8179 116.605 47.0819 122.291C49.5811 133.539 57.4083 142.224 67.3219 146.278" stroke="#173449" stroke-linecap="round" stroke-linejoin="round"/>
<path id="Vector_42" d="M52.1095 95.9712C50.8903 97.7696 49.8407 99.6864 48.9863 101.69" stroke="#173449" stroke-linecap="round" stroke-linejoin="round"/>
<path id="Vector_43" d="M75.2616 99.088L78.9032 99.84L80.1448 101.13L81.764 101.379L82.2792 102.915L81.9016 103.955L80.7976 104.461L78.0936 104.019L78.02 103.686L79.3 102.794L78.4168 101.165L75.9976 100.835L74.708 99.7312L75.2616 99.088Z" fill="white"/>
<path id="Vector_44" d="M104.621 132.704L101.732 132.214L98.2436 131.773L95.6772 132.342L93.1652 132.378L90.6436 133.546L89.1716 133.958L88.2596 134.16L86.7428 135.539L85.2324 136.57L82.6852 135.658L82.7492 133.21L81.2132 132.944L79.5588 133.312L79.146 132.621L78.9796 131.094L78.2148 130.394L77.0916 130.816L76.9444 131.718L75.5556 132.115L73.9812 130.899L73.0436 129.021L73.77 126.426L76.2084 126.058L76.9988 126.49L77.9908 126.269L79.066 125.248L80.2148 125.341L82.2756 127.578L82.8356 127.366L82.2468 125.498L81.53 124.614L81.3476 123.005L84.1156 120.998L83.85 117.843L84.9348 116.474L85.5876 114.33L86.378 113.981L88.0068 112.317L87.9428 111.635L86.6372 112.013L86.2404 111.405L85.3284 111.606L83.994 112.25L84.4164 111.027L87.13 109.555L87.626 108.662L89.1908 110.227L90.1028 110.806L91.1876 110.218L90.4516 109.251L88.4356 108.397L85.9524 106.602L83.5684 105.654L81.5076 105.763L80.2948 104.989L78.8964 104.95L78.8036 105.318L79.1716 107.757L79.6868 108.512L79.53 111.328L77.5812 110.371L77.5716 109.158L75.6484 108.717L74.7012 107.971L74.6564 105.808L76.6724 103.536L76.3972 101.514L75.5044 101.798L74.7588 101.181L74.234 99.9936L73.6356 100.038L73.5972 101.437L72.7236 101.805L71.6676 98.9984L70.9124 98.7328L69.642 98.4928L68.4644 99.4496L70.4708 100.656L71.114 101.99L67.6356 100.416L65.0692 98.64L64.4068 96.4416L62.106 96.256L60.6884 97.6992C60.6884 97.6992 59.9716 98.3808 59.594 98.6368C59.2164 98.8928 57.6804 99.408 57.6804 99.408L57.6612 100.89L55.7764 101.395L56.1444 102.269L59.3188 102.086L61.2772 103.475L61.9204 106.374L61.5812 109.142L62.3524 111.837L60.9348 116.41L61.7796 122.563L63.2964 125.875L64.9604 128.285L66.2404 128.176L65.5332 126.944L64.65 126.096L63.8308 124.368L64.538 124.038L66.3588 126.762L67.7764 129.229L68.2532 131.382L70.25 132.938L73.5236 134.384L78.0868 134.586L79.6868 135.533L80.9732 136.637L82.666 137.216L84.5988 137.309L86.4004 136.822C86.4004 136.822 86.5028 137.667 86.5924 138.083C86.6852 138.496 85.8372 140.163 85.8372 140.163L85.2932 142.022L86.3588 143.696L88.346 144.035L91.5012 146.115L92.7716 146.355L93.0468 147.597L93.3188 148.144C99.6708 145.619 104.996 141.386 108.868 136.112L108.778 135.501L110.112 130.947L108.871 130.442L104.592 132.694L104.621 132.704Z" fill="white"/>
<path id="Vector_45" d="M105.969 98.0864L104.708 96.7168L103.143 95.152L102.26 92.7424L103.805 92.6592L103.703 91.8144L102.609 91.9712L103.428 91.3536L104.292 90.5536L104.109 89.7248L102.823 88.6208L102.215 86.8864C94.0807 80.4864 83.2455 77.6512 72.3527 80.0704C67.4023 81.1712 62.9223 83.2512 59.0663 86.0576L61.2743 86.9856L60.4455 88.7328L58.9447 89.4144L59.2743 91.6864L58.6663 92.0832L58.0391 93.1776L58.4519 94.6496L59.8951 94.5024L59.6295 96.0384L61.0375 95.7248L62.7591 92.128L62.7143 90.7488L64.9959 90.0672L65.3543 88.944L67.6999 88.1632L67.6359 86.7008L69.3575 86.2304C69.3575 86.2304 70.4519 85.2928 70.7015 85.2384C70.9511 85.184 72.2023 85.3408 72.2023 85.3408L73.6647 86.0576L75.4023 85.6704L76.6919 84.4288L78.6343 84.1728C78.6343 84.1728 79.2039 84.3936 79.6199 84.3008C80.0327 84.208 81.1463 83.3536 81.1463 83.3536L83.8791 84.3104L85.0375 84.8352L85.3127 86.0768L86.5927 85.968L86.8423 85.1296L88.0295 85.3888L88.0935 86.0704L85.7575 87.2832L87.5687 88.7936L90.9159 89.7888L92.5255 91.168L94.3847 90.928L94.6151 90.0096L95.2423 89.696L92.7207 88.5184L91.3607 88.6464L92.3623 88.0768L91.0567 86.8896L92.4455 86.4928L94.4871 87.0816L95.3415 88.976L96.4903 89.8496L97.7671 92.0864L99.8823 93.008L100.49 95.7408L102.669 96.56L102.788 97.488L102.778 98.6208L103.607 100L103.937 100.707L105.399 100.643L105.748 99.088L105.959 98.0864H105.969Z" fill="white"/>
<path id="Vector_46" d="M105.191 89.5072L105.296 89.984L105.178 91.4016L105.683 92.5056L106.669 92.6336L107.018 94.208L105.933 94.016L106.679 98.5408L106.09 100.582L107.267 102.752L108.563 103.507L109.555 107.978L111.405 111.216L113.152 113.61L115.168 113.683L115.463 111.882L115.687 111.61C115.546 110.15 115.319 108.682 114.992 107.213C113.44 100.227 109.943 94.1792 105.197 89.5104L105.191 89.5072Z" fill="white"/>
<path id="Vector_47" d="M85.9491 93.2384L79.9523 92.048L77.5683 92.6656L77.3411 94.368L76.1059 93.5104L74.3779 94.3296L74.8195 97.0976L76.5475 97.8432L77.2739 96.032L78.7939 96.9984L81.8563 98.6656L82.8867 100.954L85.6451 103.21L88.9955 101.856L88.6371 100.634L87.5779 99.392L86.6755 96.1152L87.1907 94.5248L85.9491 93.2384Z" fill="white"/>
<path id="Vector_48" d="M90.8255 94.0672L89.5103 94.0096L88.6367 95.1616L89.7503 97.4336L90.8255 97.1936V94.0672Z" fill="white"/>
<path id="Vector_49" d="M98.8768 93.9296L95.728 93.0624L94.928 92.1984L94.3232 92.5952L95.2704 94.1216L96.2432 96.1632L97.5968 96.384L97.7696 96L96.7488 94.9216L99.088 95.2704L98.8768 93.9296Z" fill="white"/>
<path id="Vector_50" d="M81.3383 129.187L81.0791 129.594L83.7287 129.786L84.9799 130.723L86.5895 130.541L86.9671 129.501L84.9895 129.594L81.3383 129.187Z" fill="white"/>
<path id="Vector_51" d="M89.0565 129.123L87.4277 130.006L87.8213 130.614L89.9749 130.138L90.2405 129.382L89.5141 129.632L89.0565 129.123Z" fill="white"/>
<path id="Vector_52" d="M75.2616 99.088L78.9032 99.84L80.1448 101.13L81.764 101.379L82.2792 102.915L81.9016 103.955L80.7976 104.461L78.0936 104.019L78.02 103.686L79.3 102.794L78.4168 101.165L75.9976 100.835L74.708 99.7312L75.2616 99.088Z" stroke="#173449" stroke-linecap="round" stroke-linejoin="round"/>
<path id="Vector_53" d="M104.621 132.704L101.732 132.214L98.2436 131.773L95.6772 132.342L93.1652 132.378L90.6436 133.546L89.1716 133.958L88.2596 134.16L86.7428 135.539L85.2324 136.57L82.6852 135.658L82.7492 133.21L81.2132 132.944L79.5588 133.312L79.146 132.621L78.9796 131.094L78.2148 130.394L77.0916 130.816L76.9444 131.718L75.5556 132.115L73.9812 130.899L73.0436 129.021L73.77 126.426L76.2084 126.058L76.9988 126.49L77.9908 126.269L79.066 125.248L80.2148 125.341L82.2756 127.578L82.8356 127.366L82.2468 125.498L81.53 124.614L81.3476 123.005L84.1156 120.998L83.85 117.843L84.9348 116.474L85.5876 114.33L86.378 113.981L88.0068 112.317L87.9428 111.635L86.6372 112.013L86.2404 111.405L85.3284 111.606L83.994 112.25L84.4164 111.027L87.13 109.555L87.626 108.662L89.1908 110.227L90.1028 110.806L91.1876 110.218L90.4516 109.251L88.4356 108.397L85.9524 106.602L83.5684 105.654L81.5076 105.763L80.2948 104.989L78.8964 104.95L78.8036 105.318L79.1716 107.757L79.6868 108.512L79.53 111.328L77.5812 110.371L77.5716 109.158L75.6484 108.717L74.7012 107.971L74.6564 105.808L76.6724 103.536L76.3972 101.514L75.5044 101.798L74.7588 101.181L74.234 99.9936L73.6356 100.038L73.5972 101.437L72.7236 101.805L71.6676 98.9984L70.9124 98.7328L69.642 98.4928L68.4644 99.4496L70.4708 100.656L71.114 101.99L67.6356 100.416L65.0692 98.64L64.4068 96.4416L62.106 96.256L60.6884 97.6992C60.6884 97.6992 59.9716 98.3808 59.594 98.6368C59.2164 98.8928 57.6804 99.408 57.6804 99.408L57.6612 100.89L55.7764 101.395L56.1444 102.269L59.3188 102.086L61.2772 103.475L61.9204 106.374L61.5812 109.142L62.3524 111.837L60.9348 116.41L61.7796 122.563L63.2964 125.875L64.9604 128.285L66.2404 128.176L65.5332 126.944L64.65 126.096L63.8308 124.368L64.538 124.038L66.3588 126.762L67.7764 129.229L68.2532 131.382L70.25 132.938L73.5236 134.384L78.0868 134.586L79.6868 135.533L80.9732 136.637L82.666 137.216L84.5988 137.309L86.4004 136.822C86.4004 136.822 86.5028 137.667 86.5924 138.083C86.6852 138.496 85.8372 140.163 85.8372 140.163L85.2932 142.022L86.3588 143.696L88.346 144.035L91.5012 146.115L92.7716 146.355L93.0468 147.597L93.3188 148.144C99.6708 145.619 104.996 141.386 108.868 136.112L108.778 135.501L110.112 130.947L108.871 130.442L104.592 132.694L104.621 132.704Z" stroke="#173449" stroke-linecap="round" stroke-linejoin="round"/>
<path id="Vector_54" d="M105.969 98.0864L104.708 96.7168L103.143 95.152L102.26 92.7424L103.805 92.6592L103.703 91.8144L102.609 91.9712L103.428 91.3536L104.292 90.5536L104.109 89.7248L102.823 88.6208L102.215 86.8864C94.0807 80.4864 83.2455 77.6512 72.3527 80.0704C67.4023 81.1712 62.9223 83.2512 59.0663 86.0576L61.2743 86.9856L60.4455 88.7328L58.9447 89.4144L59.2743 91.6864L58.6663 92.0832L58.0391 93.1776L58.4519 94.6496L59.8951 94.5024L59.6295 96.0384L61.0375 95.7248L62.7591 92.128L62.7143 90.7488L64.9959 90.0672L65.3543 88.944L67.6999 88.1632L67.6359 86.7008L69.3575 86.2304C69.3575 86.2304 70.4519 85.2928 70.7015 85.2384C70.9511 85.184 72.2023 85.3408 72.2023 85.3408L73.6647 86.0576L75.4023 85.6704L76.6919 84.4288L78.6343 84.1728C78.6343 84.1728 79.2039 84.3936 79.6199 84.3008C80.0327 84.208 81.1463 83.3536 81.1463 83.3536L83.8791 84.3104L85.0375 84.8352L85.3127 86.0768L86.5927 85.968L86.8423 85.1296L88.0295 85.3888L88.0935 86.0704L85.7575 87.2832L87.5687 88.7936L90.9159 89.7888L92.5255 91.168L94.3847 90.928L94.6151 90.0096L95.2423 89.696L92.7207 88.5184L91.3607 88.6464L92.3623 88.0768L91.0567 86.8896L92.4455 86.4928L94.4871 87.0816L95.3415 88.976L96.4903 89.8496L97.7671 92.0864L99.8823 93.008L100.49 95.7408L102.669 96.56L102.788 97.488L102.778 98.6208L103.607 100L103.937 100.707L105.399 100.643L105.748 99.088L105.959 98.0864H105.969Z" stroke="#173449" stroke-linecap="round" stroke-linejoin="round"/>
<path id="Vector_55" d="M105.191 89.5072L105.296 89.984L105.178 91.4016L105.683 92.5056L106.669 92.6336L107.018 94.208L105.933 94.016L106.679 98.5408L106.09 100.582L107.267 102.752L108.563 103.507L109.555 107.978L111.405 111.216L113.152 113.61L115.168 113.683L115.463 111.882L115.687 111.61C115.546 110.15 115.319 108.682 114.992 107.213C113.44 100.227 109.943 94.1792 105.197 89.5104L105.191 89.5072Z" stroke="#173449" stroke-linecap="round" stroke-linejoin="round"/>
<path id="Vector_56" d="M85.9491 93.2384L79.9523 92.048L77.5683 92.6656L77.3411 94.368L76.1059 93.5104L74.3779 94.3296L74.8195 97.0976L76.5475 97.8432L77.2739 96.032L78.7939 96.9984L81.8563 98.6656L82.8867 100.954L85.6451 103.21L88.9955 101.856L88.6371 100.634L87.5779 99.392L86.6755 96.1152L87.1907 94.5248L85.9491 93.2384Z" stroke="#173449" stroke-linecap="round" stroke-linejoin="round"/>
<path id="Vector_57" d="M90.8255 94.0672L89.5103 94.0096L88.6367 95.1616L89.7503 97.4336L90.8255 97.1936V94.0672Z" stroke="#173449" stroke-linecap="round" stroke-linejoin="round"/>
<path id="Vector_58" d="M98.8768 93.9296L95.728 93.0624L94.928 92.1984L94.3232 92.5952L95.2704 94.1216L96.2432 96.1632L97.5968 96.384L97.7696 96L96.7488 94.9216L99.088 95.2704L98.8768 93.9296Z" stroke="#173449" stroke-linecap="round" stroke-linejoin="round"/>
<path id="Vector_59" d="M81.3383 129.187L81.0791 129.594L83.7287 129.786L84.9799 130.723L86.5895 130.541L86.9671 129.501L84.9895 129.594L81.3383 129.187Z" stroke="#173449" stroke-linecap="round" stroke-linejoin="round"/>
<path id="Vector_60" d="M89.0565 129.123L87.4277 130.006L87.8213 130.614L89.9749 130.138L90.2405 129.382L89.5141 129.632L89.0565 129.123Z" stroke="#173449" stroke-linecap="round" stroke-linejoin="round"/>
</g>
<g id="Ubication_Icons">
<path id="Vector_61" d="M113.351 90.7231C110.618 90.7231 108.403 92.9375 108.403 95.6703C108.403 98.4031 113.351 103.917 113.351 103.917C113.351 103.917 118.298 98.4031 118.298 95.6703C118.298 92.9375 116.083 90.7231 113.351 90.7231ZM113.351 97.8495C112.147 97.8495 111.171 96.8735 111.171 95.6703C111.171 94.4671 112.147 93.4911 113.351 93.4911C114.554 93.4911 115.53 94.4671 115.53 95.6703C115.53 96.8735 114.554 97.8495 113.351 97.8495Z" fill="#173449" stroke="#173449" stroke-miterlimit="10"/>
<path id="Vector_62" d="M74.9604 103.424C72.5764 103.424 70.6436 105.357 70.6436 107.741C70.6436 110.125 74.9604 114.934 74.9604 114.934C74.9604 114.934 79.2772 110.125 79.2772 107.741C79.2772 105.357 77.3444 103.424 74.9604 103.424ZM74.9604 109.642C73.9108 109.642 73.0596 108.79 73.0596 107.741C73.0596 106.691 73.9108 105.84 74.9604 105.84C76.01 105.84 76.8612 106.691 76.8612 107.741C76.8612 108.79 76.01 109.642 74.9604 109.642Z" fill="#173449" stroke="#173449" stroke-miterlimit="10"/>
<path id="Vector_63" d="M91.2832 137.088C90.0832 137.088 89.1104 138.061 89.1104 139.261C89.1104 140.461 91.2832 142.88 91.2832 142.88C91.2832 142.88 93.4559 140.461 93.4559 139.261C93.4559 138.061 92.4832 137.088 91.2832 137.088ZM91.2832 140.214C90.7552 140.214 90.3263 139.786 90.3263 139.258C90.3263 138.73 90.7552 138.301 91.2832 138.301C91.8112 138.301 92.24 138.73 92.24 139.258C92.24 139.786 91.8112 140.214 91.2832 140.214Z" fill="#173449" stroke="#173449" stroke-miterlimit="10"/>
<path id="Vector_64" d="M64.2822 117.04C63.0822 117.04 62.1094 118.013 62.1094 119.213C62.1094 120.413 64.2822 122.832 64.2822 122.832C64.2822 122.832 66.455 120.413 66.455 119.213C66.455 118.013 65.4822 117.04 64.2822 117.04ZM64.2822 120.166C63.7542 120.166 63.3254 119.738 63.3254 119.21C63.3254 118.682 63.7542 118.253 64.2822 118.253C64.8102 118.253 65.239 118.682 65.239 119.21C65.239 119.738 64.8102 120.166 64.2822 120.166Z" fill="#173449" stroke="#173449" stroke-miterlimit="10"/>
<path id="Vector_65" d="M71.9619 126.179C70.7619 126.179 69.7891 127.152 69.7891 128.352C69.7891 129.552 71.9619 131.971 71.9619 131.971C71.9619 131.971 74.1347 129.552 74.1347 128.352C74.1347 127.152 73.1619 126.179 71.9619 126.179ZM71.9619 129.306C71.4339 129.306 71.0051 128.877 71.0051 128.349C71.0051 127.821 71.4339 127.392 71.9619 127.392C72.4899 127.392 72.9187 127.821 72.9187 128.349C72.9187 128.877 72.4899 129.306 71.9619 129.306Z" fill="#173449" stroke="#173449" stroke-miterlimit="10"/>
<path id="Vector_66" d="M98.9351 130.282C97.5143 130.282 96.3623 131.434 96.3623 132.858C96.3623 134.282 98.9351 137.149 98.9351 137.149C98.9351 137.149 101.508 134.278 101.508 132.858C101.508 131.437 100.356 130.282 98.9351 130.282ZM98.9351 133.99C98.3079 133.99 97.8023 133.482 97.8023 132.858C97.8023 132.234 98.3111 131.725 98.9351 131.725C99.5591 131.725 100.068 132.234 100.068 132.858C100.068 133.482 99.5591 133.99 98.9351 133.99Z" fill="#173449" stroke="#173449" stroke-miterlimit="10"/>
<path id="Vector_67" d="M98.746 81.0624C97.482 81.0624 96.458 82.0864 96.458 83.3504C96.458 84.6144 98.746 87.1616 98.746 87.1616C98.746 87.1616 101.034 84.6144 101.034 83.3504C101.034 82.0864 100.01 81.0624 98.746 81.0624ZM98.746 84.3552C98.1892 84.3552 97.738 83.904 97.738 83.3472C97.738 82.7904 98.1892 82.3392 98.746 82.3392C99.3028 82.3392 99.754 82.7904 99.754 83.3472C99.754 83.904 99.3028 84.3552 98.746 84.3552Z" fill="#173449" stroke="#173449" stroke-miterlimit="10"/>
<path id="Vector_68" d="M59.6132 95.36C58.3492 95.36 57.3252 96.384 57.3252 97.648C57.3252 98.912 59.6132 101.459 59.6132 101.459C59.6132 101.459 61.9012 98.912 61.9012 97.648C61.9012 96.384 60.8772 95.36 59.6132 95.36ZM59.6132 98.6528C59.0564 98.6528 58.6052 98.2016 58.6052 97.6448C58.6052 97.088 59.0564 96.6368 59.6132 96.6368C60.17 96.6368 60.6212 97.088 60.6212 97.6448C60.6212 98.2016 60.17 98.6528 59.6132 98.6528Z" fill="#173449" stroke="#173449" stroke-miterlimit="10"/>
</g>
<g id="Character">
<path id="Vector_69" d="M86.7391 46.1215C86.7391 46.1215 86.5407 64.1343 86.5407 67.1135C86.5407 70.0927 86.2911 72.9695 86.2911 72.9695C86.2911 72.9695 87.1839 73.6159 87.0367 74.3583C86.8863 75.1039 86.3423 76.1951 86.3423 76.1951C86.3423 76.1951 85.6479 76.0447 85.2991 76.1439C84.9503 76.2431 82.8671 77.1871 82.5215 77.1871C82.1759 77.1871 82.0255 77.4847 81.9263 76.5407C81.8271 75.5967 81.7759 74.9535 81.8271 74.0095C81.8783 73.0655 82.1759 71.7759 82.1759 71.7759L80.0927 48.9983L79.5967 71.1807C79.5967 71.1807 79.6959 72.5215 79.8463 72.7679C79.9967 73.0175 80.2431 73.6607 80.2431 73.9103C80.2431 74.1599 79.7951 76.4895 79.5967 76.5887C79.3983 76.6879 78.8031 77.0367 78.8031 77.0367C78.8031 77.0367 78.4063 76.9375 77.8591 76.2431C77.3119 75.5487 76.0223 75.5967 75.7759 75.6959L75.5263 75.7951C75.5263 75.7951 74.7807 74.9023 74.6335 74.2559C74.4831 73.6095 75.4783 73.5615 75.4271 71.8239C75.3759 70.0863 73.8879 55.3471 73.8879 55.3471L73.5391 45.4207L86.8383 45.0239L86.7391 46.1151V46.1215Z" fill="#173449" stroke="#173449" stroke-miterlimit="10"/>
<path id="Vector_70" d="M81.5297 23.0944L76.2209 23.4432L76.0225 46.1216C76.0225 46.1216 76.4193 46.4704 79.6961 46.5184C82.9729 46.5664 83.6673 46.1696 83.6673 46.1696L81.5329 23.0944H81.5297Z" fill="white" stroke="#173449" stroke-miterlimit="10"/>
<path id="Vector_71" d="M81.203 11.9263C81.203 11.9263 82.5022 13.7599 82.4798 14.0383C82.4574 14.3167 82.3166 14.8511 82.3166 14.8511C82.3166 14.8511 83.731 16.3135 83.5934 16.4287C83.4558 16.5439 82.8062 17.1007 82.8062 17.1007C82.8062 17.1007 82.8286 18.4703 82.8286 18.6783C82.8286 18.8863 83.1294 19.4207 83.0366 19.6287C82.9438 19.8367 82.7582 20.1375 82.595 20.2783C82.4318 20.4191 81.251 20.3935 81.251 20.3935L81.2286 22.2719C81.2286 22.2719 81.4366 23.4559 81.251 23.8719C81.0654 24.2879 80.531 24.6143 79.187 24.6847C77.843 24.7551 77.187 24.2975 76.7934 23.9711C76.3998 23.6479 76.451 20.6463 76.4286 20.1823C76.4062 19.7183 76.3838 18.8383 76.1278 18.4415C75.8718 18.0479 74.2014 15.2415 73.923 14.5439C73.6446 13.8495 73.6222 13.1295 74.1534 12.5023C74.6878 11.8751 75.3598 11.5967 75.4302 11.2511C75.5006 10.9023 75.4302 10.5567 75.939 10.3935C76.4478 10.2303 77.075 10.3231 77.075 10.3231C77.075 10.3231 78.0478 9.13914 78.5598 9.27994L79.0686 9.41754C79.0686 9.41754 80.483 9.02394 81.2254 9.64794C81.9678 10.2751 82.131 11.2703 81.203 11.9199V11.9263Z" fill="white" stroke="#173449" stroke-miterlimit="10"/>
<path id="Vector_72" d="M81.4688 15.2063C81.4688 15.5039 81.5615 15.7439 81.6735 15.7439C81.7855 15.7439 81.8783 15.5039 81.8783 15.2063C81.8783 14.9087 81.7855 14.6687 81.6735 14.6687C81.5615 14.6687 81.4688 14.9087 81.4688 15.2063Z" fill="#173449" stroke="#173449" stroke-miterlimit="10"/>
<path id="Vector_73" d="M75.4278 11.2543C75.4982 10.9055 75.4278 10.5599 75.9366 10.3967C76.4454 10.2335 77.0726 10.3263 77.0726 10.3263C77.0726 10.3263 78.0454 9.14232 78.5574 9.28312L79.0662 9.42072C79.0662 9.42072 80.4806 9.02712 81.223 9.65112C81.9654 10.2783 82.1286 11.2735 81.2006 11.9231C81.2006 11.9231 78.6502 12.2015 78.951 12.6655C79.2518 13.1295 79.415 13.5007 79.159 13.6383C78.903 13.7759 77.7446 14.3583 77.8598 14.6367C77.975 14.9151 78.0902 15.6575 77.9302 15.7023C77.767 15.7471 77.7926 15.6575 77.303 15.2863C76.8134 14.9151 76.2374 15.1935 76.167 15.9359C76.0966 16.6783 76.7014 17.1423 76.9542 17.1871C77.2102 17.2319 77.0694 18.1375 76.583 18.4863C76.487 18.5567 76.3622 18.6175 76.2246 18.6687C76.1958 18.5823 76.1606 18.5055 76.119 18.4415C75.863 18.0479 74.1926 15.2415 73.9142 14.5439C73.6358 13.8495 73.6134 13.1295 74.1446 12.5023C74.679 11.8751 75.351 11.5967 75.4214 11.2511L75.4278 11.2543Z" fill="#173449" stroke="#173449" stroke-miterlimit="10"/>
<path id="Vector_74" d="M82.5699 17.8175C82.5699 17.8175 81.5267 18.0031 80.9219 17.2607" stroke="#173449" stroke-miterlimit="10"/>
<path id="Vector_75" d="M81.2487 20.3936L79.1143 19.7216L81.2039 21.8336L81.2487 20.3936Z" fill="#173449" stroke="#173449" stroke-miterlimit="10"/>
<path id="Vector_76" d="M81.968 14.0255C81.968 14.0255 81.216 13.6095 80.7744 14.2335" stroke="#173449" stroke-miterlimit="10"/>
<path id="Vector_77" d="M86.915 31.7344C86.915 31.7344 89.811 36.5856 89.8878 37.5264C89.9646 38.464 88.3614 41.6736 87.891 41.792C87.4206 41.9104 86.0926 40.384 85.9358 39.7568C85.779 39.1296 85.5454 32.048 85.8174 31.4208C86.0926 30.7936 86.9118 31.7344 86.9118 31.7344H86.915Z" fill="#173449" stroke="#173449" stroke-miterlimit="10"/>
<path id="Vector_78" d="M82.1124 23.0303L84.8868 23.2447C84.8868 23.2447 86.4164 22.8895 86.8804 23.0303C87.3444 23.1711 93.8916 25.6991 94.602 26.1983C95.3124 26.6975 95.2068 28.5119 95.0276 29.2575C94.8484 30.0063 94.2084 30.1823 93.8884 30.2175C93.5684 30.2527 86.9476 29.8271 86.9476 29.8271L88.6564 47.1583L85.098 48.3327L82.57 48.6527L81.3252 27.0495L82.1092 23.0271L82.1124 23.0303Z" fill="#08BD80" stroke="#173449" stroke-miterlimit="10"/>
<path id="Vector_79" d="M81.2036 21.8335L82.1124 23.0303C82.1124 23.0303 82.218 24.8447 81.9716 25.5935C81.722 26.3423 81.3316 27.0527 81.3316 27.0527L80.1924 24.4191C80.1924 24.4191 81.0404 23.0559 81.2036 21.8335Z" fill="#08BD80" stroke="#173449" stroke-miterlimit="10"/>
<path id="Vector_80" d="M76.8099 27.7279L77.1331 48.7167C77.1331 48.7167 74.0035 48.3647 72.9859 47.9327C71.9683 47.5007 71.2643 47.1103 71.2643 47.1103C71.2643 47.1103 72.2819 39.4399 72.3203 38.8159C72.3587 38.1887 72.3587 37.6799 72.3587 37.6799C72.3587 37.6799 70.0515 38.5023 69.1907 38.2271C68.3299 37.9519 68.2115 37.0527 68.2915 35.9199C68.3683 34.7839 68.3139 34.2271 68.3139 34.0319C68.3139 33.8367 68.5475 30.5919 69.4883 28.1663C70.4259 25.7407 69.8595 25.6671 70.5251 25.2351C71.1907 24.8031 76.0419 23.0815 76.0419 23.0815L76.5891 24.2175L76.8131 27.7247L76.8099 27.7279Z" fill="#08BD80" stroke="#173449" stroke-miterlimit="10"/>
<path id="Vector_81" d="M73.1045 24.2592C73.1045 24.2592 73.8085 32.5536 72.9861 35.2928L71.6933 35.3312C71.7765 36.2784 72.3589 34.5888 72.5157 29.3824C72.5829 27.152 71.5781 24.7648 71.5781 24.7648C71.5781 24.7648 72.5157 24.3744 73.1045 24.256V24.2592Z" fill="#173449" stroke="#173449" stroke-miterlimit="10"/>
<path id="Vector_82" d="M76.525 21.9615C76.525 21.9615 76.989 23.1359 77.2738 23.7407C77.5586 24.3455 77.773 24.7359 77.773 24.7359L76.813 27.7247C76.813 27.7247 76.0642 25.6607 75.9234 24.3071C75.7826 22.9535 75.6514 23.1615 75.6514 23.1615C75.6514 23.1615 76.2786 21.7087 76.5282 21.9583L76.525 21.9615Z" fill="#08BD80" stroke="#173449" stroke-miterlimit="10"/>
<path id="Vector_83" d="M86.1695 18.0479C86.1695 18.0479 85.5647 17.8335 85.3503 17.6575C85.1359 17.4783 84.7103 16.8031 84.5663 16.6623C84.4255 16.5215 83.7151 16.7679 83.5903 16.4319C83.4623 16.0927 83.3951 15.7503 83.8207 15.8527C84.2463 15.9519 85.0847 15.9871 85.0847 15.9871L84.4159 13.8015L87.4847 13.8207C87.4847 13.8207 88.3743 16.8447 88.3743 17.0943C88.3743 17.3439 88.2335 17.9135 88.2335 17.9135C88.2335 17.9135 92.4319 22.6111 93.3215 23.7855C94.2111 24.9599 95.3151 26.5599 95.4207 27.1679C95.5263 27.7727 95.2063 29.6959 94.4607 29.9423C93.7151 30.1887 93.0367 29.9071 92.2527 29.1583C91.4687 28.4095 89.1199 23.6063 89.0143 23.4271C88.9087 23.2479 87.0911 18.7647 86.9855 18.6239C86.8799 18.4831 86.1663 18.0543 86.1663 18.0543L86.1695 18.0479Z" fill="white" stroke="#173449" stroke-miterlimit="10"/>
<path id="Vector_84" d="M84.6079 23.28C84.6079 23.28 85.5071 29.1488 86.4863 32.0448C87.4655 34.9408 88.2847 36.7808 88.2847 36.7808L87.8527 39.3248C87.8527 39.3248 86.2495 36.5472 84.9183 32.7904C83.5871 29.0336 82.8447 23.1648 82.8447 23.1648L84.6047 23.2832L84.6079 23.28Z" fill="#173449" stroke="#173449" stroke-miterlimit="10"/>
<path id="Vector_85" d="M76.7749 28.9056L77.8309 38.2784L71.8085 37.5648L70.2373 28.224L76.7749 28.9056Z" fill="white" stroke="#173449" stroke-miterlimit="10"/>
<path id="Vector_86" d="M75.9998 28.9567L77.9166 38.1887L71.8494 38.0319L69.4238 28.8767L75.9998 28.9567Z" fill="white" stroke="#173449" stroke-miterlimit="10"/>
<path id="Vector_87" d="M70.128 34.2783C70.128 34.2783 71.4208 34.9823 72.1632 35.2575C72.9056 35.5327 73.5328 35.4527 74.1184 35.1807C74.704 34.9055 75.0176 34.5151 75.0176 34.5151C75.0176 34.5151 75.2128 33.4591 75.4496 33.3023C75.6832 33.1455 76.2336 33.0271 76.4672 32.6751C76.7008 32.3231 76.8192 32.3615 76.8992 32.7135C76.976 33.0655 77.056 33.4559 76.8224 33.6127C76.5888 33.7695 76.5472 34.0031 76.5472 34.0031C76.5472 34.0031 76.5856 34.2783 76.8992 34.1599C77.2128 34.0415 77.408 33.6511 77.7216 33.7695C78.0352 33.8879 78.1504 34.1215 78.0352 34.3967C77.9168 34.6719 77.7216 34.9439 77.7216 34.9439C77.7216 34.9439 78.112 35.8431 77.9168 36.4319C77.7216 37.0175 76.7424 37.3695 76.272 37.4111C75.8016 37.4495 74.4736 37.4879 74.4736 37.4879C74.4736 37.4879 72.5568 38.1151 71.3824 38.4671C70.208 38.8191 69.856 38.7423 69.1904 38.2335C68.5248 37.7247 68.2112 36.8639 68.4864 35.9263C68.7616 34.9887 69.072 34.4799 70.1312 34.2815L70.128 34.2783Z" fill="white" stroke="#173449" stroke-miterlimit="10"/>
<path id="Vector_88" d="M86.0451 75.4527C86.0451 75.4527 86.6915 76.9919 86.8387 77.2895C86.9891 77.5871 87.4339 78.1343 88.1795 78.5791C88.9251 79.0271 89.8179 79.3247 89.6195 79.7215C89.4211 80.1183 88.5283 80.2175 87.7827 80.3167C87.0371 80.4159 85.3027 80.1183 84.6051 80.1183C83.9075 80.1183 82.3715 79.8687 82.2243 79.5231C82.0739 79.1743 82.2723 76.6943 82.2723 76.6943C82.2723 76.6943 83.4147 75.4047 86.0451 75.4527Z" fill="white" stroke="#173449" stroke-miterlimit="10"/>
<path id="Vector_89" d="M82.2239 79.52C82.1759 79.4112 82.1663 79.0944 82.1695 78.7072L83.9551 79.2383C83.9551 79.2383 85.8271 79.7152 87.2927 79.7824C88.3711 79.8336 89.2063 79.568 89.5743 79.4272C89.6479 79.52 89.6703 79.6159 89.6191 79.7183C89.4207 80.1151 88.5279 80.2143 87.7823 80.3135C87.0367 80.4127 85.3023 80.1152 84.6047 80.1152C83.9071 80.1152 82.3711 79.8656 82.2239 79.52Z" fill="white" stroke="#173449" stroke-miterlimit="10"/>
<path id="Vector_90" d="M78.9539 76.8127C78.9539 76.8127 78.8099 79.3823 78.7715 79.5583C78.7363 79.7311 78.5539 79.8719 78.0483 79.9391C77.5427 80.0095 77.3251 79.9743 77.0339 80.1119C76.7427 80.2495 76.1283 80.5631 74.3907 80.5631C72.6531 80.5631 72.1091 80.2495 72.3267 79.6255C72.5443 79.0015 74.2083 77.7855 74.6083 77.2991C75.0051 76.8127 75.4531 75.7695 75.4531 75.7695C75.4531 75.7695 75.9491 75.3535 76.9251 75.5615C77.9043 75.7695 78.1571 76.1535 78.2659 76.3263C78.3747 76.4991 78.9539 76.8127 78.9539 76.8127Z" fill="white" stroke="#173449" stroke-miterlimit="10"/>
<path id="Vector_91" d="M72.3264 79.6288C72.3392 79.5904 72.3584 79.552 72.3808 79.5104C72.5088 79.648 72.6976 79.808 72.9792 79.9424C73.632 80.256 76.2016 80.08 76.7808 79.7696C77.2736 79.504 78.4704 79.1392 78.8192 79.0336C78.8 79.312 78.784 79.5168 78.7744 79.5616C78.7392 79.7344 78.5568 79.8752 78.0512 79.9424C77.5456 80.0128 77.328 79.9776 77.0368 80.1152C76.7456 80.2528 76.1312 80.5664 74.3936 80.5664C72.656 80.5664 72.112 80.2528 72.3296 79.6288H72.3264Z" fill="white" stroke="#173449" stroke-miterlimit="10"/>
<path id="Vector_92" d="M83.6159 14.2847L85.9839 14.1279V15.9807L83.6159 15.8239C83.5039 15.8239 83.4111 15.4783 83.4111 15.0527C83.4111 14.6271 83.5039 14.2815 83.6159 14.2815V14.2847Z" fill="white" stroke="#173449" stroke-miterlimit="10"/>
<path id="Vector_93" d="M82.9667 14.0991H83.7123C83.7955 14.0991 83.8563 14.1823 83.8243 14.2623C83.7571 14.4351 83.7123 14.7231 83.7123 15.0527C83.7123 15.3823 83.7571 15.6735 83.8243 15.8431C83.8563 15.9231 83.7987 16.0063 83.7123 16.0063H82.9667C82.8259 16.0063 82.7139 15.5775 82.7139 15.0527C82.7139 14.5279 82.8259 14.0991 82.9667 14.0991Z" fill="white" stroke="#173449" stroke-miterlimit="10"/>
<path id="Vector_94" d="M85.3155 13.7952L90.4579 13.5392V16.5728L85.3155 16.3168C85.1299 16.3168 84.9795 15.7536 84.9795 15.056C84.9795 14.3584 85.1299 13.7952 85.3155 13.7952Z" fill="white" stroke="#173449" stroke-miterlimit="10"/>
<path id="Vector_95" d="M90.0547 15.056C90.0547 15.8944 90.2339 16.5728 90.4579 16.5728C90.6819 16.5728 90.8611 15.8944 90.8611 15.056C90.8611 14.2176 90.6819 13.5392 90.4579 13.5392C90.2339 13.5392 90.0547 14.2176 90.0547 15.056Z" fill="white" stroke="#173449" stroke-miterlimit="10"/>
<path id="Vector_96" d="M82.7175 14.2847L85.0855 14.1279V15.9807L82.7175 15.8239C82.6055 15.8239 82.5127 15.4783 82.5127 15.0527C82.5127 14.6271 82.6055 14.2815 82.7175 14.2815V14.2847Z" fill="#173449" stroke="#173449" stroke-miterlimit="10"/>
<path id="Vector_97" d="M82.0673 14.0991H82.8129C82.8961 14.0991 82.9569 14.1823 82.9249 14.2623C82.8577 14.4351 82.8129 14.7231 82.8129 15.0527C82.8129 15.3823 82.8577 15.6735 82.9249 15.8431C82.9569 15.9231 82.8993 16.0063 82.8129 16.0063H82.0673C81.9265 16.0063 81.8145 15.5775 81.8145 15.0527C81.8145 14.5279 81.9265 14.0991 82.0673 14.0991Z" fill="white" stroke="#173449" stroke-miterlimit="10"/>
<path id="Vector_98" d="M84.4161 13.7952L89.5585 13.5392V16.5728L84.4161 16.3168C84.2305 16.3168 84.0801 15.7536 84.0801 15.056C84.0801 14.3584 84.2305 13.7952 84.4161 13.7952Z" fill="#173449" stroke="#173449" stroke-miterlimit="10"/>
<path id="Vector_99" d="M89.1553 15.056C89.1553 15.8944 89.3345 16.5728 89.5585 16.5728C89.7825 16.5728 89.9617 15.8944 89.9617 15.056C89.9617 14.2176 89.7825 13.5392 89.5585 13.5392C89.3345 13.5392 89.1553 14.2176 89.1553 15.056Z" fill="white" stroke="#173449" stroke-miterlimit="10"/>
<path id="Vector_100" d="M87.3983 13.6127C87.3983 13.6127 86.7359 12.9023 86.4895 12.9023C86.2431 12.9023 85.8527 13.5391 85.7791 13.6127C85.7055 13.6863 85.7535 13.8079 86.0255 13.8335C86.2943 13.8591 86.5887 13.6383 86.5887 13.6383L87.3983 13.6127Z" fill="white" stroke="#173449" stroke-miterlimit="10"/>
<path id="Vector_101" d="M86.4896 12.8992C86.4896 12.8992 85.6544 12.704 85.4592 12.752C85.264 12.8 84.896 13.6352 84.9696 13.76C85.0432 13.8848 85.7792 13.6128 85.7792 13.6128C85.7792 13.6128 86.2688 12.8768 86.4896 12.9024V12.8992Z" fill="white" stroke="#173449" stroke-miterlimit="10"/>
<path id="Vector_102" d="M85.2869 12.8255C85.2869 12.8255 84.8933 12.5791 84.6981 12.7519C84.5029 12.9247 84.0837 13.5135 84.1829 13.7343C84.2821 13.9551 84.9669 13.7599 84.9669 13.7599C84.9669 13.7599 85.1141 12.8991 85.2869 12.8255Z" fill="white" stroke="#173449" stroke-miterlimit="10"/>
<path id="Vector_103" d="M84.503 12.8991C84.503 12.8991 84.0134 12.7039 83.8406 12.8991C83.6678 13.0943 83.2262 13.7087 83.5206 13.8559C83.815 14.0031 84.1094 13.5615 84.1094 13.5615L84.503 12.8991Z" fill="white" stroke="#173449" stroke-miterlimit="10"/>
</g>
</g>
<defs>
<clipPath id="clip0_1078_210">
<rect width="160" height="160" fill="white"/>
</clipPath>
</defs>
</svg>
