<svg width="33" height="32" viewBox="0 0 33 32" fill="none" xmlns="http://www.w3.org/2000/svg">
<path d="M16.1687 6C13.4528 6 13.112 6.01188 12.0453 6.06042C10.9807 6.10917 10.2541 6.27771 9.61821 6.52501C8.9605 6.78042 8.40258 7.1221 7.84674 7.67814C7.29048 8.23398 6.94881 8.7919 6.69256 9.44941C6.44464 10.0855 6.27589 10.8123 6.22797 11.8765C6.18047 12.9432 6.16797 13.2842 6.16797 16.0001C6.16797 18.716 6.18005 19.0558 6.22839 20.1224C6.27735 21.187 6.44589 21.9137 6.69297 22.5495C6.9486 23.2073 7.29027 23.7652 7.84632 24.321C8.40195 24.8773 8.95987 25.2198 9.61717 25.4752C10.2534 25.7225 10.9803 25.891 12.0447 25.9398C13.1114 25.9883 13.452 26.0002 16.1677 26.0002C18.8837 26.0002 19.2235 25.9883 20.2902 25.9398C21.3548 25.891 22.0823 25.7225 22.7186 25.4752C23.3761 25.2198 23.9332 24.8773 24.4888 24.321C25.045 23.7652 25.3867 23.2073 25.643 22.5498C25.8888 21.9137 26.0576 21.1868 26.1076 20.1226C26.1555 19.056 26.168 18.716 26.168 16.0001C26.168 13.2842 26.1555 12.9434 26.1076 11.8767C26.0576 10.8121 25.8888 10.0855 25.643 9.44962C25.3867 8.7919 25.045 8.23398 24.4888 7.67814C23.9325 7.12189 23.3763 6.78022 22.7179 6.52501C22.0804 6.27771 21.3533 6.10917 20.2887 6.06042C19.2221 6.01188 18.8825 6 16.1658 6H16.1687ZM15.2716 7.8021C15.5379 7.80169 15.8349 7.8021 16.1687 7.8021C18.8387 7.8021 19.1552 7.81169 20.2096 7.8596C21.1846 7.90419 21.7138 8.0671 22.0663 8.20398C22.5329 8.38523 22.8656 8.6019 23.2154 8.95191C23.5654 9.30191 23.7821 9.63525 23.9638 10.1019C24.1007 10.454 24.2638 10.9832 24.3082 11.9582C24.3561 13.0124 24.3665 13.329 24.3665 15.9978C24.3665 18.6666 24.3561 18.9833 24.3082 20.0374C24.2636 21.0124 24.1007 21.5416 23.9638 21.8937C23.7825 22.3604 23.5654 22.6927 23.2154 23.0425C22.8654 23.3925 22.5331 23.6091 22.0663 23.7904C21.7142 23.9279 21.1846 24.0904 20.2096 24.135C19.1554 24.1829 18.8387 24.1933 16.1687 24.1933C13.4985 24.1933 13.182 24.1829 12.1278 24.135C11.1528 24.09 10.6236 23.9271 10.2709 23.7902C9.80426 23.6089 9.47092 23.3923 9.12092 23.0423C8.77091 22.6923 8.55424 22.3598 8.37258 21.8929C8.2357 21.5408 8.07257 21.0116 8.0282 20.0366C7.98028 18.9824 7.9707 18.6658 7.9707 15.9953C7.9707 13.3249 7.98028 13.0099 8.0282 11.9557C8.07278 10.9807 8.2357 10.4515 8.37258 10.099C8.55383 9.63233 8.77091 9.29899 9.12092 8.94899C9.47092 8.59899 9.80426 8.38232 10.2709 8.20065C10.6234 8.06315 11.1528 7.90065 12.1278 7.85585C13.0503 7.81419 13.4078 7.80169 15.2716 7.7996V7.8021ZM21.5067 9.46254C21.2693 9.46254 21.0373 9.53293 20.8399 9.6648C20.6426 9.79668 20.4888 9.98412 20.398 10.2034C20.3071 10.4227 20.2834 10.664 20.3297 10.8968C20.3761 11.1296 20.4904 11.3434 20.6583 11.5112C20.8261 11.679 21.04 11.7933 21.2728 11.8396C21.5056 11.8858 21.7469 11.862 21.9662 11.7711C22.1854 11.6802 22.3728 11.5263 22.5046 11.3289C22.6365 11.1315 22.7068 10.8995 22.7067 10.6621C22.7067 9.99962 22.1692 9.46212 21.5067 9.46212V9.46254ZM16.1687 10.8646C13.3326 10.8646 11.0332 13.164 11.0332 16.0001C11.0332 18.8362 13.3326 21.1345 16.1687 21.1345C19.0048 21.1345 21.3035 18.8362 21.3035 16.0001C21.3035 13.164 19.0046 10.8646 16.1685 10.8646H16.1687ZM16.1687 12.6667C18.0096 12.6667 19.5021 14.159 19.5021 16.0001C19.5021 17.841 18.0096 19.3335 16.1687 19.3335C14.3276 19.3335 12.8353 17.841 12.8353 16.0001C12.8353 14.159 14.3276 12.6667 16.1687 12.6667Z" fill="white"/>
</svg>
