<svg width="33" height="32" viewBox="0 0 33 32" fill="none" xmlns="http://www.w3.org/2000/svg">
<path d="M6.16797 7.43266C6.16797 6.64187 6.83 6 7.64609 6H24.6898C25.5063 6 26.168 6.64187 26.168 7.43266V24.5676C26.168 25.3586 25.5063 26 24.6898 26H7.64609C6.83008 26 6.16797 25.3587 6.16797 24.5678V7.43242V7.43266Z" fill="white"/>
<path d="M12.892 21.9997V13.9031H10.3196V21.9997H12.8923H12.892ZM11.6063 12.7978C12.5032 12.7978 13.0616 12.1761 13.0616 11.3991C13.0448 10.6044 12.5032 10 11.6234 10C10.743 10 10.168 10.6044 10.168 11.399C10.168 12.176 10.7261 12.7977 11.5895 12.7977H11.6061L11.6063 12.7978ZM14.3159 21.9997H16.8881V17.4787C16.8881 17.237 16.9049 16.9947 16.9728 16.8221C17.1587 16.3384 17.582 15.8377 18.2928 15.8377C19.2233 15.8377 19.5958 16.5801 19.5958 17.6687V21.9997H22.168V17.3573C22.168 14.8705 20.8991 13.7132 19.2067 13.7132C17.8191 13.7132 17.2097 14.5246 16.8712 15.0772H16.8883V13.9033H14.316C14.3496 14.6629 14.3158 22 14.3158 22L14.3159 21.9997Z" fill="#071C2C"/>
</svg>
