<svg width="97" height="48" viewBox="0 0 97 48" fill="none" xmlns="http://www.w3.org/2000/svg">
<g clip-path="url(#clip0_1245_2452)">
<path d="M47.3549 12.6367C47.6696 14.0111 47.6114 15.7071 47.6114 15.7071L46.3873 16.1903C46.3873 16.1903 45.6368 19.3279 50.3663 18.3663C51.2851 18.1791 53.9456 16.1247 53.9456 16.1247L51.8421 15.5135C51.8421 15.5135 51.6407 12.4047 51.5604 10.8591C50.4544 11.3823 48.6812 12.2143 47.3549 12.6367Z" fill="white"/>
<path d="M48.7539 18.6352C47.8414 18.6352 47.168 18.4096 46.7448 17.9616C46.0619 17.2384 46.2964 16.2144 46.3074 16.1712C46.3137 16.144 46.3326 16.1216 46.3577 16.112L47.5299 15.6496C47.5362 15.3456 47.5503 13.8656 47.2734 12.6576C47.264 12.6144 47.2876 12.5712 47.33 12.5568C48.702 12.1216 50.6089 11.2176 51.5246 10.784C51.5497 10.7728 51.5796 10.7744 51.6032 10.7888C51.6268 10.8032 51.6426 10.8288 51.6441 10.8576C51.7165 12.2672 51.8943 15.0128 51.9226 15.4512L53.9695 16.0464C53.9994 16.056 54.023 16.08 54.0293 16.112C54.0356 16.144 54.023 16.176 53.9978 16.1952C53.8893 16.28 51.3122 18.264 50.3855 18.4512C49.7782 18.5744 49.2338 18.6368 48.7555 18.6368L48.7539 18.6352ZM46.4616 16.2528C46.427 16.4464 46.3215 17.2672 46.8675 17.8448C47.4716 18.4832 48.6438 18.6304 50.3524 18.2832C51.1249 18.1264 53.2127 16.576 53.7634 16.16L51.8219 15.5952C51.7873 15.5856 51.7637 15.5552 51.7621 15.5184C51.7606 15.488 51.5702 12.5536 51.4868 10.9888C50.5475 11.4336 48.7775 12.264 47.4559 12.6928C47.7501 14.048 47.6982 15.6928 47.6982 15.7088C47.6982 15.7424 47.6762 15.7728 47.6447 15.7856L46.4631 16.2528H46.4616Z" fill="black"/>
<path d="M44.4589 3.98389C44.0262 4.08949 43.5951 3.64469 43.5873 3.17429C43.5794 2.70389 43.9035 2.27829 44.3015 2.07189C44.6996 1.86549 45.159 1.84149 45.6074 1.77589C45.4391 1.31989 45.6515 0.771088 46.0243 0.479888C46.3972 0.187088 46.8881 0.118288 47.3475 0.175888C47.648 0.212688 47.9517 0.305488 48.1893 0.505488C48.4268 0.703888 48.5889 1.02549 48.5763 1.36789C48.9775 0.854289 49.6241 0.508688 50.233 0.657488C50.8435 0.806288 51.3029 1.56309 51.3485 2.08469C51.6459 1.71509 52.0329 1.40949 52.4907 1.43509C53.397 1.48469 53.6015 2.26869 53.194 3.27669C53.677 3.03509 54.3961 3.24629 54.6258 3.95989C54.7973 4.49109 54.6053 5.33589 54.2419 5.75189C54.1789 5.82389 54.0877 5.89429 53.976 5.95829C53.8344 6.74709 53.6582 7.57269 53.3907 8.61429C53.1972 9.36629 52.8636 10.1999 52.4719 10.8863C52.2878 11.2095 52.1446 11.3647 51.7733 11.5407C51.7529 11.2143 51.4177 11.0527 51.3658 10.7279C51.3013 10.3279 51.5546 9.97749 51.3186 9.62229C50.8671 8.94869 50.5603 8.20949 50.4171 7.45109C50.2991 6.82869 50.2944 6.17269 50.5839 5.59829C50.6861 5.39349 50.834 5.20149 51.0118 5.03669C50.9316 4.87509 50.8702 4.71029 50.8199 4.54869C50.554 5.01269 50.3605 5.33109 49.6949 5.55349C49.2088 5.71509 48.6329 5.51829 48.4693 5.04789C48.3655 5.52309 47.6402 6.19349 47.1823 6.24149C46.7261 6.28789 46.5546 6.07509 46.3705 5.62869C45.9646 5.99349 45.6609 6.36629 45.2487 6.52629C44.6162 6.76949 43.8343 6.36789 43.625 5.69109C43.4158 5.01429 43.8185 4.19349 44.462 3.98549L44.4589 3.98389Z" fill="#FFD42E"/>
<path d="M51.7701 11.6256C51.756 11.6256 51.7402 11.6224 51.7276 11.6144C51.704 11.6 51.6883 11.5744 51.6867 11.5472C51.6773 11.4032 51.5923 11.2912 51.5011 11.1728C51.4067 11.048 51.3091 10.92 51.2808 10.7424C51.2525 10.5696 51.2792 10.4112 51.3044 10.2576C51.339 10.0432 51.3705 9.85761 51.2462 9.67201C50.7868 8.98401 50.4784 8.24321 50.3305 7.46881C50.1858 6.70561 50.2424 6.08321 50.5052 5.56161C50.6027 5.36801 50.7412 5.18081 50.9064 5.01921C50.867 4.93441 50.8308 4.84641 50.7962 4.75201C50.5744 5.12801 50.3415 5.42721 49.7169 5.63521C49.2308 5.79681 48.7178 5.63201 48.4771 5.26401C48.2537 5.74241 47.6228 6.28161 47.187 6.32641C46.7244 6.37441 46.5183 6.17121 46.3374 5.77121C46.2682 5.83521 46.2021 5.89921 46.1376 5.96161C45.8607 6.22881 45.6011 6.48001 45.2738 6.60641C44.9592 6.72801 44.5878 6.70401 44.259 6.54081C43.9129 6.36961 43.6517 6.06881 43.5416 5.71681C43.3528 5.10561 43.625 4.39681 44.1284 4.05601C44.0419 4.02881 43.9569 3.98241 43.8767 3.92001C43.6517 3.74241 43.5085 3.45921 43.5038 3.17921C43.4944 2.64161 43.8783 2.20001 44.2637 2.00001C44.602 1.82561 44.9812 1.77601 45.3478 1.72961C45.3981 1.72321 45.4485 1.71681 45.4988 1.71041C45.3871 1.26561 45.5806 0.726407 45.974 0.417607C46.3248 0.142407 46.8157 0.0288062 47.3585 0.0960062C47.7251 0.142406 48.0224 0.259207 48.2427 0.443207C48.4614 0.625607 48.6046 0.883206 48.647 1.16001C49.1017 0.673606 49.7138 0.448006 50.2534 0.579206C50.8198 0.716806 51.2777 1.34561 51.4035 1.89761C51.7497 1.51681 52.1162 1.33441 52.4954 1.35521C52.8762 1.37601 53.1641 1.52481 53.3261 1.78561C53.526 2.10721 53.5291 2.58241 53.3372 3.13761C53.5653 3.07681 53.8186 3.09441 54.0467 3.19201C54.3582 3.32641 54.5927 3.59041 54.7044 3.93921C54.8822 4.49121 54.6949 5.36641 54.3032 5.81441C54.2402 5.88641 54.1553 5.95361 54.0499 6.01761C53.8988 6.85601 53.7148 7.69121 53.4709 8.64001C53.2726 9.41121 52.9344 10.2464 52.5426 10.9328C52.3585 11.256 52.2075 11.432 51.8063 11.6224C51.7953 11.6272 51.7827 11.6304 51.7717 11.6304L51.7701 11.6256ZM50.8151 4.46241C50.8151 4.46241 50.8214 4.46241 50.8245 4.46241C50.8576 4.46561 50.8843 4.48961 50.8953 4.52161C50.9504 4.69921 51.0118 4.85441 51.0826 4.99841C51.0999 5.03201 51.092 5.07361 51.0637 5.09921C50.8922 5.25761 50.7506 5.44321 50.653 5.63681C50.4092 6.12321 50.3573 6.71041 50.4941 7.43521C50.6373 8.18721 50.9362 8.90721 51.3831 9.57441C51.5436 9.81601 51.5058 10.0528 51.468 10.2832C51.4444 10.424 51.4208 10.568 51.4444 10.7136C51.4665 10.848 51.5467 10.9552 51.6332 11.0672C51.7135 11.1712 51.7953 11.28 51.833 11.4144C52.1225 11.2608 52.2437 11.1104 52.3979 10.8432C52.7818 10.1696 53.1137 9.35041 53.3088 8.59361C53.5543 7.63361 53.7399 6.79201 53.8925 5.94401C53.8973 5.91841 53.9114 5.89761 53.9334 5.88481C54.0373 5.82561 54.1222 5.76001 54.1789 5.69601C54.5297 5.29441 54.7044 4.48001 54.5455 3.98721C54.4495 3.68641 54.2481 3.45761 53.9822 3.34401C53.7352 3.23841 53.4536 3.24161 53.2302 3.35361C53.1987 3.36961 53.1625 3.36321 53.1358 3.33921C53.1106 3.31521 53.1027 3.27681 53.1153 3.24481C53.3497 2.66561 53.3733 2.17921 53.183 1.87201C53.0492 1.65601 52.8148 1.53761 52.4844 1.52001C52.1178 1.49921 51.7575 1.70721 51.4114 2.13921C51.3894 2.16641 51.3548 2.17601 51.3217 2.16641C51.2887 2.15681 51.2666 2.12801 51.2635 2.09281C51.2226 1.62561 50.8025 0.883206 50.2109 0.739206C49.6792 0.609606 49.0624 0.876807 48.6392 1.41921C48.6172 1.44801 48.5794 1.45921 48.5448 1.44641C48.5117 1.43361 48.4897 1.40001 48.4897 1.36321C48.5007 1.06721 48.3638 0.761606 48.1341 0.568006C47.939 0.403206 47.67 0.299207 47.3349 0.257607C46.8361 0.195207 46.3893 0.297606 46.0731 0.545606C45.7049 0.835206 45.5366 1.35041 45.6829 1.74561C45.6923 1.76961 45.6892 1.79681 45.6766 1.81921C45.664 1.84161 45.642 1.85601 45.6168 1.86081C45.5334 1.87361 45.45 1.88321 45.3666 1.89441C44.9985 1.94241 44.6492 1.98561 44.3377 2.14721C43.9994 2.32321 43.6612 2.70721 43.669 3.17281C43.6737 3.40321 43.7917 3.63681 43.9774 3.78241C44.1221 3.89601 44.2858 3.93761 44.4384 3.90081C44.4824 3.88961 44.5265 3.91681 44.5375 3.96001C44.5501 4.00481 44.5249 4.04961 44.4824 4.06401C43.8846 4.25601 43.5038 5.03201 43.6989 5.66241C43.7949 5.97121 44.0246 6.23361 44.3298 6.38561C44.6193 6.52801 44.9403 6.55041 45.2125 6.44481C45.5082 6.33121 45.7458 6.10081 46.0212 5.83521C46.1124 5.74721 46.2084 5.65441 46.3106 5.56321C46.3311 5.54561 46.3578 5.53761 46.3846 5.54401C46.4113 5.55041 46.4318 5.56801 46.4428 5.59361C46.6174 6.01601 46.7638 6.19681 47.1681 6.15361C47.5945 6.11041 48.2852 5.46721 48.3812 5.02721C48.389 4.99041 48.4205 4.96321 48.4582 4.96161C48.496 4.95841 48.529 4.98241 48.5416 5.01761C48.6958 5.46081 49.2449 5.60961 49.6634 5.47041C50.3132 5.25441 50.4926 4.93921 50.7427 4.50401C50.7585 4.47841 50.7852 4.46241 50.8151 4.46241Z" fill="black"/>
<path d="M45.1589 6.62552C45.1589 6.60152 45.1589 6.57752 45.1589 6.55192C45.1872 6.54392 45.214 6.53432 45.2423 6.52472C45.6561 6.36472 45.9597 5.99352 46.3641 5.62712C46.5482 6.07192 46.7197 6.28632 47.1759 6.23992C47.6322 6.19352 48.3591 5.52152 48.4629 5.04632C48.6265 5.51672 49.204 5.71352 49.6885 5.55192C50.3541 5.32952 50.5476 5.01112 50.8135 4.54712C50.9582 5.01112 51.1942 5.50552 51.693 5.86872C51.8755 6.00152 52.0737 6.09272 52.2782 6.14872C52.2861 6.23992 52.294 6.32792 52.3034 6.41272C52.338 6.72472 52.4183 7.40472 52.3475 8.09112C52.8651 7.65432 53.2946 7.72792 53.6156 8.05752C53.9365 8.38712 53.9114 8.91032 53.5967 9.23672C53.282 9.56152 52.7298 9.68632 52.2436 9.58072C52.1178 10.4127 51.9305 12.0783 51.361 12.8143C50.7568 13.5967 49.6885 14.0991 48.5825 14.1167C47.478 14.1359 46.3657 13.6703 45.6907 12.9087C44.9261 12.0431 44.7546 10.8991 44.8191 9.82712C44.8836 8.75512 45.1542 7.69752 45.1573 6.62232L45.1589 6.62552Z" fill="white"/>
<path d="M48.52 14.2048C47.4108 14.2048 46.3094 13.7344 45.6313 12.9696C44.9595 12.2096 44.659 11.152 44.7393 9.82563C44.7676 9.35523 44.8368 8.88163 44.9029 8.42243C44.9878 7.83363 45.0759 7.22563 45.0775 6.62563C45.0775 6.60163 45.0775 6.57603 45.0775 6.55203C45.0775 6.51523 45.1027 6.48163 45.1373 6.47203C45.1625 6.46403 45.1892 6.45603 45.2144 6.44643C45.5102 6.33283 45.7478 6.10243 46.0231 5.83683C46.1143 5.74883 46.2103 5.65603 46.3126 5.56483C46.333 5.54723 46.3598 5.53923 46.3865 5.54563C46.4133 5.55203 46.4337 5.56963 46.4447 5.59523C46.6194 6.01763 46.7641 6.19843 47.1701 6.15523C47.5964 6.11203 48.2871 5.46883 48.3831 5.02883C48.391 4.99203 48.4224 4.96483 48.4602 4.96323C48.4979 4.96003 48.531 4.98403 48.5436 5.01923C48.6978 5.46243 49.2469 5.61123 49.6654 5.47203C50.3151 5.25603 50.4945 4.94083 50.7447 4.50563C50.762 4.47683 50.7934 4.46083 50.8265 4.46403C50.8595 4.46723 50.8863 4.49123 50.8973 4.52323C51.0121 4.88963 51.2245 5.42243 51.7469 5.80163C51.9121 5.92163 52.0993 6.01123 52.3054 6.06883C52.3385 6.07843 52.3636 6.10883 52.3668 6.14403C52.3746 6.24643 52.3825 6.32963 52.3919 6.40483V6.42563C52.4266 6.71843 52.4926 7.29763 52.4517 7.91203C52.897 7.60963 53.3281 7.63843 53.6805 8.00163C54.0282 8.35843 54.0188 8.92963 53.6616 9.29923C53.3564 9.61603 52.8262 9.76483 52.3196 9.68323C52.3101 9.74403 52.3007 9.80963 52.2913 9.87843C52.1575 10.8 51.9577 12.192 51.4338 12.8704C50.8123 13.6752 49.7236 14.1872 48.5908 14.2048C48.5687 14.2048 48.5467 14.2048 48.5247 14.2048H48.52ZM45.2427 6.61443C45.2427 6.61443 45.2427 6.62243 45.2427 6.62563C45.2411 7.23843 45.1515 7.85283 45.0665 8.44643C45.0004 8.90083 44.9328 9.37123 44.9045 9.83523C44.8274 11.1152 45.1137 12.1312 45.7541 12.8544C46.4133 13.6 47.4973 14.0512 48.5813 14.0336C49.6654 14.016 50.7053 13.528 51.2953 12.7632C51.7909 12.12 51.997 10.7008 52.1198 9.85123C52.1339 9.74883 52.1481 9.65443 52.1607 9.56963C52.1638 9.54723 52.1764 9.52643 52.1953 9.51203C52.2142 9.49923 52.2378 9.49443 52.2598 9.49923C52.7381 9.60163 53.251 9.47363 53.5358 9.17763C53.8284 8.87363 53.8378 8.40803 53.5562 8.11843C53.2242 7.77763 52.8356 7.79043 52.4014 8.15683C52.3746 8.17923 52.3385 8.18243 52.3086 8.16643C52.2787 8.15043 52.2614 8.11683 52.2645 8.08323C52.3337 7.42083 52.2598 6.76163 52.2236 6.44323V6.42243C52.2142 6.36003 52.2079 6.29283 52.2016 6.21443C51.9986 6.15043 51.8114 6.05763 51.6462 5.93763C51.1647 5.58723 50.9287 5.12163 50.795 4.74883C50.5732 5.12323 50.3403 5.42403 49.7157 5.63203C49.2295 5.79363 48.7166 5.62883 48.4759 5.26083C48.2525 5.73923 47.6216 6.27843 47.1858 6.32323C46.7232 6.37123 46.5171 6.16803 46.3362 5.76803C46.267 5.83203 46.2009 5.89603 46.1364 5.95843C45.8595 6.22563 45.5999 6.47683 45.2726 6.60323C45.2632 6.60643 45.2522 6.61123 45.2427 6.61443Z" fill="black"/>
<path d="M46.141 8.1823C46.1268 8.0495 46.226 7.9295 46.3628 7.9151C46.4997 7.8991 46.624 7.9935 46.6382 8.1263C46.6523 8.2591 46.5532 8.3791 46.4163 8.3935C46.2794 8.4095 46.1552 8.3151 46.141 8.1823Z" fill="black"/>
<path d="M49.6254 8.37292C49.6112 8.24012 49.7103 8.12012 49.8472 8.10572C49.9841 8.09132 50.1084 8.18412 50.1225 8.31692C50.1367 8.44972 50.0376 8.56972 49.9007 8.58412C49.7638 8.60012 49.6395 8.50572 49.6254 8.37292Z" fill="black"/>
<path d="M48.5887 12.528C48.4817 12.528 48.3731 12.5136 48.2693 12.4864C48.2252 12.4736 48.1985 12.4272 48.2095 12.3824C48.2205 12.3376 48.2677 12.3104 48.3118 12.3216C48.7224 12.432 49.1834 12.2864 49.4587 11.9584C49.4886 11.9232 49.5421 11.9184 49.5767 11.9488C49.6113 11.9792 49.6161 12.0336 49.5862 12.0688C49.3407 12.3616 48.9647 12.528 48.5887 12.528Z" fill="black"/>
<path d="M47.9958 11.1952C47.8306 11.1952 47.6544 11.1616 47.4703 11.0944C47.3728 11.0592 47.2627 11.0096 47.184 10.9168C47.0817 10.7968 47.0455 10.6208 47.0849 10.4336C47.1132 10.3008 47.1714 10.1808 47.2265 10.0656L47.2516 10.0128C47.5522 9.38723 47.7095 8.68803 47.7048 7.99203C47.7048 7.94563 47.741 7.90723 47.7882 7.90723C47.8338 7.90723 47.8715 7.94563 47.8715 7.99203C47.8747 8.71363 47.7126 9.44003 47.4011 10.088L47.3759 10.1408C47.3224 10.2512 47.2705 10.3568 47.2469 10.4688C47.2186 10.6016 47.2422 10.728 47.3083 10.8064C47.3634 10.8704 47.4483 10.9072 47.5254 10.936C47.7504 11.0176 47.9581 11.0448 48.1453 11.016C48.3577 10.9824 48.5465 10.8688 48.6488 10.712C48.6739 10.6736 48.7259 10.6624 48.7652 10.6896C48.803 10.7152 48.814 10.768 48.7872 10.808C48.6566 11.0064 48.4316 11.144 48.1705 11.184C48.1138 11.1936 48.054 11.1968 47.9943 11.1968L47.9958 11.1952Z" fill="black"/>
<path d="M52.2928 8.72475C52.2928 8.72475 52.285 8.72475 52.2818 8.72475C52.2362 8.71835 52.2047 8.67675 52.2095 8.62875C52.2472 8.33595 52.2614 8.17915 52.2865 7.89755C52.2913 7.85115 52.3306 7.81595 52.3778 7.82075C52.4234 7.82555 52.458 7.86715 52.4533 7.91355C52.4281 8.19835 52.414 8.35515 52.3747 8.65115C52.3684 8.69435 52.3337 8.72475 52.2913 8.72475H52.2928Z" fill="black"/>
<path d="M44.2657 5.91044C44.2657 5.91044 44.2516 5.90724 44.2453 5.90244C44.0093 5.65604 43.9227 5.27044 44.0297 4.94404C44.0344 4.92964 44.0502 4.92164 44.0643 4.92644C44.0785 4.93124 44.0864 4.94724 44.0816 4.96164C43.9809 5.26884 44.0612 5.63044 44.283 5.86244C44.294 5.87364 44.294 5.89124 44.283 5.90244C44.2783 5.90724 44.2704 5.91044 44.2641 5.91044H44.2657Z" fill="black"/>
<path d="M53.4862 5.57922C53.4862 5.57922 53.4704 5.57602 53.4657 5.56962C53.4563 5.55842 53.4563 5.53922 53.4689 5.52962C53.8669 5.17282 54.0227 4.56642 53.848 4.05602C53.8433 4.04162 53.8512 4.02562 53.8653 4.01922C53.8795 4.01442 53.8952 4.02242 53.9015 4.03682C54.084 4.56802 53.922 5.19842 53.5066 5.57122C53.5019 5.57602 53.494 5.57762 53.4877 5.57762L53.4862 5.57922Z" fill="black"/>
<path d="M31.6624 23.2735C31.1448 20.6607 30.8741 16.0015 30.1551 13.3999C29.4802 12.7215 28.78 11.6367 28.5078 10.6511C28.3977 10.2495 28.4009 10.0863 28.6652 9.81751C28.8571 9.62071 29.1954 9.68631 29.4094 9.82071C29.3118 9.56791 29.0758 9.33911 29.3842 9.08311C29.5226 8.96791 29.7193 8.90711 29.8704 9.00631C29.7917 8.49591 30.3534 8.19671 30.6649 8.68791C30.4273 8.05751 30.2102 7.49271 29.9632 6.91031C29.8106 6.55031 29.6642 6.11831 29.8861 5.97271C30.1709 5.78551 30.4572 6.18871 30.7735 6.79511C31.3115 7.83191 31.4893 8.17751 32.0856 9.11191C32.6457 9.99191 33.0988 11.6111 32.663 12.2063C32.6898 13.2623 35.0671 19.8703 35.9953 21.3311C36.3336 21.8639 35.8931 22.2095 35.6618 22.7999C35.3833 23.5119 34.3024 25.9999 32.6347 24.7503C32.1627 24.3967 31.6923 23.4287 31.6608 23.2719L31.6624 23.2735Z" fill="white"/>
<path d="M33.5442 25.1825C33.2279 25.1825 32.907 25.0609 32.586 24.8209C32.0904 24.4497 31.6153 23.4673 31.5807 23.2913C31.3651 22.2049 31.1936 20.7793 31.0127 19.2689C30.7594 17.1505 30.4966 14.9601 30.0813 13.4449C29.4645 12.8209 28.7188 11.7281 28.4277 10.6753C28.3081 10.2449 28.3176 10.0529 28.6055 9.75848C28.7644 9.59528 29.0114 9.57928 29.2332 9.64808C29.1404 9.46248 29.0617 9.24008 29.3308 9.01768C29.4441 8.92488 29.6156 8.84648 29.7808 8.88008C29.7918 8.65448 29.9161 8.46088 30.1112 8.38408C30.2119 8.34408 30.3393 8.33768 30.4652 8.39368C30.2889 7.92968 30.0986 7.44168 29.8877 6.94408C29.7115 6.52968 29.5699 6.08008 29.8421 5.90088C29.9287 5.84328 30.0215 5.82728 30.1159 5.85288C30.333 5.91048 30.5454 6.17128 30.8475 6.75528L30.8601 6.77768C31.3887 7.79688 31.5681 8.13928 32.1565 9.06568C32.7009 9.92168 33.1933 11.5649 32.7496 12.2305C32.8141 13.3025 35.1222 19.7969 36.0678 21.2833C36.3384 21.7089 36.1543 22.0401 35.9608 22.3905C35.8853 22.5281 35.8051 22.6689 35.7437 22.8305C35.4542 23.5729 34.828 24.8593 33.8982 25.1297C33.7817 25.1633 33.6653 25.1809 33.5473 25.1809L33.5442 25.1825ZM28.9894 9.78088C28.8871 9.78088 28.7911 9.80968 28.7235 9.87848C28.4875 10.1201 28.4828 10.2481 28.5882 10.6289C28.8729 11.6609 29.6108 12.7345 30.2134 13.3393C30.2244 13.3489 30.2307 13.3633 30.2355 13.3761C30.6587 14.9041 30.923 17.1121 31.1779 19.2465C31.3588 20.7521 31.5287 22.1745 31.7427 23.2545C31.771 23.3953 32.2304 24.3425 32.6836 24.6817C33.0816 24.9793 33.4734 25.0753 33.8478 24.9665C34.7084 24.7153 35.3047 23.4817 35.5832 22.7681C35.6509 22.5969 35.7358 22.4433 35.8113 22.3073C36.0017 21.9633 36.1402 21.7153 35.9246 21.3761C35.0152 19.9457 32.6065 13.3473 32.5781 12.2065C32.5781 12.1873 32.5829 12.1697 32.5939 12.1537C32.9872 11.6177 32.597 10.0753 32.0133 9.15688C31.4202 8.22568 31.2424 7.88008 30.7106 6.85608L30.698 6.83368C30.5297 6.50888 30.2811 6.07208 30.0718 6.01608C30.0231 6.00328 29.9774 6.01128 29.9302 6.04328C29.7399 6.16808 29.9648 6.70088 30.0388 6.87688C30.3 7.49448 30.5312 8.09768 30.7421 8.65768C30.7578 8.69768 30.7405 8.74408 30.7012 8.76328C30.6634 8.78248 30.6162 8.76968 30.5926 8.73448C30.4793 8.55528 30.3204 8.48328 30.1678 8.54248C30.0372 8.59368 29.9129 8.75528 29.9507 8.99208C29.9554 9.02568 29.9412 9.05768 29.9145 9.07688C29.8877 9.09448 29.8516 9.09608 29.8232 9.07688C29.7052 9.00008 29.5432 9.05768 29.4346 9.14888C29.2537 9.29928 29.3009 9.41448 29.4063 9.62408C29.4331 9.67688 29.4614 9.73288 29.4834 9.79048C29.496 9.82408 29.4865 9.86248 29.4598 9.88648C29.4315 9.91048 29.3937 9.91208 29.3623 9.89448C29.2521 9.82568 29.1137 9.78088 28.9862 9.78088H28.9894Z" fill="black"/>
<path d="M29.8225 11.3472C29.747 11.3472 29.6667 11.3232 29.5944 11.2752C29.4952 11.2096 29.4244 11.112 29.3615 11.0272L29.072 10.632C29.0453 10.5936 29.0516 10.5408 29.0893 10.5136C29.1255 10.4864 29.179 10.4928 29.2057 10.5312L29.4952 10.9264C29.5519 11.0032 29.6101 11.0832 29.6856 11.1328C29.7564 11.1792 29.8382 11.1904 29.8949 11.1616C29.9625 11.1248 29.9908 11.032 29.9877 10.96C29.983 10.864 29.9389 10.7712 29.8949 10.6832C29.7297 10.3552 29.6825 10.2992 29.5456 10.1296C29.4937 10.0672 29.4307 9.98719 29.3442 9.87519C29.3159 9.83839 29.3222 9.78559 29.3584 9.75679C29.3945 9.72799 29.4465 9.73439 29.4748 9.77119C29.5597 9.88159 29.6227 9.95999 29.673 10.0224C29.8146 10.1968 29.8681 10.2624 30.0412 10.6064C30.0915 10.7056 30.1466 10.824 30.1513 10.9536C30.1576 11.1104 30.0868 11.2512 29.9688 11.3136C29.9232 11.3376 29.8728 11.3488 29.8193 11.3488L29.8225 11.3472Z" fill="black"/>
<path d="M30.5233 11.1713C30.4179 11.1713 30.3204 11.1153 30.2354 11.0561C30.1536 11.0001 30.0733 10.9409 29.9947 10.8801C29.9585 10.8513 29.9506 10.7985 29.9789 10.7617C30.0073 10.7249 30.0592 10.7169 30.0954 10.7457C30.1709 10.8049 30.2496 10.8609 30.3282 10.9153C30.4053 10.9681 30.4856 11.0145 30.5548 10.9969C30.6397 10.9745 30.6838 10.8513 30.6838 10.7425C30.6838 10.5729 30.5328 10.1489 29.8216 9.08325L29.8012 9.05285C29.776 9.01445 29.7854 8.96165 29.8232 8.93445C29.8609 8.90885 29.9129 8.91845 29.9396 8.95685L29.9601 8.98565C30.5595 9.88165 30.8506 10.4545 30.8521 10.7393C30.8521 10.9137 30.775 11.1121 30.5988 11.1585C30.5737 11.1649 30.5485 11.1681 30.5249 11.1681L30.5233 11.1713Z" fill="black"/>
<path d="M30.988 11.9264C30.9518 11.9264 30.9188 11.9024 30.9078 11.864C30.7803 11.4048 31.0494 11.024 31.246 10.744C31.3247 10.632 31.4333 10.4784 31.4097 10.4384C31.3341 10.3088 30.9156 10.1808 30.7158 10.1184C30.6025 10.0832 30.5522 10.0672 30.5239 10.0496C30.3131 9.92478 30.2438 9.78078 30.2234 9.68158C30.2061 9.59518 30.2187 9.50878 30.2596 9.45278C30.3146 9.37438 30.5003 9.21758 30.623 9.20478C30.87 9.17758 31.4584 9.33438 31.8109 9.42718C31.8707 9.44318 31.921 9.45598 31.9603 9.46718C32.1129 9.50558 32.5975 9.80479 32.6133 10.0256C32.6164 10.072 32.5818 10.1136 32.5362 10.1168C32.4905 10.12 32.4496 10.0848 32.4465 10.0384C32.4402 9.94718 32.0846 9.67358 31.9194 9.63198C31.8785 9.62238 31.8266 9.60798 31.7684 9.59198C31.4506 9.50718 30.8559 9.35038 30.6403 9.37438C30.5884 9.38078 30.4421 9.48798 30.3949 9.55358C30.387 9.56638 30.3776 9.60159 30.387 9.64798C30.398 9.70079 30.4421 9.80478 30.6073 9.90398C30.623 9.91198 30.6985 9.93599 30.7646 9.95679C31.1076 10.0624 31.4521 10.1808 31.5528 10.352C31.6331 10.488 31.5229 10.6448 31.3829 10.8432C31.1957 11.1088 30.9644 11.4384 31.0698 11.8176C31.0824 11.8624 31.0572 11.9104 31.0116 11.9216C31.0037 11.9232 30.9959 11.9248 30.9896 11.9248L30.988 11.9264Z" fill="black"/>
<path d="M31.0165 9.40792C30.9819 9.40792 30.9489 9.38552 30.9379 9.34872C30.908 9.25432 30.7931 9.05752 30.7003 8.89912C30.6515 8.81592 30.6059 8.73752 30.5744 8.67832C30.5524 8.63672 30.5681 8.58552 30.609 8.56312C30.6499 8.54072 30.7003 8.55672 30.7223 8.59832C30.7522 8.65432 30.7963 8.73112 30.845 8.81272C30.9473 8.98712 31.0622 9.18392 31.0983 9.29752C31.1125 9.34232 31.0889 9.39032 31.0449 9.40472C31.037 9.40792 31.0275 9.40952 31.0197 9.40952L31.0165 9.40792Z" fill="black"/>
<path d="M30.9089 10.9472C30.8649 10.9472 30.8224 10.9376 30.7847 10.9184C30.7438 10.8976 30.7264 10.8464 30.7469 10.8048C30.7673 10.7632 30.8177 10.7456 30.8586 10.7664C30.9011 10.7872 30.9813 10.7792 31.0443 10.7232C31.1387 10.6368 31.1544 10.4784 31.0867 10.288C31.071 10.2432 31.093 10.1952 31.1371 10.1792C31.1811 10.1632 31.2283 10.1856 31.2441 10.2304C31.3731 10.5984 31.2252 10.7856 31.156 10.848C31.0867 10.912 30.9971 10.9456 30.9121 10.9456L30.9089 10.9472Z" fill="black"/>
<path d="M62.3272 27.0127C61.6696 23.4991 61.6649 19.7279 58.8816 17.3663C57.5459 16.2319 54.3788 15.7423 52.5222 15.6223C52.409 17.4495 50.6515 17.8847 49.5266 17.8111C47.648 17.6879 47.3145 17.3135 46.8362 15.8623C46.4146 16.0335 43.8783 16.1631 42.2311 17.6591C39.1725 20.4367 35.4343 20.1791 35.6923 20.3503C35.9251 20.5039 35.0897 24.3807 32.758 24.8575C31.5324 25.1071 38.3607 26.1359 43.0429 24.8751C42.8667 27.3663 43.7478 34.6351 44.2559 37.4335C49.1396 40.8975 59.1837 36.9807 59.1837 36.9807C59.1837 36.9807 58.4159 34.6815 58.4159 32.9471C58.4159 32.0863 60.3999 33.9919 60.7932 34.0623C60.9238 34.0863 61.3329 33.7903 61.3848 33.6655C61.7152 32.8799 62.933 30.2431 62.3288 27.0111L62.3272 27.0127Z" fill="black"/>
<path d="M49.7639 38.9489C49.3769 38.9489 49.004 38.9361 48.6421 38.9089C46.8265 38.7745 45.3334 38.3025 44.2069 37.5041C44.1896 37.4913 44.177 37.4721 44.1723 37.4497C43.6625 34.6417 42.8129 27.5473 42.9514 24.9873C38.7412 26.0817 32.923 25.3969 32.5658 25.0177C32.5328 24.9825 32.5218 24.9393 32.5344 24.8977C32.558 24.8209 32.6524 24.7921 32.7405 24.7745C33.9142 24.5361 34.6536 23.4273 35.069 22.5393C35.5394 21.5329 35.6952 20.5601 35.637 20.4145C35.5898 20.3761 35.5961 20.3281 35.5992 20.3137C35.6181 20.2289 35.6857 20.2209 36.0571 20.1777C37.086 20.0561 39.8205 19.7345 42.1757 17.5969C43.48 16.4113 45.2972 16.0785 46.2743 15.9009C46.5244 15.8545 46.7227 15.8193 46.8061 15.7841C46.8281 15.7761 46.8517 15.7761 46.8721 15.7857C46.8926 15.7953 46.9083 15.8129 46.9162 15.8353C47.3851 17.2593 47.6824 17.6049 49.5327 17.7265C49.8442 17.7473 50.6466 17.7521 51.364 17.3553C52.028 16.9889 52.3898 16.4033 52.4386 15.6177C52.4386 15.5953 52.4496 15.5745 52.4669 15.5601C52.4842 15.5457 52.5063 15.5377 52.5267 15.5393C54.69 15.6801 57.6668 16.2273 58.9333 17.3041C61.2178 19.2433 61.6583 22.1745 62.0831 25.0081C62.1823 25.6641 62.2829 26.3425 62.4072 27.0001C62.9894 30.1105 61.9132 32.6337 61.5089 33.5841C61.49 33.6273 61.4743 33.6673 61.4585 33.7025C61.3956 33.8513 60.9535 34.1809 60.7757 34.1489C60.6325 34.1233 60.3651 33.9297 59.9418 33.6161C59.4903 33.2817 58.7335 32.7201 58.54 32.8225C58.5117 32.8369 58.4959 32.8801 58.4959 32.9505C58.4959 34.6497 59.2511 36.9329 59.259 36.9569C59.2732 37.0001 59.2511 37.0465 59.2102 37.0641C59.1851 37.0737 56.6551 38.0529 53.562 38.5937C52.1963 38.8321 50.9235 38.9521 49.7608 38.9521L49.7639 38.9489ZM44.3312 37.3841C46.8312 39.1345 50.7127 38.9169 53.5336 38.4225C56.3169 37.9361 58.6391 37.0945 59.0781 36.9297C58.9443 36.5105 58.3307 34.4961 58.3307 32.9473C58.3307 32.7745 58.4031 32.6993 58.466 32.6689C58.7304 32.5313 59.2857 32.9169 60.0425 33.4769C60.3635 33.7137 60.6939 33.9601 60.8072 33.9793C60.8968 33.9921 61.265 33.7345 61.3075 33.6321C61.3232 33.5969 61.3389 33.5569 61.3578 33.5121C61.7575 32.5745 62.8179 30.0865 62.2452 27.0273C62.1209 26.3665 62.0186 25.6865 61.9211 25.0289C61.4805 22.0977 61.0652 19.3281 58.8295 17.4305C57.6086 16.3937 54.7309 15.8593 52.6007 15.7105C52.5267 16.5057 52.1287 17.1249 51.4458 17.5025C50.6891 17.9201 49.8505 17.9153 49.5232 17.8945C47.6604 17.7729 47.2639 17.3937 46.7856 15.9681C46.6755 15.9985 46.5119 16.0289 46.3042 16.0657C45.3444 16.2417 43.5571 16.5681 42.2875 17.7217C39.8944 19.8961 37.1206 20.2225 36.0775 20.3441C35.9705 20.3569 35.8683 20.3681 35.8022 20.3793C35.8226 20.4673 35.8258 20.6369 35.7628 20.9697C35.5363 22.1777 34.6206 24.5633 32.7751 24.9393C32.7704 24.9393 32.7656 24.9409 32.7609 24.9425C33.4988 25.2577 38.9866 25.8785 43.0206 24.7921C43.0474 24.7857 43.0741 24.7921 43.0946 24.8081C43.115 24.8257 43.126 24.8529 43.1245 24.8801C42.953 27.3121 43.812 34.5137 44.3296 37.3825L44.3312 37.3841Z" fill="black"/>
<path d="M57.2878 30.1681C57.2532 30.1681 57.2202 30.1457 57.2092 30.1105C56.2133 27.0417 55.6484 25.0993 55.6484 20.8929C55.6484 20.8465 55.6862 20.8081 55.7318 20.8081C55.7775 20.8081 55.8152 20.8465 55.8152 20.8929C55.8152 25.0753 56.3753 27.0049 57.3665 30.0577C57.3807 30.1025 57.3571 30.1505 57.313 30.1649C57.3036 30.1681 57.2957 30.1697 57.2863 30.1697L57.2878 30.1681Z" fill="black"/>
<path d="M43.0429 24.9599C43.0224 24.9599 43.0035 24.9535 42.9878 24.9375C42.939 24.8927 42.9374 24.8447 42.928 24.2239C42.9217 23.7631 42.9107 22.9919 42.8682 21.8223C42.8666 21.7759 42.9028 21.7359 42.9485 21.7343C42.9957 21.7311 43.0334 21.7695 43.035 21.8159C43.0775 22.9887 43.0885 23.7599 43.0948 24.2223C43.0995 24.5551 43.1026 24.7791 43.1137 24.8319C43.1325 24.8623 43.1294 24.9039 43.1042 24.9327C43.0885 24.9519 43.0649 24.9615 43.0413 24.9615L43.0429 24.9599Z" fill="black"/>
<path d="M48.304 23.2464C46.4285 23.2464 44.7262 23.0784 43.8278 22.6128C43.8137 22.6064 43.8089 22.5888 43.8152 22.5744C43.8215 22.56 43.8388 22.5552 43.853 22.5616C45.7064 23.5216 51.0321 23.208 54.1599 22.7616C54.1741 22.76 54.1898 22.7696 54.1914 22.7856C54.1929 22.8016 54.1835 22.816 54.1678 22.8176C52.5425 23.0496 50.3241 23.2448 48.304 23.2448V23.2464Z" fill="white"/>
<path d="M50.3057 25.9232C47.8166 25.9232 45.5416 25.52 43.8345 25.096C43.8204 25.0928 43.8109 25.0768 43.8141 25.0624C43.8172 25.048 43.833 25.0384 43.8471 25.0416C46.4651 25.6928 50.4284 26.2928 54.4388 25.4592C54.4545 25.456 54.4687 25.4656 54.4718 25.4816C54.475 25.4976 54.4656 25.512 54.4498 25.5152C53.0448 25.808 51.6446 25.9248 50.3057 25.9248V25.9232Z" fill="white"/>
<path d="M62.0673 31.6673C62.0579 31.6673 62.0484 31.6625 62.0437 31.6529C61.1469 30.1169 59.6869 29.3425 58.3228 29.6801C58.3086 29.6833 58.2929 29.6753 58.2897 29.6593C58.2866 29.6449 58.2945 29.6289 58.3102 29.6257C59.6979 29.2801 61.1831 30.0657 62.0925 31.6241C62.1004 31.6369 62.0956 31.6545 62.0831 31.6625C62.0783 31.6657 62.0736 31.6657 62.0689 31.6657L62.0673 31.6673Z" fill="white"/>
<path d="M61.7135 32.2944C61.7135 32.2944 61.7025 32.2928 61.6962 32.288C61.5294 32.16 61.4146 31.9792 61.3029 31.8032C61.2636 31.7424 61.2242 31.6784 61.1817 31.6192C60.9269 31.2544 60.5791 30.9664 60.1748 30.7856C60.1606 30.7792 60.1543 30.7632 60.1606 30.7488C60.1669 30.7344 60.1827 30.728 60.1968 30.7344C60.609 30.9184 60.9662 31.2128 61.2258 31.5872C61.2683 31.648 61.3092 31.712 61.3485 31.7728C61.4571 31.944 61.5703 32.12 61.7293 32.2432C61.7418 32.2528 61.7434 32.2704 61.734 32.2832C61.7293 32.2912 61.7198 32.2944 61.7119 32.2944H61.7135Z" fill="white"/>
<path d="M35.6924 23.0383C35.6924 23.0383 35.6845 23.0383 35.6813 23.0367C35.6672 23.0303 35.6609 23.0143 35.6656 22.9999C35.974 22.2335 36.125 21.3919 36.103 20.5647C36.103 20.5487 36.114 20.5359 36.1297 20.5359C36.1455 20.5359 36.1581 20.5471 36.1581 20.5631C36.1801 21.3983 36.0275 22.2479 35.716 23.0207C35.7112 23.0319 35.7018 23.0383 35.6908 23.0383H35.6924Z" fill="white"/>
<path d="M36.7433 21.4929C36.7433 21.4929 36.7385 21.4929 36.737 21.4929C36.7212 21.4897 36.7134 21.4737 36.7165 21.4593C36.7826 21.1649 36.8015 20.8625 36.7716 20.5633C36.7716 20.5473 36.781 20.5345 36.7967 20.5329C36.8125 20.5313 36.8251 20.5425 36.8266 20.5585C36.8565 20.8657 36.8377 21.1729 36.7716 21.4737C36.7684 21.4865 36.7574 21.4961 36.7448 21.4961L36.7433 21.4929Z" fill="white"/>
<path d="M57.5344 30.3487C57.4982 30.3487 57.4636 30.3231 57.4542 30.2863C56.7792 27.7647 56.3198 25.1711 56.0854 22.5791C56.0807 22.5327 56.1153 22.4911 56.1609 22.4863C56.2065 22.4815 56.2474 22.5167 56.2522 22.5631C56.485 25.1455 56.9429 27.7295 57.6162 30.2415C57.6288 30.2863 57.6021 30.3327 57.558 30.3455C57.5502 30.3471 57.5439 30.3487 57.536 30.3487H57.5344Z" fill="white"/>
<path d="M42.8416 25.4305C42.796 25.4305 42.7582 25.3905 42.7598 25.3441L42.8023 22.4785C42.8023 22.4321 42.8416 22.3953 42.8873 22.3953C42.9329 22.3953 42.9706 22.4353 42.9691 22.4817L42.9266 25.3473C42.9266 25.3937 42.8888 25.4305 42.8432 25.4305H42.8416Z" fill="white"/>
<path d="M57.928 31.0128C58.2914 30.6576 58.9821 30.792 59.4384 31.0128C59.6634 31.1216 61.4664 32.8176 60.8072 34.2368C60.2408 35.4576 59.8663 35.9184 56.8644 40.4304C56.7527 40.5984 56.6363 40.7712 56.4679 40.8784C55.9299 41.2176 55.2266 40.6944 54.9937 40.0944C54.4997 38.8256 55.1574 37.424 55.7631 36.2064C56.3767 34.9728 57.5646 31.3696 57.9296 31.0144L57.928 31.0128Z" fill="white"/>
<path d="M56.0965 41.0704C56.0021 41.0704 55.9046 41.0544 55.8055 41.0208C55.431 40.8944 55.0739 40.536 54.915 40.1264C54.391 38.7776 55.14 37.2704 55.6875 36.168C55.9565 35.6256 56.342 34.6128 56.7149 33.632C57.2986 32.096 57.6683 31.1488 57.8697 30.952C58.2441 30.5856 58.9443 30.68 59.4745 30.936C59.7545 31.072 61.5654 32.8 60.8826 34.272C60.4311 35.2432 60.0991 35.7392 58.5022 38.128C58.0837 38.7536 57.5629 39.5312 56.9336 40.4784C56.8234 40.6448 56.6991 40.832 56.5119 40.9504C56.386 41.0304 56.246 41.0704 56.0981 41.0704H56.0965ZM58.5572 30.88C58.3307 30.88 58.1261 30.936 57.9845 31.0736C57.7957 31.2592 57.3253 32.496 56.869 33.6928C56.4946 34.6768 56.1076 35.6944 55.8354 36.2432C55.302 37.3152 54.572 38.784 55.0691 40.0624C55.2107 40.4272 55.5286 40.7472 55.8574 40.8592C56.0006 40.9072 56.2145 40.9376 56.4222 40.8064C56.5796 40.7072 56.6928 40.536 56.7951 40.384C57.4244 39.4368 57.9452 38.6592 58.3637 38.0336C59.9543 35.656 60.2863 35.16 60.7316 34.2016C61.3798 32.8064 59.5453 31.16 59.4021 31.0912C59.1472 30.968 58.8373 30.8816 58.5588 30.8816L58.5572 30.88Z" fill="black"/>
<path d="M78.4407 22.0864C78.4061 23.6352 79.3375 25.2176 80.7771 25.728C81.5607 26.0064 82.4197 25.9664 83.2221 26.1792C84.0245 26.392 84.8426 27.0064 84.8489 27.8512C84.8521 28.4112 84.539 29.6832 86.1894 30.4272C87.5503 31.0416 87.2262 34.3648 83.0097 35.7632C81.718 36.192 82.5503 35.1136 81.2082 34.904C79.8819 34.696 78.6799 33.9344 77.7642 32.936C76.8501 31.9376 76.2019 30.7152 75.6984 29.4512C75.1178 27.9952 74.7119 26.3872 75.0707 24.8592C75.4294 23.3312 76.7541 21.9504 78.4407 22.0864Z" fill="black"/>
<path d="M82.527 35.9487C82.2485 35.9487 82.1462 35.7951 82.0377 35.5759C81.9228 35.3439 81.7938 35.0815 81.1975 34.9887C79.9451 34.7919 78.7053 34.0847 77.7063 32.9951C76.8944 32.1087 76.2132 30.9599 75.6232 29.4831C74.8837 27.6287 74.6823 26.1535 74.9907 24.8399C75.1779 24.0415 75.609 23.3119 76.2037 22.7855C76.8567 22.2079 77.6339 21.9359 78.4473 22.0015C78.4914 22.0047 78.5244 22.0431 78.5244 22.0879C78.4882 23.6687 79.448 25.1663 80.8042 25.6479C81.2321 25.7999 81.6962 25.8559 82.1431 25.9119C82.5065 25.9567 82.881 26.0031 83.2428 26.0975C84.0515 26.3119 84.9263 26.9535 84.931 27.8511C84.931 27.9247 84.9263 28.0079 84.9216 28.0975C84.8885 28.7055 84.8319 29.7231 86.2227 30.3503C86.7309 30.5791 87.0236 31.1679 86.9874 31.8847C86.9244 33.1279 85.8514 34.9103 83.0352 35.8447C82.8165 35.9167 82.6528 35.9487 82.5254 35.9487H82.527ZM78.2129 22.1615C76.638 22.1615 75.469 23.5263 75.1528 24.8783C74.8522 26.1567 75.0505 27.5983 75.7774 29.4191C76.3579 30.8767 77.0297 32.0079 77.8274 32.8783C78.8013 33.9407 80.0065 34.6303 81.2227 34.8207C81.9039 34.9279 82.0675 35.2575 82.1871 35.4991C82.3098 35.7471 82.3775 35.8847 82.9864 35.6831C85.7224 34.7759 86.764 33.0655 86.8237 31.8767C86.8568 31.2303 86.6019 30.7055 86.1582 30.5055C84.662 29.8303 84.7218 28.7391 84.758 28.0879C84.7627 27.9967 84.7674 27.9199 84.7674 27.8511C84.7627 27.0431 83.9524 26.4607 83.2035 26.2607C82.8526 26.1679 82.4845 26.1231 82.1258 26.0783C81.6695 26.0223 81.1959 25.9647 80.7507 25.8063C79.3504 25.3103 78.3545 23.7871 78.3576 22.1647C78.3089 22.1615 78.2617 22.1615 78.2145 22.1615H78.2129Z" fill="black"/>
<path d="M70.2005 18.5471C70.6442 20.7487 71.0737 23.1183 70.1879 25.1759C69.9 25.8447 69.4815 26.4543 69.2439 27.1439C68.9623 27.9631 68.9544 28.8543 69.0299 29.7199C69.1747 31.3551 69.6577 33.0319 70.7889 34.2031C71.9202 35.3743 73.8097 35.8847 75.2053 35.0591C76.4293 34.3343 76.9879 32.7759 76.9108 31.3375C76.8337 29.8991 76.2311 28.5503 75.5939 27.2639C74.0646 24.1727 72.2804 21.2127 70.2021 18.5471H70.2005Z" fill="black"/>
<path d="M73.3307 29.2847C73.37 28.1119 73.2284 27.4543 73.1812 26.5759C73.6469 26.3391 74.1504 26.1743 74.6648 26.0895C74.8961 26.0511 75.1557 26.0367 75.3335 26.1791C75.4452 26.2687 75.9723 25.7951 76.0273 25.9247C76.4034 26.8207 76.4348 28.0975 76.8109 28.9935C76.8392 29.0623 78.1561 28.9375 78.186 29.0079C78.3087 29.2991 78.2064 31.7279 78.1152 31.7903C73.2992 35.0463 70.9785 30.3887 70.9785 30.3887C70.9785 30.3887 71.8517 29.8447 73.3307 29.2847Z" fill="white"/>
<path d="M74.8731 33.032C74.5254 33.032 74.184 32.9872 73.852 32.8992C71.8932 32.3744 70.9146 30.448 70.9052 30.4288C70.8863 30.3888 70.8989 30.3408 70.9366 30.3184C70.9461 30.3136 71.813 29.776 73.251 29.2272C73.273 28.4832 73.2195 27.944 73.1692 27.424C73.1424 27.1568 73.1157 26.88 73.1 26.584C73.0984 26.5504 73.1157 26.5184 73.1456 26.504C73.6207 26.2624 74.1273 26.096 74.6528 26.0096C74.8825 25.9728 75.1705 25.9504 75.3781 26.1088C75.4285 26.1056 75.5701 26.0208 75.6566 25.9696C75.8407 25.8592 75.9493 25.7984 76.0342 25.8272C76.0673 25.8384 76.0924 25.8624 76.1066 25.8944C76.2985 26.3504 76.4024 26.9072 76.5031 27.4464C76.6006 27.9632 76.6997 28.496 76.876 28.9296C76.9719 28.9408 77.2709 28.9296 77.4959 28.92C78.1865 28.8912 78.2322 28.9008 78.2652 28.9792C78.3517 29.1872 78.3266 30.1904 78.3156 30.4928C78.2715 31.792 78.196 31.8432 78.1629 31.8656C77.0113 32.6448 75.9084 33.0368 74.8747 33.0368L74.8731 33.032ZM71.0908 30.4208C71.2843 30.7648 72.2189 32.2864 73.8961 32.7344C75.1626 33.0736 76.5597 32.7344 78.0528 31.7312C78.1331 31.4832 78.2101 29.4448 78.1205 29.0752C78.0198 29.064 77.724 29.0752 77.5006 29.0864C76.813 29.1152 76.7674 29.1056 76.7344 29.0272C76.5424 28.5712 76.4386 28.0144 76.3379 27.4752C76.2403 26.9584 76.1412 26.4256 75.965 25.992C75.9115 26.0096 75.8108 26.0704 75.7384 26.1136C75.5386 26.232 75.3813 26.3264 75.2822 26.2464C75.1248 26.12 74.8762 26.1424 74.678 26.1744C74.1871 26.2544 73.7136 26.408 73.2683 26.6288C73.284 26.8992 73.3076 27.1456 73.3328 27.4064C73.3863 27.9456 73.4398 28.504 73.4131 29.2896C73.4131 29.3232 73.391 29.3536 73.358 29.3664C72.1355 29.8288 71.3205 30.2864 71.0877 30.4224L71.0908 30.4208Z" fill="black"/>
<path d="M69.701 19.0879C69.8426 20.1743 70.0581 21.3151 69.7828 22.3967C69.6317 22.9871 69.6459 25.9871 72.0138 26.8415C73.2583 27.2911 74.6869 27.1983 75.9707 26.4063C76.8407 25.8687 77.898 24.2015 77.6872 22.5455C78.4078 22.7487 79.1205 22.2543 79.1284 21.5951C79.1331 21.2159 78.7209 20.7391 78.2866 20.7615C77.9499 20.7775 77.909 20.7823 77.6542 20.9807C77.4795 20.2047 77.3725 19.4127 77.3867 18.5199C76.5686 17.6031 75.2548 17.1343 73.9427 16.9343C73.5084 16.8687 73.0632 16.8271 72.6226 16.8831C71.3624 17.0431 69.5578 17.9727 69.7025 19.0879H69.701Z" fill="white"/>
<path d="M73.5462 27.1983C73.0238 27.1983 72.4983 27.1071 71.9839 26.9215C69.6191 26.0671 69.5169 23.0975 69.701 22.3759C69.9401 21.4415 69.8032 20.4527 69.6711 19.4975C69.6522 19.3647 69.6349 19.2319 69.6176 19.0991C69.5767 18.7871 69.6726 18.4751 69.9024 18.1727C70.464 17.4319 71.7164 16.9119 72.6101 16.7983C73.0962 16.7359 73.584 16.7935 73.9537 16.8495C75.0377 17.0143 76.5245 17.4287 77.4481 18.4623C77.4622 18.4783 77.4701 18.4991 77.4701 18.5215C77.4575 19.2879 77.533 20.0271 77.7077 20.8351C77.8949 20.7023 77.9783 20.6927 78.2835 20.6767C78.4975 20.6655 78.7256 20.7631 78.9081 20.9439C79.0985 21.1311 79.2149 21.3807 79.2118 21.5967C79.207 21.9151 79.0513 22.2159 78.7807 22.4223C78.5006 22.6367 78.1356 22.7199 77.7832 22.6559C77.9389 24.3439 76.8706 25.9519 76.0132 26.4799C75.2391 26.9567 74.3958 27.1999 73.5462 27.1999V27.1983ZM69.7828 19.0767C69.8001 19.2079 69.819 19.3407 69.8363 19.4735C69.97 20.4463 70.1085 21.4511 69.8614 22.4175C69.7576 22.8239 69.627 25.8895 72.0389 26.7599C73.3369 27.2287 74.7183 27.0767 75.9251 26.3327C76.7432 25.8287 77.8115 24.1935 77.6022 22.5551C77.5991 22.5263 77.6085 22.4991 77.6306 22.4799C77.651 22.4607 77.6809 22.4543 77.7077 22.4623C78.0443 22.5583 78.4078 22.4911 78.6784 22.2847C78.9065 22.1103 79.0387 21.8591 79.0434 21.5935C79.045 21.4223 78.949 21.2207 78.7901 21.0655C78.6391 20.9167 78.4566 20.8383 78.2882 20.8463C77.9594 20.8623 77.9389 20.8639 77.7014 21.0479C77.6793 21.0655 77.6494 21.0703 77.6227 21.0607C77.596 21.0511 77.5755 21.0287 77.5692 20.9999C77.3757 20.1391 77.2891 19.3599 77.3002 18.5519C76.4097 17.5727 74.9763 17.1775 73.9269 17.0175C73.5682 16.9631 73.0962 16.9071 72.6289 16.9663C71.7699 17.0751 70.5679 17.5711 70.0329 18.2751C69.8315 18.5407 69.7466 18.8095 69.7812 19.0751L69.7828 19.0767Z" fill="black"/>
<path d="M74.8698 23.48C74.5252 23.48 74.1901 23.3504 73.91 23.1072C73.5843 22.824 73.3735 22.4176 73.3153 21.9648C73.1957 21.0256 73.781 20.1728 74.618 20.064C75.0255 20.0112 75.4299 20.1376 75.7587 20.424C76.0844 20.7072 76.2952 21.1136 76.3534 21.5664C76.4116 22.0192 76.3078 22.4656 76.0639 22.824C75.8185 23.1856 75.4582 23.4128 75.0507 23.4672C74.9893 23.4752 74.9295 23.4784 74.8698 23.4784V23.48ZM74.8005 20.2224C74.747 20.2224 74.6951 20.2256 74.6416 20.2336C73.8959 20.3312 73.3767 21.0992 73.4837 21.944C73.5356 22.3552 73.7259 22.7232 74.0202 22.9792C74.3128 23.2336 74.6715 23.3472 75.0302 23.3008C75.3905 23.2528 75.7083 23.0512 75.927 22.7296C76.1473 22.4064 76.2401 22.0016 76.1882 21.5904C76.1363 21.1792 75.9459 20.8112 75.6517 20.5552C75.4031 20.3392 75.1058 20.224 74.8005 20.224V20.2224Z" fill="black"/>
<path d="M70.593 23.6784C69.8268 23.6784 69.1487 23.0352 69.037 22.1648C68.9174 21.2256 69.5027 20.3728 70.3397 20.264C71.1767 20.1536 71.9555 20.8288 72.0751 21.7664C72.1947 22.7056 71.6094 23.5584 70.7724 23.6672C70.7126 23.6752 70.6528 23.6784 70.593 23.6784ZM70.5191 20.4208C70.4671 20.4208 70.4137 20.424 70.3617 20.4304C69.616 20.528 69.0952 21.296 69.2038 22.1424C69.3107 22.9872 70.0062 23.5968 70.7519 23.4976C71.4977 23.4 72.0169 22.632 71.9099 21.7856C71.8108 21 71.2035 20.4192 70.5206 20.4192L70.5191 20.4208Z" fill="black"/>
<path d="M76.0281 16.0224C77.5322 16.0224 78.7516 14.7824 78.7516 13.2528C78.7516 11.7231 77.5322 10.4832 76.0281 10.4832C74.524 10.4832 73.3047 11.7231 73.3047 13.2528C73.3047 14.7824 74.524 16.0224 76.0281 16.0224Z" fill="black"/>
<path d="M77.5605 21.0944C76.8698 20.0048 76.4465 19.2192 76.22 17.8928C73.6696 19.4288 71.2467 19.6672 68.8049 19.5728C68.7529 19.1504 68.841 18.216 69.0125 17.8144C69.4358 16.832 69.9644 15.9824 71.4386 15.312C72.4723 14.8416 73.8631 14.5296 74.9818 14.6944C76.0925 14.8576 77.0491 15.4688 77.8264 16.2016C78.4447 16.7856 78.9686 17.7424 79.1527 18.6896C79.31 19.5008 79.1149 20.0976 78.7578 20.9232C78.5579 20.8128 78.3691 20.7024 78.1363 20.7472C77.9034 20.792 77.754 20.9136 77.5605 21.0928V21.0944Z" fill="black"/>
<path d="M73.8584 25.2447C73.6759 25.2447 73.5075 25.1871 73.3754 25.0751C73.3392 25.0447 73.3345 24.9919 73.3643 24.9551C73.3942 24.9183 73.4462 24.9135 73.4823 24.9439C73.6586 25.0943 73.9229 25.1151 74.1872 25.0031C74.4814 24.8783 74.7237 24.6367 74.8685 24.3215C74.8873 24.2783 74.9377 24.2607 74.9802 24.2799C75.0226 24.2991 75.0399 24.3503 75.0211 24.3935C74.859 24.7455 74.5853 25.0175 74.2533 25.1583C74.1211 25.2143 73.9874 25.2431 73.8599 25.2431L73.8584 25.2447Z" fill="black"/>
<path d="M74.7646 21.8399C74.7473 21.7039 74.6183 21.6095 74.4783 21.6271C74.3367 21.6463 74.2376 21.7711 74.2549 21.9071C74.2722 22.0431 74.4012 22.1375 74.5412 22.1199C74.6813 22.1023 74.782 21.9759 74.7646 21.8399Z" fill="black"/>
<path d="M70.9541 22.0433C70.9368 21.9073 70.8078 21.8129 70.6677 21.8305C70.5277 21.8481 70.427 21.9745 70.4443 22.1105C70.4616 22.2465 70.5906 22.3425 70.7307 22.3233C70.8707 22.3041 70.9714 22.1793 70.9541 22.0433Z" fill="black"/>
<path d="M72.3842 23.6191C72.3748 23.6191 72.3637 23.6175 72.3543 23.6143L72.0066 23.4799C71.9657 23.4639 71.8886 23.4335 71.8587 23.3567C71.8225 23.2623 71.8839 23.1791 71.9185 23.1327C72.1812 22.7743 72.2693 22.3087 72.1529 21.8879C72.1403 21.8431 72.1671 21.7951 72.2111 21.7839C72.2552 21.7711 72.3024 21.7983 72.3134 21.8431C72.444 22.3135 72.3464 22.8335 72.0522 23.2351C72.0286 23.2687 72.016 23.2895 72.016 23.2991C72.0176 23.2991 72.0302 23.3087 72.0664 23.3231L72.4141 23.4575C72.4566 23.4735 72.4786 23.5231 72.4629 23.5663C72.4503 23.5999 72.4188 23.6207 72.3842 23.6207V23.6191Z" fill="black"/>
<path d="M71.9311 21.5119C71.8855 21.5119 71.8477 21.4751 71.8477 21.4287C71.843 21.1903 72.0727 21.0239 72.3024 20.9647C72.6769 20.8671 73.1033 20.9679 73.3865 21.2191C73.4211 21.2495 73.4242 21.3039 73.3943 21.3391C73.3644 21.3743 73.3109 21.3775 73.2763 21.3471C73.0325 21.1311 72.6659 21.0463 72.3433 21.1295C72.1781 21.1727 72.0129 21.2879 72.0145 21.4271C72.0145 21.4735 71.9783 21.5119 71.9327 21.5135L71.9311 21.5119Z" fill="black"/>
<path d="M76.1801 21.1008C76.1344 21.1008 76.0967 21.0624 76.0967 21.016C76.0967 20.9696 76.1344 20.9312 76.1801 20.9312L77.4403 20.928C77.4859 20.928 77.5237 20.9664 77.5237 21.0128C77.5237 21.0592 77.4859 21.0976 77.4403 21.0976L76.1801 21.1008Z" fill="black"/>
<path d="M77.6719 21.9871C77.6262 21.9871 77.5885 21.9487 77.5901 21.9007C77.5932 21.5871 77.5318 21.2687 77.4107 20.9791C77.3934 20.9359 77.4123 20.8863 77.4547 20.8671C77.4972 20.8495 77.546 20.8687 77.5649 20.9119C77.6939 21.2223 77.76 21.5647 77.7568 21.9007C77.7568 21.9471 77.7191 21.9855 77.6734 21.9855L77.6719 21.9871Z" fill="black"/>
<path d="M86.9091 39.3056C85.7951 36.2064 85.1784 33.1488 82.5494 30.9168C81.2875 29.8448 79.7646 29.0848 78.0103 28.9712C77.9033 30.6992 75.9303 31.8368 74.8715 31.9648C74.2956 32.0352 72.1575 32.3248 72.1575 29.76C71.4605 30.0432 69.1383 30.3328 68.2084 33.2416C67.8277 34.4304 67.1464 38.984 64.8981 41.6224C64.3679 42.2448 63.877 38.0992 63.1124 38.3744C62.3635 38.6448 61.4997 39.0992 61.4431 39.9056C61.399 40.5344 61.9088 41.0816 62.4783 41.3312C63.7024 41.8656 64.1602 44.4576 65.4803 44.6464C66.8522 44.8432 69.0407 45.3568 70.699 40.0864C71.5455 40.9472 72.093 41.8736 73.0433 42.3936C75.7824 43.8944 84.8952 45.5808 86.3788 45.848C86.5016 45.8704 86.7816 45.768 86.832 45.6512C87.1435 44.9088 87.96 42.224 86.9106 39.304L86.9091 39.3056Z" fill="#FFD42E"/>
<path d="M86.4132 45.9377C86.3943 45.9377 86.3786 45.9377 86.3628 45.9329C84.6101 45.6161 75.7271 43.9633 73.0021 42.4689C72.3444 42.1089 71.8772 41.5585 71.3831 40.9777C71.1786 40.7377 70.9678 40.4881 70.7349 40.2449C70.0285 42.4369 69.171 43.8081 68.1153 44.4353C67.1933 44.9841 66.3123 44.8529 65.6058 44.7489C65.5586 44.7425 65.513 44.7345 65.4674 44.7281C64.7216 44.6209 64.2433 43.7985 63.7808 43.0033C63.3922 42.3345 62.9894 41.6449 62.445 41.4065C61.8692 41.1553 61.3106 40.5905 61.3594 39.8977C61.4066 39.2193 61.9714 38.6945 63.0838 38.2929C63.164 38.2641 63.2458 38.2689 63.3261 38.3105C63.6769 38.4881 63.946 39.3649 64.2056 40.2129C64.3802 40.7841 64.6209 41.5649 64.7814 41.5985C64.7972 41.6017 64.8192 41.5825 64.8333 41.5649C66.6238 39.4625 67.4246 36.0897 67.8557 34.2769C67.9659 33.8161 68.0524 33.4513 68.1279 33.2129C68.9429 30.6657 70.8435 30.0833 71.756 29.8017C71.9039 29.7569 72.0329 29.7169 72.1257 29.6785C72.1509 29.6673 72.1808 29.6721 72.2028 29.6865C72.2264 29.7025 72.239 29.7281 72.239 29.7569C72.239 30.5345 72.4404 31.1105 72.8385 31.4689C73.4772 32.0449 74.4669 31.9249 74.8397 31.8785H74.8586C75.8719 31.7537 77.8181 30.6433 77.9235 28.9617C77.9235 28.9393 77.9345 28.9185 77.9518 28.9041C77.9691 28.8897 77.9896 28.8817 78.0116 28.8833C79.6447 28.9905 81.1881 29.6513 82.5994 30.8497C84.7879 32.7073 85.5856 35.1121 86.4321 37.6577C86.6083 38.1857 86.7892 38.7329 86.9843 39.2737C87.9362 41.9201 87.3824 44.5473 86.9041 45.6833C86.8427 45.8289 86.5737 45.9345 86.41 45.9345L86.4132 45.9377ZM70.6987 40.0017C70.7208 40.0017 70.7412 40.0097 70.7585 40.0273C71.0339 40.3073 71.2761 40.5921 71.5106 40.8673C71.9952 41.4369 72.4514 41.9745 73.0823 42.3201C75.7853 43.8017 84.6448 45.4513 86.3927 45.7665C86.4919 45.7841 86.7247 45.6897 86.753 45.6193C86.8049 45.4977 87.9991 42.5857 86.8285 39.3345C86.6334 38.7905 86.4509 38.2433 86.2747 37.7137C85.4361 35.1905 84.6448 32.8081 82.4924 30.9809C81.1331 29.8273 79.6494 29.1809 78.0824 29.0593C77.9896 30.0177 77.3634 30.7137 76.8457 31.1313C76.2479 31.6145 75.4754 31.9745 74.8791 32.0465H74.8602C74.4669 32.0961 73.4237 32.2241 72.7283 31.5969C72.3145 31.2241 72.0943 30.6449 72.0738 29.8785C71.9952 29.9057 71.9039 29.9345 71.8032 29.9649C70.8498 30.2577 69.0735 30.8033 68.2852 33.2657C68.2113 33.4977 68.1248 33.8593 68.0162 34.3169C67.582 36.1425 66.7748 39.5425 64.9576 41.6753C64.8774 41.7697 64.7972 41.7761 64.7452 41.7649C64.5014 41.7137 64.3283 41.1873 64.0451 40.2641C63.8185 39.5265 63.5369 38.6081 63.249 38.4625C63.2097 38.4433 63.1751 38.4401 63.1373 38.4529C62.0942 38.8305 61.5655 39.3073 61.5231 39.9105C61.4806 40.5185 62.0045 41.0321 62.508 41.2513C63.1027 41.5105 63.518 42.2257 63.9208 42.9169C64.3849 43.7121 64.8223 44.4641 65.4878 44.5601C65.5335 44.5665 65.5807 44.5729 65.6279 44.5809C66.9841 44.7825 69.0341 45.0849 70.6153 40.0593C70.6248 40.0305 70.6468 40.0097 70.6751 40.0033C70.6814 40.0017 70.6877 40.0017 70.694 40.0017H70.6987Z" fill="black"/>
<path d="M83.6379 42.2944C81.1363 42.152 78.6206 41.9776 76.1032 41.8016C75.8783 41.7632 74.758 41.6016 74.4827 41.56C74.2483 41.5248 74.0249 41.4368 73.8109 41.336C73.062 40.984 71.4556 40.2944 71.0985 40.4992C70.2725 40.7456 69.5251 41.352 68.9399 42.12C68.611 42.5504 68.342 43.264 68.4789 43.3872C68.5654 43.4656 68.696 43.4976 68.792 43.416C69.1806 42.568 69.8744 41.8688 70.713 41.48C70.3228 41.704 69.961 41.976 69.6353 42.2864C69.3049 42.6016 69.0012 42.9824 68.9273 43.4384C68.921 43.4736 68.9178 43.512 68.9367 43.544C68.9823 43.6192 69.0956 43.576 69.1648 43.5216C69.2986 43.416 71.0198 41.9936 71.3408 42.032C70.9128 42.1968 69.3883 43.4544 69.382 43.5872C69.3788 43.6512 69.3914 43.7184 69.4307 43.768C69.4842 43.8368 69.5802 43.8576 69.6652 43.8432C69.7501 43.8288 69.8272 43.784 69.8996 43.7392C70.392 43.4352 70.842 43.0544 71.3738 42.8288C71.6397 42.7168 71.9638 42.6512 72.1998 42.8192C71.7262 43.0016 71.2825 43.2672 70.9097 43.616C70.8499 43.672 70.8011 43.7376 70.7618 43.808C70.7036 43.9152 70.6375 44.0688 70.7193 44.1568C70.8515 44.3008 70.9647 44.2288 71.078 44.16C71.5343 43.8544 72 43.6016 72.4877 43.4048C72.6388 43.344 72.8197 43.2896 72.9566 43.3792C73.0746 43.456 73.6488 43.8192 74.8288 43.8816C75.2316 43.9024 75.6202 44.0096 76.1237 44.1504C82.7553 46.0096 84.7361 46.7504 86.3441 46.048C86.6587 45.9104 86.7642 45.7424 86.6603 45.1936C86.3803 43.728 86.1065 42.8944 83.6427 42.296L83.6379 42.2944Z" fill="white"/>
<path d="M84.9945 46.3952C83.7248 46.3952 81.9155 45.88 78.5123 44.9136C77.7949 44.7104 76.9831 44.4784 76.0988 44.2304C75.63 44.0992 75.2256 43.9856 74.8229 43.9648C73.72 43.9072 73.1174 43.5856 72.9097 43.4496C72.8043 43.3808 72.6438 43.4304 72.5164 43.4832C72.0412 43.6752 71.585 43.92 71.1224 44.2304L71.1098 44.2384C70.9997 44.304 70.8313 44.4048 70.6567 44.2144C70.5214 44.0688 70.6472 43.8416 70.6882 43.7664C70.7322 43.6848 70.7888 43.6128 70.8533 43.5536C71.1775 43.2512 71.5566 43.0048 71.9846 42.816C71.7942 42.7744 71.5739 42.8368 71.4056 42.9072C71.0595 43.0544 70.7385 43.2752 70.4285 43.488C70.2712 43.5968 70.1076 43.7088 69.9424 43.8112C69.8622 43.8608 69.7772 43.9104 69.6781 43.9264C69.5538 43.9472 69.4326 43.9072 69.365 43.8208C69.3162 43.76 69.2942 43.6768 69.2973 43.5824C69.2973 43.5584 69.3178 43.5216 69.3555 43.472C69.3288 43.4944 69.3005 43.5168 69.2722 43.5392C69.2438 43.5616 69.2234 43.5776 69.2139 43.5872C69.1542 43.6352 69.0597 43.68 68.9748 43.6656C68.9276 43.656 68.8883 43.6304 68.8631 43.5872C68.8426 43.5536 68.8379 43.5184 68.8379 43.4864C68.7215 43.5792 68.5516 43.5648 68.4241 43.4496C68.2054 43.2528 68.5972 42.4304 68.8757 42.0672C69.5144 41.2304 70.2712 40.6608 71.0689 40.4192C71.4968 40.2 73.152 40.9312 73.8474 41.2576C74.022 41.3392 74.2533 41.4384 74.4972 41.4736C74.5696 41.4848 74.7017 41.504 74.8622 41.528C75.2933 41.592 75.9431 41.6864 76.1162 41.7152C78.5753 41.8864 81.1178 42.064 83.6461 42.208C83.6508 42.208 83.6556 42.208 83.6603 42.2096C86.1745 42.8192 86.4561 43.6896 86.7393 45.1728C86.8447 45.7248 86.7566 45.9552 86.3743 46.1216C85.9574 46.304 85.5231 46.3936 84.996 46.3936L84.9945 46.3952ZM72.7823 43.2448C72.8562 43.2448 72.9302 43.2608 72.9978 43.3056C73.1945 43.4336 73.7672 43.7376 74.8307 43.7936C75.2524 43.816 75.6646 43.9312 76.1429 44.0656C77.0271 44.3136 77.8405 44.544 78.558 44.7488C83.3346 46.1072 84.9425 46.5648 86.3082 45.968C86.5662 45.8544 86.6779 45.7424 86.5757 45.208C86.2972 43.7536 86.0407 42.9664 83.6288 42.3792C81.1005 42.2352 78.5595 42.0576 76.1004 41.8864C76.0973 41.8864 76.0957 41.8864 76.0925 41.8864C75.9273 41.8592 75.2713 41.7616 74.837 41.6992C74.6781 41.6752 74.546 41.656 74.472 41.6448C74.2061 41.6048 73.9607 41.5008 73.7766 41.4144C72.6548 40.888 71.404 40.424 71.1397 40.5744C71.135 40.5776 71.1287 40.5792 71.1224 40.5824C70.3672 40.808 69.6151 41.3728 69.0063 42.1728C68.6601 42.6272 68.4729 43.24 68.5358 43.3248C68.5862 43.3696 68.6648 43.3984 68.7262 43.36C69.1243 42.5072 69.8338 41.7936 70.6787 41.4032C70.7196 41.384 70.7668 41.4016 70.7873 41.4416C70.8077 41.4816 70.7936 41.5312 70.7542 41.5536C70.3703 41.7744 70.0132 42.0416 69.6922 42.3488C69.2863 42.7376 69.0692 43.088 69.0094 43.4528C69.0031 43.488 69.0063 43.4976 69.0078 43.4992C69.0173 43.5024 69.066 43.4912 69.1132 43.4528C69.1227 43.4448 69.1431 43.4288 69.1699 43.4064C71.0185 41.9072 71.2671 41.936 71.349 41.9456C71.3867 41.9504 71.4182 41.9808 71.4229 42.0192C71.4276 42.0576 71.4056 42.096 71.3694 42.1088C70.9651 42.264 69.5758 43.4096 69.4657 43.6016C69.4657 43.648 69.4767 43.688 69.4956 43.7136C69.5302 43.7568 69.5994 43.768 69.6513 43.7584C69.7205 43.7472 69.7882 43.7072 69.8574 43.6656C70.0195 43.5648 70.18 43.4544 70.3357 43.3472C70.652 43.1296 70.9792 42.9024 71.3427 42.7504C71.6023 42.64 71.9688 42.552 72.2473 42.7504C72.2725 42.768 72.2867 42.8 72.2819 42.8304C72.2788 42.8624 72.2583 42.888 72.2284 42.8992C71.7439 43.0864 71.3191 43.3488 70.9651 43.6784C70.9131 43.7264 70.8691 43.784 70.8329 43.8496C70.7652 43.9728 70.7448 44.0624 70.7778 44.0992C70.8581 44.1872 70.9084 44.1616 71.0248 44.0928L71.0327 44.088C71.5016 43.7744 71.9673 43.5232 72.4534 43.3264C72.5525 43.2864 72.669 43.248 72.7823 43.248V43.2448Z" fill="black"/>
<path d="M67.0818 45.5793C69.157 45.6241 71.2338 45.6705 73.309 45.7153L73.3169 44.6401L66.3848 44.4673L67.0802 45.5793H67.0818Z" fill="black"/>
<path d="M49.3848 35.7568L62.9233 35.832L67.5898 45.5792L54.1787 45.544L49.3848 35.7568Z" fill="white"/>
<path d="M67.5903 45.664L54.1792 45.6304C54.1477 45.6304 54.1194 45.6128 54.1052 45.584L49.3113 35.7968C49.2987 35.7696 49.3003 35.7392 49.3144 35.7136C49.3301 35.688 49.3569 35.6736 49.3852 35.6736L62.9237 35.7488C62.9552 35.7488 62.9851 35.768 62.9977 35.7968L67.6642 45.5424C67.6768 45.568 67.6752 45.6 67.6595 45.624C67.6437 45.648 67.617 45.664 67.5887 45.664H67.5903ZM54.2311 45.4592L67.4565 45.4928L62.8718 35.9168L49.5205 35.8416L54.2311 45.4592Z" fill="black"/>
<path d="M57.9488 39.728C57.5649 39.6896 57.1448 39.7936 56.9875 40.1536C56.8301 40.5136 56.9513 40.9632 57.2361 41.2272C57.5208 41.4912 57.9425 41.5776 58.3201 41.4912C58.5231 41.4448 58.7244 41.344 58.8424 41.168C58.9243 41.0464 58.9589 40.896 58.9589 40.7488C58.962 40.2656 58.7449 39.8064 57.9488 39.728Z" fill="white"/>
<path d="M58.0316 41.608C57.7107 41.608 57.4023 41.496 57.1804 41.2896C56.8595 40.992 56.7462 40.4992 56.9114 40.1184C57.0624 39.7712 57.4542 39.5936 57.9561 39.6432C58.8592 39.7328 59.0448 40.2944 59.0417 40.7504C59.0417 40.928 58.9945 41.0896 58.9111 41.216C58.7632 41.4368 58.5178 41.5328 58.3384 41.5744C58.2361 41.5984 58.1339 41.6096 58.0316 41.6096V41.608ZM57.8035 39.8064C57.5785 39.8064 57.2072 39.8592 57.064 40.1888C56.9271 40.504 57.0231 40.9152 57.2921 41.1648C57.5454 41.4 57.9325 41.4928 58.3006 41.408C58.513 41.36 58.6814 41.2576 58.7726 41.12C58.856 40.9952 58.8749 40.8496 58.8749 40.7488C58.8781 40.1824 58.5728 39.8752 57.9404 39.8128C57.9073 39.8096 57.8601 39.8064 57.8035 39.8064Z" fill="black"/>
<path d="M82.1466 42.2912C82.112 42.2912 82.079 42.2688 82.068 42.2336C81.1255 39.3328 80.5938 37.4976 80.5938 33.5216C80.5938 33.4752 80.6315 33.4368 80.6771 33.4368C80.7228 33.4368 80.7605 33.4752 80.7605 33.5216C80.7605 37.4736 81.2907 39.2976 82.2269 42.1808C82.241 42.2256 82.2174 42.2736 82.1734 42.288C82.1639 42.2912 82.1561 42.2928 82.1466 42.2928V42.2912Z" fill="black"/>
<path d="M70.6985 40.1713C70.6718 40.1713 70.6466 40.1584 70.6293 40.1344C69.4162 38.3584 69.7435 37.0576 70.0613 35.8C70.2202 35.1696 70.3854 34.5185 70.3587 33.8065C70.3571 33.7601 70.3933 33.72 70.4389 33.7184C70.4861 33.7152 70.5239 33.7536 70.5254 33.8C70.5522 34.5376 70.3854 35.2001 70.2234 35.8417C69.9008 37.1185 69.5972 38.3249 70.7662 40.0369C70.7929 40.0753 70.7835 40.1281 70.7457 40.1553C70.7315 40.1649 70.7142 40.1713 70.6985 40.1713Z" fill="black"/>
<path d="M74.6558 35.8032C73.427 35.8032 72.1967 35.6896 71.0025 35.3856C70.9883 35.3824 70.9789 35.3664 70.9821 35.352C70.9852 35.3376 71.0009 35.328 71.0151 35.3312C74.0453 36.104 77.3163 35.6384 80.2002 35.2272C80.2144 35.2256 80.2301 35.2352 80.2317 35.2512C80.2332 35.2672 80.2238 35.2816 80.2081 35.2832C78.4538 35.5328 76.5564 35.8032 74.6558 35.8032Z" fill="black"/>
<path d="M75.7632 38.2064C73.9571 38.2064 72.1509 37.9888 70.4029 37.5536C70.3887 37.5504 70.3793 37.5344 70.3824 37.52C70.3856 37.5056 70.4013 37.496 70.4155 37.4992C73.6235 38.296 77.0314 38.3632 80.2661 37.6896C80.2819 37.6864 80.296 37.696 80.2992 37.712C80.3023 37.728 80.2929 37.7424 80.2771 37.7456C78.7966 38.0544 77.2799 38.208 75.7632 38.208V38.2064Z" fill="black"/>
<path d="M87.1146 43.0848C87.1146 43.0848 87.0988 43.0816 87.0941 43.0752C85.9597 41.7168 84.1111 41.0336 82.3836 41.3328C82.3694 41.336 82.3537 41.3248 82.3521 41.3104C82.349 41.2944 82.36 41.28 82.3741 41.2784C84.1205 40.976 85.9896 41.6672 87.135 43.04C87.1445 43.0512 87.1429 43.0704 87.1319 43.08C87.1272 43.0848 87.1209 43.0864 87.1146 43.0864V43.0848Z" fill="black"/>
<path d="M86.9092 41.8335C86.9092 41.8335 86.9029 41.8335 86.8982 41.8319C86.7141 41.7567 86.5646 41.6207 86.4214 41.4895C86.3711 41.4431 86.3192 41.3967 86.2657 41.3519C85.9431 41.0831 85.5561 40.9087 85.1439 40.8479C85.1282 40.8463 85.1187 40.8319 85.1203 40.8159C85.1219 40.7999 85.1376 40.7903 85.1518 40.7919C85.5734 40.8559 85.9699 41.0335 86.3003 41.3087C86.3538 41.3535 86.4057 41.4015 86.4576 41.4479C86.5992 41.5759 86.744 41.7087 86.9186 41.7791C86.9328 41.7855 86.9391 41.8015 86.9343 41.8159C86.9296 41.8271 86.9202 41.8335 86.9092 41.8335Z" fill="black"/>
<path d="M81.4213 46C54.5975 45.9119 27.3995 45.9119 0.578732 46C0.535652 46 0.5 45.7885 0.5 45.533C0.5 45.2775 0.535652 45.0661 0.578732 45.0661C27.398 44.978 54.5975 44.978 81.4213 45.0661C81.4643 45.0661 81.5 45.2775 81.5 45.533C81.5 45.7885 81.4643 46 81.4213 46Z" fill="black"/>
<path d="M45.0776 45.6177C45.0776 45.6177 45.0728 45.6177 45.0713 45.6177C45.0256 45.6145 44.991 45.5729 44.9942 45.5265C45.1027 44.0897 44.9297 41.8801 44.7613 39.7425C44.6842 38.7553 44.6103 37.8241 44.5646 36.9729C44.5615 36.9265 44.5977 36.8865 44.6433 36.8833C44.6889 36.8801 44.7283 36.9169 44.7314 36.9633C44.777 37.8129 44.851 38.7425 44.9281 39.7297C45.0964 41.8737 45.2695 44.0913 45.1609 45.5409C45.1578 45.5857 45.1216 45.6193 45.0776 45.6193V45.6177Z" fill="black"/>
<path d="M21.2003 22.7264C20.8857 24.1008 20.8825 26.0144 20.8825 26.0144L21.6755 26.3424C21.6755 26.3424 22.426 29.48 17.6965 28.5184C16.7777 28.3312 14.1172 26.2768 14.1172 26.2768L16.2207 25.6656C16.2207 25.6656 16.4221 22.5568 16.5024 21.0112C17.6084 21.5344 19.874 22.304 21.2003 22.7248V22.7264Z" fill="white"/>
<path d="M19.3086 28.7872C18.8303 28.7872 18.2875 28.7248 17.6786 28.6016C16.752 28.4128 14.1748 26.4288 14.0663 26.3456C14.0411 26.3264 14.0285 26.2944 14.0348 26.2624C14.0411 26.2304 14.0631 26.2048 14.0946 26.1968L16.1415 25.6016C16.1698 25.1632 16.346 22.4176 16.42 21.008C16.42 20.9792 16.4373 20.9536 16.4609 20.9392C16.4845 20.9248 16.5144 20.9232 16.5396 20.9344C17.589 21.432 19.7208 22.1664 21.2265 22.6448C21.269 22.6576 21.2926 22.7024 21.2832 22.7456C21.0047 23.9632 20.9716 25.6304 20.9669 25.9584L21.708 26.2656C21.7331 26.2752 21.752 26.2976 21.7583 26.3248C21.7693 26.368 22.0037 27.392 21.3209 28.1152C20.8977 28.5648 20.2243 28.7888 19.3118 28.7888L19.3086 28.7872ZM14.3007 26.312C14.8514 26.728 16.9376 28.2784 17.7117 28.4352C19.4203 28.7824 20.5925 28.6352 21.1966 27.9968C21.7426 27.4192 21.6356 26.5968 21.601 26.4032L20.8489 26.0912C20.8174 26.0784 20.797 26.0464 20.797 26.0128C20.797 25.9936 20.8049 24.144 21.1006 22.7824C19.6469 22.3184 17.6503 21.6304 16.5789 21.1392C16.4955 22.704 16.3051 25.64 16.3036 25.6704C16.302 25.7056 16.2768 25.736 16.2438 25.7472L14.3023 26.312H14.3007Z" fill="black"/>
<path d="M18.8854 11.1905C16.7677 11.1057 14.7066 12.4929 14.8671 13.6225C13.8554 13.3201 12.6975 15.2913 12.7384 16.2145C12.7903 17.4001 15.0637 21.3121 15.5483 21.9345C15.7765 22.2273 15.9401 22.3601 16.3334 22.4817C16.3083 22.1553 16.6166 21.9457 16.6213 21.6177C16.6276 21.2129 16.0927 20.5073 16.5128 20.5169C18.5156 20.5665 18.2576 21.0273 22.0604 17.2657C22.5449 16.7857 22.8628 15.6273 22.9697 14.7521C23.0736 13.9009 22.4741 11.3345 18.8854 11.1905Z" fill="black"/>
<path d="M16.3343 22.5665C16.3265 22.5665 16.3186 22.5665 16.3107 22.5633C15.8859 22.4337 15.7128 22.2817 15.4847 21.9889C14.9828 21.3441 12.7094 17.4145 12.6574 16.2193C12.626 15.5153 13.2254 14.3505 13.8878 13.8209C14.1914 13.5793 14.4967 13.4753 14.7767 13.5153C14.7704 13.1905 14.923 12.8433 15.222 12.5057C15.8592 11.7857 17.2799 11.0417 18.891 11.1057C20.3809 11.1649 21.5562 11.6609 22.2894 12.5393C23.0052 13.3969 23.1028 14.3681 23.0556 14.7617C22.9423 15.6897 22.6088 16.8433 22.121 17.3249C18.699 20.7105 18.5464 20.7025 17.0832 20.6241C16.9165 20.6145 16.7261 20.6049 16.5137 20.6001C16.4791 20.5985 16.4523 20.6049 16.446 20.6145C16.4098 20.6673 16.4964 20.8913 16.5546 21.0401C16.6317 21.2385 16.7119 21.4433 16.7088 21.6177C16.7056 21.7969 16.627 21.9393 16.5499 22.0753C16.4775 22.2065 16.4083 22.3297 16.4193 22.4737C16.4209 22.5009 16.4098 22.5297 16.3878 22.5457C16.3721 22.5585 16.3548 22.5649 16.3359 22.5649L16.3343 22.5665ZM14.6556 13.6769C14.3991 13.6769 14.16 13.8193 13.99 13.9553C13.3119 14.4945 12.7975 15.6321 12.8226 16.2129C12.873 17.3777 15.1181 21.2481 15.6137 21.8833C15.8041 22.1265 15.9441 22.2577 16.2525 22.3665C16.2714 22.2273 16.3375 22.1089 16.4004 21.9937C16.4696 21.8705 16.5341 21.7537 16.5373 21.6161C16.5404 21.4769 16.4633 21.2785 16.3957 21.1041C16.3013 20.8593 16.2179 20.6481 16.306 20.5201C16.3469 20.4593 16.4177 20.4305 16.5153 20.4321C16.7308 20.4369 16.9212 20.4481 17.0895 20.4561C18.4866 20.5313 18.633 20.5377 22.0015 17.2049C22.4609 16.7505 22.7755 15.6401 22.8857 14.7425C22.9313 14.3745 22.8369 13.4625 22.1588 12.6497C21.4461 11.7969 20.3432 11.3345 18.8815 11.2753C17.3224 11.2129 15.9551 11.9281 15.3431 12.6193C15.041 12.9601 14.9057 13.3025 14.9498 13.6097C14.9545 13.6385 14.9435 13.6673 14.9215 13.6865C14.8994 13.7057 14.8711 13.7121 14.8428 13.7041C14.7799 13.6849 14.7154 13.6769 14.654 13.6769H14.6556Z" fill="black"/>
<path d="M22.1837 16.6544C22.1806 16.6304 21.4584 16.7248 20.8495 15.8432C20.73 16.3104 20.667 16.8 19.7246 16.7536C19.2668 16.7312 18.595 15.9728 18.425 15.5184C18.425 15.5184 19.4272 15.2736 15.0707 17.2224C15.077 17.3136 15.0801 17.4016 15.0833 17.4864C15.0927 17.8 15.1084 18.4848 15.2768 19.1536C14.7025 18.7968 14.2887 18.9312 14.0165 19.3056C13.7444 19.68 13.8451 20.1936 14.2022 20.4704C14.5594 20.7472 15.1242 20.7888 15.5899 20.6144C15.8322 21.4192 16.2523 23.04 16.9178 23.6864C17.6258 24.3728 18.7539 24.7136 19.8505 24.5712C20.9471 24.4288 21.9823 23.8064 22.5424 22.9552C23.1781 21.9872 23.1859 20.8304 22.9704 19.7776C22.7548 18.7248 22.3395 17.7184 22.1837 16.6544Z" fill="white"/>
<path d="M19.3498 24.6863C18.3979 24.6863 17.4759 24.3455 16.8576 23.7455C16.244 23.1503 15.8491 21.8015 15.5879 20.9087C15.569 20.8431 15.5502 20.7791 15.5329 20.7199C15.0436 20.8735 14.4976 20.8031 14.1499 20.5343C13.744 20.2191 13.6543 19.6559 13.9485 19.2527C14.2459 18.8431 14.6691 18.7519 15.1521 18.9855C15.0247 18.3839 15.0089 17.8015 14.9995 17.5071V17.4863C14.9964 17.4111 14.9932 17.3247 14.9869 17.2239C14.9853 17.1887 15.0042 17.1551 15.0373 17.1407C17.38 16.0927 18.1194 15.7007 18.3523 15.5567C18.3523 15.5535 18.3491 15.5487 18.3476 15.5455C18.3397 15.5231 18.3413 15.4975 18.3523 15.4751C18.3633 15.4543 18.3837 15.4383 18.4073 15.4319C18.4482 15.4223 18.5725 15.3919 18.6056 15.4879C18.6182 15.5263 18.6213 15.5583 18.5631 15.6127C18.7849 16.0447 19.3576 16.6479 19.7305 16.6655C20.5518 16.7055 20.6446 16.3311 20.7516 15.8991C20.7579 15.8719 20.7642 15.8463 20.7721 15.8191C20.7799 15.7871 20.8067 15.7631 20.8381 15.7567C20.8696 15.7503 20.9027 15.7647 20.9215 15.7919C21.2535 16.2719 21.6673 16.5295 22.1503 16.5615C22.1944 16.5647 22.2604 16.5679 22.2699 16.6399C22.3564 17.2335 22.5295 17.8239 22.6963 18.3935C22.8268 18.8367 22.9606 19.2959 23.055 19.7583C23.3209 21.0591 23.173 22.1503 22.6144 22.9999C22.0402 23.8735 20.986 24.5071 19.8643 24.6527C19.6943 24.6751 19.5244 24.6863 19.3545 24.6863H19.3498ZM15.5879 20.5279C15.6005 20.5279 15.6131 20.5311 15.6257 20.5375C15.6461 20.5471 15.6619 20.5663 15.6682 20.5887C15.6933 20.6719 15.7201 20.7631 15.7484 20.8623C15.9891 21.6847 16.3919 23.0607 16.974 23.6239C17.6663 24.2959 18.7645 24.6255 19.8391 24.4863C20.9152 24.3471 21.9237 23.7407 22.4713 22.9071C23.003 22.0975 23.1431 21.0495 22.8866 19.7951C22.7938 19.3407 22.6601 18.8847 22.531 18.4447C22.369 17.8895 22.2006 17.3167 22.1094 16.7327C21.6342 16.6943 21.2236 16.4607 20.8853 16.0367C20.7784 16.4527 20.61 16.8831 19.7179 16.8399C19.279 16.8191 18.6732 16.1919 18.4199 15.7151C18.3255 15.7743 18.1839 15.8511 17.9794 15.9567C17.4161 16.2463 16.4658 16.6895 15.1553 17.2767C15.16 17.3551 15.1631 17.4223 15.1647 17.4847V17.5055C15.1741 17.8239 15.1946 18.4879 15.3551 19.1327C15.3629 19.1663 15.3504 19.2015 15.3236 19.2223C15.2969 19.2431 15.2591 19.2447 15.2308 19.2271C14.7493 18.9279 14.3623 18.9711 14.0823 19.3567C13.8431 19.6863 13.9186 20.1455 14.2506 20.4031C14.5747 20.6527 15.1002 20.7071 15.558 20.5343C15.5675 20.5311 15.5769 20.5295 15.5864 20.5295L15.5879 20.5279Z" fill="black"/>
<path d="M21.4315 18.3377C21.4268 18.2049 21.3119 18.1009 21.1751 18.1041C21.0366 18.1089 20.928 18.2193 20.9328 18.3521C20.9375 18.4849 21.0523 18.5889 21.1892 18.5857C21.3277 18.5809 21.4362 18.4705 21.4315 18.3377Z" fill="black"/>
<path d="M18.0096 19.0352C18.0049 18.9024 17.8901 18.7984 17.7532 18.8016C17.6147 18.8064 17.5062 18.9168 17.5109 19.0496C17.5156 19.1824 17.6305 19.2864 17.7673 19.2832C17.9058 19.2784 18.0144 19.168 18.0096 19.0352Z" fill="black"/>
<path d="M19.4315 23.0096C19.1184 23.0096 18.8053 22.8976 18.5693 22.6864C18.5347 22.656 18.5316 22.6016 18.5614 22.5664C18.5913 22.5312 18.6448 22.528 18.6794 22.5584C18.9988 22.8432 19.4756 22.92 19.8657 22.7504C19.9082 22.7312 19.957 22.752 19.9759 22.7952C19.9932 22.8384 19.9743 22.888 19.9318 22.9072C19.7729 22.976 19.603 23.0096 19.4315 23.0096Z" fill="black"/>
<path d="M19.8533 21.6032C19.8533 21.6032 19.8471 21.6032 19.8439 21.6032C19.5796 21.6016 19.3373 21.4976 19.18 21.32C19.1485 21.2848 19.1516 21.232 19.1863 21.2C19.2209 21.168 19.2728 21.1712 19.3043 21.2064C19.4285 21.3472 19.6315 21.432 19.8455 21.4336C20.0343 21.4336 20.2372 21.3792 20.4481 21.264C20.5204 21.2256 20.6007 21.176 20.6447 21.104C20.6998 21.0176 20.7045 20.8896 20.6589 20.7616C20.6196 20.6544 20.5551 20.5584 20.4858 20.456L20.4528 20.4064C20.0532 19.8096 19.7904 19.1152 19.6913 18.4C19.685 18.3536 19.7165 18.3104 19.7621 18.304C19.8077 18.2976 19.8502 18.3296 19.8565 18.376C19.9509 19.0656 20.2042 19.7344 20.5897 20.3104L20.6227 20.3584C20.6951 20.464 20.769 20.5744 20.8147 20.7024C20.8792 20.8832 20.8681 21.0624 20.7848 21.1952C20.7187 21.2992 20.6164 21.3632 20.5252 21.4128C20.2923 21.5376 20.0673 21.6016 19.8533 21.6016V21.6032Z" fill="black"/>
<path d="M15.4071 19.7711C15.3709 19.7711 15.3379 19.7471 15.3269 19.7087C15.2466 19.4223 15.2104 19.2687 15.1459 18.9903C15.1349 18.9455 15.1632 18.8991 15.2073 18.8879C15.2513 18.8767 15.297 18.9055 15.308 18.9503C15.3725 19.2271 15.4087 19.3791 15.4873 19.6623C15.4999 19.7071 15.4748 19.7551 15.4291 19.7663C15.4213 19.7679 15.4134 19.7695 15.4071 19.7695V19.7711Z" fill="black"/>
<path d="M15.4037 38.1167C15.945 33.2911 15.9292 28.5199 15.5406 25.7727C13.6841 25.8943 10.517 26.3839 9.18119 27.5167C6.39797 29.8799 6.39325 33.6511 5.73559 37.1631C5.13143 40.3951 4.85453 43.5807 5.7057 44.6927C5.78751 44.7983 6.41213 45.2191 6.54271 45.1967C6.93605 45.1263 9.6469 42.2383 9.6469 43.0991C9.6469 44.8335 9.43293 45.5327 9.43293 45.5327H14.1246C14.1246 45.5327 15.2196 39.7615 15.4037 38.1167Z" fill="#FFD42E"/>
<path d="M14.1251 45.6176H9.43342C9.40668 45.6176 9.3815 45.6048 9.36577 45.5824C9.35004 45.56 9.34531 45.5328 9.35318 45.5072C9.35475 45.5008 9.56401 44.7952 9.56401 43.0992C9.56401 43.0608 9.55614 43.0336 9.54513 43.0272C9.34217 42.9328 8.31164 43.8432 7.69646 44.3888C7.07342 44.9392 6.7147 45.2528 6.55737 45.28C6.37014 45.3136 5.71092 44.8384 5.64012 44.7456C4.70556 43.5232 5.13193 39.9392 5.65428 37.1488C5.777 36.4912 5.87926 35.8128 5.97838 35.1568C6.40318 32.3232 6.84372 29.392 9.1282 27.4528C10.3963 26.376 13.3715 25.8304 15.5348 25.688C15.5773 25.6848 15.6166 25.7168 15.6229 25.76C16.0477 28.7536 15.9942 33.6064 15.4876 38.1248C15.3051 39.7536 14.2179 45.4896 14.2069 45.5472C14.199 45.5872 14.1644 45.616 14.1251 45.616V45.6176ZM9.54198 45.448H14.0559C14.1802 44.7904 15.1493 39.632 15.3208 38.1072C15.8227 33.6416 15.8794 28.8496 15.4687 25.864C13.3369 26.0112 10.4577 26.5456 9.23518 27.584C6.99948 29.4816 6.58254 32.2512 6.14358 35.1824C6.04446 35.84 5.9422 36.52 5.81948 37.1808C5.08001 41.1344 5.06428 43.7152 5.77385 44.6416C5.85252 44.7456 6.42521 45.1136 6.5322 45.1136C6.64862 45.0928 7.14737 44.6512 7.5879 44.2608C8.63102 43.3392 9.3343 42.744 9.61593 42.8736C9.66942 42.8976 9.73236 42.9568 9.73236 43.0992C9.73236 44.464 9.60177 45.1888 9.54198 45.448Z" fill="black"/>
<path d="M29.5701 43.0256C31.0223 42.8448 32.325 37.3504 30.1223 36.968C29.8187 36.9152 28.5364 31.6768 25.9546 28.3744C24.5795 26.616 21.6468 26.1856 21.2251 26.0144C23.1194 29.3456 20.127 45.5328 20.127 45.5328L24.0461 45.5408C24.0461 45.5408 24.9351 39.5776 25.1018 38.2032C25.2277 38.9824 26.2158 40.7472 27.3328 42.096C27.7482 42.5984 28.1226 42.5008 28.3822 42.7648C28.6827 43.0704 29.2366 43.0672 29.5701 43.0256Z" fill="#FFD42E"/>
<path d="M24.0465 45.6255L20.1273 45.6175C20.1021 45.6175 20.0785 45.6063 20.0628 45.5871C20.0471 45.5679 20.0408 45.5423 20.0455 45.5167C20.0754 45.3551 23.0112 29.3215 21.1547 26.0559C21.1374 26.0239 21.1405 25.9855 21.1641 25.9583C21.1877 25.9311 21.2255 25.9215 21.2585 25.9343C21.3277 25.9631 21.4851 26.0015 21.6833 26.0511C22.6368 26.2895 24.8725 26.8495 26.021 28.3199C27.8036 30.6015 28.9852 33.8431 29.6192 35.5855C29.8473 36.2127 30.0629 36.8047 30.1479 36.8847C30.9628 37.0335 31.4128 37.8831 31.3813 39.2159C31.342 40.8815 30.5302 42.9903 29.5799 43.1071C29.2558 43.1471 28.6595 43.1647 28.3228 42.8223C28.23 42.7279 28.1151 42.6847 27.9814 42.6335C27.78 42.5567 27.5283 42.4623 27.2687 42.1487C26.3388 41.0271 25.4515 39.5455 25.1305 38.6287C24.8819 40.4975 24.1361 45.4975 24.1283 45.5519C24.122 45.5935 24.0874 45.6239 24.0465 45.6239V45.6255ZM20.2264 45.4479L23.9741 45.4559C24.0764 44.7727 24.8646 39.4687 25.0188 38.1919C25.0235 38.1503 25.0581 38.1183 25.1006 38.1167C25.1431 38.1167 25.1777 38.1455 25.184 38.1871C25.313 38.9823 26.3262 40.7471 27.3961 42.0399C27.6274 42.3199 27.8461 42.4031 28.0396 42.4751C28.1843 42.5295 28.3212 42.5823 28.4408 42.7023C28.7381 43.0047 29.3219 42.9695 29.5594 42.9391C30.3382 42.8431 31.1721 40.9615 31.213 39.2111C31.2272 38.6207 31.1469 37.2303 30.1069 37.0495C29.9764 37.0271 29.882 36.7983 29.4619 35.6431C28.831 33.9103 27.6557 30.6847 25.8888 28.4239C24.7749 26.9983 22.5785 26.4495 21.6408 26.2143C21.5449 26.1903 21.4599 26.1695 21.3891 26.1503C22.094 27.6719 22.1207 31.3295 21.4678 37.0287C21.0068 41.0575 20.3428 44.7919 20.2248 45.4447L20.2264 45.4479Z" fill="black"/>
<path d="M10.4968 41.9935C10.4968 41.9935 10.4826 41.9935 10.4763 41.9903C10.4323 41.9791 10.4055 41.9327 10.4165 41.8863C10.802 40.3759 11.0349 38.8143 11.359 36.6511C11.5792 35.1791 11.853 33.3487 12.251 31.0271C12.2589 30.9807 12.3014 30.9503 12.347 30.9583C12.3926 30.9663 12.4225 31.0111 12.4147 31.0559C12.0166 33.3759 11.7429 35.2063 11.5242 36.6767C11.2001 38.8447 10.9656 40.4095 10.5786 41.9295C10.5692 41.9679 10.5345 41.9935 10.4984 41.9935H10.4968Z" fill="black"/>
<path d="M25.1016 38.2881C25.078 38.2881 25.056 38.2785 25.0386 38.2593C25.015 38.2337 25.0119 38.1969 25.0261 38.1665C25.0591 38.0273 25.1755 36.6097 25.2982 35.1121C25.3738 34.1825 25.4603 33.1281 25.5405 32.2225C25.5453 32.1761 25.5862 32.1409 25.6318 32.1457C25.6774 32.1505 25.712 32.1905 25.7073 32.2385C25.6286 33.1441 25.5421 34.1969 25.465 35.1265C25.2117 38.2177 25.2038 38.2241 25.1566 38.2673C25.1409 38.2817 25.1205 38.2897 25.1016 38.2897V38.2881Z" fill="black"/>
<path d="M5.5834 41.9376C5.5834 41.9376 5.56924 41.9344 5.56295 41.9296C5.55193 41.9184 5.55193 41.9008 5.56295 41.8896C6.63596 40.8048 8.38236 40.2592 10.0155 40.4976C10.0312 40.4992 10.0407 40.5136 10.0391 40.5296C10.0375 40.5456 10.0233 40.5552 10.0076 40.5536C8.3918 40.3168 6.66271 40.856 5.60228 41.9296C5.59756 41.9344 5.58969 41.9376 5.5834 41.9376Z" fill="black"/>
<path d="M5.71704 42.4591C5.70603 42.4591 5.69501 42.4527 5.69186 42.4415C5.68557 42.4271 5.69187 42.4111 5.7076 42.4047C5.89168 42.3295 6.04744 42.1887 6.19533 42.0527C6.24883 42.0031 6.30546 41.9535 6.36053 41.9055C6.70981 41.6143 7.12832 41.4255 7.57514 41.3583C7.59088 41.3567 7.60504 41.3663 7.60661 41.3823C7.60819 41.3983 7.59875 41.4127 7.58301 41.4143C7.1472 41.4799 6.73656 41.6655 6.39514 41.9487C6.34008 41.9951 6.28501 42.0447 6.23152 42.0943C6.0789 42.2335 5.92157 42.3775 5.72648 42.4559C5.72333 42.4559 5.72018 42.4575 5.71546 42.4575L5.71704 42.4591Z" fill="black"/>
<path d="M19.23 29.8145C18.3678 29.8145 17.5056 29.6145 16.7331 29.2257C16.7189 29.2193 16.7142 29.2017 16.7205 29.1873C16.7268 29.1729 16.7441 29.1681 16.7583 29.1745C17.7872 29.6913 18.9782 29.8721 20.1126 29.6849C20.7136 29.5857 21.1353 29.3873 21.4028 29.0801C21.4122 29.0689 21.4311 29.0673 21.4421 29.0769C21.4531 29.0865 21.4547 29.1057 21.4452 29.1169C21.1683 29.4353 20.7357 29.6385 20.1236 29.7393C19.8294 29.7873 19.5321 29.8113 19.2331 29.8113L19.23 29.8145Z" fill="black"/>
<path d="M35.853 32.5711C36.7781 31.6303 36.3911 30.9807 37.4263 29.7359C37.8574 29.2175 38.2743 28.7679 38.6567 28.3583C38.8565 28.1439 39.0374 27.8655 39.2451 28.0431C39.4921 28.2543 39.2215 28.8255 39.0988 29.0095C38.6236 29.7199 38.6598 29.9551 38.6818 30.2175C39.4984 29.5775 40.7649 28.7231 41.7451 28.3999C41.8191 28.3759 42.0079 28.3887 42.0551 28.4543C42.1211 28.5455 42.0582 28.7791 41.915 28.8831C41.3313 29.3055 40.4723 29.9151 39.8886 30.3359C40.9443 29.6543 42.332 28.7919 42.5538 29.0735C42.623 29.1615 42.5853 29.4031 42.4358 29.5119C41.8018 29.9791 40.9679 30.5615 40.3338 31.0287C40.8766 30.5567 42.5585 29.5503 42.6923 29.9103C42.826 30.2719 41.2715 31.2671 40.6155 31.6719C41.1457 31.3359 42.3886 30.5455 42.5286 30.8799C42.634 31.1327 42.2612 31.3631 42.1369 31.4623C41.1473 32.2431 39.9798 33.3135 38.8974 33.7055C38.6394 33.7999 38.246 33.8415 38.0258 34.0063C37.7913 34.1791 37.6655 34.3855 37.4751 34.6063C32.1541 40.7695 30.4675 42.8639 29.5093 42.6559C28.7053 42.4815 29.3032 39.1455 30.1229 36.9679C30.5587 36.9839 33.8926 34.5663 35.8546 32.5711H35.853Z" fill="white"/>
<path d="M29.638 42.7551C29.5877 42.7551 29.5389 42.7503 29.4901 42.7391C29.369 42.7135 29.2699 42.6303 29.1975 42.4959C28.7664 41.6895 29.2982 38.9199 30.0424 36.9375C30.055 36.9039 30.088 36.8815 30.1242 36.8831H30.1273C30.5269 36.8831 33.7712 34.5663 35.7929 32.5119C36.2397 32.0575 36.3687 31.6815 36.5166 31.2447C36.6645 30.8095 36.8329 30.3183 37.3615 29.6815C37.7784 29.1791 38.1828 28.7423 38.595 28.3007C38.6249 28.2687 38.6532 28.2367 38.6815 28.2047C38.8499 28.0143 39.0591 27.7759 39.2967 27.9807C39.6082 28.2479 39.2715 28.8991 39.1645 29.0591C38.8011 29.6031 38.7476 29.8527 38.7508 30.0559C39.6082 29.3967 40.8008 28.6239 41.7149 28.3215C41.7999 28.2943 42.039 28.2975 42.1177 28.4063C42.1555 28.4575 42.168 28.5343 42.1555 28.6223C42.1397 28.7263 42.0784 28.8687 41.9588 28.9551C41.8424 29.0399 41.7149 29.1311 41.5796 29.2271C42.1822 28.9199 42.4922 28.8687 42.6149 29.0239C42.6589 29.0799 42.6762 29.1631 42.6621 29.2607C42.6448 29.3935 42.5771 29.5135 42.4811 29.5839C42.3616 29.6719 42.2325 29.7663 42.1004 29.8623C42.3238 29.7759 42.5126 29.7327 42.6275 29.7615C42.714 29.7839 42.7518 29.8399 42.7675 29.8831C42.7974 29.9631 42.8698 30.1615 42.0878 30.7759C42.2499 30.7215 42.382 30.7023 42.4733 30.7311C42.5346 30.7503 42.5803 30.7919 42.6054 30.8495C42.725 31.1343 42.4088 31.3679 42.2404 31.4927C42.22 31.5071 42.2027 31.5215 42.1885 31.5327C41.9997 31.6815 41.8077 31.8383 41.6032 32.0047C40.7646 32.6895 39.8143 33.4655 38.927 33.7887C38.8357 33.8223 38.7319 33.8479 38.6218 33.8751C38.4188 33.9263 38.2095 33.9791 38.0758 34.0783C37.9169 34.1967 37.8115 34.3279 37.6903 34.4799C37.6431 34.5391 37.5928 34.6015 37.5393 34.6655C37.039 35.2447 36.5717 35.7871 36.1343 36.2959C32.0751 41.0079 30.5679 42.7583 29.6412 42.7583L29.638 42.7551ZM30.1824 37.0447C29.4602 38.9855 28.9505 41.6767 29.3454 42.4143C29.3941 42.5055 29.4524 42.5583 29.5263 42.5727C30.3476 42.7487 31.8879 40.9615 36.0069 36.1791C36.4443 35.6703 36.9131 35.1279 37.4119 34.5487C37.4638 34.4879 37.5126 34.4271 37.5598 34.3695C37.684 34.2143 37.8005 34.0687 37.9767 33.9375C38.1356 33.8191 38.3622 33.7615 38.5808 33.7071C38.6863 33.6799 38.787 33.6559 38.8703 33.6255C39.731 33.3135 40.6702 32.5455 41.4994 31.8687C41.7039 31.7023 41.8974 31.5439 42.0862 31.3935C42.102 31.3807 42.1208 31.3663 42.1429 31.3503C42.275 31.2527 42.5205 31.0719 42.4528 30.9119C42.4497 30.9039 42.4449 30.8959 42.4245 30.8895C42.2042 30.8191 41.4742 31.2383 40.9849 31.5391C40.8826 31.6047 40.7741 31.6719 40.6592 31.7423C40.6199 31.7663 40.5695 31.7535 40.5444 31.7135C40.5208 31.6735 40.5318 31.6223 40.5711 31.5967L40.5853 31.5871C40.6828 31.5247 40.7804 31.4639 40.8763 31.4047C42.6684 30.2655 42.6259 29.9679 42.6133 29.9359C42.6133 29.9327 42.6102 29.9247 42.5881 29.9199C42.3726 29.8639 41.6473 30.2287 41.0463 30.6127C40.8134 30.7791 40.5868 30.9439 40.3823 31.0927C40.3461 31.1199 40.2958 31.1119 40.2675 31.0767C40.2391 31.0415 40.2454 30.9887 40.2785 30.9599C40.4279 30.8303 40.6702 30.6527 40.9471 30.4751C41.0762 30.3823 41.2067 30.2895 41.3342 30.1983C41.6945 29.9407 42.0674 29.6735 42.3836 29.4415C42.4544 29.3903 42.489 29.2991 42.4984 29.2319C42.5063 29.1775 42.4984 29.1375 42.4859 29.1247C42.4686 29.1023 42.3411 29.0127 41.5686 29.4175C41.0651 29.6815 40.4578 30.0655 39.9292 30.4063C39.8914 30.4303 39.8411 30.4207 39.8159 30.3823C39.7907 30.3439 39.8002 30.2927 39.8364 30.2655C40.1274 30.0559 40.4861 29.7983 40.8464 29.5407C41.2083 29.2815 41.5702 29.0239 41.8628 28.8111C41.9352 28.7583 41.9792 28.6623 41.9903 28.5903C41.9981 28.5391 41.9903 28.5103 41.984 28.5023C41.9588 28.4767 41.8203 28.4623 41.7684 28.4799C40.8276 28.7903 39.5831 29.6143 38.7303 30.2831C38.7067 30.3023 38.6737 30.3055 38.6454 30.2943C38.617 30.2815 38.5982 30.2543 38.5966 30.2239V30.1999C38.5714 29.9295 38.5494 29.6751 39.0277 28.9599C39.152 28.7743 39.3738 28.2655 39.1897 28.1071C39.0922 28.0239 39.0088 28.0863 38.8058 28.3151C38.7759 28.3487 38.746 28.3823 38.7162 28.4159C38.3071 28.8559 37.9043 29.2911 37.4889 29.7903C36.9792 30.4031 36.8234 30.8591 36.674 31.2991C36.5261 31.7359 36.3845 32.1487 35.9109 32.6303C34.1189 34.4527 30.8605 36.8927 30.1808 37.0447H30.1824Z" fill="black"/>
<path d="M38.6281 32.4479C38.6045 32.4479 38.5809 32.4383 38.5636 32.4175C38.5337 32.3823 38.5384 32.3279 38.5746 32.2975C38.9538 31.9743 39.0938 31.4031 38.9081 30.9375C38.8719 30.8479 38.8279 30.7647 38.7791 30.6751C38.713 30.5519 38.6438 30.4255 38.6045 30.2847C38.5919 30.2399 38.6171 30.1919 38.6611 30.1791C38.7052 30.1663 38.7524 30.1919 38.765 30.2367C38.7996 30.3599 38.8609 30.4719 38.9254 30.5919C38.9742 30.6815 39.0246 30.7743 39.0623 30.8719C39.2747 31.4031 39.1142 32.0575 38.6816 32.4271C38.6658 32.4399 38.647 32.4463 38.6281 32.4463V32.4479Z" fill="black"/>
<path d="M28.178 42.1536C28.1639 42.1536 28.1529 42.144 28.1513 42.1296C27.9263 40.6672 28.1277 39.1168 28.7161 37.7632C28.7224 37.7488 28.7382 37.7424 28.7523 37.7488C28.7665 37.7552 28.7728 37.7712 28.7665 37.7856C28.1812 39.1296 27.983 40.6688 28.2048 42.12C28.2064 42.136 28.1969 42.1504 28.1812 42.152C28.1812 42.152 28.178 42.152 28.1765 42.152L28.178 42.1536Z" fill="black"/>
<path d="M27.5282 41.9151C27.5156 41.9151 27.5046 41.9071 27.5015 41.8943C27.3504 41.3759 27.3347 40.8223 27.4543 40.2959C27.4574 40.2799 27.4731 40.2719 27.4873 40.2751C27.503 40.2783 27.5109 40.2943 27.5077 40.3087C27.3897 40.8255 27.4055 41.3695 27.5534 41.8783C27.5581 41.8927 27.5487 41.9087 27.5345 41.9135C27.5313 41.9135 27.5298 41.9135 27.5266 41.9135L27.5282 41.9151Z" fill="black"/>
<path d="M9.62635 41.8879C12.2397 42.3375 14.8781 42.7551 17.515 43.1727C17.7558 43.1871 18.9484 43.2863 19.2441 43.3087C19.4943 43.3279 19.7445 43.2911 19.9899 43.2383C20.8426 43.0543 22.6598 42.7247 22.9824 43.0207C23.7769 43.4719 24.411 44.2751 24.8373 45.2063C25.0765 45.7295 25.1898 46.5295 25.0214 46.6239C24.9144 46.6831 24.7728 46.6863 24.6926 46.5791C24.4865 45.6111 23.9311 44.7247 23.157 44.1247C23.5079 44.4479 23.8194 44.8143 24.0837 45.2143C24.3512 45.6191 24.5777 46.0847 24.5494 46.5711C24.5478 46.6095 24.5416 46.6495 24.5164 46.6767C24.4534 46.7439 24.3449 46.6719 24.2867 46.5983C24.1734 46.4559 22.7244 44.5807 22.3845 44.5423C22.7873 44.8127 24.0711 46.4735 24.0475 46.6143C24.0365 46.6815 24.0082 46.7471 23.9563 46.7903C23.8855 46.8479 23.7816 46.8479 23.6967 46.8127C23.6117 46.7775 23.5441 46.7135 23.478 46.6495C23.0406 46.2191 22.663 45.7183 22.1658 45.3599C21.9172 45.1807 21.5978 45.0367 21.3162 45.1535C21.763 45.4543 22.1595 45.8351 22.4632 46.2815C22.512 46.3535 22.5481 46.4319 22.5717 46.5151C22.6079 46.6383 22.6394 46.8127 22.5356 46.8847C22.3656 47.0015 22.2665 46.9007 22.1642 46.8031C21.7646 46.3791 21.3414 46.0079 20.8836 45.6879C20.742 45.5887 20.5673 45.4895 20.4053 45.5503C20.2652 45.6015 19.5887 45.8399 18.3568 45.6223C17.9367 45.5487 17.5103 45.5663 16.9597 45.5919C9.68771 45.9311 7.47246 46.2255 5.97622 45.1183C5.68358 44.9023 5.61278 44.7023 5.84721 44.1615C6.47339 42.7151 6.94697 41.9199 9.62793 41.8895L9.62635 41.8879Z" fill="white"/>
<path d="M22.3925 47.0208C22.2714 47.0208 22.1817 46.9344 22.1141 46.8704L22.1062 46.864C21.6971 46.4304 21.2818 46.0688 20.8349 45.7568C20.7138 45.672 20.5596 45.5824 20.4322 45.6288C20.1867 45.7184 19.4897 45.9072 18.3412 45.7056C17.9195 45.632 17.4759 45.6528 16.9614 45.6768C15.9922 45.7216 15.1001 45.7664 14.3135 45.8064C9.02707 46.0736 7.24605 46.1632 5.92603 45.1856C5.5736 44.9248 5.53584 44.6672 5.77027 44.1264C6.40275 42.664 6.8952 41.8352 9.62651 41.8032C9.63123 41.8032 9.63595 41.8032 9.64067 41.8032C12.2933 42.2592 14.9522 42.68 17.5246 43.0864C17.7071 43.0976 18.3648 43.1504 18.8462 43.1904C19.0225 43.2048 19.1703 43.216 19.2506 43.2224C19.5118 43.2432 19.7729 43.1968 19.9727 43.1536C20.7657 42.9824 22.6427 42.6208 23.0297 42.9488C23.7959 43.3856 24.4473 44.1536 24.913 45.1696C25.1191 45.6192 25.3205 46.5536 25.0625 46.6976C24.9036 46.7872 24.7242 46.76 24.6267 46.6304C24.6204 46.6672 24.6062 46.704 24.5763 46.736C24.5417 46.7728 24.4961 46.7904 24.4473 46.7888C24.3592 46.7856 24.2727 46.7168 24.2223 46.6528C24.2129 46.6416 24.1956 46.6192 24.172 46.5888C24.1389 46.5456 24.1059 46.504 24.0729 46.464C24.1153 46.544 24.1342 46.5984 24.1279 46.6304C24.1106 46.728 24.0681 46.8064 24.0052 46.8576C23.9155 46.9296 23.7849 46.9424 23.6622 46.8912C23.5647 46.8512 23.4876 46.7792 23.4168 46.7104C23.2689 46.5648 23.1273 46.4112 22.9904 46.2624C22.7198 45.968 22.4397 45.664 22.1156 45.4288C21.9536 45.312 21.7349 45.1904 21.5225 45.1952C21.9253 45.4928 22.2651 45.84 22.531 46.232C22.5829 46.3088 22.6238 46.3968 22.6521 46.4896C22.6773 46.576 22.7528 46.8368 22.5829 46.9536C22.5121 47.0016 22.4492 47.0208 22.3941 47.0208H22.3925ZM20.5077 45.4464C20.6619 45.4464 20.8098 45.5344 20.9293 45.6176C21.3856 45.936 21.8088 46.3056 22.2226 46.744L22.2273 46.7472C22.3327 46.848 22.3815 46.8864 22.4869 46.8128C22.531 46.7824 22.5326 46.6848 22.4885 46.5376C22.4665 46.4608 22.4334 46.3904 22.391 46.328C22.1015 45.9024 21.7239 45.5296 21.266 45.2224C21.2409 45.2048 21.2267 45.1744 21.2298 45.1424C21.233 45.1104 21.2534 45.0848 21.2818 45.072C21.6137 44.936 21.9693 45.1136 22.2116 45.288C22.5499 45.5328 22.8362 45.8432 23.1115 46.144C23.2469 46.2912 23.3885 46.4448 23.5332 46.5872C23.5946 46.648 23.6559 46.704 23.7251 46.7328C23.7912 46.76 23.8605 46.7568 23.9014 46.7232C23.9297 46.7008 23.9501 46.6608 23.9611 46.6112C23.8982 46.4048 22.7151 44.8688 22.3375 44.6144C22.306 44.5936 22.2918 44.552 22.3044 44.5152C22.317 44.4784 22.3532 44.456 22.3925 44.4592C22.4791 44.4688 22.7418 44.4976 24.301 46.4832C24.3246 46.5136 24.3419 46.5344 24.3498 46.5456C24.3907 46.5968 24.441 46.6224 24.4552 46.6192C24.4567 46.616 24.463 46.6064 24.4646 46.5664C24.4866 46.176 24.3435 45.76 24.0131 45.2624C23.7519 44.8688 23.4451 44.5072 23.099 44.1888C23.0659 44.1584 23.0628 44.1072 23.0911 44.072C23.1194 44.0368 23.1698 44.032 23.2059 44.0592C23.9863 44.664 24.5559 45.568 24.7683 46.5424C24.8233 46.5984 24.9146 46.5872 24.9807 46.552C25.0672 46.4832 25.009 45.7872 24.7604 45.2448C24.3151 44.2736 23.6685 43.5104 22.9401 43.0976C22.9353 43.0944 22.929 43.0912 22.9243 43.0864C22.6852 42.8672 21.2865 43.048 20.0058 43.3248C19.7965 43.3696 19.5196 43.4192 19.2364 43.3968C19.1562 43.3904 19.0083 43.3792 18.8321 43.3648C18.3758 43.328 17.6851 43.272 17.5105 43.2608C17.5073 43.2608 17.5058 43.2608 17.5026 43.2608C14.9318 42.8544 12.2729 42.4336 9.62021 41.9776C6.99275 42.0096 6.54435 42.7616 5.92288 44.1984C5.69317 44.7296 5.78128 44.8736 6.02515 45.0528C7.29797 45.9952 9.06483 45.9056 14.3072 45.64C15.0938 45.6 15.9875 45.5552 16.9567 45.5104C17.4806 45.4864 17.9337 45.464 18.3727 45.5424C19.4819 45.7376 20.1458 45.56 20.3787 45.4736C20.4227 45.4576 20.4668 45.4512 20.5093 45.4512L20.5077 45.4464Z" fill="black"/>
</g>
<defs>
<clipPath id="clip0_1245_2452">
<rect width="96.3382" height="48" fill="white" transform="translate(0.5)"/>
</clipPath>
</defs>
</svg>
