<svg width="51" height="46" viewBox="0 0 51 46" fill="none" xmlns="http://www.w3.org/2000/svg">
<path d="M50.52 45.3448H0C1.61647 40.7354 5.08941 34.9895 8.26588 31.7071C8.38588 31.573 8.51999 31.4459 8.6541 31.3118C9.59999 30.4295 10.6659 29.6883 11.7953 29.0954C18.5365 25.5377 27.6 26.7377 27.6 26.7377C27.6 26.7377 29.8235 26.773 32.9506 27.7048C32.9506 27.7048 32.9718 27.7118 33.0141 27.7189C33.0494 27.733 33.1059 27.7542 33.1694 27.7754C36.2471 28.693 40.1576 30.493 43.6941 33.9377C44.16 34.3895 44.6188 34.8695 45.0706 35.3777C47.3929 38.0177 49.1788 41.6248 50.52 45.3448Z" fill="#EFB31D"/>
<path d="M28.8988 21.5078L28.687 27.8325C28.687 27.8325 27.3529 29.6325 23.2023 29.8866C20.1106 30.0772 19.0518 29.4419 19.0518 29.4419L19.5882 26.2443L20.1176 23.1243L27.6353 21.7408L28.8988 21.5078Z" fill="#F27E64"/>
<path d="M27.6348 21.7539C27.6136 21.9445 27.536 22.1704 27.416 22.4316C25.7572 25.9327 21.4089 26.5963 19.623 26.7163L20.1242 23.2292L27.6348 21.7539Z" fill="#071C2C"/>
<path d="M18.9033 7.06567C18.9033 7.06567 14.9927 15.8539 16.348 20.8163C17.7033 25.7786 22.2209 25.0304 24.9245 24.0916C27.628 23.1527 28.8986 21.508 28.8986 21.508C28.8986 21.508 31.4115 22.3833 33.1197 20.0468C34.8209 17.7104 33.8044 15.0139 32.3644 14.3857C30.9244 13.7574 29.2091 14.788 29.2091 14.788L30.5715 12.2327C30.5715 12.2327 25.0091 -0.826099 18.9103 7.06567H18.9033Z" fill="#F27E64"/>
<path d="M19.1721 17.5119C19.0239 17.5119 18.8827 17.4131 18.8333 17.2649C18.2192 15.2884 19.7015 13.9896 19.7651 13.9331C19.9133 13.806 20.1321 13.8202 20.2592 13.9684C20.3862 14.1166 20.3721 14.3355 20.2239 14.4625C20.1745 14.5049 19.0309 15.5284 19.5039 17.0531C19.5603 17.2366 19.4545 17.4343 19.2709 17.4978C19.2356 17.5119 19.2003 17.5119 19.165 17.5119H19.1721Z" fill="#071C2C"/>
<path d="M29.5838 18.9938C29.4991 18.9938 29.4074 18.9585 29.3438 18.895C29.2027 18.7609 29.1956 18.535 29.3297 18.3938L31.7227 15.8526C31.8568 15.7115 32.0827 15.7044 32.2239 15.8385C32.365 15.9726 32.3721 16.1985 32.238 16.3397L29.845 18.8809C29.7744 18.9515 29.6827 18.9938 29.5909 18.9938H29.5838Z" fill="#071C2C"/>
<path d="M32.1171 18.3102C32.1171 18.3102 32.0818 18.3102 32.0606 18.3102L30.4018 18.0561C30.2112 18.0279 30.0771 17.8443 30.1053 17.6537C30.1336 17.4632 30.3171 17.329 30.5077 17.3573L32.1665 17.6114C32.3571 17.6396 32.4912 17.8232 32.463 18.0137C32.4347 18.1902 32.2865 18.3173 32.1171 18.3173V18.3102Z" fill="#071C2C"/>
<path d="M23.1532 15.6839C23.1532 15.6839 23.125 15.6839 23.1108 15.6839C22.9202 15.6557 22.7791 15.4792 22.8073 15.2886L23.0967 13.0157C23.125 12.8251 23.3014 12.691 23.492 12.7122C23.6826 12.7404 23.8238 12.9169 23.7955 13.1075L23.5061 15.3804C23.485 15.5569 23.3297 15.691 23.1532 15.691V15.6839Z" fill="#071C2C"/>
<path d="M18.2686 15.2532C18.2686 15.2532 18.2333 15.2532 18.2192 15.2532C18.0286 15.225 17.8945 15.0485 17.9227 14.8508L18.2474 12.6203C18.2756 12.4297 18.4592 12.2885 18.6498 12.3238C18.8403 12.352 18.9745 12.5285 18.9462 12.7261L18.6215 14.9567C18.5933 15.1332 18.4451 15.2603 18.2756 15.2603L18.2686 15.2532Z" fill="#071C2C"/>
<path d="M24.7623 11.9075C24.6352 11.9075 24.5081 11.8369 24.4517 11.7169C24.0775 10.9899 23.0611 11.1946 23.0187 11.2016C22.8352 11.2369 22.6375 11.1169 22.6023 10.9263C22.5599 10.7357 22.6799 10.5522 22.8705 10.5099C22.934 10.4957 24.4587 10.1852 25.0799 11.3922C25.1717 11.5687 25.1011 11.7805 24.9246 11.8652C24.8752 11.8934 24.8187 11.9075 24.7623 11.9075Z" fill="#071C2C"/>
<path d="M19.9974 10.8904C19.8845 10.8904 19.7715 10.834 19.708 10.7351C19.5668 10.5304 19.4115 10.4245 19.2209 10.3963C18.8327 10.3469 18.3527 10.6716 18.2045 10.7987C18.0562 10.9257 17.8374 10.9116 17.7033 10.7634C17.5762 10.6151 17.5904 10.3963 17.7315 10.2692C17.8092 10.1987 18.5221 9.59866 19.2986 9.69749C19.6939 9.7469 20.0327 9.96572 20.2868 10.3398C20.3998 10.5022 20.3574 10.721 20.1951 10.8269C20.1315 10.8692 20.068 10.8904 19.9974 10.8904Z" fill="#071C2C"/>
<path d="M29.2094 14.7875C29.2094 14.7875 28.8 16.8487 27.6353 16.1004C26.4706 15.3522 29.2094 11.5546 29.2094 11.5546C29.2094 11.5546 26.0047 12.6699 24.0071 10.044C22.0094 7.41809 22.9412 5.76633 22.9412 5.76633L18.48 8.10985C18.48 8.10985 17.5483 2.82279 19.1153 1.81338C20.6824 0.803971 23.3365 1.81338 23.3365 1.81338C23.3365 1.81338 23.1741 -0.459559 27.6353 0.0839706C32.0965 0.634559 31.9765 5.26514 31.9765 5.26514C31.9765 5.26514 34.913 5.13103 35.9012 7.76397C36.8965 10.3899 35.0753 12.4228 35.0753 12.4228C35.0753 12.4228 37.1577 12.8887 36.1977 14.7028C35.2377 16.5099 34.0024 17.371 34.0024 17.371C34.0024 17.371 33.4236 13.5522 29.2024 14.7875H29.2094Z" fill="#071C2C"/>
<path d="M23.4434 22.725C22.3634 22.725 21.2128 22.5767 20.0128 22.2167C19.8293 22.1603 19.7234 21.9626 19.7799 21.7791C19.8363 21.5955 20.034 21.4826 20.2175 21.5461C25.7304 23.2261 30.4387 19.8661 30.4881 19.8308C30.6434 19.7179 30.8693 19.7532 30.9822 19.9085C31.0951 20.0638 31.0599 20.2897 30.9046 20.4026C30.7422 20.5226 27.6504 22.732 23.4434 22.732V22.725Z" fill="#071C2C"/>
<path d="M50.6335 45.3451H29.5488L32.9512 27.7051C32.9512 27.7051 32.9724 27.7121 33.0147 27.7192C33.6006 27.9239 38.5065 29.6251 43.6947 33.938C45.1841 35.1733 49.7159 42.938 50.6335 45.3451Z" fill="#EFB31D"/>
<path d="M20.4845 20.2088C20.2656 20.2088 20.1104 20.0394 20.1174 19.8418C20.1174 19.6512 20.2798 19.4747 20.4774 19.5029C20.5268 19.5029 21.7127 19.5171 22.6727 18.4088C22.7998 18.2606 23.0256 18.2465 23.1739 18.3735C23.3221 18.5006 23.3362 18.7265 23.2092 18.8747C22.1009 20.1665 20.7104 20.2159 20.4915 20.2159L20.4845 20.2088Z" fill="#071C2C"/>
</svg>
