<svg width="40" height="40" viewBox="0 0 40 40" fill="none" xmlns="http://www.w3.org/2000/svg">
<g id="public">
<mask id="mask0_1049_168" style="mask-type:alpha" maskUnits="userSpaceOnUse" x="0" y="0" width="40" height="40">
<rect id="Bounding box" width="40" height="40" fill="#D9D9D9"/>
</mask>
<g mask="url(#mask0_1049_168)">
<path id="public_2" d="M20.0031 35.8333C17.8132 35.8333 15.7548 35.4177 13.8279 34.5866C11.901 33.7555 10.2249 32.6276 8.79949 31.2029C7.3741 29.7781 6.24567 28.1027 5.4142 26.1766C4.58273 24.2506 4.16699 22.1927 4.16699 20.0028C4.16699 17.8129 4.58255 15.7545 5.41366 13.8276C6.24477 11.9007 7.37269 10.2246 8.79741 8.79919C10.2222 7.3738 11.8976 6.24537 13.8236 5.4139C15.7496 4.58242 17.8076 4.16669 19.9975 4.16669C22.1874 4.16669 24.2458 4.58224 26.1727 5.41336C28.0996 6.24447 29.7757 7.37238 31.2011 8.7971C32.6265 10.2219 33.7549 11.8973 34.5864 13.8233C35.4178 15.7493 35.8336 17.8073 35.8336 19.9972C35.8336 22.1871 35.418 24.2455 34.5869 26.1724C33.7558 28.0993 32.6279 29.7754 31.2032 31.2008C29.7784 32.6262 28.103 33.7546 26.177 34.5861C24.2509 35.4175 22.193 35.8333 20.0031 35.8333ZM18.2717 33.6731V30.344C17.3238 30.344 16.521 30.0016 15.8631 29.3168C15.2053 28.6319 14.8764 27.8162 14.8764 26.8696V25.1239L6.61141 16.8589C6.50527 17.3817 6.42033 17.9037 6.35658 18.4249C6.29283 18.9461 6.26095 19.4719 6.26095 20.0024C6.26095 23.4858 7.39895 26.531 9.67495 29.1378C11.951 31.7446 14.8165 33.2564 18.2717 33.6731ZM30.1435 29.2991C30.7218 28.6652 31.236 27.9844 31.6862 27.2567C32.1363 26.5291 32.5153 25.7693 32.8232 24.9774C33.131 24.1856 33.3607 23.3732 33.5123 22.5402C33.6638 21.7072 33.7396 20.8604 33.7396 20C33.7396 17.1643 32.9618 14.5796 31.4063 12.2461C29.8507 9.91248 27.7624 8.21934 25.1413 7.16665V7.91394C25.1413 8.85805 24.8124 9.67252 24.1545 10.3574C23.4967 11.0422 22.6938 11.3846 21.746 11.3846H18.2717V14.8589C18.2717 15.3342 18.0988 15.7279 17.753 16.0402C17.4071 16.3524 16.9994 16.5085 16.5297 16.5085H13.1306V20H23.4917C23.967 20 24.3607 20.17 24.673 20.5101C24.9852 20.8502 25.1413 21.2564 25.1413 21.7286V26.8696H26.8654C27.632 26.8696 28.3147 27.0949 28.9135 27.5453C29.5124 27.9958 29.9224 28.5804 30.1435 29.2991Z" fill="#071C2C"/>
</g>
</g>
</svg>
