<svg width="33" height="32" viewBox="0 0 33 32" fill="none" xmlns="http://www.w3.org/2000/svg">
<path d="M12.4578 24.1303C20.0053 24.1303 24.1328 17.8752 24.1328 12.4509C24.1328 12.2733 24.1292 12.0965 24.1211 11.9204C24.9243 11.339 25.6174 10.6192 26.168 9.79475C25.4327 10.1217 24.6415 10.3418 23.8115 10.4411C24.6587 9.93288 25.3091 9.12894 25.616 8.17065C24.8105 8.64865 23.9293 8.98562 23.0104 9.16703C22.2616 8.36914 21.1956 7.87012 20.0152 7.87012C17.7491 7.87012 15.9116 9.70841 15.9116 11.9744C15.9116 12.2965 15.9476 12.6098 16.0181 12.9104C12.6077 12.7387 9.58362 11.1053 7.55976 8.62158C7.19524 9.24802 7.00351 9.95998 7.00415 10.6848C7.00415 12.1089 7.72854 13.3661 8.83016 14.1016C8.17854 14.0817 7.54122 13.9056 6.97179 13.5882C6.97118 13.6054 6.97118 13.6222 6.97118 13.6406C6.97118 15.6286 8.38557 17.2884 10.2631 17.6645C9.9105 17.7605 9.54662 17.8091 9.18114 17.8089C8.9172 17.8089 8.65996 17.7829 8.40996 17.7349C8.93236 19.3659 10.4472 20.5528 12.2431 20.5859C10.8387 21.6871 9.06955 22.343 7.14675 22.343C6.81966 22.3433 6.49283 22.3243 6.16797 22.2861C7.98398 23.4506 10.1401 24.1303 12.4578 24.1303Z" fill="white"/>
</svg>
