<svg width="40" height="40" viewBox="0 0 40 40" fill="none" xmlns="http://www.w3.org/2000/svg">
<g id="work">
<mask id="mask0_1063_918" style="mask-type:alpha" maskUnits="userSpaceOnUse" x="0" y="0" width="40" height="40">
<rect id="Bounding box" width="40" height="40" fill="#D9D9D9"/>
</mask>
<g mask="url(#mask0_1063_918)">
<path id="work_2" d="M6.77383 34.1666C6.05749 34.1666 5.44394 33.9112 4.93316 33.4005C4.42238 32.8897 4.16699 32.2761 4.16699 31.5598V13.4402C4.16699 12.7239 4.42238 12.1103 4.93316 11.5995C5.44394 11.0888 6.05749 10.8334 6.77383 10.8334H14.167V7.60691C14.167 6.89058 14.4224 6.27704 14.9332 5.76629C15.4439 5.25551 16.0575 5.00012 16.7738 5.00012H23.2267C23.9431 5.00012 24.5566 5.25551 25.0674 5.76629C25.5782 6.27704 25.8336 6.89058 25.8336 7.60691V10.8334H33.2267C33.9431 10.8334 34.5566 11.0888 35.0674 11.5995C35.5782 12.1103 35.8336 12.7239 35.8336 13.4402V31.5598C35.8336 32.2761 35.5782 32.8897 35.0674 33.4005C34.5566 33.9112 33.9431 34.1666 33.2267 34.1666H6.77383ZM6.77383 32.0727H33.2267C33.355 32.0727 33.4725 32.0192 33.5793 31.9124C33.6862 31.8055 33.7396 31.688 33.7396 31.5598V13.4402C33.7396 13.312 33.6862 13.1945 33.5793 13.0876C33.4725 12.9808 33.355 12.9273 33.2267 12.9273H6.77383C6.6456 12.9273 6.52808 12.9808 6.42124 13.0876C6.31438 13.1945 6.26095 13.312 6.26095 13.4402V31.5598C6.26095 31.688 6.31438 31.8055 6.42124 31.9124C6.52808 32.0192 6.6456 32.0727 6.77383 32.0727ZM16.261 10.8334H23.7396V7.60691C23.7396 7.47872 23.6862 7.36119 23.5793 7.25433C23.4725 7.1475 23.355 7.09408 23.2267 7.09408H16.7738C16.6456 7.09408 16.5281 7.1475 16.4212 7.25433C16.3144 7.36119 16.261 7.47872 16.261 7.60691V10.8334Z" fill="#071C2C"/>
</g>
</g>
</svg>
